G04 #@! TF.GenerationSoftware,KiCad,Pcbnew,(5.1.6)-1*
G04 #@! TF.CreationDate,2023-08-05T22:02:59+03:00*
G04 #@! TF.ProjectId,STM32F4_REV2,53544d33-3246-4345-9f52-4556322e6b69,rev?*
G04 #@! TF.SameCoordinates,Original*
G04 #@! TF.FileFunction,Soldermask,Bot*
G04 #@! TF.FilePolarity,Negative*
%FSLAX46Y46*%
G04 Gerber Fmt 4.6, Leading zero omitted, Abs format (unit mm)*
G04 Created by KiCad (PCBNEW (5.1.6)-1) date 2023-08-05 22:02:59*
%MOMM*%
%LPD*%
G01*
G04 APERTURE LIST*
%ADD10C,0.100000*%
G04 APERTURE END LIST*
D10*
G36*
X158048156Y-94922794D02*
G01*
X158769140Y-95066206D01*
X159560972Y-95394193D01*
X160273601Y-95870357D01*
X160879643Y-96476399D01*
X161355807Y-97189028D01*
X161683794Y-97980860D01*
X161851000Y-98821464D01*
X161851000Y-99678536D01*
X161683794Y-100519140D01*
X161355807Y-101310972D01*
X160879643Y-102023601D01*
X160273601Y-102629643D01*
X159560972Y-103105807D01*
X158769140Y-103433794D01*
X158048156Y-103577206D01*
X157928537Y-103601000D01*
X157071463Y-103601000D01*
X156951844Y-103577206D01*
X156230860Y-103433794D01*
X155439028Y-103105807D01*
X154726399Y-102629643D01*
X154120357Y-102023601D01*
X153644193Y-101310972D01*
X153316206Y-100519140D01*
X153149000Y-99678536D01*
X153149000Y-98821464D01*
X153316206Y-97980860D01*
X153644193Y-97189028D01*
X154120357Y-96476399D01*
X154726399Y-95870357D01*
X155439028Y-95394193D01*
X156230860Y-95066206D01*
X156951844Y-94922794D01*
X157071463Y-94899000D01*
X157928537Y-94899000D01*
X158048156Y-94922794D01*
G37*
G36*
X111798156Y-94922794D02*
G01*
X112519140Y-95066206D01*
X113310972Y-95394193D01*
X114023601Y-95870357D01*
X114629643Y-96476399D01*
X115105807Y-97189028D01*
X115433794Y-97980860D01*
X115601000Y-98821464D01*
X115601000Y-99678536D01*
X115433794Y-100519140D01*
X115105807Y-101310972D01*
X114629643Y-102023601D01*
X114023601Y-102629643D01*
X113310972Y-103105807D01*
X112519140Y-103433794D01*
X111798156Y-103577206D01*
X111678537Y-103601000D01*
X110821463Y-103601000D01*
X110701844Y-103577206D01*
X109980860Y-103433794D01*
X109189028Y-103105807D01*
X108476399Y-102629643D01*
X107870357Y-102023601D01*
X107394193Y-101310972D01*
X107066206Y-100519140D01*
X106899000Y-99678536D01*
X106899000Y-98821464D01*
X107066206Y-97980860D01*
X107394193Y-97189028D01*
X107870357Y-96476399D01*
X108476399Y-95870357D01*
X109189028Y-95394193D01*
X109980860Y-95066206D01*
X110701844Y-94922794D01*
X110821463Y-94899000D01*
X111678537Y-94899000D01*
X111798156Y-94922794D01*
G37*
G36*
X125538409Y-97530525D02*
G01*
X125623425Y-97556314D01*
X125701774Y-97598193D01*
X125770449Y-97654552D01*
X125826807Y-97723225D01*
X125868686Y-97801574D01*
X125894475Y-97886590D01*
X125901000Y-97952842D01*
X125901000Y-98497158D01*
X125894475Y-98563410D01*
X125868686Y-98648426D01*
X125826807Y-98726775D01*
X125770449Y-98795449D01*
X125701775Y-98851807D01*
X125623426Y-98893686D01*
X125538410Y-98919475D01*
X125450000Y-98928182D01*
X125361591Y-98919475D01*
X125276575Y-98893686D01*
X125198226Y-98851807D01*
X125129552Y-98795449D01*
X125073195Y-98726776D01*
X125031313Y-98648423D01*
X125005525Y-98563410D01*
X124999000Y-98497158D01*
X124999000Y-97952843D01*
X125005525Y-97886591D01*
X125031314Y-97801575D01*
X125073193Y-97723226D01*
X125129552Y-97654551D01*
X125198225Y-97598193D01*
X125276574Y-97556314D01*
X125361590Y-97530525D01*
X125450000Y-97521818D01*
X125538409Y-97530525D01*
G37*
G36*
X128038409Y-97530525D02*
G01*
X128123425Y-97556314D01*
X128201774Y-97598193D01*
X128270449Y-97654552D01*
X128326807Y-97723225D01*
X128368686Y-97801574D01*
X128394475Y-97886590D01*
X128401000Y-97952842D01*
X128401000Y-98497158D01*
X128394475Y-98563410D01*
X128368686Y-98648426D01*
X128326807Y-98726775D01*
X128270449Y-98795449D01*
X128201775Y-98851807D01*
X128123426Y-98893686D01*
X128038410Y-98919475D01*
X127950000Y-98928182D01*
X127861591Y-98919475D01*
X127776575Y-98893686D01*
X127698226Y-98851807D01*
X127629552Y-98795449D01*
X127573195Y-98726776D01*
X127531313Y-98648423D01*
X127505525Y-98563410D01*
X127499000Y-98497158D01*
X127499000Y-97952843D01*
X127505525Y-97886591D01*
X127531314Y-97801575D01*
X127573193Y-97723226D01*
X127629552Y-97654551D01*
X127698225Y-97598193D01*
X127776574Y-97556314D01*
X127861590Y-97530525D01*
X127950000Y-97521818D01*
X128038409Y-97530525D01*
G37*
G36*
X126788409Y-97530525D02*
G01*
X126873425Y-97556314D01*
X126951774Y-97598193D01*
X127020449Y-97654552D01*
X127076807Y-97723225D01*
X127118686Y-97801574D01*
X127144475Y-97886590D01*
X127151000Y-97952842D01*
X127151000Y-98497158D01*
X127144475Y-98563410D01*
X127118686Y-98648426D01*
X127076807Y-98726775D01*
X127020449Y-98795449D01*
X126951775Y-98851807D01*
X126873426Y-98893686D01*
X126788410Y-98919475D01*
X126700000Y-98928182D01*
X126611591Y-98919475D01*
X126526575Y-98893686D01*
X126448226Y-98851807D01*
X126379552Y-98795449D01*
X126323195Y-98726776D01*
X126281313Y-98648423D01*
X126255525Y-98563410D01*
X126249000Y-98497158D01*
X126249000Y-97952843D01*
X126255525Y-97886591D01*
X126281314Y-97801575D01*
X126323193Y-97723226D01*
X126379552Y-97654551D01*
X126448225Y-97598193D01*
X126526574Y-97556314D01*
X126611590Y-97530525D01*
X126700000Y-97521818D01*
X126788409Y-97530525D01*
G37*
G36*
X124519683Y-97527725D02*
G01*
X124550143Y-97536966D01*
X124578223Y-97551974D01*
X124602831Y-97572169D01*
X124623026Y-97596777D01*
X124638034Y-97624857D01*
X124647275Y-97655317D01*
X124651000Y-97693140D01*
X124651000Y-98756860D01*
X124647275Y-98794683D01*
X124638034Y-98825143D01*
X124623026Y-98853223D01*
X124602831Y-98877831D01*
X124578223Y-98898026D01*
X124550143Y-98913034D01*
X124519683Y-98922275D01*
X124481860Y-98926000D01*
X123918140Y-98926000D01*
X123880317Y-98922275D01*
X123849857Y-98913034D01*
X123821777Y-98898026D01*
X123797169Y-98877831D01*
X123776974Y-98853223D01*
X123761966Y-98825143D01*
X123752725Y-98794683D01*
X123749000Y-98756860D01*
X123749000Y-97693140D01*
X123752725Y-97655317D01*
X123761966Y-97624857D01*
X123776974Y-97596777D01*
X123797169Y-97572169D01*
X123821777Y-97551974D01*
X123849857Y-97536966D01*
X123880317Y-97527725D01*
X123918140Y-97524000D01*
X124481860Y-97524000D01*
X124519683Y-97527725D01*
G37*
G36*
X157851000Y-91601000D02*
G01*
X155149000Y-91601000D01*
X155149000Y-88899000D01*
X157851000Y-88899000D01*
X157851000Y-91601000D01*
G37*
G36*
X156894072Y-83950918D02*
G01*
X157139939Y-84052759D01*
X157361212Y-84200610D01*
X157549390Y-84388788D01*
X157697241Y-84610061D01*
X157799082Y-84855928D01*
X157851000Y-85116938D01*
X157851000Y-85383062D01*
X157799082Y-85644072D01*
X157697241Y-85889939D01*
X157549390Y-86111212D01*
X157361212Y-86299390D01*
X157139939Y-86447241D01*
X157139938Y-86447242D01*
X157139937Y-86447242D01*
X156894072Y-86549082D01*
X156633063Y-86601000D01*
X156366937Y-86601000D01*
X156105928Y-86549082D01*
X155860063Y-86447242D01*
X155860062Y-86447242D01*
X155860061Y-86447241D01*
X155638788Y-86299390D01*
X155450610Y-86111212D01*
X155302759Y-85889939D01*
X155200918Y-85644072D01*
X155149000Y-85383062D01*
X155149000Y-85116938D01*
X155200918Y-84855928D01*
X155302759Y-84610061D01*
X155450610Y-84388788D01*
X155638788Y-84200610D01*
X155860061Y-84052759D01*
X156105928Y-83950918D01*
X156366937Y-83899000D01*
X156633063Y-83899000D01*
X156894072Y-83950918D01*
G37*
G36*
X159237916Y-73607334D02*
G01*
X159346492Y-73640271D01*
X159346495Y-73640272D01*
X159382601Y-73659571D01*
X159446557Y-73693756D01*
X159534264Y-73765736D01*
X159606244Y-73853443D01*
X159640429Y-73917399D01*
X159659728Y-73953505D01*
X159659729Y-73953508D01*
X159692666Y-74062084D01*
X159703787Y-74175000D01*
X159692666Y-74287916D01*
X159659729Y-74396492D01*
X159659728Y-74396495D01*
X159640429Y-74432601D01*
X159606244Y-74496557D01*
X159534264Y-74584264D01*
X159446557Y-74656244D01*
X159382601Y-74690429D01*
X159346495Y-74709728D01*
X159346492Y-74709729D01*
X159237916Y-74742666D01*
X159153298Y-74751000D01*
X158246702Y-74751000D01*
X158162084Y-74742666D01*
X158053508Y-74709729D01*
X158053505Y-74709728D01*
X158017399Y-74690429D01*
X157953443Y-74656244D01*
X157865736Y-74584264D01*
X157793756Y-74496557D01*
X157759571Y-74432601D01*
X157740272Y-74396495D01*
X157740271Y-74396492D01*
X157707334Y-74287916D01*
X157696213Y-74175000D01*
X157707334Y-74062084D01*
X157740271Y-73953508D01*
X157740272Y-73953505D01*
X157759571Y-73917399D01*
X157793756Y-73853443D01*
X157865736Y-73765736D01*
X157953443Y-73693756D01*
X158017399Y-73659571D01*
X158053505Y-73640272D01*
X158053508Y-73640271D01*
X158162084Y-73607334D01*
X158246702Y-73599000D01*
X159153298Y-73599000D01*
X159237916Y-73607334D01*
G37*
G36*
X108517740Y-71258627D02*
G01*
X108566136Y-71268253D01*
X108603902Y-71283896D01*
X108657311Y-71306019D01*
X108657312Y-71306020D01*
X108739369Y-71360848D01*
X108809152Y-71430631D01*
X108809153Y-71430633D01*
X108863981Y-71512689D01*
X108901747Y-71603865D01*
X108921000Y-71700655D01*
X108921000Y-71799345D01*
X108901747Y-71896135D01*
X108863981Y-71987311D01*
X108863980Y-71987312D01*
X108809152Y-72069369D01*
X108739369Y-72139152D01*
X108698062Y-72166752D01*
X108657311Y-72193981D01*
X108603902Y-72216104D01*
X108566136Y-72231747D01*
X108517740Y-72241374D01*
X108469345Y-72251000D01*
X108370655Y-72251000D01*
X108322260Y-72241374D01*
X108273864Y-72231747D01*
X108236098Y-72216104D01*
X108182689Y-72193981D01*
X108141938Y-72166752D01*
X108100631Y-72139152D01*
X108030848Y-72069369D01*
X107976020Y-71987312D01*
X107976019Y-71987311D01*
X107938253Y-71896135D01*
X107919000Y-71799345D01*
X107919000Y-71700655D01*
X107938253Y-71603865D01*
X107976019Y-71512689D01*
X108030847Y-71430633D01*
X108030848Y-71430631D01*
X108100631Y-71360848D01*
X108182688Y-71306020D01*
X108182689Y-71306019D01*
X108236098Y-71283896D01*
X108273864Y-71268253D01*
X108322260Y-71258627D01*
X108370655Y-71249000D01*
X108469345Y-71249000D01*
X108517740Y-71258627D01*
G37*
G36*
X108517740Y-68258626D02*
G01*
X108566136Y-68268253D01*
X108603902Y-68283896D01*
X108657311Y-68306019D01*
X108657312Y-68306020D01*
X108739369Y-68360848D01*
X108809152Y-68430631D01*
X108809153Y-68430633D01*
X108863981Y-68512689D01*
X108901747Y-68603865D01*
X108921000Y-68700655D01*
X108921000Y-68799345D01*
X108901747Y-68896135D01*
X108863981Y-68987311D01*
X108863980Y-68987312D01*
X108809152Y-69069369D01*
X108739369Y-69139152D01*
X108698062Y-69166752D01*
X108657311Y-69193981D01*
X108603902Y-69216104D01*
X108566136Y-69231747D01*
X108517740Y-69241373D01*
X108469345Y-69251000D01*
X108370655Y-69251000D01*
X108322260Y-69241373D01*
X108273864Y-69231747D01*
X108236098Y-69216104D01*
X108182689Y-69193981D01*
X108141938Y-69166752D01*
X108100631Y-69139152D01*
X108030848Y-69069369D01*
X107976020Y-68987312D01*
X107976019Y-68987311D01*
X107938253Y-68896135D01*
X107919000Y-68799345D01*
X107919000Y-68700655D01*
X107938253Y-68603865D01*
X107976019Y-68512689D01*
X108030847Y-68430633D01*
X108030848Y-68430631D01*
X108100631Y-68360848D01*
X108182688Y-68306020D01*
X108182689Y-68306019D01*
X108236098Y-68283896D01*
X108273864Y-68268253D01*
X108322260Y-68258626D01*
X108370655Y-68249000D01*
X108469345Y-68249000D01*
X108517740Y-68258626D01*
G37*
G36*
X159237916Y-66457334D02*
G01*
X159346492Y-66490271D01*
X159346495Y-66490272D01*
X159382601Y-66509571D01*
X159446557Y-66543756D01*
X159534264Y-66615736D01*
X159606244Y-66703443D01*
X159640429Y-66767399D01*
X159659728Y-66803505D01*
X159659729Y-66803508D01*
X159692666Y-66912084D01*
X159703787Y-67025000D01*
X159692666Y-67137916D01*
X159659729Y-67246492D01*
X159659728Y-67246495D01*
X159640429Y-67282601D01*
X159606244Y-67346557D01*
X159534264Y-67434264D01*
X159446557Y-67506244D01*
X159382601Y-67540429D01*
X159346495Y-67559728D01*
X159346492Y-67559729D01*
X159237916Y-67592666D01*
X159153298Y-67601000D01*
X158246702Y-67601000D01*
X158162084Y-67592666D01*
X158053508Y-67559729D01*
X158053505Y-67559728D01*
X158017399Y-67540429D01*
X157953443Y-67506244D01*
X157865736Y-67434264D01*
X157793756Y-67346557D01*
X157759571Y-67282601D01*
X157740272Y-67246495D01*
X157740271Y-67246492D01*
X157707334Y-67137916D01*
X157696213Y-67025000D01*
X157707334Y-66912084D01*
X157740271Y-66803508D01*
X157740272Y-66803505D01*
X157759571Y-66767399D01*
X157793756Y-66703443D01*
X157865736Y-66615736D01*
X157953443Y-66543756D01*
X158017399Y-66509571D01*
X158053505Y-66490272D01*
X158053508Y-66490271D01*
X158162084Y-66457334D01*
X158246702Y-66449000D01*
X159153298Y-66449000D01*
X159237916Y-66457334D01*
G37*
G36*
X158048156Y-54672794D02*
G01*
X158769140Y-54816206D01*
X159560972Y-55144193D01*
X160273601Y-55620357D01*
X160879643Y-56226399D01*
X161355807Y-56939028D01*
X161683794Y-57730860D01*
X161851000Y-58571464D01*
X161851000Y-59428536D01*
X161683794Y-60269140D01*
X161355807Y-61060972D01*
X160879643Y-61773601D01*
X160273601Y-62379643D01*
X159560972Y-62855807D01*
X158769140Y-63183794D01*
X158048156Y-63327206D01*
X157928537Y-63351000D01*
X157071463Y-63351000D01*
X156951844Y-63327206D01*
X156230860Y-63183794D01*
X155439028Y-62855807D01*
X154726399Y-62379643D01*
X154120357Y-61773601D01*
X153644193Y-61060972D01*
X153316206Y-60269140D01*
X153149000Y-59428536D01*
X153149000Y-58571464D01*
X153316206Y-57730860D01*
X153644193Y-56939028D01*
X154120357Y-56226399D01*
X154726399Y-55620357D01*
X155439028Y-55144193D01*
X156230860Y-54816206D01*
X156951844Y-54672794D01*
X157071463Y-54649000D01*
X157928537Y-54649000D01*
X158048156Y-54672794D01*
G37*
G36*
X111798156Y-54422794D02*
G01*
X112519140Y-54566206D01*
X113310972Y-54894193D01*
X114023601Y-55370357D01*
X114629643Y-55976399D01*
X115105807Y-56689028D01*
X115433794Y-57480860D01*
X115601000Y-58321464D01*
X115601000Y-59178536D01*
X115433794Y-60019140D01*
X115105807Y-60810972D01*
X114629643Y-61523601D01*
X114023601Y-62129643D01*
X113310972Y-62605807D01*
X112519140Y-62933794D01*
X111798156Y-63077206D01*
X111678537Y-63101000D01*
X110821463Y-63101000D01*
X110701844Y-63077206D01*
X109980860Y-62933794D01*
X109189028Y-62605807D01*
X108476399Y-62129643D01*
X107870357Y-61523601D01*
X107394193Y-60810972D01*
X107066206Y-60019140D01*
X106899000Y-59178536D01*
X106899000Y-58321464D01*
X107066206Y-57480860D01*
X107394193Y-56689028D01*
X107870357Y-55976399D01*
X108476399Y-55370357D01*
X109189028Y-54894193D01*
X109980860Y-54566206D01*
X110701844Y-54422794D01*
X110821463Y-54399000D01*
X111678537Y-54399000D01*
X111798156Y-54422794D01*
G37*
G36*
X125838410Y-59305525D02*
G01*
X125923426Y-59331314D01*
X126001775Y-59373193D01*
X126070449Y-59429551D01*
X126126807Y-59498225D01*
X126168686Y-59576574D01*
X126194475Y-59661590D01*
X126201000Y-59727842D01*
X126201000Y-60272158D01*
X126194475Y-60338410D01*
X126168686Y-60423426D01*
X126126807Y-60501775D01*
X126070449Y-60570448D01*
X126001774Y-60626807D01*
X125923425Y-60668686D01*
X125838409Y-60694475D01*
X125750000Y-60703182D01*
X125661590Y-60694475D01*
X125576574Y-60668686D01*
X125498225Y-60626807D01*
X125429552Y-60570449D01*
X125373193Y-60501774D01*
X125331314Y-60423425D01*
X125305525Y-60338409D01*
X125299000Y-60272157D01*
X125299000Y-59727842D01*
X125305525Y-59661590D01*
X125331313Y-59576577D01*
X125373195Y-59498224D01*
X125429552Y-59429551D01*
X125498226Y-59373193D01*
X125576575Y-59331314D01*
X125661591Y-59305525D01*
X125750000Y-59296818D01*
X125838410Y-59305525D01*
G37*
G36*
X124588410Y-59305525D02*
G01*
X124673426Y-59331314D01*
X124751775Y-59373193D01*
X124820449Y-59429551D01*
X124876807Y-59498225D01*
X124918686Y-59576574D01*
X124944475Y-59661590D01*
X124951000Y-59727842D01*
X124951000Y-60272158D01*
X124944475Y-60338410D01*
X124918686Y-60423426D01*
X124876807Y-60501775D01*
X124820449Y-60570448D01*
X124751774Y-60626807D01*
X124673425Y-60668686D01*
X124588409Y-60694475D01*
X124500000Y-60703182D01*
X124411590Y-60694475D01*
X124326574Y-60668686D01*
X124248225Y-60626807D01*
X124179552Y-60570449D01*
X124123193Y-60501774D01*
X124081314Y-60423425D01*
X124055525Y-60338409D01*
X124049000Y-60272157D01*
X124049000Y-59727842D01*
X124055525Y-59661590D01*
X124081313Y-59576577D01*
X124123195Y-59498224D01*
X124179552Y-59429551D01*
X124248226Y-59373193D01*
X124326575Y-59331314D01*
X124411591Y-59305525D01*
X124500000Y-59296818D01*
X124588410Y-59305525D01*
G37*
G36*
X123338410Y-59305525D02*
G01*
X123423426Y-59331314D01*
X123501775Y-59373193D01*
X123570449Y-59429551D01*
X123626807Y-59498225D01*
X123668686Y-59576574D01*
X123694475Y-59661590D01*
X123701000Y-59727842D01*
X123701000Y-60272158D01*
X123694475Y-60338410D01*
X123668686Y-60423426D01*
X123626807Y-60501775D01*
X123570449Y-60570448D01*
X123501774Y-60626807D01*
X123423425Y-60668686D01*
X123338409Y-60694475D01*
X123250000Y-60703182D01*
X123161590Y-60694475D01*
X123076574Y-60668686D01*
X122998225Y-60626807D01*
X122929552Y-60570449D01*
X122873193Y-60501774D01*
X122831314Y-60423425D01*
X122805525Y-60338409D01*
X122799000Y-60272157D01*
X122799000Y-59727842D01*
X122805525Y-59661590D01*
X122831313Y-59576577D01*
X122873195Y-59498224D01*
X122929552Y-59429551D01*
X122998226Y-59373193D01*
X123076575Y-59331314D01*
X123161591Y-59305525D01*
X123250000Y-59296818D01*
X123338410Y-59305525D01*
G37*
G36*
X127319683Y-59302725D02*
G01*
X127350143Y-59311966D01*
X127378223Y-59326974D01*
X127402831Y-59347169D01*
X127423026Y-59371777D01*
X127438034Y-59399857D01*
X127447275Y-59430317D01*
X127451000Y-59468140D01*
X127451000Y-60531860D01*
X127447275Y-60569683D01*
X127438034Y-60600143D01*
X127423026Y-60628223D01*
X127402831Y-60652831D01*
X127378223Y-60673026D01*
X127350143Y-60688034D01*
X127319683Y-60697275D01*
X127281860Y-60701000D01*
X126718140Y-60701000D01*
X126680317Y-60697275D01*
X126649857Y-60688034D01*
X126621777Y-60673026D01*
X126597169Y-60652831D01*
X126576974Y-60628223D01*
X126561966Y-60600143D01*
X126552725Y-60569683D01*
X126549000Y-60531860D01*
X126549000Y-59468140D01*
X126552725Y-59430317D01*
X126561966Y-59399857D01*
X126576974Y-59371777D01*
X126597169Y-59347169D01*
X126621777Y-59326974D01*
X126649857Y-59311966D01*
X126680317Y-59302725D01*
X126718140Y-59299000D01*
X127281860Y-59299000D01*
X127319683Y-59302725D01*
G37*
M02*
