G04 #@! TF.GenerationSoftware,KiCad,Pcbnew,(5.1.6)-1*
G04 #@! TF.CreationDate,2023-08-05T22:02:58+03:00*
G04 #@! TF.ProjectId,STM32F4_REV2,53544d33-3246-4345-9f52-4556322e6b69,rev?*
G04 #@! TF.SameCoordinates,Original*
G04 #@! TF.FileFunction,Copper,L2,Inr*
G04 #@! TF.FilePolarity,Positive*
%FSLAX46Y46*%
G04 Gerber Fmt 4.6, Leading zero omitted, Abs format (unit mm)*
G04 Created by KiCad (PCBNEW (5.1.6)-1) date 2023-08-05 22:02:58*
%MOMM*%
%LPD*%
G01*
G04 APERTURE LIST*
G04 #@! TA.AperFunction,ViaPad*
%ADD10O,1.900000X1.050000*%
G04 #@! TD*
G04 #@! TA.AperFunction,ViaPad*
%ADD11O,0.800000X1.300000*%
G04 #@! TD*
G04 #@! TA.AperFunction,ViaPad*
%ADD12C,2.600000*%
G04 #@! TD*
G04 #@! TA.AperFunction,ViaPad*
%ADD13R,2.600000X2.600000*%
G04 #@! TD*
G04 #@! TA.AperFunction,ViaPad*
%ADD14C,0.900000*%
G04 #@! TD*
G04 #@! TA.AperFunction,ViaPad*
%ADD15C,8.600000*%
G04 #@! TD*
G04 #@! TA.AperFunction,ViaPad*
%ADD16C,0.800000*%
G04 #@! TD*
G04 #@! TA.AperFunction,Conductor*
%ADD17C,0.254000*%
G04 #@! TD*
G04 APERTURE END LIST*
D10*
X158700000Y-67025000D03*
X158700000Y-74175000D03*
D11*
X127950000Y-98225000D03*
X126700000Y-98225000D03*
X125450000Y-98225000D03*
G04 #@! TA.AperFunction,ViaPad*
G36*
G01*
X123800000Y-98675000D02*
X123800000Y-97775000D01*
G75*
G02*
X124000000Y-97575000I200000J0D01*
G01*
X124400000Y-97575000D01*
G75*
G02*
X124600000Y-97775000I0J-200000D01*
G01*
X124600000Y-98675000D01*
G75*
G02*
X124400000Y-98875000I-200000J0D01*
G01*
X124000000Y-98875000D01*
G75*
G02*
X123800000Y-98675000I0J200000D01*
G01*
G37*
G04 #@! TD.AperFunction*
X123250000Y-60000000D03*
X124500000Y-60000000D03*
X125750000Y-60000000D03*
G04 #@! TA.AperFunction,ViaPad*
G36*
G01*
X127400000Y-59550000D02*
X127400000Y-60450000D01*
G75*
G02*
X127200000Y-60650000I-200000J0D01*
G01*
X126800000Y-60650000D01*
G75*
G02*
X126600000Y-60450000I0J200000D01*
G01*
X126600000Y-59550000D01*
G75*
G02*
X126800000Y-59350000I200000J0D01*
G01*
X127200000Y-59350000D01*
G75*
G02*
X127400000Y-59550000I0J-200000D01*
G01*
G37*
G04 #@! TD.AperFunction*
D12*
X156500000Y-85250000D03*
D13*
X156500000Y-90250000D03*
D14*
X159780419Y-96969581D03*
X157500000Y-96025000D03*
X155219581Y-96969581D03*
X154275000Y-99250000D03*
X155219581Y-101530419D03*
X157500000Y-102475000D03*
X159780419Y-101530419D03*
X160725000Y-99250000D03*
D15*
X157500000Y-99250000D03*
D14*
X113530419Y-56469581D03*
X111250000Y-55525000D03*
X108969581Y-56469581D03*
X108025000Y-58750000D03*
X108969581Y-61030419D03*
X111250000Y-61975000D03*
X113530419Y-61030419D03*
X114475000Y-58750000D03*
D15*
X111250000Y-58750000D03*
D14*
X113530419Y-96969581D03*
X111250000Y-96025000D03*
X108969581Y-96969581D03*
X108025000Y-99250000D03*
X108969581Y-101530419D03*
X111250000Y-102475000D03*
X113530419Y-101530419D03*
X114475000Y-99250000D03*
D15*
X111250000Y-99250000D03*
D14*
X159780419Y-56719581D03*
X157500000Y-55775000D03*
X155219581Y-56719581D03*
X154275000Y-59000000D03*
X155219581Y-61280419D03*
X157500000Y-62225000D03*
X159780419Y-61280419D03*
X160725000Y-59000000D03*
D15*
X157500000Y-59000000D03*
D16*
X134900000Y-55625000D03*
X117525000Y-73275000D03*
X111375000Y-72550000D03*
X123700000Y-73275000D03*
X115150000Y-76400000D03*
X113425000Y-82750000D03*
X116725000Y-81800000D03*
X118000000Y-81800000D03*
X117475000Y-85800000D03*
X121550000Y-88775000D03*
X131050000Y-89975000D03*
X141850000Y-84700000D03*
X132525000Y-87275000D03*
X131750000Y-74000000D03*
X134000000Y-75000000D03*
X144300000Y-59225000D03*
X154825000Y-69300000D03*
X153475000Y-69300000D03*
X153475000Y-67900000D03*
X154825000Y-67900000D03*
X141875000Y-86200000D03*
X146500000Y-87250000D03*
X148675000Y-87225000D03*
X149525000Y-88325000D03*
X150450000Y-89225000D03*
X148975000Y-83625000D03*
X148975000Y-81850000D03*
X151275000Y-91525000D03*
X152200000Y-92475000D03*
X141225000Y-94175000D03*
X141250000Y-95550000D03*
X141250000Y-97300000D03*
X141225000Y-98525000D03*
X144750000Y-92825000D03*
X144750000Y-93725000D03*
X144750000Y-90900000D03*
X117425000Y-76250000D03*
X116100000Y-78200000D03*
X111775000Y-80425000D03*
X137425000Y-55650000D03*
X138725000Y-55650000D03*
X139950000Y-55650000D03*
X127500000Y-71400000D03*
X122700000Y-71400000D03*
X120000000Y-72300000D03*
X111400000Y-68000000D03*
X144300000Y-57300000D03*
X130100000Y-87900000D03*
X124100000Y-88800000D03*
X114750000Y-85575000D03*
X114775000Y-83925000D03*
X118275000Y-78025000D03*
X121975000Y-72450000D03*
X132600000Y-75775000D03*
X135750000Y-91600000D03*
X135750000Y-92775000D03*
X139225000Y-92775000D03*
X139250000Y-91675000D03*
X136250000Y-95025000D03*
X138475000Y-95050000D03*
X136275000Y-98000000D03*
X138475000Y-98050000D03*
X146775000Y-94075000D03*
X147775000Y-94950000D03*
X129150000Y-80275000D03*
X129125000Y-69775000D03*
X149575000Y-68725000D03*
D17*
G36*
X139459744Y-54732795D02*
G01*
X139290226Y-54846063D01*
X139146063Y-54990226D01*
X139032795Y-55159744D01*
X138954774Y-55348102D01*
X138915000Y-55548061D01*
X138915000Y-55751939D01*
X138954774Y-55951898D01*
X139032795Y-56140256D01*
X139146063Y-56309774D01*
X139290226Y-56453937D01*
X139459744Y-56567205D01*
X139648102Y-56645226D01*
X139848061Y-56685000D01*
X140051939Y-56685000D01*
X140251898Y-56645226D01*
X140440256Y-56567205D01*
X140609774Y-56453937D01*
X140753937Y-56309774D01*
X140867205Y-56140256D01*
X140945226Y-55951898D01*
X140985000Y-55751939D01*
X140985000Y-55548061D01*
X140945226Y-55348102D01*
X140867205Y-55159744D01*
X140753937Y-54990226D01*
X140609774Y-54846063D01*
X140440256Y-54732795D01*
X140264515Y-54660000D01*
X155140191Y-54660000D01*
X154789527Y-54847433D01*
X154285693Y-55434968D01*
X157500000Y-58649275D01*
X157514143Y-58635133D01*
X157864868Y-58985858D01*
X157850725Y-59000000D01*
X161065032Y-62214307D01*
X161590000Y-61764127D01*
X161590001Y-96485874D01*
X161065032Y-96035693D01*
X157850725Y-99250000D01*
X157864868Y-99264143D01*
X157514143Y-99614868D01*
X157500000Y-99600725D01*
X154285693Y-102815032D01*
X154735873Y-103340000D01*
X114014127Y-103340000D01*
X114464307Y-102815032D01*
X111250000Y-99600725D01*
X111235858Y-99614868D01*
X110885133Y-99264143D01*
X110899275Y-99250000D01*
X111600725Y-99250000D01*
X114815032Y-102464307D01*
X115402567Y-101960473D01*
X115851564Y-101098265D01*
X116123724Y-100165031D01*
X116208591Y-99196632D01*
X116102901Y-98230284D01*
X115959423Y-97775000D01*
X123161928Y-97775000D01*
X123161928Y-98675000D01*
X123178031Y-98838500D01*
X123225722Y-98995716D01*
X123303169Y-99140608D01*
X123407394Y-99267606D01*
X123534392Y-99371831D01*
X123679284Y-99449278D01*
X123836500Y-99496969D01*
X124000000Y-99513072D01*
X124400000Y-99513072D01*
X124563500Y-99496969D01*
X124720716Y-99449278D01*
X124865608Y-99371831D01*
X124891894Y-99350259D01*
X125052008Y-99435841D01*
X125247106Y-99495024D01*
X125450000Y-99515007D01*
X125652895Y-99495024D01*
X125847993Y-99435841D01*
X126027797Y-99339734D01*
X126075000Y-99300995D01*
X126122204Y-99339734D01*
X126302008Y-99435841D01*
X126497106Y-99495024D01*
X126700000Y-99515007D01*
X126902895Y-99495024D01*
X127097993Y-99435841D01*
X127277797Y-99339734D01*
X127326707Y-99299595D01*
X127339885Y-99311351D01*
X127514772Y-99414308D01*
X127547860Y-99428682D01*
X127702000Y-99315423D01*
X127702000Y-98737310D01*
X127720024Y-98677894D01*
X127735000Y-98525837D01*
X127735000Y-98473000D01*
X128198000Y-98473000D01*
X128198000Y-99315423D01*
X128352140Y-99428682D01*
X128385228Y-99414308D01*
X128560115Y-99311351D01*
X128598744Y-99276890D01*
X149350048Y-99276890D01*
X149350048Y-99523110D01*
X149398083Y-99764598D01*
X149492307Y-99992074D01*
X149629099Y-100196798D01*
X149803202Y-100370901D01*
X150007926Y-100507693D01*
X150235402Y-100601917D01*
X150476890Y-100649952D01*
X150723110Y-100649952D01*
X150964598Y-100601917D01*
X151192074Y-100507693D01*
X151396798Y-100370901D01*
X151570901Y-100196798D01*
X151707693Y-99992074D01*
X151801917Y-99764598D01*
X151849952Y-99523110D01*
X151849952Y-99303368D01*
X152541409Y-99303368D01*
X152647099Y-100269716D01*
X152939284Y-101196876D01*
X153347433Y-101960473D01*
X153934968Y-102464307D01*
X157149275Y-99250000D01*
X153934968Y-96035693D01*
X153347433Y-96539527D01*
X152898436Y-97401735D01*
X152626276Y-98334969D01*
X152541409Y-99303368D01*
X151849952Y-99303368D01*
X151849952Y-99276890D01*
X151801917Y-99035402D01*
X151707693Y-98807926D01*
X151570901Y-98603202D01*
X151396798Y-98429099D01*
X151192074Y-98292307D01*
X150964598Y-98198083D01*
X150723110Y-98150048D01*
X150476890Y-98150048D01*
X150235402Y-98198083D01*
X150007926Y-98292307D01*
X149803202Y-98429099D01*
X149629099Y-98603202D01*
X149492307Y-98807926D01*
X149398083Y-99035402D01*
X149350048Y-99276890D01*
X128598744Y-99276890D01*
X128711556Y-99176253D01*
X128833731Y-99014206D01*
X128921944Y-98831438D01*
X128972806Y-98634972D01*
X128826489Y-98473000D01*
X128198000Y-98473000D01*
X127735000Y-98473000D01*
X127735000Y-97924162D01*
X127720024Y-97772105D01*
X127702000Y-97712689D01*
X127702000Y-97134577D01*
X128198000Y-97134577D01*
X128198000Y-97977000D01*
X128826489Y-97977000D01*
X128897798Y-97898061D01*
X135240000Y-97898061D01*
X135240000Y-98101939D01*
X135279774Y-98301898D01*
X135357795Y-98490256D01*
X135471063Y-98659774D01*
X135615226Y-98803937D01*
X135784744Y-98917205D01*
X135973102Y-98995226D01*
X136173061Y-99035000D01*
X136376939Y-99035000D01*
X136576898Y-98995226D01*
X136765256Y-98917205D01*
X136934774Y-98803937D01*
X137078937Y-98659774D01*
X137192205Y-98490256D01*
X137270226Y-98301898D01*
X137310000Y-98101939D01*
X137310000Y-97948061D01*
X137440000Y-97948061D01*
X137440000Y-98151939D01*
X137479774Y-98351898D01*
X137557795Y-98540256D01*
X137671063Y-98709774D01*
X137815226Y-98853937D01*
X137984744Y-98967205D01*
X138173102Y-99045226D01*
X138373061Y-99085000D01*
X138576939Y-99085000D01*
X138776898Y-99045226D01*
X138965256Y-98967205D01*
X139134774Y-98853937D01*
X139278937Y-98709774D01*
X139392205Y-98540256D01*
X139470226Y-98351898D01*
X139510000Y-98151939D01*
X139510000Y-97948061D01*
X139470226Y-97748102D01*
X139392205Y-97559744D01*
X139278937Y-97390226D01*
X139134774Y-97246063D01*
X138965256Y-97132795D01*
X138776898Y-97054774D01*
X138576939Y-97015000D01*
X138373061Y-97015000D01*
X138173102Y-97054774D01*
X137984744Y-97132795D01*
X137815226Y-97246063D01*
X137671063Y-97390226D01*
X137557795Y-97559744D01*
X137479774Y-97748102D01*
X137440000Y-97948061D01*
X137310000Y-97948061D01*
X137310000Y-97898061D01*
X137270226Y-97698102D01*
X137192205Y-97509744D01*
X137078937Y-97340226D01*
X136934774Y-97196063D01*
X136765256Y-97082795D01*
X136576898Y-97004774D01*
X136376939Y-96965000D01*
X136173061Y-96965000D01*
X135973102Y-97004774D01*
X135784744Y-97082795D01*
X135615226Y-97196063D01*
X135471063Y-97340226D01*
X135357795Y-97509744D01*
X135279774Y-97698102D01*
X135240000Y-97898061D01*
X128897798Y-97898061D01*
X128972806Y-97815028D01*
X128921944Y-97618562D01*
X128833731Y-97435794D01*
X128711556Y-97273747D01*
X128560115Y-97138649D01*
X128385228Y-97035692D01*
X128352140Y-97021318D01*
X128198000Y-97134577D01*
X127702000Y-97134577D01*
X127547860Y-97021318D01*
X127514772Y-97035692D01*
X127339885Y-97138649D01*
X127326707Y-97150405D01*
X127277797Y-97110266D01*
X127097992Y-97014159D01*
X126902894Y-96954976D01*
X126700000Y-96934993D01*
X126497105Y-96954976D01*
X126302007Y-97014159D01*
X126122203Y-97110266D01*
X126075000Y-97149004D01*
X126027797Y-97110266D01*
X125847992Y-97014159D01*
X125652894Y-96954976D01*
X125450000Y-96934993D01*
X125247105Y-96954976D01*
X125052007Y-97014159D01*
X124891894Y-97099741D01*
X124865608Y-97078169D01*
X124720716Y-97000722D01*
X124563500Y-96953031D01*
X124400000Y-96936928D01*
X124000000Y-96936928D01*
X123836500Y-96953031D01*
X123679284Y-97000722D01*
X123534392Y-97078169D01*
X123407394Y-97182394D01*
X123303169Y-97309392D01*
X123225722Y-97454284D01*
X123178031Y-97611500D01*
X123161928Y-97775000D01*
X115959423Y-97775000D01*
X115810716Y-97303124D01*
X115402567Y-96539527D01*
X114815032Y-96035693D01*
X111600725Y-99250000D01*
X110899275Y-99250000D01*
X107684968Y-96035693D01*
X107160000Y-96485873D01*
X107160000Y-95684968D01*
X108035693Y-95684968D01*
X111250000Y-98899275D01*
X114464307Y-95684968D01*
X113960473Y-95097433D01*
X113625627Y-94923061D01*
X135215000Y-94923061D01*
X135215000Y-95126939D01*
X135254774Y-95326898D01*
X135332795Y-95515256D01*
X135446063Y-95684774D01*
X135590226Y-95828937D01*
X135759744Y-95942205D01*
X135948102Y-96020226D01*
X136148061Y-96060000D01*
X136351939Y-96060000D01*
X136551898Y-96020226D01*
X136740256Y-95942205D01*
X136909774Y-95828937D01*
X137053937Y-95684774D01*
X137167205Y-95515256D01*
X137245226Y-95326898D01*
X137285000Y-95126939D01*
X137285000Y-94948061D01*
X137440000Y-94948061D01*
X137440000Y-95151939D01*
X137479774Y-95351898D01*
X137557795Y-95540256D01*
X137671063Y-95709774D01*
X137815226Y-95853937D01*
X137984744Y-95967205D01*
X138173102Y-96045226D01*
X138373061Y-96085000D01*
X138576939Y-96085000D01*
X138776898Y-96045226D01*
X138965256Y-95967205D01*
X139134774Y-95853937D01*
X139278937Y-95709774D01*
X139392205Y-95540256D01*
X139470226Y-95351898D01*
X139510000Y-95151939D01*
X139510000Y-94948061D01*
X139470226Y-94748102D01*
X139392205Y-94559744D01*
X139278937Y-94390226D01*
X139134774Y-94246063D01*
X138965256Y-94132795D01*
X138776898Y-94054774D01*
X138576939Y-94015000D01*
X138373061Y-94015000D01*
X138173102Y-94054774D01*
X137984744Y-94132795D01*
X137815226Y-94246063D01*
X137671063Y-94390226D01*
X137557795Y-94559744D01*
X137479774Y-94748102D01*
X137440000Y-94948061D01*
X137285000Y-94948061D01*
X137285000Y-94923061D01*
X137245226Y-94723102D01*
X137167205Y-94534744D01*
X137053937Y-94365226D01*
X136909774Y-94221063D01*
X136740256Y-94107795D01*
X136551898Y-94029774D01*
X136351939Y-93990000D01*
X136148061Y-93990000D01*
X135948102Y-94029774D01*
X135759744Y-94107795D01*
X135590226Y-94221063D01*
X135446063Y-94365226D01*
X135332795Y-94534744D01*
X135254774Y-94723102D01*
X135215000Y-94923061D01*
X113625627Y-94923061D01*
X113098265Y-94648436D01*
X112165031Y-94376276D01*
X111196632Y-94291409D01*
X110230284Y-94397099D01*
X109303124Y-94689284D01*
X108539527Y-95097433D01*
X108035693Y-95684968D01*
X107160000Y-95684968D01*
X107160000Y-93973061D01*
X145740000Y-93973061D01*
X145740000Y-94176939D01*
X145779774Y-94376898D01*
X145857795Y-94565256D01*
X145971063Y-94734774D01*
X146115226Y-94878937D01*
X146284744Y-94992205D01*
X146473102Y-95070226D01*
X146673061Y-95110000D01*
X146751549Y-95110000D01*
X146779774Y-95251898D01*
X146857795Y-95440256D01*
X146971063Y-95609774D01*
X147115226Y-95753937D01*
X147284744Y-95867205D01*
X147473102Y-95945226D01*
X147673061Y-95985000D01*
X147876939Y-95985000D01*
X148076898Y-95945226D01*
X148265256Y-95867205D01*
X148434774Y-95753937D01*
X148503743Y-95684968D01*
X154285693Y-95684968D01*
X157500000Y-98899275D01*
X160714307Y-95684968D01*
X160210473Y-95097433D01*
X159348265Y-94648436D01*
X158415031Y-94376276D01*
X157446632Y-94291409D01*
X156480284Y-94397099D01*
X155553124Y-94689284D01*
X154789527Y-95097433D01*
X154285693Y-95684968D01*
X148503743Y-95684968D01*
X148578937Y-95609774D01*
X148692205Y-95440256D01*
X148770226Y-95251898D01*
X148810000Y-95051939D01*
X148810000Y-94848061D01*
X148770226Y-94648102D01*
X148692205Y-94459744D01*
X148578937Y-94290226D01*
X148434774Y-94146063D01*
X148265256Y-94032795D01*
X148076898Y-93954774D01*
X147876939Y-93915000D01*
X147798451Y-93915000D01*
X147770226Y-93773102D01*
X147692205Y-93584744D01*
X147578937Y-93415226D01*
X147434774Y-93271063D01*
X147265256Y-93157795D01*
X147076898Y-93079774D01*
X146876939Y-93040000D01*
X146673061Y-93040000D01*
X146473102Y-93079774D01*
X146284744Y-93157795D01*
X146115226Y-93271063D01*
X145971063Y-93415226D01*
X145857795Y-93584744D01*
X145779774Y-93773102D01*
X145740000Y-93973061D01*
X107160000Y-93973061D01*
X107160000Y-91498061D01*
X134715000Y-91498061D01*
X134715000Y-91701939D01*
X134754774Y-91901898D01*
X134832795Y-92090256D01*
X134897771Y-92187500D01*
X134832795Y-92284744D01*
X134754774Y-92473102D01*
X134715000Y-92673061D01*
X134715000Y-92876939D01*
X134754774Y-93076898D01*
X134832795Y-93265256D01*
X134946063Y-93434774D01*
X135090226Y-93578937D01*
X135259744Y-93692205D01*
X135448102Y-93770226D01*
X135648061Y-93810000D01*
X135851939Y-93810000D01*
X136051898Y-93770226D01*
X136240256Y-93692205D01*
X136409774Y-93578937D01*
X136553937Y-93434774D01*
X136667205Y-93265256D01*
X136745226Y-93076898D01*
X136785000Y-92876939D01*
X136785000Y-92673061D01*
X138190000Y-92673061D01*
X138190000Y-92876939D01*
X138229774Y-93076898D01*
X138307795Y-93265256D01*
X138421063Y-93434774D01*
X138565226Y-93578937D01*
X138734744Y-93692205D01*
X138923102Y-93770226D01*
X139123061Y-93810000D01*
X139326939Y-93810000D01*
X139526898Y-93770226D01*
X139715256Y-93692205D01*
X139884774Y-93578937D01*
X140028937Y-93434774D01*
X140142205Y-93265256D01*
X140220226Y-93076898D01*
X140260000Y-92876939D01*
X140260000Y-92673061D01*
X140220226Y-92473102D01*
X140142205Y-92284744D01*
X140114785Y-92243708D01*
X140167205Y-92165256D01*
X140245226Y-91976898D01*
X140285000Y-91776939D01*
X140285000Y-91573061D01*
X140245226Y-91373102D01*
X140167205Y-91184744D01*
X140053937Y-91015226D01*
X139909774Y-90871063D01*
X139740256Y-90757795D01*
X139551898Y-90679774D01*
X139351939Y-90640000D01*
X139148061Y-90640000D01*
X138948102Y-90679774D01*
X138759744Y-90757795D01*
X138590226Y-90871063D01*
X138446063Y-91015226D01*
X138332795Y-91184744D01*
X138254774Y-91373102D01*
X138215000Y-91573061D01*
X138215000Y-91776939D01*
X138254774Y-91976898D01*
X138332795Y-92165256D01*
X138360215Y-92206292D01*
X138307795Y-92284744D01*
X138229774Y-92473102D01*
X138190000Y-92673061D01*
X136785000Y-92673061D01*
X136745226Y-92473102D01*
X136667205Y-92284744D01*
X136602229Y-92187500D01*
X136667205Y-92090256D01*
X136745226Y-91901898D01*
X136785000Y-91701939D01*
X136785000Y-91498061D01*
X136745226Y-91298102D01*
X136667205Y-91109744D01*
X136553937Y-90940226D01*
X136409774Y-90796063D01*
X136240256Y-90682795D01*
X136051898Y-90604774D01*
X135851939Y-90565000D01*
X135648061Y-90565000D01*
X135448102Y-90604774D01*
X135259744Y-90682795D01*
X135090226Y-90796063D01*
X134946063Y-90940226D01*
X134832795Y-91109744D01*
X134754774Y-91298102D01*
X134715000Y-91498061D01*
X107160000Y-91498061D01*
X107160000Y-88698061D01*
X123065000Y-88698061D01*
X123065000Y-88901939D01*
X123104774Y-89101898D01*
X123182795Y-89290256D01*
X123296063Y-89459774D01*
X123440226Y-89603937D01*
X123609744Y-89717205D01*
X123798102Y-89795226D01*
X123998061Y-89835000D01*
X124201939Y-89835000D01*
X124401898Y-89795226D01*
X124590256Y-89717205D01*
X124759774Y-89603937D01*
X124903937Y-89459774D01*
X125017205Y-89290256D01*
X125095226Y-89101898D01*
X125125440Y-88950000D01*
X154561928Y-88950000D01*
X154561928Y-91550000D01*
X154574188Y-91674482D01*
X154610498Y-91794180D01*
X154669463Y-91904494D01*
X154748815Y-92001185D01*
X154845506Y-92080537D01*
X154955820Y-92139502D01*
X155075518Y-92175812D01*
X155200000Y-92188072D01*
X157800000Y-92188072D01*
X157924482Y-92175812D01*
X158044180Y-92139502D01*
X158154494Y-92080537D01*
X158251185Y-92001185D01*
X158330537Y-91904494D01*
X158389502Y-91794180D01*
X158425812Y-91674482D01*
X158438072Y-91550000D01*
X158438072Y-88950000D01*
X158425812Y-88825518D01*
X158389502Y-88705820D01*
X158330537Y-88595506D01*
X158251185Y-88498815D01*
X158154494Y-88419463D01*
X158044180Y-88360498D01*
X157924482Y-88324188D01*
X157800000Y-88311928D01*
X155200000Y-88311928D01*
X155075518Y-88324188D01*
X154955820Y-88360498D01*
X154845506Y-88419463D01*
X154748815Y-88498815D01*
X154669463Y-88595506D01*
X154610498Y-88705820D01*
X154574188Y-88825518D01*
X154561928Y-88950000D01*
X125125440Y-88950000D01*
X125135000Y-88901939D01*
X125135000Y-88698061D01*
X125095226Y-88498102D01*
X125017205Y-88309744D01*
X124903937Y-88140226D01*
X124759774Y-87996063D01*
X124590256Y-87882795D01*
X124401898Y-87804774D01*
X124368150Y-87798061D01*
X129065000Y-87798061D01*
X129065000Y-88001939D01*
X129104774Y-88201898D01*
X129182795Y-88390256D01*
X129296063Y-88559774D01*
X129440226Y-88703937D01*
X129609744Y-88817205D01*
X129798102Y-88895226D01*
X129998061Y-88935000D01*
X130201939Y-88935000D01*
X130401898Y-88895226D01*
X130590256Y-88817205D01*
X130759774Y-88703937D01*
X130903937Y-88559774D01*
X131017205Y-88390256D01*
X131095226Y-88201898D01*
X131135000Y-88001939D01*
X131135000Y-87798061D01*
X131095226Y-87598102D01*
X131017205Y-87409744D01*
X130903937Y-87240226D01*
X130759774Y-87096063D01*
X130590256Y-86982795D01*
X130401898Y-86904774D01*
X130201939Y-86865000D01*
X129998061Y-86865000D01*
X129798102Y-86904774D01*
X129609744Y-86982795D01*
X129440226Y-87096063D01*
X129296063Y-87240226D01*
X129182795Y-87409744D01*
X129104774Y-87598102D01*
X129065000Y-87798061D01*
X124368150Y-87798061D01*
X124201939Y-87765000D01*
X123998061Y-87765000D01*
X123798102Y-87804774D01*
X123609744Y-87882795D01*
X123440226Y-87996063D01*
X123296063Y-88140226D01*
X123182795Y-88309744D01*
X123104774Y-88498102D01*
X123065000Y-88698061D01*
X107160000Y-88698061D01*
X107160000Y-86675744D01*
X155424981Y-86675744D01*
X155567103Y-86955945D01*
X155917842Y-87105165D01*
X156290953Y-87183092D01*
X156672097Y-87186732D01*
X157046627Y-87115943D01*
X157400152Y-86973448D01*
X157432897Y-86955945D01*
X157575019Y-86675744D01*
X156500000Y-85600725D01*
X155424981Y-86675744D01*
X107160000Y-86675744D01*
X107160000Y-85473061D01*
X113715000Y-85473061D01*
X113715000Y-85676939D01*
X113754774Y-85876898D01*
X113832795Y-86065256D01*
X113946063Y-86234774D01*
X114090226Y-86378937D01*
X114259744Y-86492205D01*
X114448102Y-86570226D01*
X114648061Y-86610000D01*
X114851939Y-86610000D01*
X115051898Y-86570226D01*
X115240256Y-86492205D01*
X115409774Y-86378937D01*
X115553937Y-86234774D01*
X115667205Y-86065256D01*
X115745226Y-85876898D01*
X115785000Y-85676939D01*
X115785000Y-85473061D01*
X115774863Y-85422097D01*
X154563268Y-85422097D01*
X154634057Y-85796627D01*
X154776552Y-86150152D01*
X154794055Y-86182897D01*
X155074256Y-86325019D01*
X156149275Y-85250000D01*
X156850725Y-85250000D01*
X157925744Y-86325019D01*
X158205945Y-86182897D01*
X158355165Y-85832158D01*
X158433092Y-85459047D01*
X158436732Y-85077903D01*
X158365943Y-84703373D01*
X158223448Y-84349848D01*
X158205945Y-84317103D01*
X157925744Y-84174981D01*
X156850725Y-85250000D01*
X156149275Y-85250000D01*
X155074256Y-84174981D01*
X154794055Y-84317103D01*
X154644835Y-84667842D01*
X154566908Y-85040953D01*
X154563268Y-85422097D01*
X115774863Y-85422097D01*
X115745226Y-85273102D01*
X115667205Y-85084744D01*
X115553937Y-84915226D01*
X115409774Y-84771063D01*
X115390751Y-84758352D01*
X115434774Y-84728937D01*
X115578937Y-84584774D01*
X115692205Y-84415256D01*
X115770226Y-84226898D01*
X115810000Y-84026939D01*
X115810000Y-83824256D01*
X155424981Y-83824256D01*
X156500000Y-84899275D01*
X157575019Y-83824256D01*
X157432897Y-83544055D01*
X157082158Y-83394835D01*
X156709047Y-83316908D01*
X156327903Y-83313268D01*
X155953373Y-83384057D01*
X155599848Y-83526552D01*
X155567103Y-83544055D01*
X155424981Y-83824256D01*
X115810000Y-83824256D01*
X115810000Y-83823061D01*
X115770226Y-83623102D01*
X115692205Y-83434744D01*
X115578937Y-83265226D01*
X115434774Y-83121063D01*
X115265256Y-83007795D01*
X115076898Y-82929774D01*
X114876939Y-82890000D01*
X114673061Y-82890000D01*
X114473102Y-82929774D01*
X114284744Y-83007795D01*
X114115226Y-83121063D01*
X113971063Y-83265226D01*
X113857795Y-83434744D01*
X113779774Y-83623102D01*
X113740000Y-83823061D01*
X113740000Y-84026939D01*
X113779774Y-84226898D01*
X113857795Y-84415256D01*
X113971063Y-84584774D01*
X114115226Y-84728937D01*
X114134249Y-84741648D01*
X114090226Y-84771063D01*
X113946063Y-84915226D01*
X113832795Y-85084744D01*
X113754774Y-85273102D01*
X113715000Y-85473061D01*
X107160000Y-85473061D01*
X107160000Y-80173061D01*
X128115000Y-80173061D01*
X128115000Y-80376939D01*
X128154774Y-80576898D01*
X128232795Y-80765256D01*
X128346063Y-80934774D01*
X128490226Y-81078937D01*
X128659744Y-81192205D01*
X128848102Y-81270226D01*
X129048061Y-81310000D01*
X129251939Y-81310000D01*
X129451898Y-81270226D01*
X129640256Y-81192205D01*
X129809774Y-81078937D01*
X129953937Y-80934774D01*
X130067205Y-80765256D01*
X130145226Y-80576898D01*
X130185000Y-80376939D01*
X130185000Y-80173061D01*
X130145226Y-79973102D01*
X130067205Y-79784744D01*
X129953937Y-79615226D01*
X129809774Y-79471063D01*
X129640256Y-79357795D01*
X129451898Y-79279774D01*
X129251939Y-79240000D01*
X129048061Y-79240000D01*
X128848102Y-79279774D01*
X128659744Y-79357795D01*
X128490226Y-79471063D01*
X128346063Y-79615226D01*
X128232795Y-79784744D01*
X128154774Y-79973102D01*
X128115000Y-80173061D01*
X107160000Y-80173061D01*
X107160000Y-77923061D01*
X117240000Y-77923061D01*
X117240000Y-78126939D01*
X117279774Y-78326898D01*
X117357795Y-78515256D01*
X117471063Y-78684774D01*
X117615226Y-78828937D01*
X117784744Y-78942205D01*
X117973102Y-79020226D01*
X118173061Y-79060000D01*
X118376939Y-79060000D01*
X118576898Y-79020226D01*
X118765256Y-78942205D01*
X118934774Y-78828937D01*
X119078937Y-78684774D01*
X119192205Y-78515256D01*
X119270226Y-78326898D01*
X119310000Y-78126939D01*
X119310000Y-77923061D01*
X119270226Y-77723102D01*
X119192205Y-77534744D01*
X119078937Y-77365226D01*
X118934774Y-77221063D01*
X118765256Y-77107795D01*
X118576898Y-77029774D01*
X118376939Y-76990000D01*
X118173061Y-76990000D01*
X117973102Y-77029774D01*
X117784744Y-77107795D01*
X117615226Y-77221063D01*
X117471063Y-77365226D01*
X117357795Y-77534744D01*
X117279774Y-77723102D01*
X117240000Y-77923061D01*
X107160000Y-77923061D01*
X107160000Y-75673061D01*
X131565000Y-75673061D01*
X131565000Y-75876939D01*
X131604774Y-76076898D01*
X131682795Y-76265256D01*
X131796063Y-76434774D01*
X131940226Y-76578937D01*
X132109744Y-76692205D01*
X132298102Y-76770226D01*
X132498061Y-76810000D01*
X132701939Y-76810000D01*
X132901898Y-76770226D01*
X133090256Y-76692205D01*
X133259774Y-76578937D01*
X133403937Y-76434774D01*
X133517205Y-76265256D01*
X133595226Y-76076898D01*
X133635000Y-75876939D01*
X133635000Y-75673061D01*
X133595226Y-75473102D01*
X133517205Y-75284744D01*
X133403937Y-75115226D01*
X133259774Y-74971063D01*
X133090256Y-74857795D01*
X132901898Y-74779774D01*
X132701939Y-74740000D01*
X132498061Y-74740000D01*
X132298102Y-74779774D01*
X132109744Y-74857795D01*
X131940226Y-74971063D01*
X131796063Y-75115226D01*
X131682795Y-75284744D01*
X131604774Y-75473102D01*
X131565000Y-75673061D01*
X107160000Y-75673061D01*
X107160000Y-74175000D01*
X157109388Y-74175000D01*
X157131785Y-74402400D01*
X157198115Y-74621060D01*
X157305829Y-74822579D01*
X157450788Y-74999212D01*
X157627421Y-75144171D01*
X157828940Y-75251885D01*
X158047600Y-75318215D01*
X158218021Y-75335000D01*
X159181979Y-75335000D01*
X159352400Y-75318215D01*
X159571060Y-75251885D01*
X159772579Y-75144171D01*
X159949212Y-74999212D01*
X160094171Y-74822579D01*
X160201885Y-74621060D01*
X160268215Y-74402400D01*
X160290612Y-74175000D01*
X160268215Y-73947600D01*
X160201885Y-73728940D01*
X160094171Y-73527421D01*
X159949212Y-73350788D01*
X159772579Y-73205829D01*
X159571060Y-73098115D01*
X159352400Y-73031785D01*
X159181979Y-73015000D01*
X158218021Y-73015000D01*
X158047600Y-73031785D01*
X157828940Y-73098115D01*
X157627421Y-73205829D01*
X157450788Y-73350788D01*
X157305829Y-73527421D01*
X157198115Y-73728940D01*
X157131785Y-73947600D01*
X157109388Y-74175000D01*
X107160000Y-74175000D01*
X107160000Y-71643137D01*
X107335000Y-71643137D01*
X107335000Y-71856863D01*
X107376696Y-72066483D01*
X107458485Y-72263940D01*
X107577225Y-72441647D01*
X107728353Y-72592775D01*
X107906060Y-72711515D01*
X108103517Y-72793304D01*
X108313137Y-72835000D01*
X108526863Y-72835000D01*
X108736483Y-72793304D01*
X108933940Y-72711515D01*
X109111647Y-72592775D01*
X109262775Y-72441647D01*
X109381515Y-72263940D01*
X109408802Y-72198061D01*
X118965000Y-72198061D01*
X118965000Y-72401939D01*
X119004774Y-72601898D01*
X119082795Y-72790256D01*
X119196063Y-72959774D01*
X119340226Y-73103937D01*
X119509744Y-73217205D01*
X119698102Y-73295226D01*
X119898061Y-73335000D01*
X120101939Y-73335000D01*
X120301898Y-73295226D01*
X120490256Y-73217205D01*
X120659774Y-73103937D01*
X120803937Y-72959774D01*
X120917205Y-72790256D01*
X120964630Y-72675763D01*
X120979774Y-72751898D01*
X121057795Y-72940256D01*
X121171063Y-73109774D01*
X121315226Y-73253937D01*
X121484744Y-73367205D01*
X121673102Y-73445226D01*
X121873061Y-73485000D01*
X122076939Y-73485000D01*
X122276898Y-73445226D01*
X122465256Y-73367205D01*
X122634774Y-73253937D01*
X122778937Y-73109774D01*
X122892205Y-72940256D01*
X122970226Y-72751898D01*
X123010000Y-72551939D01*
X123010000Y-72391870D01*
X123190256Y-72317205D01*
X123359774Y-72203937D01*
X123503937Y-72059774D01*
X123617205Y-71890256D01*
X123695226Y-71701898D01*
X123735000Y-71501939D01*
X123735000Y-71298061D01*
X126465000Y-71298061D01*
X126465000Y-71501939D01*
X126504774Y-71701898D01*
X126582795Y-71890256D01*
X126696063Y-72059774D01*
X126840226Y-72203937D01*
X127009744Y-72317205D01*
X127198102Y-72395226D01*
X127398061Y-72435000D01*
X127601939Y-72435000D01*
X127801898Y-72395226D01*
X127990256Y-72317205D01*
X128159774Y-72203937D01*
X128303937Y-72059774D01*
X128417205Y-71890256D01*
X128495226Y-71701898D01*
X128535000Y-71501939D01*
X128535000Y-71298061D01*
X128495226Y-71098102D01*
X128417205Y-70909744D01*
X128303937Y-70740226D01*
X128159774Y-70596063D01*
X127990256Y-70482795D01*
X127801898Y-70404774D01*
X127601939Y-70365000D01*
X127398061Y-70365000D01*
X127198102Y-70404774D01*
X127009744Y-70482795D01*
X126840226Y-70596063D01*
X126696063Y-70740226D01*
X126582795Y-70909744D01*
X126504774Y-71098102D01*
X126465000Y-71298061D01*
X123735000Y-71298061D01*
X123695226Y-71098102D01*
X123617205Y-70909744D01*
X123503937Y-70740226D01*
X123359774Y-70596063D01*
X123190256Y-70482795D01*
X123001898Y-70404774D01*
X122801939Y-70365000D01*
X122598061Y-70365000D01*
X122398102Y-70404774D01*
X122209744Y-70482795D01*
X122040226Y-70596063D01*
X121896063Y-70740226D01*
X121782795Y-70909744D01*
X121704774Y-71098102D01*
X121665000Y-71298061D01*
X121665000Y-71458130D01*
X121484744Y-71532795D01*
X121315226Y-71646063D01*
X121171063Y-71790226D01*
X121057795Y-71959744D01*
X121010370Y-72074237D01*
X120995226Y-71998102D01*
X120917205Y-71809744D01*
X120803937Y-71640226D01*
X120659774Y-71496063D01*
X120490256Y-71382795D01*
X120301898Y-71304774D01*
X120101939Y-71265000D01*
X119898061Y-71265000D01*
X119698102Y-71304774D01*
X119509744Y-71382795D01*
X119340226Y-71496063D01*
X119196063Y-71640226D01*
X119082795Y-71809744D01*
X119004774Y-71998102D01*
X118965000Y-72198061D01*
X109408802Y-72198061D01*
X109463304Y-72066483D01*
X109505000Y-71856863D01*
X109505000Y-71643137D01*
X109463304Y-71433517D01*
X109381515Y-71236060D01*
X109262775Y-71058353D01*
X109111647Y-70907225D01*
X108933940Y-70788485D01*
X108736483Y-70706696D01*
X108526863Y-70665000D01*
X108313137Y-70665000D01*
X108103517Y-70706696D01*
X107906060Y-70788485D01*
X107728353Y-70907225D01*
X107577225Y-71058353D01*
X107458485Y-71236060D01*
X107376696Y-71433517D01*
X107335000Y-71643137D01*
X107160000Y-71643137D01*
X107160000Y-68643137D01*
X107335000Y-68643137D01*
X107335000Y-68856863D01*
X107376696Y-69066483D01*
X107458485Y-69263940D01*
X107577225Y-69441647D01*
X107728353Y-69592775D01*
X107906060Y-69711515D01*
X108103517Y-69793304D01*
X108313137Y-69835000D01*
X108526863Y-69835000D01*
X108736483Y-69793304D01*
X108933940Y-69711515D01*
X108991490Y-69673061D01*
X128090000Y-69673061D01*
X128090000Y-69876939D01*
X128129774Y-70076898D01*
X128207795Y-70265256D01*
X128321063Y-70434774D01*
X128465226Y-70578937D01*
X128634744Y-70692205D01*
X128823102Y-70770226D01*
X129023061Y-70810000D01*
X129226939Y-70810000D01*
X129426898Y-70770226D01*
X129615256Y-70692205D01*
X129784774Y-70578937D01*
X129928937Y-70434774D01*
X130042205Y-70265256D01*
X130120226Y-70076898D01*
X130160000Y-69876939D01*
X130160000Y-69673061D01*
X130120226Y-69473102D01*
X130042205Y-69284744D01*
X129928937Y-69115226D01*
X129784774Y-68971063D01*
X129615256Y-68857795D01*
X129426898Y-68779774D01*
X129226939Y-68740000D01*
X129023061Y-68740000D01*
X128823102Y-68779774D01*
X128634744Y-68857795D01*
X128465226Y-68971063D01*
X128321063Y-69115226D01*
X128207795Y-69284744D01*
X128129774Y-69473102D01*
X128090000Y-69673061D01*
X108991490Y-69673061D01*
X109111647Y-69592775D01*
X109262775Y-69441647D01*
X109381515Y-69263940D01*
X109463304Y-69066483D01*
X109505000Y-68856863D01*
X109505000Y-68643137D01*
X109463304Y-68433517D01*
X109381515Y-68236060D01*
X109262775Y-68058353D01*
X109111647Y-67907225D01*
X109097933Y-67898061D01*
X110365000Y-67898061D01*
X110365000Y-68101939D01*
X110404774Y-68301898D01*
X110482795Y-68490256D01*
X110596063Y-68659774D01*
X110740226Y-68803937D01*
X110909744Y-68917205D01*
X111098102Y-68995226D01*
X111298061Y-69035000D01*
X111501939Y-69035000D01*
X111701898Y-68995226D01*
X111890256Y-68917205D01*
X112059774Y-68803937D01*
X112203937Y-68659774D01*
X112228467Y-68623061D01*
X148540000Y-68623061D01*
X148540000Y-68826939D01*
X148579774Y-69026898D01*
X148657795Y-69215256D01*
X148771063Y-69384774D01*
X148915226Y-69528937D01*
X149084744Y-69642205D01*
X149273102Y-69720226D01*
X149473061Y-69760000D01*
X149676939Y-69760000D01*
X149876898Y-69720226D01*
X150065256Y-69642205D01*
X150234774Y-69528937D01*
X150378937Y-69384774D01*
X150492205Y-69215256D01*
X150570226Y-69026898D01*
X150610000Y-68826939D01*
X150610000Y-68623061D01*
X150570226Y-68423102D01*
X150492205Y-68234744D01*
X150378937Y-68065226D01*
X150234774Y-67921063D01*
X150065256Y-67807795D01*
X149876898Y-67729774D01*
X149676939Y-67690000D01*
X149473061Y-67690000D01*
X149273102Y-67729774D01*
X149084744Y-67807795D01*
X148915226Y-67921063D01*
X148771063Y-68065226D01*
X148657795Y-68234744D01*
X148579774Y-68423102D01*
X148540000Y-68623061D01*
X112228467Y-68623061D01*
X112317205Y-68490256D01*
X112395226Y-68301898D01*
X112435000Y-68101939D01*
X112435000Y-67898061D01*
X112395226Y-67698102D01*
X112317205Y-67509744D01*
X112203937Y-67340226D01*
X112059774Y-67196063D01*
X111890256Y-67082795D01*
X111750728Y-67025000D01*
X157109388Y-67025000D01*
X157131785Y-67252400D01*
X157198115Y-67471060D01*
X157305829Y-67672579D01*
X157450788Y-67849212D01*
X157627421Y-67994171D01*
X157828940Y-68101885D01*
X158047600Y-68168215D01*
X158218021Y-68185000D01*
X159181979Y-68185000D01*
X159352400Y-68168215D01*
X159571060Y-68101885D01*
X159772579Y-67994171D01*
X159949212Y-67849212D01*
X160094171Y-67672579D01*
X160201885Y-67471060D01*
X160268215Y-67252400D01*
X160290612Y-67025000D01*
X160268215Y-66797600D01*
X160201885Y-66578940D01*
X160094171Y-66377421D01*
X159949212Y-66200788D01*
X159772579Y-66055829D01*
X159571060Y-65948115D01*
X159352400Y-65881785D01*
X159181979Y-65865000D01*
X158218021Y-65865000D01*
X158047600Y-65881785D01*
X157828940Y-65948115D01*
X157627421Y-66055829D01*
X157450788Y-66200788D01*
X157305829Y-66377421D01*
X157198115Y-66578940D01*
X157131785Y-66797600D01*
X157109388Y-67025000D01*
X111750728Y-67025000D01*
X111701898Y-67004774D01*
X111501939Y-66965000D01*
X111298061Y-66965000D01*
X111098102Y-67004774D01*
X110909744Y-67082795D01*
X110740226Y-67196063D01*
X110596063Y-67340226D01*
X110482795Y-67509744D01*
X110404774Y-67698102D01*
X110365000Y-67898061D01*
X109097933Y-67898061D01*
X108933940Y-67788485D01*
X108736483Y-67706696D01*
X108526863Y-67665000D01*
X108313137Y-67665000D01*
X108103517Y-67706696D01*
X107906060Y-67788485D01*
X107728353Y-67907225D01*
X107577225Y-68058353D01*
X107458485Y-68236060D01*
X107376696Y-68433517D01*
X107335000Y-68643137D01*
X107160000Y-68643137D01*
X107160000Y-62315032D01*
X108035693Y-62315032D01*
X108539527Y-62902567D01*
X109401735Y-63351564D01*
X110334969Y-63623724D01*
X111303368Y-63708591D01*
X112269716Y-63602901D01*
X113196876Y-63310716D01*
X113960473Y-62902567D01*
X114249922Y-62565032D01*
X154285693Y-62565032D01*
X154789527Y-63152567D01*
X155651735Y-63601564D01*
X156584969Y-63873724D01*
X157553368Y-63958591D01*
X158519716Y-63852901D01*
X159446876Y-63560716D01*
X160210473Y-63152567D01*
X160714307Y-62565032D01*
X157500000Y-59350725D01*
X154285693Y-62565032D01*
X114249922Y-62565032D01*
X114464307Y-62315032D01*
X111250000Y-59100725D01*
X108035693Y-62315032D01*
X107160000Y-62315032D01*
X107160000Y-61514127D01*
X107684968Y-61964307D01*
X110899275Y-58750000D01*
X111600725Y-58750000D01*
X114815032Y-61964307D01*
X115402567Y-61460473D01*
X115851564Y-60598265D01*
X115906476Y-60409972D01*
X122227194Y-60409972D01*
X122278056Y-60606438D01*
X122366269Y-60789206D01*
X122488444Y-60951253D01*
X122639885Y-61086351D01*
X122814772Y-61189308D01*
X122847860Y-61203682D01*
X123002000Y-61090423D01*
X123002000Y-60248000D01*
X122373511Y-60248000D01*
X122227194Y-60409972D01*
X115906476Y-60409972D01*
X116123724Y-59665031D01*
X116208591Y-58696632D01*
X116162684Y-58276890D01*
X116750048Y-58276890D01*
X116750048Y-58523110D01*
X116798083Y-58764598D01*
X116892307Y-58992074D01*
X117029099Y-59196798D01*
X117203202Y-59370901D01*
X117407926Y-59507693D01*
X117635402Y-59601917D01*
X117876890Y-59649952D01*
X118123110Y-59649952D01*
X118364598Y-59601917D01*
X118393300Y-59590028D01*
X122227194Y-59590028D01*
X122373511Y-59752000D01*
X123002000Y-59752000D01*
X123002000Y-59699162D01*
X123465000Y-59699162D01*
X123465000Y-60300837D01*
X123479976Y-60452894D01*
X123498000Y-60512310D01*
X123498000Y-61090423D01*
X123652140Y-61203682D01*
X123685228Y-61189308D01*
X123860115Y-61086351D01*
X123873293Y-61074595D01*
X123922203Y-61114734D01*
X124102007Y-61210841D01*
X124297105Y-61270024D01*
X124500000Y-61290007D01*
X124702894Y-61270024D01*
X124897992Y-61210841D01*
X125077797Y-61114734D01*
X125125000Y-61075996D01*
X125172203Y-61114734D01*
X125352007Y-61210841D01*
X125547105Y-61270024D01*
X125750000Y-61290007D01*
X125952894Y-61270024D01*
X126147992Y-61210841D01*
X126308106Y-61125259D01*
X126334392Y-61146831D01*
X126479284Y-61224278D01*
X126636500Y-61271969D01*
X126800000Y-61288072D01*
X127200000Y-61288072D01*
X127363500Y-61271969D01*
X127520716Y-61224278D01*
X127665608Y-61146831D01*
X127792606Y-61042606D01*
X127896831Y-60915608D01*
X127974278Y-60770716D01*
X128021969Y-60613500D01*
X128038072Y-60450000D01*
X128038072Y-59550000D01*
X128021969Y-59386500D01*
X127974278Y-59229284D01*
X127896831Y-59084392D01*
X127792606Y-58957394D01*
X127665608Y-58853169D01*
X127520716Y-58775722D01*
X127363500Y-58728031D01*
X127200000Y-58711928D01*
X126800000Y-58711928D01*
X126636500Y-58728031D01*
X126479284Y-58775722D01*
X126334392Y-58853169D01*
X126308106Y-58874741D01*
X126147993Y-58789159D01*
X125952895Y-58729976D01*
X125750000Y-58709993D01*
X125547106Y-58729976D01*
X125352008Y-58789159D01*
X125172204Y-58885266D01*
X125125001Y-58924005D01*
X125077797Y-58885266D01*
X124897993Y-58789159D01*
X124702895Y-58729976D01*
X124500000Y-58709993D01*
X124297106Y-58729976D01*
X124102008Y-58789159D01*
X123922204Y-58885266D01*
X123873294Y-58925406D01*
X123860115Y-58913649D01*
X123685228Y-58810692D01*
X123652140Y-58796318D01*
X123498000Y-58909577D01*
X123498000Y-59487689D01*
X123479976Y-59547105D01*
X123465000Y-59699162D01*
X123002000Y-59699162D01*
X123002000Y-58909577D01*
X122847860Y-58796318D01*
X122814772Y-58810692D01*
X122639885Y-58913649D01*
X122488444Y-59048747D01*
X122366269Y-59210794D01*
X122278056Y-59393562D01*
X122227194Y-59590028D01*
X118393300Y-59590028D01*
X118592074Y-59507693D01*
X118796798Y-59370901D01*
X118970901Y-59196798D01*
X119107693Y-58992074D01*
X119201917Y-58764598D01*
X119249952Y-58523110D01*
X119249952Y-58276890D01*
X119201917Y-58035402D01*
X119107693Y-57807926D01*
X118970901Y-57603202D01*
X118796798Y-57429099D01*
X118592074Y-57292307D01*
X118364598Y-57198083D01*
X118364488Y-57198061D01*
X143265000Y-57198061D01*
X143265000Y-57401939D01*
X143304774Y-57601898D01*
X143382795Y-57790256D01*
X143496063Y-57959774D01*
X143640226Y-58103937D01*
X143809744Y-58217205D01*
X143998102Y-58295226D01*
X144198061Y-58335000D01*
X144401939Y-58335000D01*
X144601898Y-58295226D01*
X144646164Y-58276890D01*
X149350048Y-58276890D01*
X149350048Y-58523110D01*
X149398083Y-58764598D01*
X149492307Y-58992074D01*
X149629099Y-59196798D01*
X149803202Y-59370901D01*
X150007926Y-59507693D01*
X150235402Y-59601917D01*
X150476890Y-59649952D01*
X150723110Y-59649952D01*
X150964598Y-59601917D01*
X151192074Y-59507693D01*
X151396798Y-59370901D01*
X151570901Y-59196798D01*
X151666737Y-59053368D01*
X152541409Y-59053368D01*
X152647099Y-60019716D01*
X152939284Y-60946876D01*
X153347433Y-61710473D01*
X153934968Y-62214307D01*
X157149275Y-59000000D01*
X153934968Y-55785693D01*
X153347433Y-56289527D01*
X152898436Y-57151735D01*
X152626276Y-58084969D01*
X152541409Y-59053368D01*
X151666737Y-59053368D01*
X151707693Y-58992074D01*
X151801917Y-58764598D01*
X151849952Y-58523110D01*
X151849952Y-58276890D01*
X151801917Y-58035402D01*
X151707693Y-57807926D01*
X151570901Y-57603202D01*
X151396798Y-57429099D01*
X151192074Y-57292307D01*
X150964598Y-57198083D01*
X150723110Y-57150048D01*
X150476890Y-57150048D01*
X150235402Y-57198083D01*
X150007926Y-57292307D01*
X149803202Y-57429099D01*
X149629099Y-57603202D01*
X149492307Y-57807926D01*
X149398083Y-58035402D01*
X149350048Y-58276890D01*
X144646164Y-58276890D01*
X144790256Y-58217205D01*
X144959774Y-58103937D01*
X145103937Y-57959774D01*
X145217205Y-57790256D01*
X145295226Y-57601898D01*
X145335000Y-57401939D01*
X145335000Y-57198061D01*
X145295226Y-56998102D01*
X145217205Y-56809744D01*
X145103937Y-56640226D01*
X144959774Y-56496063D01*
X144790256Y-56382795D01*
X144601898Y-56304774D01*
X144401939Y-56265000D01*
X144198061Y-56265000D01*
X143998102Y-56304774D01*
X143809744Y-56382795D01*
X143640226Y-56496063D01*
X143496063Y-56640226D01*
X143382795Y-56809744D01*
X143304774Y-56998102D01*
X143265000Y-57198061D01*
X118364488Y-57198061D01*
X118123110Y-57150048D01*
X117876890Y-57150048D01*
X117635402Y-57198083D01*
X117407926Y-57292307D01*
X117203202Y-57429099D01*
X117029099Y-57603202D01*
X116892307Y-57807926D01*
X116798083Y-58035402D01*
X116750048Y-58276890D01*
X116162684Y-58276890D01*
X116102901Y-57730284D01*
X115810716Y-56803124D01*
X115402567Y-56039527D01*
X114815032Y-55535693D01*
X111600725Y-58750000D01*
X110899275Y-58750000D01*
X110885133Y-58735858D01*
X111235858Y-58385133D01*
X111250000Y-58399275D01*
X114464307Y-55184968D01*
X114014127Y-54660000D01*
X139635485Y-54660000D01*
X139459744Y-54732795D01*
G37*
X139459744Y-54732795D02*
X139290226Y-54846063D01*
X139146063Y-54990226D01*
X139032795Y-55159744D01*
X138954774Y-55348102D01*
X138915000Y-55548061D01*
X138915000Y-55751939D01*
X138954774Y-55951898D01*
X139032795Y-56140256D01*
X139146063Y-56309774D01*
X139290226Y-56453937D01*
X139459744Y-56567205D01*
X139648102Y-56645226D01*
X139848061Y-56685000D01*
X140051939Y-56685000D01*
X140251898Y-56645226D01*
X140440256Y-56567205D01*
X140609774Y-56453937D01*
X140753937Y-56309774D01*
X140867205Y-56140256D01*
X140945226Y-55951898D01*
X140985000Y-55751939D01*
X140985000Y-55548061D01*
X140945226Y-55348102D01*
X140867205Y-55159744D01*
X140753937Y-54990226D01*
X140609774Y-54846063D01*
X140440256Y-54732795D01*
X140264515Y-54660000D01*
X155140191Y-54660000D01*
X154789527Y-54847433D01*
X154285693Y-55434968D01*
X157500000Y-58649275D01*
X157514143Y-58635133D01*
X157864868Y-58985858D01*
X157850725Y-59000000D01*
X161065032Y-62214307D01*
X161590000Y-61764127D01*
X161590001Y-96485874D01*
X161065032Y-96035693D01*
X157850725Y-99250000D01*
X157864868Y-99264143D01*
X157514143Y-99614868D01*
X157500000Y-99600725D01*
X154285693Y-102815032D01*
X154735873Y-103340000D01*
X114014127Y-103340000D01*
X114464307Y-102815032D01*
X111250000Y-99600725D01*
X111235858Y-99614868D01*
X110885133Y-99264143D01*
X110899275Y-99250000D01*
X111600725Y-99250000D01*
X114815032Y-102464307D01*
X115402567Y-101960473D01*
X115851564Y-101098265D01*
X116123724Y-100165031D01*
X116208591Y-99196632D01*
X116102901Y-98230284D01*
X115959423Y-97775000D01*
X123161928Y-97775000D01*
X123161928Y-98675000D01*
X123178031Y-98838500D01*
X123225722Y-98995716D01*
X123303169Y-99140608D01*
X123407394Y-99267606D01*
X123534392Y-99371831D01*
X123679284Y-99449278D01*
X123836500Y-99496969D01*
X124000000Y-99513072D01*
X124400000Y-99513072D01*
X124563500Y-99496969D01*
X124720716Y-99449278D01*
X124865608Y-99371831D01*
X124891894Y-99350259D01*
X125052008Y-99435841D01*
X125247106Y-99495024D01*
X125450000Y-99515007D01*
X125652895Y-99495024D01*
X125847993Y-99435841D01*
X126027797Y-99339734D01*
X126075000Y-99300995D01*
X126122204Y-99339734D01*
X126302008Y-99435841D01*
X126497106Y-99495024D01*
X126700000Y-99515007D01*
X126902895Y-99495024D01*
X127097993Y-99435841D01*
X127277797Y-99339734D01*
X127326707Y-99299595D01*
X127339885Y-99311351D01*
X127514772Y-99414308D01*
X127547860Y-99428682D01*
X127702000Y-99315423D01*
X127702000Y-98737310D01*
X127720024Y-98677894D01*
X127735000Y-98525837D01*
X127735000Y-98473000D01*
X128198000Y-98473000D01*
X128198000Y-99315423D01*
X128352140Y-99428682D01*
X128385228Y-99414308D01*
X128560115Y-99311351D01*
X128598744Y-99276890D01*
X149350048Y-99276890D01*
X149350048Y-99523110D01*
X149398083Y-99764598D01*
X149492307Y-99992074D01*
X149629099Y-100196798D01*
X149803202Y-100370901D01*
X150007926Y-100507693D01*
X150235402Y-100601917D01*
X150476890Y-100649952D01*
X150723110Y-100649952D01*
X150964598Y-100601917D01*
X151192074Y-100507693D01*
X151396798Y-100370901D01*
X151570901Y-100196798D01*
X151707693Y-99992074D01*
X151801917Y-99764598D01*
X151849952Y-99523110D01*
X151849952Y-99303368D01*
X152541409Y-99303368D01*
X152647099Y-100269716D01*
X152939284Y-101196876D01*
X153347433Y-101960473D01*
X153934968Y-102464307D01*
X157149275Y-99250000D01*
X153934968Y-96035693D01*
X153347433Y-96539527D01*
X152898436Y-97401735D01*
X152626276Y-98334969D01*
X152541409Y-99303368D01*
X151849952Y-99303368D01*
X151849952Y-99276890D01*
X151801917Y-99035402D01*
X151707693Y-98807926D01*
X151570901Y-98603202D01*
X151396798Y-98429099D01*
X151192074Y-98292307D01*
X150964598Y-98198083D01*
X150723110Y-98150048D01*
X150476890Y-98150048D01*
X150235402Y-98198083D01*
X150007926Y-98292307D01*
X149803202Y-98429099D01*
X149629099Y-98603202D01*
X149492307Y-98807926D01*
X149398083Y-99035402D01*
X149350048Y-99276890D01*
X128598744Y-99276890D01*
X128711556Y-99176253D01*
X128833731Y-99014206D01*
X128921944Y-98831438D01*
X128972806Y-98634972D01*
X128826489Y-98473000D01*
X128198000Y-98473000D01*
X127735000Y-98473000D01*
X127735000Y-97924162D01*
X127720024Y-97772105D01*
X127702000Y-97712689D01*
X127702000Y-97134577D01*
X128198000Y-97134577D01*
X128198000Y-97977000D01*
X128826489Y-97977000D01*
X128897798Y-97898061D01*
X135240000Y-97898061D01*
X135240000Y-98101939D01*
X135279774Y-98301898D01*
X135357795Y-98490256D01*
X135471063Y-98659774D01*
X135615226Y-98803937D01*
X135784744Y-98917205D01*
X135973102Y-98995226D01*
X136173061Y-99035000D01*
X136376939Y-99035000D01*
X136576898Y-98995226D01*
X136765256Y-98917205D01*
X136934774Y-98803937D01*
X137078937Y-98659774D01*
X137192205Y-98490256D01*
X137270226Y-98301898D01*
X137310000Y-98101939D01*
X137310000Y-97948061D01*
X137440000Y-97948061D01*
X137440000Y-98151939D01*
X137479774Y-98351898D01*
X137557795Y-98540256D01*
X137671063Y-98709774D01*
X137815226Y-98853937D01*
X137984744Y-98967205D01*
X138173102Y-99045226D01*
X138373061Y-99085000D01*
X138576939Y-99085000D01*
X138776898Y-99045226D01*
X138965256Y-98967205D01*
X139134774Y-98853937D01*
X139278937Y-98709774D01*
X139392205Y-98540256D01*
X139470226Y-98351898D01*
X139510000Y-98151939D01*
X139510000Y-97948061D01*
X139470226Y-97748102D01*
X139392205Y-97559744D01*
X139278937Y-97390226D01*
X139134774Y-97246063D01*
X138965256Y-97132795D01*
X138776898Y-97054774D01*
X138576939Y-97015000D01*
X138373061Y-97015000D01*
X138173102Y-97054774D01*
X137984744Y-97132795D01*
X137815226Y-97246063D01*
X137671063Y-97390226D01*
X137557795Y-97559744D01*
X137479774Y-97748102D01*
X137440000Y-97948061D01*
X137310000Y-97948061D01*
X137310000Y-97898061D01*
X137270226Y-97698102D01*
X137192205Y-97509744D01*
X137078937Y-97340226D01*
X136934774Y-97196063D01*
X136765256Y-97082795D01*
X136576898Y-97004774D01*
X136376939Y-96965000D01*
X136173061Y-96965000D01*
X135973102Y-97004774D01*
X135784744Y-97082795D01*
X135615226Y-97196063D01*
X135471063Y-97340226D01*
X135357795Y-97509744D01*
X135279774Y-97698102D01*
X135240000Y-97898061D01*
X128897798Y-97898061D01*
X128972806Y-97815028D01*
X128921944Y-97618562D01*
X128833731Y-97435794D01*
X128711556Y-97273747D01*
X128560115Y-97138649D01*
X128385228Y-97035692D01*
X128352140Y-97021318D01*
X128198000Y-97134577D01*
X127702000Y-97134577D01*
X127547860Y-97021318D01*
X127514772Y-97035692D01*
X127339885Y-97138649D01*
X127326707Y-97150405D01*
X127277797Y-97110266D01*
X127097992Y-97014159D01*
X126902894Y-96954976D01*
X126700000Y-96934993D01*
X126497105Y-96954976D01*
X126302007Y-97014159D01*
X126122203Y-97110266D01*
X126075000Y-97149004D01*
X126027797Y-97110266D01*
X125847992Y-97014159D01*
X125652894Y-96954976D01*
X125450000Y-96934993D01*
X125247105Y-96954976D01*
X125052007Y-97014159D01*
X124891894Y-97099741D01*
X124865608Y-97078169D01*
X124720716Y-97000722D01*
X124563500Y-96953031D01*
X124400000Y-96936928D01*
X124000000Y-96936928D01*
X123836500Y-96953031D01*
X123679284Y-97000722D01*
X123534392Y-97078169D01*
X123407394Y-97182394D01*
X123303169Y-97309392D01*
X123225722Y-97454284D01*
X123178031Y-97611500D01*
X123161928Y-97775000D01*
X115959423Y-97775000D01*
X115810716Y-97303124D01*
X115402567Y-96539527D01*
X114815032Y-96035693D01*
X111600725Y-99250000D01*
X110899275Y-99250000D01*
X107684968Y-96035693D01*
X107160000Y-96485873D01*
X107160000Y-95684968D01*
X108035693Y-95684968D01*
X111250000Y-98899275D01*
X114464307Y-95684968D01*
X113960473Y-95097433D01*
X113625627Y-94923061D01*
X135215000Y-94923061D01*
X135215000Y-95126939D01*
X135254774Y-95326898D01*
X135332795Y-95515256D01*
X135446063Y-95684774D01*
X135590226Y-95828937D01*
X135759744Y-95942205D01*
X135948102Y-96020226D01*
X136148061Y-96060000D01*
X136351939Y-96060000D01*
X136551898Y-96020226D01*
X136740256Y-95942205D01*
X136909774Y-95828937D01*
X137053937Y-95684774D01*
X137167205Y-95515256D01*
X137245226Y-95326898D01*
X137285000Y-95126939D01*
X137285000Y-94948061D01*
X137440000Y-94948061D01*
X137440000Y-95151939D01*
X137479774Y-95351898D01*
X137557795Y-95540256D01*
X137671063Y-95709774D01*
X137815226Y-95853937D01*
X137984744Y-95967205D01*
X138173102Y-96045226D01*
X138373061Y-96085000D01*
X138576939Y-96085000D01*
X138776898Y-96045226D01*
X138965256Y-95967205D01*
X139134774Y-95853937D01*
X139278937Y-95709774D01*
X139392205Y-95540256D01*
X139470226Y-95351898D01*
X139510000Y-95151939D01*
X139510000Y-94948061D01*
X139470226Y-94748102D01*
X139392205Y-94559744D01*
X139278937Y-94390226D01*
X139134774Y-94246063D01*
X138965256Y-94132795D01*
X138776898Y-94054774D01*
X138576939Y-94015000D01*
X138373061Y-94015000D01*
X138173102Y-94054774D01*
X137984744Y-94132795D01*
X137815226Y-94246063D01*
X137671063Y-94390226D01*
X137557795Y-94559744D01*
X137479774Y-94748102D01*
X137440000Y-94948061D01*
X137285000Y-94948061D01*
X137285000Y-94923061D01*
X137245226Y-94723102D01*
X137167205Y-94534744D01*
X137053937Y-94365226D01*
X136909774Y-94221063D01*
X136740256Y-94107795D01*
X136551898Y-94029774D01*
X136351939Y-93990000D01*
X136148061Y-93990000D01*
X135948102Y-94029774D01*
X135759744Y-94107795D01*
X135590226Y-94221063D01*
X135446063Y-94365226D01*
X135332795Y-94534744D01*
X135254774Y-94723102D01*
X135215000Y-94923061D01*
X113625627Y-94923061D01*
X113098265Y-94648436D01*
X112165031Y-94376276D01*
X111196632Y-94291409D01*
X110230284Y-94397099D01*
X109303124Y-94689284D01*
X108539527Y-95097433D01*
X108035693Y-95684968D01*
X107160000Y-95684968D01*
X107160000Y-93973061D01*
X145740000Y-93973061D01*
X145740000Y-94176939D01*
X145779774Y-94376898D01*
X145857795Y-94565256D01*
X145971063Y-94734774D01*
X146115226Y-94878937D01*
X146284744Y-94992205D01*
X146473102Y-95070226D01*
X146673061Y-95110000D01*
X146751549Y-95110000D01*
X146779774Y-95251898D01*
X146857795Y-95440256D01*
X146971063Y-95609774D01*
X147115226Y-95753937D01*
X147284744Y-95867205D01*
X147473102Y-95945226D01*
X147673061Y-95985000D01*
X147876939Y-95985000D01*
X148076898Y-95945226D01*
X148265256Y-95867205D01*
X148434774Y-95753937D01*
X148503743Y-95684968D01*
X154285693Y-95684968D01*
X157500000Y-98899275D01*
X160714307Y-95684968D01*
X160210473Y-95097433D01*
X159348265Y-94648436D01*
X158415031Y-94376276D01*
X157446632Y-94291409D01*
X156480284Y-94397099D01*
X155553124Y-94689284D01*
X154789527Y-95097433D01*
X154285693Y-95684968D01*
X148503743Y-95684968D01*
X148578937Y-95609774D01*
X148692205Y-95440256D01*
X148770226Y-95251898D01*
X148810000Y-95051939D01*
X148810000Y-94848061D01*
X148770226Y-94648102D01*
X148692205Y-94459744D01*
X148578937Y-94290226D01*
X148434774Y-94146063D01*
X148265256Y-94032795D01*
X148076898Y-93954774D01*
X147876939Y-93915000D01*
X147798451Y-93915000D01*
X147770226Y-93773102D01*
X147692205Y-93584744D01*
X147578937Y-93415226D01*
X147434774Y-93271063D01*
X147265256Y-93157795D01*
X147076898Y-93079774D01*
X146876939Y-93040000D01*
X146673061Y-93040000D01*
X146473102Y-93079774D01*
X146284744Y-93157795D01*
X146115226Y-93271063D01*
X145971063Y-93415226D01*
X145857795Y-93584744D01*
X145779774Y-93773102D01*
X145740000Y-93973061D01*
X107160000Y-93973061D01*
X107160000Y-91498061D01*
X134715000Y-91498061D01*
X134715000Y-91701939D01*
X134754774Y-91901898D01*
X134832795Y-92090256D01*
X134897771Y-92187500D01*
X134832795Y-92284744D01*
X134754774Y-92473102D01*
X134715000Y-92673061D01*
X134715000Y-92876939D01*
X134754774Y-93076898D01*
X134832795Y-93265256D01*
X134946063Y-93434774D01*
X135090226Y-93578937D01*
X135259744Y-93692205D01*
X135448102Y-93770226D01*
X135648061Y-93810000D01*
X135851939Y-93810000D01*
X136051898Y-93770226D01*
X136240256Y-93692205D01*
X136409774Y-93578937D01*
X136553937Y-93434774D01*
X136667205Y-93265256D01*
X136745226Y-93076898D01*
X136785000Y-92876939D01*
X136785000Y-92673061D01*
X138190000Y-92673061D01*
X138190000Y-92876939D01*
X138229774Y-93076898D01*
X138307795Y-93265256D01*
X138421063Y-93434774D01*
X138565226Y-93578937D01*
X138734744Y-93692205D01*
X138923102Y-93770226D01*
X139123061Y-93810000D01*
X139326939Y-93810000D01*
X139526898Y-93770226D01*
X139715256Y-93692205D01*
X139884774Y-93578937D01*
X140028937Y-93434774D01*
X140142205Y-93265256D01*
X140220226Y-93076898D01*
X140260000Y-92876939D01*
X140260000Y-92673061D01*
X140220226Y-92473102D01*
X140142205Y-92284744D01*
X140114785Y-92243708D01*
X140167205Y-92165256D01*
X140245226Y-91976898D01*
X140285000Y-91776939D01*
X140285000Y-91573061D01*
X140245226Y-91373102D01*
X140167205Y-91184744D01*
X140053937Y-91015226D01*
X139909774Y-90871063D01*
X139740256Y-90757795D01*
X139551898Y-90679774D01*
X139351939Y-90640000D01*
X139148061Y-90640000D01*
X138948102Y-90679774D01*
X138759744Y-90757795D01*
X138590226Y-90871063D01*
X138446063Y-91015226D01*
X138332795Y-91184744D01*
X138254774Y-91373102D01*
X138215000Y-91573061D01*
X138215000Y-91776939D01*
X138254774Y-91976898D01*
X138332795Y-92165256D01*
X138360215Y-92206292D01*
X138307795Y-92284744D01*
X138229774Y-92473102D01*
X138190000Y-92673061D01*
X136785000Y-92673061D01*
X136745226Y-92473102D01*
X136667205Y-92284744D01*
X136602229Y-92187500D01*
X136667205Y-92090256D01*
X136745226Y-91901898D01*
X136785000Y-91701939D01*
X136785000Y-91498061D01*
X136745226Y-91298102D01*
X136667205Y-91109744D01*
X136553937Y-90940226D01*
X136409774Y-90796063D01*
X136240256Y-90682795D01*
X136051898Y-90604774D01*
X135851939Y-90565000D01*
X135648061Y-90565000D01*
X135448102Y-90604774D01*
X135259744Y-90682795D01*
X135090226Y-90796063D01*
X134946063Y-90940226D01*
X134832795Y-91109744D01*
X134754774Y-91298102D01*
X134715000Y-91498061D01*
X107160000Y-91498061D01*
X107160000Y-88698061D01*
X123065000Y-88698061D01*
X123065000Y-88901939D01*
X123104774Y-89101898D01*
X123182795Y-89290256D01*
X123296063Y-89459774D01*
X123440226Y-89603937D01*
X123609744Y-89717205D01*
X123798102Y-89795226D01*
X123998061Y-89835000D01*
X124201939Y-89835000D01*
X124401898Y-89795226D01*
X124590256Y-89717205D01*
X124759774Y-89603937D01*
X124903937Y-89459774D01*
X125017205Y-89290256D01*
X125095226Y-89101898D01*
X125125440Y-88950000D01*
X154561928Y-88950000D01*
X154561928Y-91550000D01*
X154574188Y-91674482D01*
X154610498Y-91794180D01*
X154669463Y-91904494D01*
X154748815Y-92001185D01*
X154845506Y-92080537D01*
X154955820Y-92139502D01*
X155075518Y-92175812D01*
X155200000Y-92188072D01*
X157800000Y-92188072D01*
X157924482Y-92175812D01*
X158044180Y-92139502D01*
X158154494Y-92080537D01*
X158251185Y-92001185D01*
X158330537Y-91904494D01*
X158389502Y-91794180D01*
X158425812Y-91674482D01*
X158438072Y-91550000D01*
X158438072Y-88950000D01*
X158425812Y-88825518D01*
X158389502Y-88705820D01*
X158330537Y-88595506D01*
X158251185Y-88498815D01*
X158154494Y-88419463D01*
X158044180Y-88360498D01*
X157924482Y-88324188D01*
X157800000Y-88311928D01*
X155200000Y-88311928D01*
X155075518Y-88324188D01*
X154955820Y-88360498D01*
X154845506Y-88419463D01*
X154748815Y-88498815D01*
X154669463Y-88595506D01*
X154610498Y-88705820D01*
X154574188Y-88825518D01*
X154561928Y-88950000D01*
X125125440Y-88950000D01*
X125135000Y-88901939D01*
X125135000Y-88698061D01*
X125095226Y-88498102D01*
X125017205Y-88309744D01*
X124903937Y-88140226D01*
X124759774Y-87996063D01*
X124590256Y-87882795D01*
X124401898Y-87804774D01*
X124368150Y-87798061D01*
X129065000Y-87798061D01*
X129065000Y-88001939D01*
X129104774Y-88201898D01*
X129182795Y-88390256D01*
X129296063Y-88559774D01*
X129440226Y-88703937D01*
X129609744Y-88817205D01*
X129798102Y-88895226D01*
X129998061Y-88935000D01*
X130201939Y-88935000D01*
X130401898Y-88895226D01*
X130590256Y-88817205D01*
X130759774Y-88703937D01*
X130903937Y-88559774D01*
X131017205Y-88390256D01*
X131095226Y-88201898D01*
X131135000Y-88001939D01*
X131135000Y-87798061D01*
X131095226Y-87598102D01*
X131017205Y-87409744D01*
X130903937Y-87240226D01*
X130759774Y-87096063D01*
X130590256Y-86982795D01*
X130401898Y-86904774D01*
X130201939Y-86865000D01*
X129998061Y-86865000D01*
X129798102Y-86904774D01*
X129609744Y-86982795D01*
X129440226Y-87096063D01*
X129296063Y-87240226D01*
X129182795Y-87409744D01*
X129104774Y-87598102D01*
X129065000Y-87798061D01*
X124368150Y-87798061D01*
X124201939Y-87765000D01*
X123998061Y-87765000D01*
X123798102Y-87804774D01*
X123609744Y-87882795D01*
X123440226Y-87996063D01*
X123296063Y-88140226D01*
X123182795Y-88309744D01*
X123104774Y-88498102D01*
X123065000Y-88698061D01*
X107160000Y-88698061D01*
X107160000Y-86675744D01*
X155424981Y-86675744D01*
X155567103Y-86955945D01*
X155917842Y-87105165D01*
X156290953Y-87183092D01*
X156672097Y-87186732D01*
X157046627Y-87115943D01*
X157400152Y-86973448D01*
X157432897Y-86955945D01*
X157575019Y-86675744D01*
X156500000Y-85600725D01*
X155424981Y-86675744D01*
X107160000Y-86675744D01*
X107160000Y-85473061D01*
X113715000Y-85473061D01*
X113715000Y-85676939D01*
X113754774Y-85876898D01*
X113832795Y-86065256D01*
X113946063Y-86234774D01*
X114090226Y-86378937D01*
X114259744Y-86492205D01*
X114448102Y-86570226D01*
X114648061Y-86610000D01*
X114851939Y-86610000D01*
X115051898Y-86570226D01*
X115240256Y-86492205D01*
X115409774Y-86378937D01*
X115553937Y-86234774D01*
X115667205Y-86065256D01*
X115745226Y-85876898D01*
X115785000Y-85676939D01*
X115785000Y-85473061D01*
X115774863Y-85422097D01*
X154563268Y-85422097D01*
X154634057Y-85796627D01*
X154776552Y-86150152D01*
X154794055Y-86182897D01*
X155074256Y-86325019D01*
X156149275Y-85250000D01*
X156850725Y-85250000D01*
X157925744Y-86325019D01*
X158205945Y-86182897D01*
X158355165Y-85832158D01*
X158433092Y-85459047D01*
X158436732Y-85077903D01*
X158365943Y-84703373D01*
X158223448Y-84349848D01*
X158205945Y-84317103D01*
X157925744Y-84174981D01*
X156850725Y-85250000D01*
X156149275Y-85250000D01*
X155074256Y-84174981D01*
X154794055Y-84317103D01*
X154644835Y-84667842D01*
X154566908Y-85040953D01*
X154563268Y-85422097D01*
X115774863Y-85422097D01*
X115745226Y-85273102D01*
X115667205Y-85084744D01*
X115553937Y-84915226D01*
X115409774Y-84771063D01*
X115390751Y-84758352D01*
X115434774Y-84728937D01*
X115578937Y-84584774D01*
X115692205Y-84415256D01*
X115770226Y-84226898D01*
X115810000Y-84026939D01*
X115810000Y-83824256D01*
X155424981Y-83824256D01*
X156500000Y-84899275D01*
X157575019Y-83824256D01*
X157432897Y-83544055D01*
X157082158Y-83394835D01*
X156709047Y-83316908D01*
X156327903Y-83313268D01*
X155953373Y-83384057D01*
X155599848Y-83526552D01*
X155567103Y-83544055D01*
X155424981Y-83824256D01*
X115810000Y-83824256D01*
X115810000Y-83823061D01*
X115770226Y-83623102D01*
X115692205Y-83434744D01*
X115578937Y-83265226D01*
X115434774Y-83121063D01*
X115265256Y-83007795D01*
X115076898Y-82929774D01*
X114876939Y-82890000D01*
X114673061Y-82890000D01*
X114473102Y-82929774D01*
X114284744Y-83007795D01*
X114115226Y-83121063D01*
X113971063Y-83265226D01*
X113857795Y-83434744D01*
X113779774Y-83623102D01*
X113740000Y-83823061D01*
X113740000Y-84026939D01*
X113779774Y-84226898D01*
X113857795Y-84415256D01*
X113971063Y-84584774D01*
X114115226Y-84728937D01*
X114134249Y-84741648D01*
X114090226Y-84771063D01*
X113946063Y-84915226D01*
X113832795Y-85084744D01*
X113754774Y-85273102D01*
X113715000Y-85473061D01*
X107160000Y-85473061D01*
X107160000Y-80173061D01*
X128115000Y-80173061D01*
X128115000Y-80376939D01*
X128154774Y-80576898D01*
X128232795Y-80765256D01*
X128346063Y-80934774D01*
X128490226Y-81078937D01*
X128659744Y-81192205D01*
X128848102Y-81270226D01*
X129048061Y-81310000D01*
X129251939Y-81310000D01*
X129451898Y-81270226D01*
X129640256Y-81192205D01*
X129809774Y-81078937D01*
X129953937Y-80934774D01*
X130067205Y-80765256D01*
X130145226Y-80576898D01*
X130185000Y-80376939D01*
X130185000Y-80173061D01*
X130145226Y-79973102D01*
X130067205Y-79784744D01*
X129953937Y-79615226D01*
X129809774Y-79471063D01*
X129640256Y-79357795D01*
X129451898Y-79279774D01*
X129251939Y-79240000D01*
X129048061Y-79240000D01*
X128848102Y-79279774D01*
X128659744Y-79357795D01*
X128490226Y-79471063D01*
X128346063Y-79615226D01*
X128232795Y-79784744D01*
X128154774Y-79973102D01*
X128115000Y-80173061D01*
X107160000Y-80173061D01*
X107160000Y-77923061D01*
X117240000Y-77923061D01*
X117240000Y-78126939D01*
X117279774Y-78326898D01*
X117357795Y-78515256D01*
X117471063Y-78684774D01*
X117615226Y-78828937D01*
X117784744Y-78942205D01*
X117973102Y-79020226D01*
X118173061Y-79060000D01*
X118376939Y-79060000D01*
X118576898Y-79020226D01*
X118765256Y-78942205D01*
X118934774Y-78828937D01*
X119078937Y-78684774D01*
X119192205Y-78515256D01*
X119270226Y-78326898D01*
X119310000Y-78126939D01*
X119310000Y-77923061D01*
X119270226Y-77723102D01*
X119192205Y-77534744D01*
X119078937Y-77365226D01*
X118934774Y-77221063D01*
X118765256Y-77107795D01*
X118576898Y-77029774D01*
X118376939Y-76990000D01*
X118173061Y-76990000D01*
X117973102Y-77029774D01*
X117784744Y-77107795D01*
X117615226Y-77221063D01*
X117471063Y-77365226D01*
X117357795Y-77534744D01*
X117279774Y-77723102D01*
X117240000Y-77923061D01*
X107160000Y-77923061D01*
X107160000Y-75673061D01*
X131565000Y-75673061D01*
X131565000Y-75876939D01*
X131604774Y-76076898D01*
X131682795Y-76265256D01*
X131796063Y-76434774D01*
X131940226Y-76578937D01*
X132109744Y-76692205D01*
X132298102Y-76770226D01*
X132498061Y-76810000D01*
X132701939Y-76810000D01*
X132901898Y-76770226D01*
X133090256Y-76692205D01*
X133259774Y-76578937D01*
X133403937Y-76434774D01*
X133517205Y-76265256D01*
X133595226Y-76076898D01*
X133635000Y-75876939D01*
X133635000Y-75673061D01*
X133595226Y-75473102D01*
X133517205Y-75284744D01*
X133403937Y-75115226D01*
X133259774Y-74971063D01*
X133090256Y-74857795D01*
X132901898Y-74779774D01*
X132701939Y-74740000D01*
X132498061Y-74740000D01*
X132298102Y-74779774D01*
X132109744Y-74857795D01*
X131940226Y-74971063D01*
X131796063Y-75115226D01*
X131682795Y-75284744D01*
X131604774Y-75473102D01*
X131565000Y-75673061D01*
X107160000Y-75673061D01*
X107160000Y-74175000D01*
X157109388Y-74175000D01*
X157131785Y-74402400D01*
X157198115Y-74621060D01*
X157305829Y-74822579D01*
X157450788Y-74999212D01*
X157627421Y-75144171D01*
X157828940Y-75251885D01*
X158047600Y-75318215D01*
X158218021Y-75335000D01*
X159181979Y-75335000D01*
X159352400Y-75318215D01*
X159571060Y-75251885D01*
X159772579Y-75144171D01*
X159949212Y-74999212D01*
X160094171Y-74822579D01*
X160201885Y-74621060D01*
X160268215Y-74402400D01*
X160290612Y-74175000D01*
X160268215Y-73947600D01*
X160201885Y-73728940D01*
X160094171Y-73527421D01*
X159949212Y-73350788D01*
X159772579Y-73205829D01*
X159571060Y-73098115D01*
X159352400Y-73031785D01*
X159181979Y-73015000D01*
X158218021Y-73015000D01*
X158047600Y-73031785D01*
X157828940Y-73098115D01*
X157627421Y-73205829D01*
X157450788Y-73350788D01*
X157305829Y-73527421D01*
X157198115Y-73728940D01*
X157131785Y-73947600D01*
X157109388Y-74175000D01*
X107160000Y-74175000D01*
X107160000Y-71643137D01*
X107335000Y-71643137D01*
X107335000Y-71856863D01*
X107376696Y-72066483D01*
X107458485Y-72263940D01*
X107577225Y-72441647D01*
X107728353Y-72592775D01*
X107906060Y-72711515D01*
X108103517Y-72793304D01*
X108313137Y-72835000D01*
X108526863Y-72835000D01*
X108736483Y-72793304D01*
X108933940Y-72711515D01*
X109111647Y-72592775D01*
X109262775Y-72441647D01*
X109381515Y-72263940D01*
X109408802Y-72198061D01*
X118965000Y-72198061D01*
X118965000Y-72401939D01*
X119004774Y-72601898D01*
X119082795Y-72790256D01*
X119196063Y-72959774D01*
X119340226Y-73103937D01*
X119509744Y-73217205D01*
X119698102Y-73295226D01*
X119898061Y-73335000D01*
X120101939Y-73335000D01*
X120301898Y-73295226D01*
X120490256Y-73217205D01*
X120659774Y-73103937D01*
X120803937Y-72959774D01*
X120917205Y-72790256D01*
X120964630Y-72675763D01*
X120979774Y-72751898D01*
X121057795Y-72940256D01*
X121171063Y-73109774D01*
X121315226Y-73253937D01*
X121484744Y-73367205D01*
X121673102Y-73445226D01*
X121873061Y-73485000D01*
X122076939Y-73485000D01*
X122276898Y-73445226D01*
X122465256Y-73367205D01*
X122634774Y-73253937D01*
X122778937Y-73109774D01*
X122892205Y-72940256D01*
X122970226Y-72751898D01*
X123010000Y-72551939D01*
X123010000Y-72391870D01*
X123190256Y-72317205D01*
X123359774Y-72203937D01*
X123503937Y-72059774D01*
X123617205Y-71890256D01*
X123695226Y-71701898D01*
X123735000Y-71501939D01*
X123735000Y-71298061D01*
X126465000Y-71298061D01*
X126465000Y-71501939D01*
X126504774Y-71701898D01*
X126582795Y-71890256D01*
X126696063Y-72059774D01*
X126840226Y-72203937D01*
X127009744Y-72317205D01*
X127198102Y-72395226D01*
X127398061Y-72435000D01*
X127601939Y-72435000D01*
X127801898Y-72395226D01*
X127990256Y-72317205D01*
X128159774Y-72203937D01*
X128303937Y-72059774D01*
X128417205Y-71890256D01*
X128495226Y-71701898D01*
X128535000Y-71501939D01*
X128535000Y-71298061D01*
X128495226Y-71098102D01*
X128417205Y-70909744D01*
X128303937Y-70740226D01*
X128159774Y-70596063D01*
X127990256Y-70482795D01*
X127801898Y-70404774D01*
X127601939Y-70365000D01*
X127398061Y-70365000D01*
X127198102Y-70404774D01*
X127009744Y-70482795D01*
X126840226Y-70596063D01*
X126696063Y-70740226D01*
X126582795Y-70909744D01*
X126504774Y-71098102D01*
X126465000Y-71298061D01*
X123735000Y-71298061D01*
X123695226Y-71098102D01*
X123617205Y-70909744D01*
X123503937Y-70740226D01*
X123359774Y-70596063D01*
X123190256Y-70482795D01*
X123001898Y-70404774D01*
X122801939Y-70365000D01*
X122598061Y-70365000D01*
X122398102Y-70404774D01*
X122209744Y-70482795D01*
X122040226Y-70596063D01*
X121896063Y-70740226D01*
X121782795Y-70909744D01*
X121704774Y-71098102D01*
X121665000Y-71298061D01*
X121665000Y-71458130D01*
X121484744Y-71532795D01*
X121315226Y-71646063D01*
X121171063Y-71790226D01*
X121057795Y-71959744D01*
X121010370Y-72074237D01*
X120995226Y-71998102D01*
X120917205Y-71809744D01*
X120803937Y-71640226D01*
X120659774Y-71496063D01*
X120490256Y-71382795D01*
X120301898Y-71304774D01*
X120101939Y-71265000D01*
X119898061Y-71265000D01*
X119698102Y-71304774D01*
X119509744Y-71382795D01*
X119340226Y-71496063D01*
X119196063Y-71640226D01*
X119082795Y-71809744D01*
X119004774Y-71998102D01*
X118965000Y-72198061D01*
X109408802Y-72198061D01*
X109463304Y-72066483D01*
X109505000Y-71856863D01*
X109505000Y-71643137D01*
X109463304Y-71433517D01*
X109381515Y-71236060D01*
X109262775Y-71058353D01*
X109111647Y-70907225D01*
X108933940Y-70788485D01*
X108736483Y-70706696D01*
X108526863Y-70665000D01*
X108313137Y-70665000D01*
X108103517Y-70706696D01*
X107906060Y-70788485D01*
X107728353Y-70907225D01*
X107577225Y-71058353D01*
X107458485Y-71236060D01*
X107376696Y-71433517D01*
X107335000Y-71643137D01*
X107160000Y-71643137D01*
X107160000Y-68643137D01*
X107335000Y-68643137D01*
X107335000Y-68856863D01*
X107376696Y-69066483D01*
X107458485Y-69263940D01*
X107577225Y-69441647D01*
X107728353Y-69592775D01*
X107906060Y-69711515D01*
X108103517Y-69793304D01*
X108313137Y-69835000D01*
X108526863Y-69835000D01*
X108736483Y-69793304D01*
X108933940Y-69711515D01*
X108991490Y-69673061D01*
X128090000Y-69673061D01*
X128090000Y-69876939D01*
X128129774Y-70076898D01*
X128207795Y-70265256D01*
X128321063Y-70434774D01*
X128465226Y-70578937D01*
X128634744Y-70692205D01*
X128823102Y-70770226D01*
X129023061Y-70810000D01*
X129226939Y-70810000D01*
X129426898Y-70770226D01*
X129615256Y-70692205D01*
X129784774Y-70578937D01*
X129928937Y-70434774D01*
X130042205Y-70265256D01*
X130120226Y-70076898D01*
X130160000Y-69876939D01*
X130160000Y-69673061D01*
X130120226Y-69473102D01*
X130042205Y-69284744D01*
X129928937Y-69115226D01*
X129784774Y-68971063D01*
X129615256Y-68857795D01*
X129426898Y-68779774D01*
X129226939Y-68740000D01*
X129023061Y-68740000D01*
X128823102Y-68779774D01*
X128634744Y-68857795D01*
X128465226Y-68971063D01*
X128321063Y-69115226D01*
X128207795Y-69284744D01*
X128129774Y-69473102D01*
X128090000Y-69673061D01*
X108991490Y-69673061D01*
X109111647Y-69592775D01*
X109262775Y-69441647D01*
X109381515Y-69263940D01*
X109463304Y-69066483D01*
X109505000Y-68856863D01*
X109505000Y-68643137D01*
X109463304Y-68433517D01*
X109381515Y-68236060D01*
X109262775Y-68058353D01*
X109111647Y-67907225D01*
X109097933Y-67898061D01*
X110365000Y-67898061D01*
X110365000Y-68101939D01*
X110404774Y-68301898D01*
X110482795Y-68490256D01*
X110596063Y-68659774D01*
X110740226Y-68803937D01*
X110909744Y-68917205D01*
X111098102Y-68995226D01*
X111298061Y-69035000D01*
X111501939Y-69035000D01*
X111701898Y-68995226D01*
X111890256Y-68917205D01*
X112059774Y-68803937D01*
X112203937Y-68659774D01*
X112228467Y-68623061D01*
X148540000Y-68623061D01*
X148540000Y-68826939D01*
X148579774Y-69026898D01*
X148657795Y-69215256D01*
X148771063Y-69384774D01*
X148915226Y-69528937D01*
X149084744Y-69642205D01*
X149273102Y-69720226D01*
X149473061Y-69760000D01*
X149676939Y-69760000D01*
X149876898Y-69720226D01*
X150065256Y-69642205D01*
X150234774Y-69528937D01*
X150378937Y-69384774D01*
X150492205Y-69215256D01*
X150570226Y-69026898D01*
X150610000Y-68826939D01*
X150610000Y-68623061D01*
X150570226Y-68423102D01*
X150492205Y-68234744D01*
X150378937Y-68065226D01*
X150234774Y-67921063D01*
X150065256Y-67807795D01*
X149876898Y-67729774D01*
X149676939Y-67690000D01*
X149473061Y-67690000D01*
X149273102Y-67729774D01*
X149084744Y-67807795D01*
X148915226Y-67921063D01*
X148771063Y-68065226D01*
X148657795Y-68234744D01*
X148579774Y-68423102D01*
X148540000Y-68623061D01*
X112228467Y-68623061D01*
X112317205Y-68490256D01*
X112395226Y-68301898D01*
X112435000Y-68101939D01*
X112435000Y-67898061D01*
X112395226Y-67698102D01*
X112317205Y-67509744D01*
X112203937Y-67340226D01*
X112059774Y-67196063D01*
X111890256Y-67082795D01*
X111750728Y-67025000D01*
X157109388Y-67025000D01*
X157131785Y-67252400D01*
X157198115Y-67471060D01*
X157305829Y-67672579D01*
X157450788Y-67849212D01*
X157627421Y-67994171D01*
X157828940Y-68101885D01*
X158047600Y-68168215D01*
X158218021Y-68185000D01*
X159181979Y-68185000D01*
X159352400Y-68168215D01*
X159571060Y-68101885D01*
X159772579Y-67994171D01*
X159949212Y-67849212D01*
X160094171Y-67672579D01*
X160201885Y-67471060D01*
X160268215Y-67252400D01*
X160290612Y-67025000D01*
X160268215Y-66797600D01*
X160201885Y-66578940D01*
X160094171Y-66377421D01*
X159949212Y-66200788D01*
X159772579Y-66055829D01*
X159571060Y-65948115D01*
X159352400Y-65881785D01*
X159181979Y-65865000D01*
X158218021Y-65865000D01*
X158047600Y-65881785D01*
X157828940Y-65948115D01*
X157627421Y-66055829D01*
X157450788Y-66200788D01*
X157305829Y-66377421D01*
X157198115Y-66578940D01*
X157131785Y-66797600D01*
X157109388Y-67025000D01*
X111750728Y-67025000D01*
X111701898Y-67004774D01*
X111501939Y-66965000D01*
X111298061Y-66965000D01*
X111098102Y-67004774D01*
X110909744Y-67082795D01*
X110740226Y-67196063D01*
X110596063Y-67340226D01*
X110482795Y-67509744D01*
X110404774Y-67698102D01*
X110365000Y-67898061D01*
X109097933Y-67898061D01*
X108933940Y-67788485D01*
X108736483Y-67706696D01*
X108526863Y-67665000D01*
X108313137Y-67665000D01*
X108103517Y-67706696D01*
X107906060Y-67788485D01*
X107728353Y-67907225D01*
X107577225Y-68058353D01*
X107458485Y-68236060D01*
X107376696Y-68433517D01*
X107335000Y-68643137D01*
X107160000Y-68643137D01*
X107160000Y-62315032D01*
X108035693Y-62315032D01*
X108539527Y-62902567D01*
X109401735Y-63351564D01*
X110334969Y-63623724D01*
X111303368Y-63708591D01*
X112269716Y-63602901D01*
X113196876Y-63310716D01*
X113960473Y-62902567D01*
X114249922Y-62565032D01*
X154285693Y-62565032D01*
X154789527Y-63152567D01*
X155651735Y-63601564D01*
X156584969Y-63873724D01*
X157553368Y-63958591D01*
X158519716Y-63852901D01*
X159446876Y-63560716D01*
X160210473Y-63152567D01*
X160714307Y-62565032D01*
X157500000Y-59350725D01*
X154285693Y-62565032D01*
X114249922Y-62565032D01*
X114464307Y-62315032D01*
X111250000Y-59100725D01*
X108035693Y-62315032D01*
X107160000Y-62315032D01*
X107160000Y-61514127D01*
X107684968Y-61964307D01*
X110899275Y-58750000D01*
X111600725Y-58750000D01*
X114815032Y-61964307D01*
X115402567Y-61460473D01*
X115851564Y-60598265D01*
X115906476Y-60409972D01*
X122227194Y-60409972D01*
X122278056Y-60606438D01*
X122366269Y-60789206D01*
X122488444Y-60951253D01*
X122639885Y-61086351D01*
X122814772Y-61189308D01*
X122847860Y-61203682D01*
X123002000Y-61090423D01*
X123002000Y-60248000D01*
X122373511Y-60248000D01*
X122227194Y-60409972D01*
X115906476Y-60409972D01*
X116123724Y-59665031D01*
X116208591Y-58696632D01*
X116162684Y-58276890D01*
X116750048Y-58276890D01*
X116750048Y-58523110D01*
X116798083Y-58764598D01*
X116892307Y-58992074D01*
X117029099Y-59196798D01*
X117203202Y-59370901D01*
X117407926Y-59507693D01*
X117635402Y-59601917D01*
X117876890Y-59649952D01*
X118123110Y-59649952D01*
X118364598Y-59601917D01*
X118393300Y-59590028D01*
X122227194Y-59590028D01*
X122373511Y-59752000D01*
X123002000Y-59752000D01*
X123002000Y-59699162D01*
X123465000Y-59699162D01*
X123465000Y-60300837D01*
X123479976Y-60452894D01*
X123498000Y-60512310D01*
X123498000Y-61090423D01*
X123652140Y-61203682D01*
X123685228Y-61189308D01*
X123860115Y-61086351D01*
X123873293Y-61074595D01*
X123922203Y-61114734D01*
X124102007Y-61210841D01*
X124297105Y-61270024D01*
X124500000Y-61290007D01*
X124702894Y-61270024D01*
X124897992Y-61210841D01*
X125077797Y-61114734D01*
X125125000Y-61075996D01*
X125172203Y-61114734D01*
X125352007Y-61210841D01*
X125547105Y-61270024D01*
X125750000Y-61290007D01*
X125952894Y-61270024D01*
X126147992Y-61210841D01*
X126308106Y-61125259D01*
X126334392Y-61146831D01*
X126479284Y-61224278D01*
X126636500Y-61271969D01*
X126800000Y-61288072D01*
X127200000Y-61288072D01*
X127363500Y-61271969D01*
X127520716Y-61224278D01*
X127665608Y-61146831D01*
X127792606Y-61042606D01*
X127896831Y-60915608D01*
X127974278Y-60770716D01*
X128021969Y-60613500D01*
X128038072Y-60450000D01*
X128038072Y-59550000D01*
X128021969Y-59386500D01*
X127974278Y-59229284D01*
X127896831Y-59084392D01*
X127792606Y-58957394D01*
X127665608Y-58853169D01*
X127520716Y-58775722D01*
X127363500Y-58728031D01*
X127200000Y-58711928D01*
X126800000Y-58711928D01*
X126636500Y-58728031D01*
X126479284Y-58775722D01*
X126334392Y-58853169D01*
X126308106Y-58874741D01*
X126147993Y-58789159D01*
X125952895Y-58729976D01*
X125750000Y-58709993D01*
X125547106Y-58729976D01*
X125352008Y-58789159D01*
X125172204Y-58885266D01*
X125125001Y-58924005D01*
X125077797Y-58885266D01*
X124897993Y-58789159D01*
X124702895Y-58729976D01*
X124500000Y-58709993D01*
X124297106Y-58729976D01*
X124102008Y-58789159D01*
X123922204Y-58885266D01*
X123873294Y-58925406D01*
X123860115Y-58913649D01*
X123685228Y-58810692D01*
X123652140Y-58796318D01*
X123498000Y-58909577D01*
X123498000Y-59487689D01*
X123479976Y-59547105D01*
X123465000Y-59699162D01*
X123002000Y-59699162D01*
X123002000Y-58909577D01*
X122847860Y-58796318D01*
X122814772Y-58810692D01*
X122639885Y-58913649D01*
X122488444Y-59048747D01*
X122366269Y-59210794D01*
X122278056Y-59393562D01*
X122227194Y-59590028D01*
X118393300Y-59590028D01*
X118592074Y-59507693D01*
X118796798Y-59370901D01*
X118970901Y-59196798D01*
X119107693Y-58992074D01*
X119201917Y-58764598D01*
X119249952Y-58523110D01*
X119249952Y-58276890D01*
X119201917Y-58035402D01*
X119107693Y-57807926D01*
X118970901Y-57603202D01*
X118796798Y-57429099D01*
X118592074Y-57292307D01*
X118364598Y-57198083D01*
X118364488Y-57198061D01*
X143265000Y-57198061D01*
X143265000Y-57401939D01*
X143304774Y-57601898D01*
X143382795Y-57790256D01*
X143496063Y-57959774D01*
X143640226Y-58103937D01*
X143809744Y-58217205D01*
X143998102Y-58295226D01*
X144198061Y-58335000D01*
X144401939Y-58335000D01*
X144601898Y-58295226D01*
X144646164Y-58276890D01*
X149350048Y-58276890D01*
X149350048Y-58523110D01*
X149398083Y-58764598D01*
X149492307Y-58992074D01*
X149629099Y-59196798D01*
X149803202Y-59370901D01*
X150007926Y-59507693D01*
X150235402Y-59601917D01*
X150476890Y-59649952D01*
X150723110Y-59649952D01*
X150964598Y-59601917D01*
X151192074Y-59507693D01*
X151396798Y-59370901D01*
X151570901Y-59196798D01*
X151666737Y-59053368D01*
X152541409Y-59053368D01*
X152647099Y-60019716D01*
X152939284Y-60946876D01*
X153347433Y-61710473D01*
X153934968Y-62214307D01*
X157149275Y-59000000D01*
X153934968Y-55785693D01*
X153347433Y-56289527D01*
X152898436Y-57151735D01*
X152626276Y-58084969D01*
X152541409Y-59053368D01*
X151666737Y-59053368D01*
X151707693Y-58992074D01*
X151801917Y-58764598D01*
X151849952Y-58523110D01*
X151849952Y-58276890D01*
X151801917Y-58035402D01*
X151707693Y-57807926D01*
X151570901Y-57603202D01*
X151396798Y-57429099D01*
X151192074Y-57292307D01*
X150964598Y-57198083D01*
X150723110Y-57150048D01*
X150476890Y-57150048D01*
X150235402Y-57198083D01*
X150007926Y-57292307D01*
X149803202Y-57429099D01*
X149629099Y-57603202D01*
X149492307Y-57807926D01*
X149398083Y-58035402D01*
X149350048Y-58276890D01*
X144646164Y-58276890D01*
X144790256Y-58217205D01*
X144959774Y-58103937D01*
X145103937Y-57959774D01*
X145217205Y-57790256D01*
X145295226Y-57601898D01*
X145335000Y-57401939D01*
X145335000Y-57198061D01*
X145295226Y-56998102D01*
X145217205Y-56809744D01*
X145103937Y-56640226D01*
X144959774Y-56496063D01*
X144790256Y-56382795D01*
X144601898Y-56304774D01*
X144401939Y-56265000D01*
X144198061Y-56265000D01*
X143998102Y-56304774D01*
X143809744Y-56382795D01*
X143640226Y-56496063D01*
X143496063Y-56640226D01*
X143382795Y-56809744D01*
X143304774Y-56998102D01*
X143265000Y-57198061D01*
X118364488Y-57198061D01*
X118123110Y-57150048D01*
X117876890Y-57150048D01*
X117635402Y-57198083D01*
X117407926Y-57292307D01*
X117203202Y-57429099D01*
X117029099Y-57603202D01*
X116892307Y-57807926D01*
X116798083Y-58035402D01*
X116750048Y-58276890D01*
X116162684Y-58276890D01*
X116102901Y-57730284D01*
X115810716Y-56803124D01*
X115402567Y-56039527D01*
X114815032Y-55535693D01*
X111600725Y-58750000D01*
X110899275Y-58750000D01*
X110885133Y-58735858D01*
X111235858Y-58385133D01*
X111250000Y-58399275D01*
X114464307Y-55184968D01*
X114014127Y-54660000D01*
X139635485Y-54660000D01*
X139459744Y-54732795D01*
M02*
