G04 #@! TF.GenerationSoftware,KiCad,Pcbnew,(5.1.6)-1*
G04 #@! TF.CreationDate,2023-08-05T22:02:58+03:00*
G04 #@! TF.ProjectId,STM32F4_REV2,53544d33-3246-4345-9f52-4556322e6b69,rev?*
G04 #@! TF.SameCoordinates,Original*
G04 #@! TF.FileFunction,Copper,L3,Inr*
G04 #@! TF.FilePolarity,Positive*
%FSLAX46Y46*%
G04 Gerber Fmt 4.6, Leading zero omitted, Abs format (unit mm)*
G04 Created by KiCad (PCBNEW (5.1.6)-1) date 2023-08-05 22:02:58*
%MOMM*%
%LPD*%
G01*
G04 APERTURE LIST*
G04 #@! TA.AperFunction,ViaPad*
%ADD10O,1.900000X1.050000*%
G04 #@! TD*
G04 #@! TA.AperFunction,ViaPad*
%ADD11O,0.800000X1.300000*%
G04 #@! TD*
G04 #@! TA.AperFunction,ViaPad*
%ADD12C,2.600000*%
G04 #@! TD*
G04 #@! TA.AperFunction,ViaPad*
%ADD13R,2.600000X2.600000*%
G04 #@! TD*
G04 #@! TA.AperFunction,ViaPad*
%ADD14C,0.900000*%
G04 #@! TD*
G04 #@! TA.AperFunction,ViaPad*
%ADD15C,8.600000*%
G04 #@! TD*
G04 #@! TA.AperFunction,ViaPad*
%ADD16C,0.800000*%
G04 #@! TD*
G04 #@! TA.AperFunction,Conductor*
%ADD17C,0.254000*%
G04 #@! TD*
G04 APERTURE END LIST*
D10*
X158700000Y-67025000D03*
X158700000Y-74175000D03*
D11*
X127950000Y-98225000D03*
X126700000Y-98225000D03*
X125450000Y-98225000D03*
G04 #@! TA.AperFunction,ViaPad*
G36*
G01*
X123800000Y-98675000D02*
X123800000Y-97775000D01*
G75*
G02*
X124000000Y-97575000I200000J0D01*
G01*
X124400000Y-97575000D01*
G75*
G02*
X124600000Y-97775000I0J-200000D01*
G01*
X124600000Y-98675000D01*
G75*
G02*
X124400000Y-98875000I-200000J0D01*
G01*
X124000000Y-98875000D01*
G75*
G02*
X123800000Y-98675000I0J200000D01*
G01*
G37*
G04 #@! TD.AperFunction*
X123250000Y-60000000D03*
X124500000Y-60000000D03*
X125750000Y-60000000D03*
G04 #@! TA.AperFunction,ViaPad*
G36*
G01*
X127400000Y-59550000D02*
X127400000Y-60450000D01*
G75*
G02*
X127200000Y-60650000I-200000J0D01*
G01*
X126800000Y-60650000D01*
G75*
G02*
X126600000Y-60450000I0J200000D01*
G01*
X126600000Y-59550000D01*
G75*
G02*
X126800000Y-59350000I200000J0D01*
G01*
X127200000Y-59350000D01*
G75*
G02*
X127400000Y-59550000I0J-200000D01*
G01*
G37*
G04 #@! TD.AperFunction*
D12*
X156500000Y-85250000D03*
D13*
X156500000Y-90250000D03*
D14*
X159780419Y-96969581D03*
X157500000Y-96025000D03*
X155219581Y-96969581D03*
X154275000Y-99250000D03*
X155219581Y-101530419D03*
X157500000Y-102475000D03*
X159780419Y-101530419D03*
X160725000Y-99250000D03*
D15*
X157500000Y-99250000D03*
D14*
X113530419Y-56469581D03*
X111250000Y-55525000D03*
X108969581Y-56469581D03*
X108025000Y-58750000D03*
X108969581Y-61030419D03*
X111250000Y-61975000D03*
X113530419Y-61030419D03*
X114475000Y-58750000D03*
D15*
X111250000Y-58750000D03*
D14*
X113530419Y-96969581D03*
X111250000Y-96025000D03*
X108969581Y-96969581D03*
X108025000Y-99250000D03*
X108969581Y-101530419D03*
X111250000Y-102475000D03*
X113530419Y-101530419D03*
X114475000Y-99250000D03*
D15*
X111250000Y-99250000D03*
D14*
X159780419Y-56719581D03*
X157500000Y-55775000D03*
X155219581Y-56719581D03*
X154275000Y-59000000D03*
X155219581Y-61280419D03*
X157500000Y-62225000D03*
X159780419Y-61280419D03*
X160725000Y-59000000D03*
D15*
X157500000Y-59000000D03*
D16*
X134900000Y-55625000D03*
X117525000Y-73275000D03*
X111375000Y-72550000D03*
X123700000Y-73275000D03*
X115150000Y-76400000D03*
X113425000Y-82750000D03*
X116725000Y-81800000D03*
X118000000Y-81800000D03*
X117475000Y-85800000D03*
X121550000Y-88775000D03*
X131050000Y-89975000D03*
X141850000Y-84700000D03*
X132525000Y-87275000D03*
X131750000Y-74000000D03*
X134000000Y-75000000D03*
X144300000Y-59225000D03*
X154825000Y-69300000D03*
X153475000Y-69300000D03*
X153475000Y-67900000D03*
X154825000Y-67900000D03*
X141875000Y-86200000D03*
X146500000Y-87250000D03*
X148675000Y-87225000D03*
X149525000Y-88325000D03*
X150450000Y-89225000D03*
X148975000Y-83625000D03*
X148975000Y-81850000D03*
X151275000Y-91525000D03*
X152200000Y-92475000D03*
X141225000Y-94175000D03*
X141250000Y-95550000D03*
X141250000Y-97300000D03*
X141225000Y-98525000D03*
X144750000Y-92825000D03*
X144750000Y-93725000D03*
X144750000Y-90900000D03*
X117425000Y-76250000D03*
X116100000Y-78200000D03*
X111775000Y-80425000D03*
X137425000Y-55650000D03*
X138725000Y-55650000D03*
X139950000Y-55650000D03*
X127500000Y-71400000D03*
X122700000Y-71400000D03*
X120000000Y-72300000D03*
X111400000Y-68000000D03*
X144300000Y-57300000D03*
X130100000Y-87900000D03*
X124100000Y-88800000D03*
X114750000Y-85575000D03*
X114775000Y-83925000D03*
X118275000Y-78025000D03*
X121975000Y-72450000D03*
X132600000Y-75775000D03*
X135750000Y-91600000D03*
X135750000Y-92775000D03*
X139225000Y-92775000D03*
X139250000Y-91675000D03*
X136250000Y-95025000D03*
X138475000Y-95050000D03*
X136275000Y-98000000D03*
X138475000Y-98050000D03*
X146775000Y-94075000D03*
X147775000Y-94950000D03*
X129150000Y-80275000D03*
X129125000Y-69775000D03*
X149575000Y-68725000D03*
D17*
G36*
X134409744Y-54707795D02*
G01*
X134240226Y-54821063D01*
X134096063Y-54965226D01*
X133982795Y-55134744D01*
X133904774Y-55323102D01*
X133865000Y-55523061D01*
X133865000Y-55726939D01*
X133904774Y-55926898D01*
X133982795Y-56115256D01*
X134096063Y-56284774D01*
X134240226Y-56428937D01*
X134409744Y-56542205D01*
X134598102Y-56620226D01*
X134798061Y-56660000D01*
X135001939Y-56660000D01*
X135201898Y-56620226D01*
X135390256Y-56542205D01*
X135559774Y-56428937D01*
X135703937Y-56284774D01*
X135817205Y-56115256D01*
X135895226Y-55926898D01*
X135935000Y-55726939D01*
X135935000Y-55523061D01*
X135895226Y-55323102D01*
X135817205Y-55134744D01*
X135703937Y-54965226D01*
X135559774Y-54821063D01*
X135390256Y-54707795D01*
X135274869Y-54660000D01*
X137110485Y-54660000D01*
X136934744Y-54732795D01*
X136765226Y-54846063D01*
X136621063Y-54990226D01*
X136507795Y-55159744D01*
X136429774Y-55348102D01*
X136390000Y-55548061D01*
X136390000Y-55751939D01*
X136429774Y-55951898D01*
X136507795Y-56140256D01*
X136621063Y-56309774D01*
X136765226Y-56453937D01*
X136934744Y-56567205D01*
X137123102Y-56645226D01*
X137323061Y-56685000D01*
X137526939Y-56685000D01*
X137726898Y-56645226D01*
X137915256Y-56567205D01*
X138075000Y-56460468D01*
X138234744Y-56567205D01*
X138423102Y-56645226D01*
X138623061Y-56685000D01*
X138826939Y-56685000D01*
X139026898Y-56645226D01*
X139215256Y-56567205D01*
X139384774Y-56453937D01*
X139528937Y-56309774D01*
X139642205Y-56140256D01*
X139720226Y-55951898D01*
X139760000Y-55751939D01*
X139760000Y-55548061D01*
X139720226Y-55348102D01*
X139642205Y-55159744D01*
X139528937Y-54990226D01*
X139384774Y-54846063D01*
X139215256Y-54732795D01*
X139039515Y-54660000D01*
X155112504Y-54660000D01*
X154354121Y-55166735D01*
X153666735Y-55854121D01*
X153126660Y-56662401D01*
X152754650Y-57560514D01*
X152565000Y-58513945D01*
X152565000Y-59486055D01*
X152754650Y-60439486D01*
X153126660Y-61337599D01*
X153666735Y-62145879D01*
X154354121Y-62833265D01*
X155162401Y-63373340D01*
X156060514Y-63745350D01*
X157013945Y-63935000D01*
X157986055Y-63935000D01*
X158939486Y-63745350D01*
X159837599Y-63373340D01*
X160645879Y-62833265D01*
X161333265Y-62145879D01*
X161590000Y-61761648D01*
X161590001Y-96488354D01*
X161333265Y-96104121D01*
X160645879Y-95416735D01*
X159837599Y-94876660D01*
X158939486Y-94504650D01*
X157986055Y-94315000D01*
X157013945Y-94315000D01*
X156060514Y-94504650D01*
X155162401Y-94876660D01*
X154354121Y-95416735D01*
X153666735Y-96104121D01*
X153126660Y-96912401D01*
X152754650Y-97810514D01*
X152565000Y-98763945D01*
X152565000Y-99736055D01*
X152754650Y-100689486D01*
X153126660Y-101587599D01*
X153666735Y-102395879D01*
X154354121Y-103083265D01*
X154738352Y-103340000D01*
X114011648Y-103340000D01*
X114395879Y-103083265D01*
X115083265Y-102395879D01*
X115623340Y-101587599D01*
X115995350Y-100689486D01*
X116185000Y-99736055D01*
X116185000Y-98872774D01*
X123161932Y-98872774D01*
X123173758Y-98997298D01*
X123209650Y-99117122D01*
X123268229Y-99227641D01*
X123347244Y-99324608D01*
X123443658Y-99404298D01*
X123553766Y-99463646D01*
X123673336Y-99500374D01*
X123793250Y-99510000D01*
X123952000Y-99351250D01*
X123952000Y-98473000D01*
X123323750Y-98473000D01*
X123165000Y-98631750D01*
X123161932Y-98872774D01*
X116185000Y-98872774D01*
X116185000Y-98763945D01*
X115995350Y-97810514D01*
X115898720Y-97577226D01*
X123161932Y-97577226D01*
X123165000Y-97818250D01*
X123323750Y-97977000D01*
X123952000Y-97977000D01*
X123952000Y-97924163D01*
X124415000Y-97924163D01*
X124415000Y-98525838D01*
X124429976Y-98677895D01*
X124448000Y-98737311D01*
X124448000Y-99351250D01*
X124606750Y-99510000D01*
X124726664Y-99500374D01*
X124846234Y-99463646D01*
X124956342Y-99404298D01*
X124970736Y-99392401D01*
X125052008Y-99435841D01*
X125247106Y-99495024D01*
X125450000Y-99515007D01*
X125652895Y-99495024D01*
X125847993Y-99435841D01*
X126027797Y-99339734D01*
X126075000Y-99300995D01*
X126122204Y-99339734D01*
X126302008Y-99435841D01*
X126497106Y-99495024D01*
X126700000Y-99515007D01*
X126902895Y-99495024D01*
X127097993Y-99435841D01*
X127277797Y-99339734D01*
X127325000Y-99300995D01*
X127372204Y-99339734D01*
X127552008Y-99435841D01*
X127747106Y-99495024D01*
X127950000Y-99515007D01*
X128152895Y-99495024D01*
X128347993Y-99435841D01*
X128527797Y-99339734D01*
X128685396Y-99210396D01*
X128814734Y-99052797D01*
X128910841Y-98872992D01*
X128970024Y-98677894D01*
X128985000Y-98525837D01*
X128985000Y-97924162D01*
X128970024Y-97772105D01*
X128910841Y-97577007D01*
X128814734Y-97397203D01*
X128685396Y-97239604D01*
X128527797Y-97110266D01*
X128347992Y-97014159D01*
X128152894Y-96954976D01*
X127950000Y-96934993D01*
X127747105Y-96954976D01*
X127552007Y-97014159D01*
X127372203Y-97110266D01*
X127325000Y-97149004D01*
X127277797Y-97110266D01*
X127097992Y-97014159D01*
X126902894Y-96954976D01*
X126700000Y-96934993D01*
X126497105Y-96954976D01*
X126302007Y-97014159D01*
X126122203Y-97110266D01*
X126075000Y-97149004D01*
X126027797Y-97110266D01*
X125847992Y-97014159D01*
X125652894Y-96954976D01*
X125450000Y-96934993D01*
X125247105Y-96954976D01*
X125052007Y-97014159D01*
X124970736Y-97057599D01*
X124956342Y-97045702D01*
X124846234Y-96986354D01*
X124726664Y-96949626D01*
X124606750Y-96940000D01*
X124448000Y-97098750D01*
X124448000Y-97712690D01*
X124429976Y-97772106D01*
X124415000Y-97924163D01*
X123952000Y-97924163D01*
X123952000Y-97098750D01*
X123793250Y-96940000D01*
X123673336Y-96949626D01*
X123553766Y-96986354D01*
X123443658Y-97045702D01*
X123347244Y-97125392D01*
X123268229Y-97222359D01*
X123209650Y-97332878D01*
X123173758Y-97452702D01*
X123161932Y-97577226D01*
X115898720Y-97577226D01*
X115623340Y-96912401D01*
X115083265Y-96104121D01*
X114395879Y-95416735D01*
X113587599Y-94876660D01*
X112689486Y-94504650D01*
X111736055Y-94315000D01*
X110763945Y-94315000D01*
X109810514Y-94504650D01*
X108912401Y-94876660D01*
X108104121Y-95416735D01*
X107416735Y-96104121D01*
X107160000Y-96488352D01*
X107160000Y-94073061D01*
X140190000Y-94073061D01*
X140190000Y-94276939D01*
X140229774Y-94476898D01*
X140307795Y-94665256D01*
X140421063Y-94834774D01*
X140461289Y-94875000D01*
X140446063Y-94890226D01*
X140332795Y-95059744D01*
X140254774Y-95248102D01*
X140215000Y-95448061D01*
X140215000Y-95651939D01*
X140254774Y-95851898D01*
X140332795Y-96040256D01*
X140446063Y-96209774D01*
X140590226Y-96353937D01*
X140696580Y-96425000D01*
X140590226Y-96496063D01*
X140446063Y-96640226D01*
X140332795Y-96809744D01*
X140254774Y-96998102D01*
X140215000Y-97198061D01*
X140215000Y-97401939D01*
X140254774Y-97601898D01*
X140332795Y-97790256D01*
X140401976Y-97893792D01*
X140307795Y-98034744D01*
X140229774Y-98223102D01*
X140190000Y-98423061D01*
X140190000Y-98626939D01*
X140229774Y-98826898D01*
X140307795Y-99015256D01*
X140421063Y-99184774D01*
X140565226Y-99328937D01*
X140734744Y-99442205D01*
X140923102Y-99520226D01*
X141123061Y-99560000D01*
X141326939Y-99560000D01*
X141526898Y-99520226D01*
X141715256Y-99442205D01*
X141884774Y-99328937D01*
X141936821Y-99276890D01*
X149350048Y-99276890D01*
X149350048Y-99523110D01*
X149398083Y-99764598D01*
X149492307Y-99992074D01*
X149629099Y-100196798D01*
X149803202Y-100370901D01*
X150007926Y-100507693D01*
X150235402Y-100601917D01*
X150476890Y-100649952D01*
X150723110Y-100649952D01*
X150964598Y-100601917D01*
X151192074Y-100507693D01*
X151396798Y-100370901D01*
X151570901Y-100196798D01*
X151707693Y-99992074D01*
X151801917Y-99764598D01*
X151849952Y-99523110D01*
X151849952Y-99276890D01*
X151801917Y-99035402D01*
X151707693Y-98807926D01*
X151570901Y-98603202D01*
X151396798Y-98429099D01*
X151192074Y-98292307D01*
X150964598Y-98198083D01*
X150723110Y-98150048D01*
X150476890Y-98150048D01*
X150235402Y-98198083D01*
X150007926Y-98292307D01*
X149803202Y-98429099D01*
X149629099Y-98603202D01*
X149492307Y-98807926D01*
X149398083Y-99035402D01*
X149350048Y-99276890D01*
X141936821Y-99276890D01*
X142028937Y-99184774D01*
X142142205Y-99015256D01*
X142220226Y-98826898D01*
X142260000Y-98626939D01*
X142260000Y-98423061D01*
X142220226Y-98223102D01*
X142142205Y-98034744D01*
X142073024Y-97931208D01*
X142167205Y-97790256D01*
X142245226Y-97601898D01*
X142285000Y-97401939D01*
X142285000Y-97198061D01*
X142245226Y-96998102D01*
X142167205Y-96809744D01*
X142053937Y-96640226D01*
X141909774Y-96496063D01*
X141803420Y-96425000D01*
X141909774Y-96353937D01*
X142053937Y-96209774D01*
X142167205Y-96040256D01*
X142245226Y-95851898D01*
X142285000Y-95651939D01*
X142285000Y-95448061D01*
X142245226Y-95248102D01*
X142167205Y-95059744D01*
X142053937Y-94890226D01*
X142013711Y-94850000D01*
X142028937Y-94834774D01*
X142142205Y-94665256D01*
X142220226Y-94476898D01*
X142260000Y-94276939D01*
X142260000Y-94073061D01*
X142220226Y-93873102D01*
X142142205Y-93684744D01*
X142028937Y-93515226D01*
X141884774Y-93371063D01*
X141715256Y-93257795D01*
X141526898Y-93179774D01*
X141326939Y-93140000D01*
X141123061Y-93140000D01*
X140923102Y-93179774D01*
X140734744Y-93257795D01*
X140565226Y-93371063D01*
X140421063Y-93515226D01*
X140307795Y-93684744D01*
X140229774Y-93873102D01*
X140190000Y-94073061D01*
X107160000Y-94073061D01*
X107160000Y-89873061D01*
X130015000Y-89873061D01*
X130015000Y-90076939D01*
X130054774Y-90276898D01*
X130132795Y-90465256D01*
X130246063Y-90634774D01*
X130390226Y-90778937D01*
X130559744Y-90892205D01*
X130748102Y-90970226D01*
X130948061Y-91010000D01*
X131151939Y-91010000D01*
X131351898Y-90970226D01*
X131540256Y-90892205D01*
X131681152Y-90798061D01*
X143715000Y-90798061D01*
X143715000Y-91001939D01*
X143754774Y-91201898D01*
X143832795Y-91390256D01*
X143946063Y-91559774D01*
X144090226Y-91703937D01*
X144259744Y-91817205D01*
X144369095Y-91862500D01*
X144259744Y-91907795D01*
X144090226Y-92021063D01*
X143946063Y-92165226D01*
X143832795Y-92334744D01*
X143754774Y-92523102D01*
X143715000Y-92723061D01*
X143715000Y-92926939D01*
X143754774Y-93126898D01*
X143816120Y-93275000D01*
X143754774Y-93423102D01*
X143715000Y-93623061D01*
X143715000Y-93826939D01*
X143754774Y-94026898D01*
X143832795Y-94215256D01*
X143946063Y-94384774D01*
X144090226Y-94528937D01*
X144259744Y-94642205D01*
X144448102Y-94720226D01*
X144648061Y-94760000D01*
X144851939Y-94760000D01*
X145051898Y-94720226D01*
X145240256Y-94642205D01*
X145409774Y-94528937D01*
X145553937Y-94384774D01*
X145667205Y-94215256D01*
X145745226Y-94026898D01*
X145785000Y-93826939D01*
X145785000Y-93623061D01*
X145745226Y-93423102D01*
X145683880Y-93275000D01*
X145745226Y-93126898D01*
X145785000Y-92926939D01*
X145785000Y-92723061D01*
X145745226Y-92523102D01*
X145667205Y-92334744D01*
X145553937Y-92165226D01*
X145409774Y-92021063D01*
X145240256Y-91907795D01*
X145130905Y-91862500D01*
X145240256Y-91817205D01*
X145409774Y-91703937D01*
X145553937Y-91559774D01*
X145645285Y-91423061D01*
X150240000Y-91423061D01*
X150240000Y-91626939D01*
X150279774Y-91826898D01*
X150357795Y-92015256D01*
X150471063Y-92184774D01*
X150615226Y-92328937D01*
X150784744Y-92442205D01*
X150973102Y-92520226D01*
X151165000Y-92558397D01*
X151165000Y-92576939D01*
X151204774Y-92776898D01*
X151282795Y-92965256D01*
X151396063Y-93134774D01*
X151540226Y-93278937D01*
X151709744Y-93392205D01*
X151898102Y-93470226D01*
X152098061Y-93510000D01*
X152301939Y-93510000D01*
X152501898Y-93470226D01*
X152690256Y-93392205D01*
X152859774Y-93278937D01*
X153003937Y-93134774D01*
X153117205Y-92965256D01*
X153195226Y-92776898D01*
X153235000Y-92576939D01*
X153235000Y-92373061D01*
X153195226Y-92173102D01*
X153117205Y-91984744D01*
X153003937Y-91815226D01*
X152859774Y-91671063D01*
X152690256Y-91557795D01*
X152501898Y-91479774D01*
X152310000Y-91441603D01*
X152310000Y-91423061D01*
X152270226Y-91223102D01*
X152192205Y-91034744D01*
X152078937Y-90865226D01*
X151934774Y-90721063D01*
X151765256Y-90607795D01*
X151576898Y-90529774D01*
X151376939Y-90490000D01*
X151173061Y-90490000D01*
X150973102Y-90529774D01*
X150784744Y-90607795D01*
X150615226Y-90721063D01*
X150471063Y-90865226D01*
X150357795Y-91034744D01*
X150279774Y-91223102D01*
X150240000Y-91423061D01*
X145645285Y-91423061D01*
X145667205Y-91390256D01*
X145745226Y-91201898D01*
X145785000Y-91001939D01*
X145785000Y-90798061D01*
X145745226Y-90598102D01*
X145667205Y-90409744D01*
X145553937Y-90240226D01*
X145409774Y-90096063D01*
X145240256Y-89982795D01*
X145051898Y-89904774D01*
X144851939Y-89865000D01*
X144648061Y-89865000D01*
X144448102Y-89904774D01*
X144259744Y-89982795D01*
X144090226Y-90096063D01*
X143946063Y-90240226D01*
X143832795Y-90409744D01*
X143754774Y-90598102D01*
X143715000Y-90798061D01*
X131681152Y-90798061D01*
X131709774Y-90778937D01*
X131853937Y-90634774D01*
X131967205Y-90465256D01*
X132045226Y-90276898D01*
X132085000Y-90076939D01*
X132085000Y-89873061D01*
X132045226Y-89673102D01*
X131967205Y-89484744D01*
X131853937Y-89315226D01*
X131709774Y-89171063D01*
X131540256Y-89057795D01*
X131351898Y-88979774D01*
X131151939Y-88940000D01*
X130948061Y-88940000D01*
X130748102Y-88979774D01*
X130559744Y-89057795D01*
X130390226Y-89171063D01*
X130246063Y-89315226D01*
X130132795Y-89484744D01*
X130054774Y-89673102D01*
X130015000Y-89873061D01*
X107160000Y-89873061D01*
X107160000Y-88673061D01*
X120515000Y-88673061D01*
X120515000Y-88876939D01*
X120554774Y-89076898D01*
X120632795Y-89265256D01*
X120746063Y-89434774D01*
X120890226Y-89578937D01*
X121059744Y-89692205D01*
X121248102Y-89770226D01*
X121448061Y-89810000D01*
X121651939Y-89810000D01*
X121851898Y-89770226D01*
X122040256Y-89692205D01*
X122209774Y-89578937D01*
X122353937Y-89434774D01*
X122467205Y-89265256D01*
X122545226Y-89076898D01*
X122585000Y-88876939D01*
X122585000Y-88673061D01*
X122545226Y-88473102D01*
X122467205Y-88284744D01*
X122353937Y-88115226D01*
X122209774Y-87971063D01*
X122040256Y-87857795D01*
X121851898Y-87779774D01*
X121651939Y-87740000D01*
X121448061Y-87740000D01*
X121248102Y-87779774D01*
X121059744Y-87857795D01*
X120890226Y-87971063D01*
X120746063Y-88115226D01*
X120632795Y-88284744D01*
X120554774Y-88473102D01*
X120515000Y-88673061D01*
X107160000Y-88673061D01*
X107160000Y-87173061D01*
X131490000Y-87173061D01*
X131490000Y-87376939D01*
X131529774Y-87576898D01*
X131607795Y-87765256D01*
X131721063Y-87934774D01*
X131865226Y-88078937D01*
X132034744Y-88192205D01*
X132223102Y-88270226D01*
X132423061Y-88310000D01*
X132626939Y-88310000D01*
X132826898Y-88270226D01*
X133015256Y-88192205D01*
X133184774Y-88078937D01*
X133328937Y-87934774D01*
X133442205Y-87765256D01*
X133520226Y-87576898D01*
X133560000Y-87376939D01*
X133560000Y-87173061D01*
X133520226Y-86973102D01*
X133442205Y-86784744D01*
X133328937Y-86615226D01*
X133184774Y-86471063D01*
X133015256Y-86357795D01*
X132826898Y-86279774D01*
X132626939Y-86240000D01*
X132423061Y-86240000D01*
X132223102Y-86279774D01*
X132034744Y-86357795D01*
X131865226Y-86471063D01*
X131721063Y-86615226D01*
X131607795Y-86784744D01*
X131529774Y-86973102D01*
X131490000Y-87173061D01*
X107160000Y-87173061D01*
X107160000Y-85698061D01*
X116440000Y-85698061D01*
X116440000Y-85901939D01*
X116479774Y-86101898D01*
X116557795Y-86290256D01*
X116671063Y-86459774D01*
X116815226Y-86603937D01*
X116984744Y-86717205D01*
X117173102Y-86795226D01*
X117373061Y-86835000D01*
X117576939Y-86835000D01*
X117776898Y-86795226D01*
X117965256Y-86717205D01*
X118134774Y-86603937D01*
X118278937Y-86459774D01*
X118392205Y-86290256D01*
X118470226Y-86101898D01*
X118510000Y-85901939D01*
X118510000Y-85698061D01*
X118470226Y-85498102D01*
X118392205Y-85309744D01*
X118278937Y-85140226D01*
X118134774Y-84996063D01*
X117965256Y-84882795D01*
X117776898Y-84804774D01*
X117576939Y-84765000D01*
X117373061Y-84765000D01*
X117173102Y-84804774D01*
X116984744Y-84882795D01*
X116815226Y-84996063D01*
X116671063Y-85140226D01*
X116557795Y-85309744D01*
X116479774Y-85498102D01*
X116440000Y-85698061D01*
X107160000Y-85698061D01*
X107160000Y-84598061D01*
X140815000Y-84598061D01*
X140815000Y-84801939D01*
X140854774Y-85001898D01*
X140932795Y-85190256D01*
X141046063Y-85359774D01*
X141148789Y-85462500D01*
X141071063Y-85540226D01*
X140957795Y-85709744D01*
X140879774Y-85898102D01*
X140840000Y-86098061D01*
X140840000Y-86301939D01*
X140879774Y-86501898D01*
X140957795Y-86690256D01*
X141071063Y-86859774D01*
X141215226Y-87003937D01*
X141384744Y-87117205D01*
X141573102Y-87195226D01*
X141773061Y-87235000D01*
X141976939Y-87235000D01*
X142176898Y-87195226D01*
X142290763Y-87148061D01*
X145465000Y-87148061D01*
X145465000Y-87351939D01*
X145504774Y-87551898D01*
X145582795Y-87740256D01*
X145696063Y-87909774D01*
X145840226Y-88053937D01*
X146009744Y-88167205D01*
X146198102Y-88245226D01*
X146398061Y-88285000D01*
X146601939Y-88285000D01*
X146801898Y-88245226D01*
X146990256Y-88167205D01*
X147159774Y-88053937D01*
X147303937Y-87909774D01*
X147417205Y-87740256D01*
X147495226Y-87551898D01*
X147535000Y-87351939D01*
X147535000Y-87148061D01*
X147530028Y-87123061D01*
X147640000Y-87123061D01*
X147640000Y-87326939D01*
X147679774Y-87526898D01*
X147757795Y-87715256D01*
X147871063Y-87884774D01*
X148015226Y-88028937D01*
X148184744Y-88142205D01*
X148373102Y-88220226D01*
X148490000Y-88243478D01*
X148490000Y-88426939D01*
X148529774Y-88626898D01*
X148607795Y-88815256D01*
X148721063Y-88984774D01*
X148865226Y-89128937D01*
X149034744Y-89242205D01*
X149223102Y-89320226D01*
X149421515Y-89359692D01*
X149454774Y-89526898D01*
X149532795Y-89715256D01*
X149646063Y-89884774D01*
X149790226Y-90028937D01*
X149959744Y-90142205D01*
X150148102Y-90220226D01*
X150348061Y-90260000D01*
X150551939Y-90260000D01*
X150751898Y-90220226D01*
X150940256Y-90142205D01*
X151109774Y-90028937D01*
X151253937Y-89884774D01*
X151367205Y-89715256D01*
X151445226Y-89526898D01*
X151485000Y-89326939D01*
X151485000Y-89123061D01*
X151450577Y-88950000D01*
X154561928Y-88950000D01*
X154561928Y-91550000D01*
X154574188Y-91674482D01*
X154610498Y-91794180D01*
X154669463Y-91904494D01*
X154748815Y-92001185D01*
X154845506Y-92080537D01*
X154955820Y-92139502D01*
X155075518Y-92175812D01*
X155200000Y-92188072D01*
X157800000Y-92188072D01*
X157924482Y-92175812D01*
X158044180Y-92139502D01*
X158154494Y-92080537D01*
X158251185Y-92001185D01*
X158330537Y-91904494D01*
X158389502Y-91794180D01*
X158425812Y-91674482D01*
X158438072Y-91550000D01*
X158438072Y-88950000D01*
X158425812Y-88825518D01*
X158389502Y-88705820D01*
X158330537Y-88595506D01*
X158251185Y-88498815D01*
X158154494Y-88419463D01*
X158044180Y-88360498D01*
X157924482Y-88324188D01*
X157800000Y-88311928D01*
X155200000Y-88311928D01*
X155075518Y-88324188D01*
X154955820Y-88360498D01*
X154845506Y-88419463D01*
X154748815Y-88498815D01*
X154669463Y-88595506D01*
X154610498Y-88705820D01*
X154574188Y-88825518D01*
X154561928Y-88950000D01*
X151450577Y-88950000D01*
X151445226Y-88923102D01*
X151367205Y-88734744D01*
X151253937Y-88565226D01*
X151109774Y-88421063D01*
X150940256Y-88307795D01*
X150751898Y-88229774D01*
X150553485Y-88190308D01*
X150520226Y-88023102D01*
X150442205Y-87834744D01*
X150328937Y-87665226D01*
X150184774Y-87521063D01*
X150015256Y-87407795D01*
X149826898Y-87329774D01*
X149710000Y-87306522D01*
X149710000Y-87123061D01*
X149670226Y-86923102D01*
X149592205Y-86734744D01*
X149478937Y-86565226D01*
X149334774Y-86421063D01*
X149165256Y-86307795D01*
X148976898Y-86229774D01*
X148776939Y-86190000D01*
X148573061Y-86190000D01*
X148373102Y-86229774D01*
X148184744Y-86307795D01*
X148015226Y-86421063D01*
X147871063Y-86565226D01*
X147757795Y-86734744D01*
X147679774Y-86923102D01*
X147640000Y-87123061D01*
X147530028Y-87123061D01*
X147495226Y-86948102D01*
X147417205Y-86759744D01*
X147303937Y-86590226D01*
X147159774Y-86446063D01*
X146990256Y-86332795D01*
X146801898Y-86254774D01*
X146601939Y-86215000D01*
X146398061Y-86215000D01*
X146198102Y-86254774D01*
X146009744Y-86332795D01*
X145840226Y-86446063D01*
X145696063Y-86590226D01*
X145582795Y-86759744D01*
X145504774Y-86948102D01*
X145465000Y-87148061D01*
X142290763Y-87148061D01*
X142365256Y-87117205D01*
X142534774Y-87003937D01*
X142678937Y-86859774D01*
X142792205Y-86690256D01*
X142870226Y-86501898D01*
X142910000Y-86301939D01*
X142910000Y-86098061D01*
X142870226Y-85898102D01*
X142792205Y-85709744D01*
X142678937Y-85540226D01*
X142576211Y-85437500D01*
X142653937Y-85359774D01*
X142767205Y-85190256D01*
X142821399Y-85059419D01*
X154565000Y-85059419D01*
X154565000Y-85440581D01*
X154639361Y-85814419D01*
X154785225Y-86166566D01*
X154996987Y-86483491D01*
X155266509Y-86753013D01*
X155583434Y-86964775D01*
X155935581Y-87110639D01*
X156309419Y-87185000D01*
X156690581Y-87185000D01*
X157064419Y-87110639D01*
X157416566Y-86964775D01*
X157733491Y-86753013D01*
X158003013Y-86483491D01*
X158214775Y-86166566D01*
X158360639Y-85814419D01*
X158435000Y-85440581D01*
X158435000Y-85059419D01*
X158360639Y-84685581D01*
X158214775Y-84333434D01*
X158003013Y-84016509D01*
X157733491Y-83746987D01*
X157416566Y-83535225D01*
X157064419Y-83389361D01*
X156690581Y-83315000D01*
X156309419Y-83315000D01*
X155935581Y-83389361D01*
X155583434Y-83535225D01*
X155266509Y-83746987D01*
X154996987Y-84016509D01*
X154785225Y-84333434D01*
X154639361Y-84685581D01*
X154565000Y-85059419D01*
X142821399Y-85059419D01*
X142845226Y-85001898D01*
X142885000Y-84801939D01*
X142885000Y-84598061D01*
X142845226Y-84398102D01*
X142767205Y-84209744D01*
X142653937Y-84040226D01*
X142509774Y-83896063D01*
X142340256Y-83782795D01*
X142151898Y-83704774D01*
X141951939Y-83665000D01*
X141748061Y-83665000D01*
X141548102Y-83704774D01*
X141359744Y-83782795D01*
X141190226Y-83896063D01*
X141046063Y-84040226D01*
X140932795Y-84209744D01*
X140854774Y-84398102D01*
X140815000Y-84598061D01*
X107160000Y-84598061D01*
X107160000Y-82648061D01*
X112390000Y-82648061D01*
X112390000Y-82851939D01*
X112429774Y-83051898D01*
X112507795Y-83240256D01*
X112621063Y-83409774D01*
X112765226Y-83553937D01*
X112934744Y-83667205D01*
X113123102Y-83745226D01*
X113323061Y-83785000D01*
X113526939Y-83785000D01*
X113726898Y-83745226D01*
X113915256Y-83667205D01*
X114084774Y-83553937D01*
X114228937Y-83409774D01*
X114342205Y-83240256D01*
X114420226Y-83051898D01*
X114460000Y-82851939D01*
X114460000Y-82648061D01*
X114420226Y-82448102D01*
X114342205Y-82259744D01*
X114228937Y-82090226D01*
X114084774Y-81946063D01*
X113915256Y-81832795D01*
X113726898Y-81754774D01*
X113526939Y-81715000D01*
X113323061Y-81715000D01*
X113123102Y-81754774D01*
X112934744Y-81832795D01*
X112765226Y-81946063D01*
X112621063Y-82090226D01*
X112507795Y-82259744D01*
X112429774Y-82448102D01*
X112390000Y-82648061D01*
X107160000Y-82648061D01*
X107160000Y-81698061D01*
X115690000Y-81698061D01*
X115690000Y-81901939D01*
X115729774Y-82101898D01*
X115807795Y-82290256D01*
X115921063Y-82459774D01*
X116065226Y-82603937D01*
X116234744Y-82717205D01*
X116423102Y-82795226D01*
X116623061Y-82835000D01*
X116826939Y-82835000D01*
X117026898Y-82795226D01*
X117215256Y-82717205D01*
X117362500Y-82618820D01*
X117509744Y-82717205D01*
X117698102Y-82795226D01*
X117898061Y-82835000D01*
X118101939Y-82835000D01*
X118301898Y-82795226D01*
X118490256Y-82717205D01*
X118659774Y-82603937D01*
X118803937Y-82459774D01*
X118917205Y-82290256D01*
X118995226Y-82101898D01*
X119035000Y-81901939D01*
X119035000Y-81748061D01*
X147940000Y-81748061D01*
X147940000Y-81951939D01*
X147979774Y-82151898D01*
X148057795Y-82340256D01*
X148171063Y-82509774D01*
X148315226Y-82653937D01*
X148440287Y-82737500D01*
X148315226Y-82821063D01*
X148171063Y-82965226D01*
X148057795Y-83134744D01*
X147979774Y-83323102D01*
X147940000Y-83523061D01*
X147940000Y-83726939D01*
X147979774Y-83926898D01*
X148057795Y-84115256D01*
X148171063Y-84284774D01*
X148315226Y-84428937D01*
X148484744Y-84542205D01*
X148673102Y-84620226D01*
X148873061Y-84660000D01*
X149076939Y-84660000D01*
X149276898Y-84620226D01*
X149465256Y-84542205D01*
X149634774Y-84428937D01*
X149778937Y-84284774D01*
X149892205Y-84115256D01*
X149970226Y-83926898D01*
X150010000Y-83726939D01*
X150010000Y-83523061D01*
X149970226Y-83323102D01*
X149892205Y-83134744D01*
X149778937Y-82965226D01*
X149634774Y-82821063D01*
X149509713Y-82737500D01*
X149634774Y-82653937D01*
X149778937Y-82509774D01*
X149892205Y-82340256D01*
X149970226Y-82151898D01*
X150010000Y-81951939D01*
X150010000Y-81748061D01*
X149970226Y-81548102D01*
X149892205Y-81359744D01*
X149778937Y-81190226D01*
X149634774Y-81046063D01*
X149465256Y-80932795D01*
X149276898Y-80854774D01*
X149076939Y-80815000D01*
X148873061Y-80815000D01*
X148673102Y-80854774D01*
X148484744Y-80932795D01*
X148315226Y-81046063D01*
X148171063Y-81190226D01*
X148057795Y-81359744D01*
X147979774Y-81548102D01*
X147940000Y-81748061D01*
X119035000Y-81748061D01*
X119035000Y-81698061D01*
X118995226Y-81498102D01*
X118917205Y-81309744D01*
X118803937Y-81140226D01*
X118659774Y-80996063D01*
X118490256Y-80882795D01*
X118301898Y-80804774D01*
X118101939Y-80765000D01*
X117898061Y-80765000D01*
X117698102Y-80804774D01*
X117509744Y-80882795D01*
X117362500Y-80981180D01*
X117215256Y-80882795D01*
X117026898Y-80804774D01*
X116826939Y-80765000D01*
X116623061Y-80765000D01*
X116423102Y-80804774D01*
X116234744Y-80882795D01*
X116065226Y-80996063D01*
X115921063Y-81140226D01*
X115807795Y-81309744D01*
X115729774Y-81498102D01*
X115690000Y-81698061D01*
X107160000Y-81698061D01*
X107160000Y-80323061D01*
X110740000Y-80323061D01*
X110740000Y-80526939D01*
X110779774Y-80726898D01*
X110857795Y-80915256D01*
X110971063Y-81084774D01*
X111115226Y-81228937D01*
X111284744Y-81342205D01*
X111473102Y-81420226D01*
X111673061Y-81460000D01*
X111876939Y-81460000D01*
X112076898Y-81420226D01*
X112265256Y-81342205D01*
X112434774Y-81228937D01*
X112578937Y-81084774D01*
X112692205Y-80915256D01*
X112770226Y-80726898D01*
X112810000Y-80526939D01*
X112810000Y-80323061D01*
X112780164Y-80173061D01*
X128115000Y-80173061D01*
X128115000Y-80376939D01*
X128154774Y-80576898D01*
X128232795Y-80765256D01*
X128346063Y-80934774D01*
X128490226Y-81078937D01*
X128659744Y-81192205D01*
X128848102Y-81270226D01*
X129048061Y-81310000D01*
X129251939Y-81310000D01*
X129451898Y-81270226D01*
X129640256Y-81192205D01*
X129809774Y-81078937D01*
X129953937Y-80934774D01*
X130067205Y-80765256D01*
X130145226Y-80576898D01*
X130185000Y-80376939D01*
X130185000Y-80173061D01*
X130145226Y-79973102D01*
X130067205Y-79784744D01*
X129953937Y-79615226D01*
X129809774Y-79471063D01*
X129640256Y-79357795D01*
X129451898Y-79279774D01*
X129251939Y-79240000D01*
X129048061Y-79240000D01*
X128848102Y-79279774D01*
X128659744Y-79357795D01*
X128490226Y-79471063D01*
X128346063Y-79615226D01*
X128232795Y-79784744D01*
X128154774Y-79973102D01*
X128115000Y-80173061D01*
X112780164Y-80173061D01*
X112770226Y-80123102D01*
X112692205Y-79934744D01*
X112578937Y-79765226D01*
X112434774Y-79621063D01*
X112265256Y-79507795D01*
X112076898Y-79429774D01*
X111876939Y-79390000D01*
X111673061Y-79390000D01*
X111473102Y-79429774D01*
X111284744Y-79507795D01*
X111115226Y-79621063D01*
X110971063Y-79765226D01*
X110857795Y-79934744D01*
X110779774Y-80123102D01*
X110740000Y-80323061D01*
X107160000Y-80323061D01*
X107160000Y-76298061D01*
X114115000Y-76298061D01*
X114115000Y-76501939D01*
X114154774Y-76701898D01*
X114232795Y-76890256D01*
X114346063Y-77059774D01*
X114490226Y-77203937D01*
X114659744Y-77317205D01*
X114848102Y-77395226D01*
X115048061Y-77435000D01*
X115251939Y-77435000D01*
X115438373Y-77397916D01*
X115296063Y-77540226D01*
X115182795Y-77709744D01*
X115104774Y-77898102D01*
X115065000Y-78098061D01*
X115065000Y-78301939D01*
X115104774Y-78501898D01*
X115182795Y-78690256D01*
X115296063Y-78859774D01*
X115440226Y-79003937D01*
X115609744Y-79117205D01*
X115798102Y-79195226D01*
X115998061Y-79235000D01*
X116201939Y-79235000D01*
X116401898Y-79195226D01*
X116590256Y-79117205D01*
X116759774Y-79003937D01*
X116903937Y-78859774D01*
X117017205Y-78690256D01*
X117095226Y-78501898D01*
X117135000Y-78301939D01*
X117135000Y-78098061D01*
X117095226Y-77898102D01*
X117017205Y-77709744D01*
X116903937Y-77540226D01*
X116759774Y-77396063D01*
X116590256Y-77282795D01*
X116401898Y-77204774D01*
X116201939Y-77165000D01*
X115998061Y-77165000D01*
X115811627Y-77202084D01*
X115953937Y-77059774D01*
X116067205Y-76890256D01*
X116145226Y-76701898D01*
X116185000Y-76501939D01*
X116185000Y-76298061D01*
X116155164Y-76148061D01*
X116390000Y-76148061D01*
X116390000Y-76351939D01*
X116429774Y-76551898D01*
X116507795Y-76740256D01*
X116621063Y-76909774D01*
X116765226Y-77053937D01*
X116934744Y-77167205D01*
X117123102Y-77245226D01*
X117323061Y-77285000D01*
X117526939Y-77285000D01*
X117726898Y-77245226D01*
X117915256Y-77167205D01*
X118084774Y-77053937D01*
X118228937Y-76909774D01*
X118342205Y-76740256D01*
X118420226Y-76551898D01*
X118460000Y-76351939D01*
X118460000Y-76148061D01*
X118420226Y-75948102D01*
X118342205Y-75759744D01*
X118228937Y-75590226D01*
X118084774Y-75446063D01*
X117915256Y-75332795D01*
X117726898Y-75254774D01*
X117526939Y-75215000D01*
X117323061Y-75215000D01*
X117123102Y-75254774D01*
X116934744Y-75332795D01*
X116765226Y-75446063D01*
X116621063Y-75590226D01*
X116507795Y-75759744D01*
X116429774Y-75948102D01*
X116390000Y-76148061D01*
X116155164Y-76148061D01*
X116145226Y-76098102D01*
X116067205Y-75909744D01*
X115953937Y-75740226D01*
X115809774Y-75596063D01*
X115640256Y-75482795D01*
X115451898Y-75404774D01*
X115251939Y-75365000D01*
X115048061Y-75365000D01*
X114848102Y-75404774D01*
X114659744Y-75482795D01*
X114490226Y-75596063D01*
X114346063Y-75740226D01*
X114232795Y-75909744D01*
X114154774Y-76098102D01*
X114115000Y-76298061D01*
X107160000Y-76298061D01*
X107160000Y-71643137D01*
X107335000Y-71643137D01*
X107335000Y-71856863D01*
X107376696Y-72066483D01*
X107458485Y-72263940D01*
X107577225Y-72441647D01*
X107728353Y-72592775D01*
X107906060Y-72711515D01*
X108103517Y-72793304D01*
X108313137Y-72835000D01*
X108526863Y-72835000D01*
X108736483Y-72793304D01*
X108933940Y-72711515D01*
X109111647Y-72592775D01*
X109256361Y-72448061D01*
X110340000Y-72448061D01*
X110340000Y-72651939D01*
X110379774Y-72851898D01*
X110457795Y-73040256D01*
X110571063Y-73209774D01*
X110715226Y-73353937D01*
X110884744Y-73467205D01*
X111073102Y-73545226D01*
X111273061Y-73585000D01*
X111476939Y-73585000D01*
X111676898Y-73545226D01*
X111865256Y-73467205D01*
X112034774Y-73353937D01*
X112178937Y-73209774D01*
X112203467Y-73173061D01*
X116490000Y-73173061D01*
X116490000Y-73376939D01*
X116529774Y-73576898D01*
X116607795Y-73765256D01*
X116721063Y-73934774D01*
X116865226Y-74078937D01*
X117034744Y-74192205D01*
X117223102Y-74270226D01*
X117423061Y-74310000D01*
X117626939Y-74310000D01*
X117826898Y-74270226D01*
X118015256Y-74192205D01*
X118184774Y-74078937D01*
X118328937Y-73934774D01*
X118442205Y-73765256D01*
X118520226Y-73576898D01*
X118560000Y-73376939D01*
X118560000Y-73173061D01*
X122665000Y-73173061D01*
X122665000Y-73376939D01*
X122704774Y-73576898D01*
X122782795Y-73765256D01*
X122896063Y-73934774D01*
X123040226Y-74078937D01*
X123209744Y-74192205D01*
X123398102Y-74270226D01*
X123598061Y-74310000D01*
X123801939Y-74310000D01*
X124001898Y-74270226D01*
X124190256Y-74192205D01*
X124359774Y-74078937D01*
X124503937Y-73934774D01*
X124528467Y-73898061D01*
X130715000Y-73898061D01*
X130715000Y-74101939D01*
X130754774Y-74301898D01*
X130832795Y-74490256D01*
X130946063Y-74659774D01*
X131090226Y-74803937D01*
X131259744Y-74917205D01*
X131448102Y-74995226D01*
X131648061Y-75035000D01*
X131851939Y-75035000D01*
X132051898Y-74995226D01*
X132240256Y-74917205D01*
X132268907Y-74898061D01*
X132965000Y-74898061D01*
X132965000Y-75101939D01*
X133004774Y-75301898D01*
X133082795Y-75490256D01*
X133196063Y-75659774D01*
X133340226Y-75803937D01*
X133509744Y-75917205D01*
X133698102Y-75995226D01*
X133898061Y-76035000D01*
X134101939Y-76035000D01*
X134301898Y-75995226D01*
X134490256Y-75917205D01*
X134659774Y-75803937D01*
X134803937Y-75659774D01*
X134917205Y-75490256D01*
X134995226Y-75301898D01*
X135035000Y-75101939D01*
X135035000Y-74898061D01*
X134995226Y-74698102D01*
X134917205Y-74509744D01*
X134803937Y-74340226D01*
X134659774Y-74196063D01*
X134628251Y-74175000D01*
X157109388Y-74175000D01*
X157131785Y-74402400D01*
X157198115Y-74621060D01*
X157305829Y-74822579D01*
X157450788Y-74999212D01*
X157627421Y-75144171D01*
X157828940Y-75251885D01*
X158047600Y-75318215D01*
X158218021Y-75335000D01*
X159181979Y-75335000D01*
X159352400Y-75318215D01*
X159571060Y-75251885D01*
X159772579Y-75144171D01*
X159949212Y-74999212D01*
X160094171Y-74822579D01*
X160201885Y-74621060D01*
X160268215Y-74402400D01*
X160290612Y-74175000D01*
X160268215Y-73947600D01*
X160201885Y-73728940D01*
X160094171Y-73527421D01*
X159949212Y-73350788D01*
X159772579Y-73205829D01*
X159571060Y-73098115D01*
X159352400Y-73031785D01*
X159181979Y-73015000D01*
X158218021Y-73015000D01*
X158047600Y-73031785D01*
X157828940Y-73098115D01*
X157627421Y-73205829D01*
X157450788Y-73350788D01*
X157305829Y-73527421D01*
X157198115Y-73728940D01*
X157131785Y-73947600D01*
X157109388Y-74175000D01*
X134628251Y-74175000D01*
X134490256Y-74082795D01*
X134301898Y-74004774D01*
X134101939Y-73965000D01*
X133898061Y-73965000D01*
X133698102Y-74004774D01*
X133509744Y-74082795D01*
X133340226Y-74196063D01*
X133196063Y-74340226D01*
X133082795Y-74509744D01*
X133004774Y-74698102D01*
X132965000Y-74898061D01*
X132268907Y-74898061D01*
X132409774Y-74803937D01*
X132553937Y-74659774D01*
X132667205Y-74490256D01*
X132745226Y-74301898D01*
X132785000Y-74101939D01*
X132785000Y-73898061D01*
X132745226Y-73698102D01*
X132667205Y-73509744D01*
X132553937Y-73340226D01*
X132409774Y-73196063D01*
X132240256Y-73082795D01*
X132051898Y-73004774D01*
X131851939Y-72965000D01*
X131648061Y-72965000D01*
X131448102Y-73004774D01*
X131259744Y-73082795D01*
X131090226Y-73196063D01*
X130946063Y-73340226D01*
X130832795Y-73509744D01*
X130754774Y-73698102D01*
X130715000Y-73898061D01*
X124528467Y-73898061D01*
X124617205Y-73765256D01*
X124695226Y-73576898D01*
X124735000Y-73376939D01*
X124735000Y-73173061D01*
X124695226Y-72973102D01*
X124617205Y-72784744D01*
X124503937Y-72615226D01*
X124359774Y-72471063D01*
X124190256Y-72357795D01*
X124001898Y-72279774D01*
X123801939Y-72240000D01*
X123598061Y-72240000D01*
X123398102Y-72279774D01*
X123209744Y-72357795D01*
X123040226Y-72471063D01*
X122896063Y-72615226D01*
X122782795Y-72784744D01*
X122704774Y-72973102D01*
X122665000Y-73173061D01*
X118560000Y-73173061D01*
X118520226Y-72973102D01*
X118442205Y-72784744D01*
X118328937Y-72615226D01*
X118184774Y-72471063D01*
X118015256Y-72357795D01*
X117826898Y-72279774D01*
X117626939Y-72240000D01*
X117423061Y-72240000D01*
X117223102Y-72279774D01*
X117034744Y-72357795D01*
X116865226Y-72471063D01*
X116721063Y-72615226D01*
X116607795Y-72784744D01*
X116529774Y-72973102D01*
X116490000Y-73173061D01*
X112203467Y-73173061D01*
X112292205Y-73040256D01*
X112370226Y-72851898D01*
X112410000Y-72651939D01*
X112410000Y-72448061D01*
X112370226Y-72248102D01*
X112292205Y-72059744D01*
X112178937Y-71890226D01*
X112034774Y-71746063D01*
X111865256Y-71632795D01*
X111676898Y-71554774D01*
X111476939Y-71515000D01*
X111273061Y-71515000D01*
X111073102Y-71554774D01*
X110884744Y-71632795D01*
X110715226Y-71746063D01*
X110571063Y-71890226D01*
X110457795Y-72059744D01*
X110379774Y-72248102D01*
X110340000Y-72448061D01*
X109256361Y-72448061D01*
X109262775Y-72441647D01*
X109381515Y-72263940D01*
X109463304Y-72066483D01*
X109505000Y-71856863D01*
X109505000Y-71643137D01*
X109463304Y-71433517D01*
X109381515Y-71236060D01*
X109262775Y-71058353D01*
X109111647Y-70907225D01*
X108933940Y-70788485D01*
X108736483Y-70706696D01*
X108526863Y-70665000D01*
X108313137Y-70665000D01*
X108103517Y-70706696D01*
X107906060Y-70788485D01*
X107728353Y-70907225D01*
X107577225Y-71058353D01*
X107458485Y-71236060D01*
X107376696Y-71433517D01*
X107335000Y-71643137D01*
X107160000Y-71643137D01*
X107160000Y-68643137D01*
X107335000Y-68643137D01*
X107335000Y-68856863D01*
X107376696Y-69066483D01*
X107458485Y-69263940D01*
X107577225Y-69441647D01*
X107728353Y-69592775D01*
X107906060Y-69711515D01*
X108103517Y-69793304D01*
X108313137Y-69835000D01*
X108526863Y-69835000D01*
X108736483Y-69793304D01*
X108933940Y-69711515D01*
X108991490Y-69673061D01*
X128090000Y-69673061D01*
X128090000Y-69876939D01*
X128129774Y-70076898D01*
X128207795Y-70265256D01*
X128321063Y-70434774D01*
X128465226Y-70578937D01*
X128634744Y-70692205D01*
X128823102Y-70770226D01*
X129023061Y-70810000D01*
X129226939Y-70810000D01*
X129426898Y-70770226D01*
X129615256Y-70692205D01*
X129784774Y-70578937D01*
X129928937Y-70434774D01*
X130042205Y-70265256D01*
X130120226Y-70076898D01*
X130160000Y-69876939D01*
X130160000Y-69673061D01*
X130120226Y-69473102D01*
X130042205Y-69284744D01*
X129928937Y-69115226D01*
X129784774Y-68971063D01*
X129615256Y-68857795D01*
X129426898Y-68779774D01*
X129226939Y-68740000D01*
X129023061Y-68740000D01*
X128823102Y-68779774D01*
X128634744Y-68857795D01*
X128465226Y-68971063D01*
X128321063Y-69115226D01*
X128207795Y-69284744D01*
X128129774Y-69473102D01*
X128090000Y-69673061D01*
X108991490Y-69673061D01*
X109111647Y-69592775D01*
X109262775Y-69441647D01*
X109381515Y-69263940D01*
X109463304Y-69066483D01*
X109505000Y-68856863D01*
X109505000Y-68643137D01*
X109501007Y-68623061D01*
X148540000Y-68623061D01*
X148540000Y-68826939D01*
X148579774Y-69026898D01*
X148657795Y-69215256D01*
X148771063Y-69384774D01*
X148915226Y-69528937D01*
X149084744Y-69642205D01*
X149273102Y-69720226D01*
X149473061Y-69760000D01*
X149676939Y-69760000D01*
X149876898Y-69720226D01*
X150065256Y-69642205D01*
X150234774Y-69528937D01*
X150378937Y-69384774D01*
X150492205Y-69215256D01*
X150570226Y-69026898D01*
X150610000Y-68826939D01*
X150610000Y-68623061D01*
X150570226Y-68423102D01*
X150492205Y-68234744D01*
X150378937Y-68065226D01*
X150234774Y-67921063D01*
X150065256Y-67807795D01*
X150041757Y-67798061D01*
X152440000Y-67798061D01*
X152440000Y-68001939D01*
X152479774Y-68201898D01*
X152557795Y-68390256D01*
X152671063Y-68559774D01*
X152711289Y-68600000D01*
X152671063Y-68640226D01*
X152557795Y-68809744D01*
X152479774Y-68998102D01*
X152440000Y-69198061D01*
X152440000Y-69401939D01*
X152479774Y-69601898D01*
X152557795Y-69790256D01*
X152671063Y-69959774D01*
X152815226Y-70103937D01*
X152984744Y-70217205D01*
X153173102Y-70295226D01*
X153373061Y-70335000D01*
X153576939Y-70335000D01*
X153776898Y-70295226D01*
X153965256Y-70217205D01*
X154134774Y-70103937D01*
X154150000Y-70088711D01*
X154165226Y-70103937D01*
X154334744Y-70217205D01*
X154523102Y-70295226D01*
X154723061Y-70335000D01*
X154926939Y-70335000D01*
X155126898Y-70295226D01*
X155315256Y-70217205D01*
X155484774Y-70103937D01*
X155628937Y-69959774D01*
X155742205Y-69790256D01*
X155820226Y-69601898D01*
X155860000Y-69401939D01*
X155860000Y-69198061D01*
X155820226Y-68998102D01*
X155742205Y-68809744D01*
X155628937Y-68640226D01*
X155588711Y-68600000D01*
X155628937Y-68559774D01*
X155742205Y-68390256D01*
X155820226Y-68201898D01*
X155860000Y-68001939D01*
X155860000Y-67798061D01*
X155820226Y-67598102D01*
X155742205Y-67409744D01*
X155628937Y-67240226D01*
X155484774Y-67096063D01*
X155378421Y-67025000D01*
X157109388Y-67025000D01*
X157131785Y-67252400D01*
X157198115Y-67471060D01*
X157305829Y-67672579D01*
X157450788Y-67849212D01*
X157627421Y-67994171D01*
X157828940Y-68101885D01*
X158047600Y-68168215D01*
X158218021Y-68185000D01*
X159181979Y-68185000D01*
X159352400Y-68168215D01*
X159571060Y-68101885D01*
X159772579Y-67994171D01*
X159949212Y-67849212D01*
X160094171Y-67672579D01*
X160201885Y-67471060D01*
X160268215Y-67252400D01*
X160290612Y-67025000D01*
X160268215Y-66797600D01*
X160201885Y-66578940D01*
X160094171Y-66377421D01*
X159949212Y-66200788D01*
X159772579Y-66055829D01*
X159571060Y-65948115D01*
X159352400Y-65881785D01*
X159181979Y-65865000D01*
X158218021Y-65865000D01*
X158047600Y-65881785D01*
X157828940Y-65948115D01*
X157627421Y-66055829D01*
X157450788Y-66200788D01*
X157305829Y-66377421D01*
X157198115Y-66578940D01*
X157131785Y-66797600D01*
X157109388Y-67025000D01*
X155378421Y-67025000D01*
X155315256Y-66982795D01*
X155126898Y-66904774D01*
X154926939Y-66865000D01*
X154723061Y-66865000D01*
X154523102Y-66904774D01*
X154334744Y-66982795D01*
X154165226Y-67096063D01*
X154150000Y-67111289D01*
X154134774Y-67096063D01*
X153965256Y-66982795D01*
X153776898Y-66904774D01*
X153576939Y-66865000D01*
X153373061Y-66865000D01*
X153173102Y-66904774D01*
X152984744Y-66982795D01*
X152815226Y-67096063D01*
X152671063Y-67240226D01*
X152557795Y-67409744D01*
X152479774Y-67598102D01*
X152440000Y-67798061D01*
X150041757Y-67798061D01*
X149876898Y-67729774D01*
X149676939Y-67690000D01*
X149473061Y-67690000D01*
X149273102Y-67729774D01*
X149084744Y-67807795D01*
X148915226Y-67921063D01*
X148771063Y-68065226D01*
X148657795Y-68234744D01*
X148579774Y-68423102D01*
X148540000Y-68623061D01*
X109501007Y-68623061D01*
X109463304Y-68433517D01*
X109381515Y-68236060D01*
X109262775Y-68058353D01*
X109111647Y-67907225D01*
X108933940Y-67788485D01*
X108736483Y-67706696D01*
X108526863Y-67665000D01*
X108313137Y-67665000D01*
X108103517Y-67706696D01*
X107906060Y-67788485D01*
X107728353Y-67907225D01*
X107577225Y-68058353D01*
X107458485Y-68236060D01*
X107376696Y-68433517D01*
X107335000Y-68643137D01*
X107160000Y-68643137D01*
X107160000Y-61511648D01*
X107416735Y-61895879D01*
X108104121Y-62583265D01*
X108912401Y-63123340D01*
X109810514Y-63495350D01*
X110763945Y-63685000D01*
X111736055Y-63685000D01*
X112689486Y-63495350D01*
X113587599Y-63123340D01*
X114395879Y-62583265D01*
X115083265Y-61895879D01*
X115623340Y-61087599D01*
X115995350Y-60189486D01*
X116092881Y-59699162D01*
X122215000Y-59699162D01*
X122215000Y-60300837D01*
X122229976Y-60452894D01*
X122289159Y-60647992D01*
X122385266Y-60827797D01*
X122514604Y-60985396D01*
X122672203Y-61114734D01*
X122852007Y-61210841D01*
X123047105Y-61270024D01*
X123250000Y-61290007D01*
X123452894Y-61270024D01*
X123647992Y-61210841D01*
X123827797Y-61114734D01*
X123875000Y-61075996D01*
X123922203Y-61114734D01*
X124102007Y-61210841D01*
X124297105Y-61270024D01*
X124500000Y-61290007D01*
X124702894Y-61270024D01*
X124897992Y-61210841D01*
X125077797Y-61114734D01*
X125125000Y-61075996D01*
X125172203Y-61114734D01*
X125352007Y-61210841D01*
X125547105Y-61270024D01*
X125750000Y-61290007D01*
X125952894Y-61270024D01*
X126147992Y-61210841D01*
X126229264Y-61167401D01*
X126243658Y-61179298D01*
X126353766Y-61238646D01*
X126473336Y-61275374D01*
X126593250Y-61285000D01*
X126752000Y-61126250D01*
X126752000Y-60512311D01*
X126770024Y-60452895D01*
X126785000Y-60300838D01*
X126785000Y-60248000D01*
X127248000Y-60248000D01*
X127248000Y-61126250D01*
X127406750Y-61285000D01*
X127526664Y-61275374D01*
X127646234Y-61238646D01*
X127756342Y-61179298D01*
X127852756Y-61099608D01*
X127931771Y-61002641D01*
X127990350Y-60892122D01*
X128026242Y-60772298D01*
X128038068Y-60647774D01*
X128035000Y-60406750D01*
X127876250Y-60248000D01*
X127248000Y-60248000D01*
X126785000Y-60248000D01*
X126785000Y-59699163D01*
X126770024Y-59547106D01*
X126752000Y-59487690D01*
X126752000Y-58873750D01*
X127248000Y-58873750D01*
X127248000Y-59752000D01*
X127876250Y-59752000D01*
X128035000Y-59593250D01*
X128038068Y-59352226D01*
X128026242Y-59227702D01*
X127994898Y-59123061D01*
X143265000Y-59123061D01*
X143265000Y-59326939D01*
X143304774Y-59526898D01*
X143382795Y-59715256D01*
X143496063Y-59884774D01*
X143640226Y-60028937D01*
X143809744Y-60142205D01*
X143998102Y-60220226D01*
X144198061Y-60260000D01*
X144401939Y-60260000D01*
X144601898Y-60220226D01*
X144790256Y-60142205D01*
X144959774Y-60028937D01*
X145103937Y-59884774D01*
X145217205Y-59715256D01*
X145295226Y-59526898D01*
X145335000Y-59326939D01*
X145335000Y-59123061D01*
X145295226Y-58923102D01*
X145217205Y-58734744D01*
X145103937Y-58565226D01*
X144959774Y-58421063D01*
X144790256Y-58307795D01*
X144715646Y-58276890D01*
X149350048Y-58276890D01*
X149350048Y-58523110D01*
X149398083Y-58764598D01*
X149492307Y-58992074D01*
X149629099Y-59196798D01*
X149803202Y-59370901D01*
X150007926Y-59507693D01*
X150235402Y-59601917D01*
X150476890Y-59649952D01*
X150723110Y-59649952D01*
X150964598Y-59601917D01*
X151192074Y-59507693D01*
X151396798Y-59370901D01*
X151570901Y-59196798D01*
X151707693Y-58992074D01*
X151801917Y-58764598D01*
X151849952Y-58523110D01*
X151849952Y-58276890D01*
X151801917Y-58035402D01*
X151707693Y-57807926D01*
X151570901Y-57603202D01*
X151396798Y-57429099D01*
X151192074Y-57292307D01*
X150964598Y-57198083D01*
X150723110Y-57150048D01*
X150476890Y-57150048D01*
X150235402Y-57198083D01*
X150007926Y-57292307D01*
X149803202Y-57429099D01*
X149629099Y-57603202D01*
X149492307Y-57807926D01*
X149398083Y-58035402D01*
X149350048Y-58276890D01*
X144715646Y-58276890D01*
X144601898Y-58229774D01*
X144401939Y-58190000D01*
X144198061Y-58190000D01*
X143998102Y-58229774D01*
X143809744Y-58307795D01*
X143640226Y-58421063D01*
X143496063Y-58565226D01*
X143382795Y-58734744D01*
X143304774Y-58923102D01*
X143265000Y-59123061D01*
X127994898Y-59123061D01*
X127990350Y-59107878D01*
X127931771Y-58997359D01*
X127852756Y-58900392D01*
X127756342Y-58820702D01*
X127646234Y-58761354D01*
X127526664Y-58724626D01*
X127406750Y-58715000D01*
X127248000Y-58873750D01*
X126752000Y-58873750D01*
X126593250Y-58715000D01*
X126473336Y-58724626D01*
X126353766Y-58761354D01*
X126243658Y-58820702D01*
X126229264Y-58832599D01*
X126147993Y-58789159D01*
X125952895Y-58729976D01*
X125750000Y-58709993D01*
X125547106Y-58729976D01*
X125352008Y-58789159D01*
X125172204Y-58885266D01*
X125125001Y-58924005D01*
X125077797Y-58885266D01*
X124897993Y-58789159D01*
X124702895Y-58729976D01*
X124500000Y-58709993D01*
X124297106Y-58729976D01*
X124102008Y-58789159D01*
X123922204Y-58885266D01*
X123875001Y-58924005D01*
X123827797Y-58885266D01*
X123647993Y-58789159D01*
X123452895Y-58729976D01*
X123250000Y-58709993D01*
X123047106Y-58729976D01*
X122852008Y-58789159D01*
X122672204Y-58885266D01*
X122514605Y-59014604D01*
X122385267Y-59172203D01*
X122289159Y-59352007D01*
X122229976Y-59547105D01*
X122215000Y-59699162D01*
X116092881Y-59699162D01*
X116185000Y-59236055D01*
X116185000Y-58276890D01*
X116750048Y-58276890D01*
X116750048Y-58523110D01*
X116798083Y-58764598D01*
X116892307Y-58992074D01*
X117029099Y-59196798D01*
X117203202Y-59370901D01*
X117407926Y-59507693D01*
X117635402Y-59601917D01*
X117876890Y-59649952D01*
X118123110Y-59649952D01*
X118364598Y-59601917D01*
X118592074Y-59507693D01*
X118796798Y-59370901D01*
X118970901Y-59196798D01*
X119107693Y-58992074D01*
X119201917Y-58764598D01*
X119249952Y-58523110D01*
X119249952Y-58276890D01*
X119201917Y-58035402D01*
X119107693Y-57807926D01*
X118970901Y-57603202D01*
X118796798Y-57429099D01*
X118592074Y-57292307D01*
X118364598Y-57198083D01*
X118123110Y-57150048D01*
X117876890Y-57150048D01*
X117635402Y-57198083D01*
X117407926Y-57292307D01*
X117203202Y-57429099D01*
X117029099Y-57603202D01*
X116892307Y-57807926D01*
X116798083Y-58035402D01*
X116750048Y-58276890D01*
X116185000Y-58276890D01*
X116185000Y-58263945D01*
X115995350Y-57310514D01*
X115623340Y-56412401D01*
X115083265Y-55604121D01*
X114395879Y-54916735D01*
X114011648Y-54660000D01*
X134525131Y-54660000D01*
X134409744Y-54707795D01*
G37*
X134409744Y-54707795D02*
X134240226Y-54821063D01*
X134096063Y-54965226D01*
X133982795Y-55134744D01*
X133904774Y-55323102D01*
X133865000Y-55523061D01*
X133865000Y-55726939D01*
X133904774Y-55926898D01*
X133982795Y-56115256D01*
X134096063Y-56284774D01*
X134240226Y-56428937D01*
X134409744Y-56542205D01*
X134598102Y-56620226D01*
X134798061Y-56660000D01*
X135001939Y-56660000D01*
X135201898Y-56620226D01*
X135390256Y-56542205D01*
X135559774Y-56428937D01*
X135703937Y-56284774D01*
X135817205Y-56115256D01*
X135895226Y-55926898D01*
X135935000Y-55726939D01*
X135935000Y-55523061D01*
X135895226Y-55323102D01*
X135817205Y-55134744D01*
X135703937Y-54965226D01*
X135559774Y-54821063D01*
X135390256Y-54707795D01*
X135274869Y-54660000D01*
X137110485Y-54660000D01*
X136934744Y-54732795D01*
X136765226Y-54846063D01*
X136621063Y-54990226D01*
X136507795Y-55159744D01*
X136429774Y-55348102D01*
X136390000Y-55548061D01*
X136390000Y-55751939D01*
X136429774Y-55951898D01*
X136507795Y-56140256D01*
X136621063Y-56309774D01*
X136765226Y-56453937D01*
X136934744Y-56567205D01*
X137123102Y-56645226D01*
X137323061Y-56685000D01*
X137526939Y-56685000D01*
X137726898Y-56645226D01*
X137915256Y-56567205D01*
X138075000Y-56460468D01*
X138234744Y-56567205D01*
X138423102Y-56645226D01*
X138623061Y-56685000D01*
X138826939Y-56685000D01*
X139026898Y-56645226D01*
X139215256Y-56567205D01*
X139384774Y-56453937D01*
X139528937Y-56309774D01*
X139642205Y-56140256D01*
X139720226Y-55951898D01*
X139760000Y-55751939D01*
X139760000Y-55548061D01*
X139720226Y-55348102D01*
X139642205Y-55159744D01*
X139528937Y-54990226D01*
X139384774Y-54846063D01*
X139215256Y-54732795D01*
X139039515Y-54660000D01*
X155112504Y-54660000D01*
X154354121Y-55166735D01*
X153666735Y-55854121D01*
X153126660Y-56662401D01*
X152754650Y-57560514D01*
X152565000Y-58513945D01*
X152565000Y-59486055D01*
X152754650Y-60439486D01*
X153126660Y-61337599D01*
X153666735Y-62145879D01*
X154354121Y-62833265D01*
X155162401Y-63373340D01*
X156060514Y-63745350D01*
X157013945Y-63935000D01*
X157986055Y-63935000D01*
X158939486Y-63745350D01*
X159837599Y-63373340D01*
X160645879Y-62833265D01*
X161333265Y-62145879D01*
X161590000Y-61761648D01*
X161590001Y-96488354D01*
X161333265Y-96104121D01*
X160645879Y-95416735D01*
X159837599Y-94876660D01*
X158939486Y-94504650D01*
X157986055Y-94315000D01*
X157013945Y-94315000D01*
X156060514Y-94504650D01*
X155162401Y-94876660D01*
X154354121Y-95416735D01*
X153666735Y-96104121D01*
X153126660Y-96912401D01*
X152754650Y-97810514D01*
X152565000Y-98763945D01*
X152565000Y-99736055D01*
X152754650Y-100689486D01*
X153126660Y-101587599D01*
X153666735Y-102395879D01*
X154354121Y-103083265D01*
X154738352Y-103340000D01*
X114011648Y-103340000D01*
X114395879Y-103083265D01*
X115083265Y-102395879D01*
X115623340Y-101587599D01*
X115995350Y-100689486D01*
X116185000Y-99736055D01*
X116185000Y-98872774D01*
X123161932Y-98872774D01*
X123173758Y-98997298D01*
X123209650Y-99117122D01*
X123268229Y-99227641D01*
X123347244Y-99324608D01*
X123443658Y-99404298D01*
X123553766Y-99463646D01*
X123673336Y-99500374D01*
X123793250Y-99510000D01*
X123952000Y-99351250D01*
X123952000Y-98473000D01*
X123323750Y-98473000D01*
X123165000Y-98631750D01*
X123161932Y-98872774D01*
X116185000Y-98872774D01*
X116185000Y-98763945D01*
X115995350Y-97810514D01*
X115898720Y-97577226D01*
X123161932Y-97577226D01*
X123165000Y-97818250D01*
X123323750Y-97977000D01*
X123952000Y-97977000D01*
X123952000Y-97924163D01*
X124415000Y-97924163D01*
X124415000Y-98525838D01*
X124429976Y-98677895D01*
X124448000Y-98737311D01*
X124448000Y-99351250D01*
X124606750Y-99510000D01*
X124726664Y-99500374D01*
X124846234Y-99463646D01*
X124956342Y-99404298D01*
X124970736Y-99392401D01*
X125052008Y-99435841D01*
X125247106Y-99495024D01*
X125450000Y-99515007D01*
X125652895Y-99495024D01*
X125847993Y-99435841D01*
X126027797Y-99339734D01*
X126075000Y-99300995D01*
X126122204Y-99339734D01*
X126302008Y-99435841D01*
X126497106Y-99495024D01*
X126700000Y-99515007D01*
X126902895Y-99495024D01*
X127097993Y-99435841D01*
X127277797Y-99339734D01*
X127325000Y-99300995D01*
X127372204Y-99339734D01*
X127552008Y-99435841D01*
X127747106Y-99495024D01*
X127950000Y-99515007D01*
X128152895Y-99495024D01*
X128347993Y-99435841D01*
X128527797Y-99339734D01*
X128685396Y-99210396D01*
X128814734Y-99052797D01*
X128910841Y-98872992D01*
X128970024Y-98677894D01*
X128985000Y-98525837D01*
X128985000Y-97924162D01*
X128970024Y-97772105D01*
X128910841Y-97577007D01*
X128814734Y-97397203D01*
X128685396Y-97239604D01*
X128527797Y-97110266D01*
X128347992Y-97014159D01*
X128152894Y-96954976D01*
X127950000Y-96934993D01*
X127747105Y-96954976D01*
X127552007Y-97014159D01*
X127372203Y-97110266D01*
X127325000Y-97149004D01*
X127277797Y-97110266D01*
X127097992Y-97014159D01*
X126902894Y-96954976D01*
X126700000Y-96934993D01*
X126497105Y-96954976D01*
X126302007Y-97014159D01*
X126122203Y-97110266D01*
X126075000Y-97149004D01*
X126027797Y-97110266D01*
X125847992Y-97014159D01*
X125652894Y-96954976D01*
X125450000Y-96934993D01*
X125247105Y-96954976D01*
X125052007Y-97014159D01*
X124970736Y-97057599D01*
X124956342Y-97045702D01*
X124846234Y-96986354D01*
X124726664Y-96949626D01*
X124606750Y-96940000D01*
X124448000Y-97098750D01*
X124448000Y-97712690D01*
X124429976Y-97772106D01*
X124415000Y-97924163D01*
X123952000Y-97924163D01*
X123952000Y-97098750D01*
X123793250Y-96940000D01*
X123673336Y-96949626D01*
X123553766Y-96986354D01*
X123443658Y-97045702D01*
X123347244Y-97125392D01*
X123268229Y-97222359D01*
X123209650Y-97332878D01*
X123173758Y-97452702D01*
X123161932Y-97577226D01*
X115898720Y-97577226D01*
X115623340Y-96912401D01*
X115083265Y-96104121D01*
X114395879Y-95416735D01*
X113587599Y-94876660D01*
X112689486Y-94504650D01*
X111736055Y-94315000D01*
X110763945Y-94315000D01*
X109810514Y-94504650D01*
X108912401Y-94876660D01*
X108104121Y-95416735D01*
X107416735Y-96104121D01*
X107160000Y-96488352D01*
X107160000Y-94073061D01*
X140190000Y-94073061D01*
X140190000Y-94276939D01*
X140229774Y-94476898D01*
X140307795Y-94665256D01*
X140421063Y-94834774D01*
X140461289Y-94875000D01*
X140446063Y-94890226D01*
X140332795Y-95059744D01*
X140254774Y-95248102D01*
X140215000Y-95448061D01*
X140215000Y-95651939D01*
X140254774Y-95851898D01*
X140332795Y-96040256D01*
X140446063Y-96209774D01*
X140590226Y-96353937D01*
X140696580Y-96425000D01*
X140590226Y-96496063D01*
X140446063Y-96640226D01*
X140332795Y-96809744D01*
X140254774Y-96998102D01*
X140215000Y-97198061D01*
X140215000Y-97401939D01*
X140254774Y-97601898D01*
X140332795Y-97790256D01*
X140401976Y-97893792D01*
X140307795Y-98034744D01*
X140229774Y-98223102D01*
X140190000Y-98423061D01*
X140190000Y-98626939D01*
X140229774Y-98826898D01*
X140307795Y-99015256D01*
X140421063Y-99184774D01*
X140565226Y-99328937D01*
X140734744Y-99442205D01*
X140923102Y-99520226D01*
X141123061Y-99560000D01*
X141326939Y-99560000D01*
X141526898Y-99520226D01*
X141715256Y-99442205D01*
X141884774Y-99328937D01*
X141936821Y-99276890D01*
X149350048Y-99276890D01*
X149350048Y-99523110D01*
X149398083Y-99764598D01*
X149492307Y-99992074D01*
X149629099Y-100196798D01*
X149803202Y-100370901D01*
X150007926Y-100507693D01*
X150235402Y-100601917D01*
X150476890Y-100649952D01*
X150723110Y-100649952D01*
X150964598Y-100601917D01*
X151192074Y-100507693D01*
X151396798Y-100370901D01*
X151570901Y-100196798D01*
X151707693Y-99992074D01*
X151801917Y-99764598D01*
X151849952Y-99523110D01*
X151849952Y-99276890D01*
X151801917Y-99035402D01*
X151707693Y-98807926D01*
X151570901Y-98603202D01*
X151396798Y-98429099D01*
X151192074Y-98292307D01*
X150964598Y-98198083D01*
X150723110Y-98150048D01*
X150476890Y-98150048D01*
X150235402Y-98198083D01*
X150007926Y-98292307D01*
X149803202Y-98429099D01*
X149629099Y-98603202D01*
X149492307Y-98807926D01*
X149398083Y-99035402D01*
X149350048Y-99276890D01*
X141936821Y-99276890D01*
X142028937Y-99184774D01*
X142142205Y-99015256D01*
X142220226Y-98826898D01*
X142260000Y-98626939D01*
X142260000Y-98423061D01*
X142220226Y-98223102D01*
X142142205Y-98034744D01*
X142073024Y-97931208D01*
X142167205Y-97790256D01*
X142245226Y-97601898D01*
X142285000Y-97401939D01*
X142285000Y-97198061D01*
X142245226Y-96998102D01*
X142167205Y-96809744D01*
X142053937Y-96640226D01*
X141909774Y-96496063D01*
X141803420Y-96425000D01*
X141909774Y-96353937D01*
X142053937Y-96209774D01*
X142167205Y-96040256D01*
X142245226Y-95851898D01*
X142285000Y-95651939D01*
X142285000Y-95448061D01*
X142245226Y-95248102D01*
X142167205Y-95059744D01*
X142053937Y-94890226D01*
X142013711Y-94850000D01*
X142028937Y-94834774D01*
X142142205Y-94665256D01*
X142220226Y-94476898D01*
X142260000Y-94276939D01*
X142260000Y-94073061D01*
X142220226Y-93873102D01*
X142142205Y-93684744D01*
X142028937Y-93515226D01*
X141884774Y-93371063D01*
X141715256Y-93257795D01*
X141526898Y-93179774D01*
X141326939Y-93140000D01*
X141123061Y-93140000D01*
X140923102Y-93179774D01*
X140734744Y-93257795D01*
X140565226Y-93371063D01*
X140421063Y-93515226D01*
X140307795Y-93684744D01*
X140229774Y-93873102D01*
X140190000Y-94073061D01*
X107160000Y-94073061D01*
X107160000Y-89873061D01*
X130015000Y-89873061D01*
X130015000Y-90076939D01*
X130054774Y-90276898D01*
X130132795Y-90465256D01*
X130246063Y-90634774D01*
X130390226Y-90778937D01*
X130559744Y-90892205D01*
X130748102Y-90970226D01*
X130948061Y-91010000D01*
X131151939Y-91010000D01*
X131351898Y-90970226D01*
X131540256Y-90892205D01*
X131681152Y-90798061D01*
X143715000Y-90798061D01*
X143715000Y-91001939D01*
X143754774Y-91201898D01*
X143832795Y-91390256D01*
X143946063Y-91559774D01*
X144090226Y-91703937D01*
X144259744Y-91817205D01*
X144369095Y-91862500D01*
X144259744Y-91907795D01*
X144090226Y-92021063D01*
X143946063Y-92165226D01*
X143832795Y-92334744D01*
X143754774Y-92523102D01*
X143715000Y-92723061D01*
X143715000Y-92926939D01*
X143754774Y-93126898D01*
X143816120Y-93275000D01*
X143754774Y-93423102D01*
X143715000Y-93623061D01*
X143715000Y-93826939D01*
X143754774Y-94026898D01*
X143832795Y-94215256D01*
X143946063Y-94384774D01*
X144090226Y-94528937D01*
X144259744Y-94642205D01*
X144448102Y-94720226D01*
X144648061Y-94760000D01*
X144851939Y-94760000D01*
X145051898Y-94720226D01*
X145240256Y-94642205D01*
X145409774Y-94528937D01*
X145553937Y-94384774D01*
X145667205Y-94215256D01*
X145745226Y-94026898D01*
X145785000Y-93826939D01*
X145785000Y-93623061D01*
X145745226Y-93423102D01*
X145683880Y-93275000D01*
X145745226Y-93126898D01*
X145785000Y-92926939D01*
X145785000Y-92723061D01*
X145745226Y-92523102D01*
X145667205Y-92334744D01*
X145553937Y-92165226D01*
X145409774Y-92021063D01*
X145240256Y-91907795D01*
X145130905Y-91862500D01*
X145240256Y-91817205D01*
X145409774Y-91703937D01*
X145553937Y-91559774D01*
X145645285Y-91423061D01*
X150240000Y-91423061D01*
X150240000Y-91626939D01*
X150279774Y-91826898D01*
X150357795Y-92015256D01*
X150471063Y-92184774D01*
X150615226Y-92328937D01*
X150784744Y-92442205D01*
X150973102Y-92520226D01*
X151165000Y-92558397D01*
X151165000Y-92576939D01*
X151204774Y-92776898D01*
X151282795Y-92965256D01*
X151396063Y-93134774D01*
X151540226Y-93278937D01*
X151709744Y-93392205D01*
X151898102Y-93470226D01*
X152098061Y-93510000D01*
X152301939Y-93510000D01*
X152501898Y-93470226D01*
X152690256Y-93392205D01*
X152859774Y-93278937D01*
X153003937Y-93134774D01*
X153117205Y-92965256D01*
X153195226Y-92776898D01*
X153235000Y-92576939D01*
X153235000Y-92373061D01*
X153195226Y-92173102D01*
X153117205Y-91984744D01*
X153003937Y-91815226D01*
X152859774Y-91671063D01*
X152690256Y-91557795D01*
X152501898Y-91479774D01*
X152310000Y-91441603D01*
X152310000Y-91423061D01*
X152270226Y-91223102D01*
X152192205Y-91034744D01*
X152078937Y-90865226D01*
X151934774Y-90721063D01*
X151765256Y-90607795D01*
X151576898Y-90529774D01*
X151376939Y-90490000D01*
X151173061Y-90490000D01*
X150973102Y-90529774D01*
X150784744Y-90607795D01*
X150615226Y-90721063D01*
X150471063Y-90865226D01*
X150357795Y-91034744D01*
X150279774Y-91223102D01*
X150240000Y-91423061D01*
X145645285Y-91423061D01*
X145667205Y-91390256D01*
X145745226Y-91201898D01*
X145785000Y-91001939D01*
X145785000Y-90798061D01*
X145745226Y-90598102D01*
X145667205Y-90409744D01*
X145553937Y-90240226D01*
X145409774Y-90096063D01*
X145240256Y-89982795D01*
X145051898Y-89904774D01*
X144851939Y-89865000D01*
X144648061Y-89865000D01*
X144448102Y-89904774D01*
X144259744Y-89982795D01*
X144090226Y-90096063D01*
X143946063Y-90240226D01*
X143832795Y-90409744D01*
X143754774Y-90598102D01*
X143715000Y-90798061D01*
X131681152Y-90798061D01*
X131709774Y-90778937D01*
X131853937Y-90634774D01*
X131967205Y-90465256D01*
X132045226Y-90276898D01*
X132085000Y-90076939D01*
X132085000Y-89873061D01*
X132045226Y-89673102D01*
X131967205Y-89484744D01*
X131853937Y-89315226D01*
X131709774Y-89171063D01*
X131540256Y-89057795D01*
X131351898Y-88979774D01*
X131151939Y-88940000D01*
X130948061Y-88940000D01*
X130748102Y-88979774D01*
X130559744Y-89057795D01*
X130390226Y-89171063D01*
X130246063Y-89315226D01*
X130132795Y-89484744D01*
X130054774Y-89673102D01*
X130015000Y-89873061D01*
X107160000Y-89873061D01*
X107160000Y-88673061D01*
X120515000Y-88673061D01*
X120515000Y-88876939D01*
X120554774Y-89076898D01*
X120632795Y-89265256D01*
X120746063Y-89434774D01*
X120890226Y-89578937D01*
X121059744Y-89692205D01*
X121248102Y-89770226D01*
X121448061Y-89810000D01*
X121651939Y-89810000D01*
X121851898Y-89770226D01*
X122040256Y-89692205D01*
X122209774Y-89578937D01*
X122353937Y-89434774D01*
X122467205Y-89265256D01*
X122545226Y-89076898D01*
X122585000Y-88876939D01*
X122585000Y-88673061D01*
X122545226Y-88473102D01*
X122467205Y-88284744D01*
X122353937Y-88115226D01*
X122209774Y-87971063D01*
X122040256Y-87857795D01*
X121851898Y-87779774D01*
X121651939Y-87740000D01*
X121448061Y-87740000D01*
X121248102Y-87779774D01*
X121059744Y-87857795D01*
X120890226Y-87971063D01*
X120746063Y-88115226D01*
X120632795Y-88284744D01*
X120554774Y-88473102D01*
X120515000Y-88673061D01*
X107160000Y-88673061D01*
X107160000Y-87173061D01*
X131490000Y-87173061D01*
X131490000Y-87376939D01*
X131529774Y-87576898D01*
X131607795Y-87765256D01*
X131721063Y-87934774D01*
X131865226Y-88078937D01*
X132034744Y-88192205D01*
X132223102Y-88270226D01*
X132423061Y-88310000D01*
X132626939Y-88310000D01*
X132826898Y-88270226D01*
X133015256Y-88192205D01*
X133184774Y-88078937D01*
X133328937Y-87934774D01*
X133442205Y-87765256D01*
X133520226Y-87576898D01*
X133560000Y-87376939D01*
X133560000Y-87173061D01*
X133520226Y-86973102D01*
X133442205Y-86784744D01*
X133328937Y-86615226D01*
X133184774Y-86471063D01*
X133015256Y-86357795D01*
X132826898Y-86279774D01*
X132626939Y-86240000D01*
X132423061Y-86240000D01*
X132223102Y-86279774D01*
X132034744Y-86357795D01*
X131865226Y-86471063D01*
X131721063Y-86615226D01*
X131607795Y-86784744D01*
X131529774Y-86973102D01*
X131490000Y-87173061D01*
X107160000Y-87173061D01*
X107160000Y-85698061D01*
X116440000Y-85698061D01*
X116440000Y-85901939D01*
X116479774Y-86101898D01*
X116557795Y-86290256D01*
X116671063Y-86459774D01*
X116815226Y-86603937D01*
X116984744Y-86717205D01*
X117173102Y-86795226D01*
X117373061Y-86835000D01*
X117576939Y-86835000D01*
X117776898Y-86795226D01*
X117965256Y-86717205D01*
X118134774Y-86603937D01*
X118278937Y-86459774D01*
X118392205Y-86290256D01*
X118470226Y-86101898D01*
X118510000Y-85901939D01*
X118510000Y-85698061D01*
X118470226Y-85498102D01*
X118392205Y-85309744D01*
X118278937Y-85140226D01*
X118134774Y-84996063D01*
X117965256Y-84882795D01*
X117776898Y-84804774D01*
X117576939Y-84765000D01*
X117373061Y-84765000D01*
X117173102Y-84804774D01*
X116984744Y-84882795D01*
X116815226Y-84996063D01*
X116671063Y-85140226D01*
X116557795Y-85309744D01*
X116479774Y-85498102D01*
X116440000Y-85698061D01*
X107160000Y-85698061D01*
X107160000Y-84598061D01*
X140815000Y-84598061D01*
X140815000Y-84801939D01*
X140854774Y-85001898D01*
X140932795Y-85190256D01*
X141046063Y-85359774D01*
X141148789Y-85462500D01*
X141071063Y-85540226D01*
X140957795Y-85709744D01*
X140879774Y-85898102D01*
X140840000Y-86098061D01*
X140840000Y-86301939D01*
X140879774Y-86501898D01*
X140957795Y-86690256D01*
X141071063Y-86859774D01*
X141215226Y-87003937D01*
X141384744Y-87117205D01*
X141573102Y-87195226D01*
X141773061Y-87235000D01*
X141976939Y-87235000D01*
X142176898Y-87195226D01*
X142290763Y-87148061D01*
X145465000Y-87148061D01*
X145465000Y-87351939D01*
X145504774Y-87551898D01*
X145582795Y-87740256D01*
X145696063Y-87909774D01*
X145840226Y-88053937D01*
X146009744Y-88167205D01*
X146198102Y-88245226D01*
X146398061Y-88285000D01*
X146601939Y-88285000D01*
X146801898Y-88245226D01*
X146990256Y-88167205D01*
X147159774Y-88053937D01*
X147303937Y-87909774D01*
X147417205Y-87740256D01*
X147495226Y-87551898D01*
X147535000Y-87351939D01*
X147535000Y-87148061D01*
X147530028Y-87123061D01*
X147640000Y-87123061D01*
X147640000Y-87326939D01*
X147679774Y-87526898D01*
X147757795Y-87715256D01*
X147871063Y-87884774D01*
X148015226Y-88028937D01*
X148184744Y-88142205D01*
X148373102Y-88220226D01*
X148490000Y-88243478D01*
X148490000Y-88426939D01*
X148529774Y-88626898D01*
X148607795Y-88815256D01*
X148721063Y-88984774D01*
X148865226Y-89128937D01*
X149034744Y-89242205D01*
X149223102Y-89320226D01*
X149421515Y-89359692D01*
X149454774Y-89526898D01*
X149532795Y-89715256D01*
X149646063Y-89884774D01*
X149790226Y-90028937D01*
X149959744Y-90142205D01*
X150148102Y-90220226D01*
X150348061Y-90260000D01*
X150551939Y-90260000D01*
X150751898Y-90220226D01*
X150940256Y-90142205D01*
X151109774Y-90028937D01*
X151253937Y-89884774D01*
X151367205Y-89715256D01*
X151445226Y-89526898D01*
X151485000Y-89326939D01*
X151485000Y-89123061D01*
X151450577Y-88950000D01*
X154561928Y-88950000D01*
X154561928Y-91550000D01*
X154574188Y-91674482D01*
X154610498Y-91794180D01*
X154669463Y-91904494D01*
X154748815Y-92001185D01*
X154845506Y-92080537D01*
X154955820Y-92139502D01*
X155075518Y-92175812D01*
X155200000Y-92188072D01*
X157800000Y-92188072D01*
X157924482Y-92175812D01*
X158044180Y-92139502D01*
X158154494Y-92080537D01*
X158251185Y-92001185D01*
X158330537Y-91904494D01*
X158389502Y-91794180D01*
X158425812Y-91674482D01*
X158438072Y-91550000D01*
X158438072Y-88950000D01*
X158425812Y-88825518D01*
X158389502Y-88705820D01*
X158330537Y-88595506D01*
X158251185Y-88498815D01*
X158154494Y-88419463D01*
X158044180Y-88360498D01*
X157924482Y-88324188D01*
X157800000Y-88311928D01*
X155200000Y-88311928D01*
X155075518Y-88324188D01*
X154955820Y-88360498D01*
X154845506Y-88419463D01*
X154748815Y-88498815D01*
X154669463Y-88595506D01*
X154610498Y-88705820D01*
X154574188Y-88825518D01*
X154561928Y-88950000D01*
X151450577Y-88950000D01*
X151445226Y-88923102D01*
X151367205Y-88734744D01*
X151253937Y-88565226D01*
X151109774Y-88421063D01*
X150940256Y-88307795D01*
X150751898Y-88229774D01*
X150553485Y-88190308D01*
X150520226Y-88023102D01*
X150442205Y-87834744D01*
X150328937Y-87665226D01*
X150184774Y-87521063D01*
X150015256Y-87407795D01*
X149826898Y-87329774D01*
X149710000Y-87306522D01*
X149710000Y-87123061D01*
X149670226Y-86923102D01*
X149592205Y-86734744D01*
X149478937Y-86565226D01*
X149334774Y-86421063D01*
X149165256Y-86307795D01*
X148976898Y-86229774D01*
X148776939Y-86190000D01*
X148573061Y-86190000D01*
X148373102Y-86229774D01*
X148184744Y-86307795D01*
X148015226Y-86421063D01*
X147871063Y-86565226D01*
X147757795Y-86734744D01*
X147679774Y-86923102D01*
X147640000Y-87123061D01*
X147530028Y-87123061D01*
X147495226Y-86948102D01*
X147417205Y-86759744D01*
X147303937Y-86590226D01*
X147159774Y-86446063D01*
X146990256Y-86332795D01*
X146801898Y-86254774D01*
X146601939Y-86215000D01*
X146398061Y-86215000D01*
X146198102Y-86254774D01*
X146009744Y-86332795D01*
X145840226Y-86446063D01*
X145696063Y-86590226D01*
X145582795Y-86759744D01*
X145504774Y-86948102D01*
X145465000Y-87148061D01*
X142290763Y-87148061D01*
X142365256Y-87117205D01*
X142534774Y-87003937D01*
X142678937Y-86859774D01*
X142792205Y-86690256D01*
X142870226Y-86501898D01*
X142910000Y-86301939D01*
X142910000Y-86098061D01*
X142870226Y-85898102D01*
X142792205Y-85709744D01*
X142678937Y-85540226D01*
X142576211Y-85437500D01*
X142653937Y-85359774D01*
X142767205Y-85190256D01*
X142821399Y-85059419D01*
X154565000Y-85059419D01*
X154565000Y-85440581D01*
X154639361Y-85814419D01*
X154785225Y-86166566D01*
X154996987Y-86483491D01*
X155266509Y-86753013D01*
X155583434Y-86964775D01*
X155935581Y-87110639D01*
X156309419Y-87185000D01*
X156690581Y-87185000D01*
X157064419Y-87110639D01*
X157416566Y-86964775D01*
X157733491Y-86753013D01*
X158003013Y-86483491D01*
X158214775Y-86166566D01*
X158360639Y-85814419D01*
X158435000Y-85440581D01*
X158435000Y-85059419D01*
X158360639Y-84685581D01*
X158214775Y-84333434D01*
X158003013Y-84016509D01*
X157733491Y-83746987D01*
X157416566Y-83535225D01*
X157064419Y-83389361D01*
X156690581Y-83315000D01*
X156309419Y-83315000D01*
X155935581Y-83389361D01*
X155583434Y-83535225D01*
X155266509Y-83746987D01*
X154996987Y-84016509D01*
X154785225Y-84333434D01*
X154639361Y-84685581D01*
X154565000Y-85059419D01*
X142821399Y-85059419D01*
X142845226Y-85001898D01*
X142885000Y-84801939D01*
X142885000Y-84598061D01*
X142845226Y-84398102D01*
X142767205Y-84209744D01*
X142653937Y-84040226D01*
X142509774Y-83896063D01*
X142340256Y-83782795D01*
X142151898Y-83704774D01*
X141951939Y-83665000D01*
X141748061Y-83665000D01*
X141548102Y-83704774D01*
X141359744Y-83782795D01*
X141190226Y-83896063D01*
X141046063Y-84040226D01*
X140932795Y-84209744D01*
X140854774Y-84398102D01*
X140815000Y-84598061D01*
X107160000Y-84598061D01*
X107160000Y-82648061D01*
X112390000Y-82648061D01*
X112390000Y-82851939D01*
X112429774Y-83051898D01*
X112507795Y-83240256D01*
X112621063Y-83409774D01*
X112765226Y-83553937D01*
X112934744Y-83667205D01*
X113123102Y-83745226D01*
X113323061Y-83785000D01*
X113526939Y-83785000D01*
X113726898Y-83745226D01*
X113915256Y-83667205D01*
X114084774Y-83553937D01*
X114228937Y-83409774D01*
X114342205Y-83240256D01*
X114420226Y-83051898D01*
X114460000Y-82851939D01*
X114460000Y-82648061D01*
X114420226Y-82448102D01*
X114342205Y-82259744D01*
X114228937Y-82090226D01*
X114084774Y-81946063D01*
X113915256Y-81832795D01*
X113726898Y-81754774D01*
X113526939Y-81715000D01*
X113323061Y-81715000D01*
X113123102Y-81754774D01*
X112934744Y-81832795D01*
X112765226Y-81946063D01*
X112621063Y-82090226D01*
X112507795Y-82259744D01*
X112429774Y-82448102D01*
X112390000Y-82648061D01*
X107160000Y-82648061D01*
X107160000Y-81698061D01*
X115690000Y-81698061D01*
X115690000Y-81901939D01*
X115729774Y-82101898D01*
X115807795Y-82290256D01*
X115921063Y-82459774D01*
X116065226Y-82603937D01*
X116234744Y-82717205D01*
X116423102Y-82795226D01*
X116623061Y-82835000D01*
X116826939Y-82835000D01*
X117026898Y-82795226D01*
X117215256Y-82717205D01*
X117362500Y-82618820D01*
X117509744Y-82717205D01*
X117698102Y-82795226D01*
X117898061Y-82835000D01*
X118101939Y-82835000D01*
X118301898Y-82795226D01*
X118490256Y-82717205D01*
X118659774Y-82603937D01*
X118803937Y-82459774D01*
X118917205Y-82290256D01*
X118995226Y-82101898D01*
X119035000Y-81901939D01*
X119035000Y-81748061D01*
X147940000Y-81748061D01*
X147940000Y-81951939D01*
X147979774Y-82151898D01*
X148057795Y-82340256D01*
X148171063Y-82509774D01*
X148315226Y-82653937D01*
X148440287Y-82737500D01*
X148315226Y-82821063D01*
X148171063Y-82965226D01*
X148057795Y-83134744D01*
X147979774Y-83323102D01*
X147940000Y-83523061D01*
X147940000Y-83726939D01*
X147979774Y-83926898D01*
X148057795Y-84115256D01*
X148171063Y-84284774D01*
X148315226Y-84428937D01*
X148484744Y-84542205D01*
X148673102Y-84620226D01*
X148873061Y-84660000D01*
X149076939Y-84660000D01*
X149276898Y-84620226D01*
X149465256Y-84542205D01*
X149634774Y-84428937D01*
X149778937Y-84284774D01*
X149892205Y-84115256D01*
X149970226Y-83926898D01*
X150010000Y-83726939D01*
X150010000Y-83523061D01*
X149970226Y-83323102D01*
X149892205Y-83134744D01*
X149778937Y-82965226D01*
X149634774Y-82821063D01*
X149509713Y-82737500D01*
X149634774Y-82653937D01*
X149778937Y-82509774D01*
X149892205Y-82340256D01*
X149970226Y-82151898D01*
X150010000Y-81951939D01*
X150010000Y-81748061D01*
X149970226Y-81548102D01*
X149892205Y-81359744D01*
X149778937Y-81190226D01*
X149634774Y-81046063D01*
X149465256Y-80932795D01*
X149276898Y-80854774D01*
X149076939Y-80815000D01*
X148873061Y-80815000D01*
X148673102Y-80854774D01*
X148484744Y-80932795D01*
X148315226Y-81046063D01*
X148171063Y-81190226D01*
X148057795Y-81359744D01*
X147979774Y-81548102D01*
X147940000Y-81748061D01*
X119035000Y-81748061D01*
X119035000Y-81698061D01*
X118995226Y-81498102D01*
X118917205Y-81309744D01*
X118803937Y-81140226D01*
X118659774Y-80996063D01*
X118490256Y-80882795D01*
X118301898Y-80804774D01*
X118101939Y-80765000D01*
X117898061Y-80765000D01*
X117698102Y-80804774D01*
X117509744Y-80882795D01*
X117362500Y-80981180D01*
X117215256Y-80882795D01*
X117026898Y-80804774D01*
X116826939Y-80765000D01*
X116623061Y-80765000D01*
X116423102Y-80804774D01*
X116234744Y-80882795D01*
X116065226Y-80996063D01*
X115921063Y-81140226D01*
X115807795Y-81309744D01*
X115729774Y-81498102D01*
X115690000Y-81698061D01*
X107160000Y-81698061D01*
X107160000Y-80323061D01*
X110740000Y-80323061D01*
X110740000Y-80526939D01*
X110779774Y-80726898D01*
X110857795Y-80915256D01*
X110971063Y-81084774D01*
X111115226Y-81228937D01*
X111284744Y-81342205D01*
X111473102Y-81420226D01*
X111673061Y-81460000D01*
X111876939Y-81460000D01*
X112076898Y-81420226D01*
X112265256Y-81342205D01*
X112434774Y-81228937D01*
X112578937Y-81084774D01*
X112692205Y-80915256D01*
X112770226Y-80726898D01*
X112810000Y-80526939D01*
X112810000Y-80323061D01*
X112780164Y-80173061D01*
X128115000Y-80173061D01*
X128115000Y-80376939D01*
X128154774Y-80576898D01*
X128232795Y-80765256D01*
X128346063Y-80934774D01*
X128490226Y-81078937D01*
X128659744Y-81192205D01*
X128848102Y-81270226D01*
X129048061Y-81310000D01*
X129251939Y-81310000D01*
X129451898Y-81270226D01*
X129640256Y-81192205D01*
X129809774Y-81078937D01*
X129953937Y-80934774D01*
X130067205Y-80765256D01*
X130145226Y-80576898D01*
X130185000Y-80376939D01*
X130185000Y-80173061D01*
X130145226Y-79973102D01*
X130067205Y-79784744D01*
X129953937Y-79615226D01*
X129809774Y-79471063D01*
X129640256Y-79357795D01*
X129451898Y-79279774D01*
X129251939Y-79240000D01*
X129048061Y-79240000D01*
X128848102Y-79279774D01*
X128659744Y-79357795D01*
X128490226Y-79471063D01*
X128346063Y-79615226D01*
X128232795Y-79784744D01*
X128154774Y-79973102D01*
X128115000Y-80173061D01*
X112780164Y-80173061D01*
X112770226Y-80123102D01*
X112692205Y-79934744D01*
X112578937Y-79765226D01*
X112434774Y-79621063D01*
X112265256Y-79507795D01*
X112076898Y-79429774D01*
X111876939Y-79390000D01*
X111673061Y-79390000D01*
X111473102Y-79429774D01*
X111284744Y-79507795D01*
X111115226Y-79621063D01*
X110971063Y-79765226D01*
X110857795Y-79934744D01*
X110779774Y-80123102D01*
X110740000Y-80323061D01*
X107160000Y-80323061D01*
X107160000Y-76298061D01*
X114115000Y-76298061D01*
X114115000Y-76501939D01*
X114154774Y-76701898D01*
X114232795Y-76890256D01*
X114346063Y-77059774D01*
X114490226Y-77203937D01*
X114659744Y-77317205D01*
X114848102Y-77395226D01*
X115048061Y-77435000D01*
X115251939Y-77435000D01*
X115438373Y-77397916D01*
X115296063Y-77540226D01*
X115182795Y-77709744D01*
X115104774Y-77898102D01*
X115065000Y-78098061D01*
X115065000Y-78301939D01*
X115104774Y-78501898D01*
X115182795Y-78690256D01*
X115296063Y-78859774D01*
X115440226Y-79003937D01*
X115609744Y-79117205D01*
X115798102Y-79195226D01*
X115998061Y-79235000D01*
X116201939Y-79235000D01*
X116401898Y-79195226D01*
X116590256Y-79117205D01*
X116759774Y-79003937D01*
X116903937Y-78859774D01*
X117017205Y-78690256D01*
X117095226Y-78501898D01*
X117135000Y-78301939D01*
X117135000Y-78098061D01*
X117095226Y-77898102D01*
X117017205Y-77709744D01*
X116903937Y-77540226D01*
X116759774Y-77396063D01*
X116590256Y-77282795D01*
X116401898Y-77204774D01*
X116201939Y-77165000D01*
X115998061Y-77165000D01*
X115811627Y-77202084D01*
X115953937Y-77059774D01*
X116067205Y-76890256D01*
X116145226Y-76701898D01*
X116185000Y-76501939D01*
X116185000Y-76298061D01*
X116155164Y-76148061D01*
X116390000Y-76148061D01*
X116390000Y-76351939D01*
X116429774Y-76551898D01*
X116507795Y-76740256D01*
X116621063Y-76909774D01*
X116765226Y-77053937D01*
X116934744Y-77167205D01*
X117123102Y-77245226D01*
X117323061Y-77285000D01*
X117526939Y-77285000D01*
X117726898Y-77245226D01*
X117915256Y-77167205D01*
X118084774Y-77053937D01*
X118228937Y-76909774D01*
X118342205Y-76740256D01*
X118420226Y-76551898D01*
X118460000Y-76351939D01*
X118460000Y-76148061D01*
X118420226Y-75948102D01*
X118342205Y-75759744D01*
X118228937Y-75590226D01*
X118084774Y-75446063D01*
X117915256Y-75332795D01*
X117726898Y-75254774D01*
X117526939Y-75215000D01*
X117323061Y-75215000D01*
X117123102Y-75254774D01*
X116934744Y-75332795D01*
X116765226Y-75446063D01*
X116621063Y-75590226D01*
X116507795Y-75759744D01*
X116429774Y-75948102D01*
X116390000Y-76148061D01*
X116155164Y-76148061D01*
X116145226Y-76098102D01*
X116067205Y-75909744D01*
X115953937Y-75740226D01*
X115809774Y-75596063D01*
X115640256Y-75482795D01*
X115451898Y-75404774D01*
X115251939Y-75365000D01*
X115048061Y-75365000D01*
X114848102Y-75404774D01*
X114659744Y-75482795D01*
X114490226Y-75596063D01*
X114346063Y-75740226D01*
X114232795Y-75909744D01*
X114154774Y-76098102D01*
X114115000Y-76298061D01*
X107160000Y-76298061D01*
X107160000Y-71643137D01*
X107335000Y-71643137D01*
X107335000Y-71856863D01*
X107376696Y-72066483D01*
X107458485Y-72263940D01*
X107577225Y-72441647D01*
X107728353Y-72592775D01*
X107906060Y-72711515D01*
X108103517Y-72793304D01*
X108313137Y-72835000D01*
X108526863Y-72835000D01*
X108736483Y-72793304D01*
X108933940Y-72711515D01*
X109111647Y-72592775D01*
X109256361Y-72448061D01*
X110340000Y-72448061D01*
X110340000Y-72651939D01*
X110379774Y-72851898D01*
X110457795Y-73040256D01*
X110571063Y-73209774D01*
X110715226Y-73353937D01*
X110884744Y-73467205D01*
X111073102Y-73545226D01*
X111273061Y-73585000D01*
X111476939Y-73585000D01*
X111676898Y-73545226D01*
X111865256Y-73467205D01*
X112034774Y-73353937D01*
X112178937Y-73209774D01*
X112203467Y-73173061D01*
X116490000Y-73173061D01*
X116490000Y-73376939D01*
X116529774Y-73576898D01*
X116607795Y-73765256D01*
X116721063Y-73934774D01*
X116865226Y-74078937D01*
X117034744Y-74192205D01*
X117223102Y-74270226D01*
X117423061Y-74310000D01*
X117626939Y-74310000D01*
X117826898Y-74270226D01*
X118015256Y-74192205D01*
X118184774Y-74078937D01*
X118328937Y-73934774D01*
X118442205Y-73765256D01*
X118520226Y-73576898D01*
X118560000Y-73376939D01*
X118560000Y-73173061D01*
X122665000Y-73173061D01*
X122665000Y-73376939D01*
X122704774Y-73576898D01*
X122782795Y-73765256D01*
X122896063Y-73934774D01*
X123040226Y-74078937D01*
X123209744Y-74192205D01*
X123398102Y-74270226D01*
X123598061Y-74310000D01*
X123801939Y-74310000D01*
X124001898Y-74270226D01*
X124190256Y-74192205D01*
X124359774Y-74078937D01*
X124503937Y-73934774D01*
X124528467Y-73898061D01*
X130715000Y-73898061D01*
X130715000Y-74101939D01*
X130754774Y-74301898D01*
X130832795Y-74490256D01*
X130946063Y-74659774D01*
X131090226Y-74803937D01*
X131259744Y-74917205D01*
X131448102Y-74995226D01*
X131648061Y-75035000D01*
X131851939Y-75035000D01*
X132051898Y-74995226D01*
X132240256Y-74917205D01*
X132268907Y-74898061D01*
X132965000Y-74898061D01*
X132965000Y-75101939D01*
X133004774Y-75301898D01*
X133082795Y-75490256D01*
X133196063Y-75659774D01*
X133340226Y-75803937D01*
X133509744Y-75917205D01*
X133698102Y-75995226D01*
X133898061Y-76035000D01*
X134101939Y-76035000D01*
X134301898Y-75995226D01*
X134490256Y-75917205D01*
X134659774Y-75803937D01*
X134803937Y-75659774D01*
X134917205Y-75490256D01*
X134995226Y-75301898D01*
X135035000Y-75101939D01*
X135035000Y-74898061D01*
X134995226Y-74698102D01*
X134917205Y-74509744D01*
X134803937Y-74340226D01*
X134659774Y-74196063D01*
X134628251Y-74175000D01*
X157109388Y-74175000D01*
X157131785Y-74402400D01*
X157198115Y-74621060D01*
X157305829Y-74822579D01*
X157450788Y-74999212D01*
X157627421Y-75144171D01*
X157828940Y-75251885D01*
X158047600Y-75318215D01*
X158218021Y-75335000D01*
X159181979Y-75335000D01*
X159352400Y-75318215D01*
X159571060Y-75251885D01*
X159772579Y-75144171D01*
X159949212Y-74999212D01*
X160094171Y-74822579D01*
X160201885Y-74621060D01*
X160268215Y-74402400D01*
X160290612Y-74175000D01*
X160268215Y-73947600D01*
X160201885Y-73728940D01*
X160094171Y-73527421D01*
X159949212Y-73350788D01*
X159772579Y-73205829D01*
X159571060Y-73098115D01*
X159352400Y-73031785D01*
X159181979Y-73015000D01*
X158218021Y-73015000D01*
X158047600Y-73031785D01*
X157828940Y-73098115D01*
X157627421Y-73205829D01*
X157450788Y-73350788D01*
X157305829Y-73527421D01*
X157198115Y-73728940D01*
X157131785Y-73947600D01*
X157109388Y-74175000D01*
X134628251Y-74175000D01*
X134490256Y-74082795D01*
X134301898Y-74004774D01*
X134101939Y-73965000D01*
X133898061Y-73965000D01*
X133698102Y-74004774D01*
X133509744Y-74082795D01*
X133340226Y-74196063D01*
X133196063Y-74340226D01*
X133082795Y-74509744D01*
X133004774Y-74698102D01*
X132965000Y-74898061D01*
X132268907Y-74898061D01*
X132409774Y-74803937D01*
X132553937Y-74659774D01*
X132667205Y-74490256D01*
X132745226Y-74301898D01*
X132785000Y-74101939D01*
X132785000Y-73898061D01*
X132745226Y-73698102D01*
X132667205Y-73509744D01*
X132553937Y-73340226D01*
X132409774Y-73196063D01*
X132240256Y-73082795D01*
X132051898Y-73004774D01*
X131851939Y-72965000D01*
X131648061Y-72965000D01*
X131448102Y-73004774D01*
X131259744Y-73082795D01*
X131090226Y-73196063D01*
X130946063Y-73340226D01*
X130832795Y-73509744D01*
X130754774Y-73698102D01*
X130715000Y-73898061D01*
X124528467Y-73898061D01*
X124617205Y-73765256D01*
X124695226Y-73576898D01*
X124735000Y-73376939D01*
X124735000Y-73173061D01*
X124695226Y-72973102D01*
X124617205Y-72784744D01*
X124503937Y-72615226D01*
X124359774Y-72471063D01*
X124190256Y-72357795D01*
X124001898Y-72279774D01*
X123801939Y-72240000D01*
X123598061Y-72240000D01*
X123398102Y-72279774D01*
X123209744Y-72357795D01*
X123040226Y-72471063D01*
X122896063Y-72615226D01*
X122782795Y-72784744D01*
X122704774Y-72973102D01*
X122665000Y-73173061D01*
X118560000Y-73173061D01*
X118520226Y-72973102D01*
X118442205Y-72784744D01*
X118328937Y-72615226D01*
X118184774Y-72471063D01*
X118015256Y-72357795D01*
X117826898Y-72279774D01*
X117626939Y-72240000D01*
X117423061Y-72240000D01*
X117223102Y-72279774D01*
X117034744Y-72357795D01*
X116865226Y-72471063D01*
X116721063Y-72615226D01*
X116607795Y-72784744D01*
X116529774Y-72973102D01*
X116490000Y-73173061D01*
X112203467Y-73173061D01*
X112292205Y-73040256D01*
X112370226Y-72851898D01*
X112410000Y-72651939D01*
X112410000Y-72448061D01*
X112370226Y-72248102D01*
X112292205Y-72059744D01*
X112178937Y-71890226D01*
X112034774Y-71746063D01*
X111865256Y-71632795D01*
X111676898Y-71554774D01*
X111476939Y-71515000D01*
X111273061Y-71515000D01*
X111073102Y-71554774D01*
X110884744Y-71632795D01*
X110715226Y-71746063D01*
X110571063Y-71890226D01*
X110457795Y-72059744D01*
X110379774Y-72248102D01*
X110340000Y-72448061D01*
X109256361Y-72448061D01*
X109262775Y-72441647D01*
X109381515Y-72263940D01*
X109463304Y-72066483D01*
X109505000Y-71856863D01*
X109505000Y-71643137D01*
X109463304Y-71433517D01*
X109381515Y-71236060D01*
X109262775Y-71058353D01*
X109111647Y-70907225D01*
X108933940Y-70788485D01*
X108736483Y-70706696D01*
X108526863Y-70665000D01*
X108313137Y-70665000D01*
X108103517Y-70706696D01*
X107906060Y-70788485D01*
X107728353Y-70907225D01*
X107577225Y-71058353D01*
X107458485Y-71236060D01*
X107376696Y-71433517D01*
X107335000Y-71643137D01*
X107160000Y-71643137D01*
X107160000Y-68643137D01*
X107335000Y-68643137D01*
X107335000Y-68856863D01*
X107376696Y-69066483D01*
X107458485Y-69263940D01*
X107577225Y-69441647D01*
X107728353Y-69592775D01*
X107906060Y-69711515D01*
X108103517Y-69793304D01*
X108313137Y-69835000D01*
X108526863Y-69835000D01*
X108736483Y-69793304D01*
X108933940Y-69711515D01*
X108991490Y-69673061D01*
X128090000Y-69673061D01*
X128090000Y-69876939D01*
X128129774Y-70076898D01*
X128207795Y-70265256D01*
X128321063Y-70434774D01*
X128465226Y-70578937D01*
X128634744Y-70692205D01*
X128823102Y-70770226D01*
X129023061Y-70810000D01*
X129226939Y-70810000D01*
X129426898Y-70770226D01*
X129615256Y-70692205D01*
X129784774Y-70578937D01*
X129928937Y-70434774D01*
X130042205Y-70265256D01*
X130120226Y-70076898D01*
X130160000Y-69876939D01*
X130160000Y-69673061D01*
X130120226Y-69473102D01*
X130042205Y-69284744D01*
X129928937Y-69115226D01*
X129784774Y-68971063D01*
X129615256Y-68857795D01*
X129426898Y-68779774D01*
X129226939Y-68740000D01*
X129023061Y-68740000D01*
X128823102Y-68779774D01*
X128634744Y-68857795D01*
X128465226Y-68971063D01*
X128321063Y-69115226D01*
X128207795Y-69284744D01*
X128129774Y-69473102D01*
X128090000Y-69673061D01*
X108991490Y-69673061D01*
X109111647Y-69592775D01*
X109262775Y-69441647D01*
X109381515Y-69263940D01*
X109463304Y-69066483D01*
X109505000Y-68856863D01*
X109505000Y-68643137D01*
X109501007Y-68623061D01*
X148540000Y-68623061D01*
X148540000Y-68826939D01*
X148579774Y-69026898D01*
X148657795Y-69215256D01*
X148771063Y-69384774D01*
X148915226Y-69528937D01*
X149084744Y-69642205D01*
X149273102Y-69720226D01*
X149473061Y-69760000D01*
X149676939Y-69760000D01*
X149876898Y-69720226D01*
X150065256Y-69642205D01*
X150234774Y-69528937D01*
X150378937Y-69384774D01*
X150492205Y-69215256D01*
X150570226Y-69026898D01*
X150610000Y-68826939D01*
X150610000Y-68623061D01*
X150570226Y-68423102D01*
X150492205Y-68234744D01*
X150378937Y-68065226D01*
X150234774Y-67921063D01*
X150065256Y-67807795D01*
X150041757Y-67798061D01*
X152440000Y-67798061D01*
X152440000Y-68001939D01*
X152479774Y-68201898D01*
X152557795Y-68390256D01*
X152671063Y-68559774D01*
X152711289Y-68600000D01*
X152671063Y-68640226D01*
X152557795Y-68809744D01*
X152479774Y-68998102D01*
X152440000Y-69198061D01*
X152440000Y-69401939D01*
X152479774Y-69601898D01*
X152557795Y-69790256D01*
X152671063Y-69959774D01*
X152815226Y-70103937D01*
X152984744Y-70217205D01*
X153173102Y-70295226D01*
X153373061Y-70335000D01*
X153576939Y-70335000D01*
X153776898Y-70295226D01*
X153965256Y-70217205D01*
X154134774Y-70103937D01*
X154150000Y-70088711D01*
X154165226Y-70103937D01*
X154334744Y-70217205D01*
X154523102Y-70295226D01*
X154723061Y-70335000D01*
X154926939Y-70335000D01*
X155126898Y-70295226D01*
X155315256Y-70217205D01*
X155484774Y-70103937D01*
X155628937Y-69959774D01*
X155742205Y-69790256D01*
X155820226Y-69601898D01*
X155860000Y-69401939D01*
X155860000Y-69198061D01*
X155820226Y-68998102D01*
X155742205Y-68809744D01*
X155628937Y-68640226D01*
X155588711Y-68600000D01*
X155628937Y-68559774D01*
X155742205Y-68390256D01*
X155820226Y-68201898D01*
X155860000Y-68001939D01*
X155860000Y-67798061D01*
X155820226Y-67598102D01*
X155742205Y-67409744D01*
X155628937Y-67240226D01*
X155484774Y-67096063D01*
X155378421Y-67025000D01*
X157109388Y-67025000D01*
X157131785Y-67252400D01*
X157198115Y-67471060D01*
X157305829Y-67672579D01*
X157450788Y-67849212D01*
X157627421Y-67994171D01*
X157828940Y-68101885D01*
X158047600Y-68168215D01*
X158218021Y-68185000D01*
X159181979Y-68185000D01*
X159352400Y-68168215D01*
X159571060Y-68101885D01*
X159772579Y-67994171D01*
X159949212Y-67849212D01*
X160094171Y-67672579D01*
X160201885Y-67471060D01*
X160268215Y-67252400D01*
X160290612Y-67025000D01*
X160268215Y-66797600D01*
X160201885Y-66578940D01*
X160094171Y-66377421D01*
X159949212Y-66200788D01*
X159772579Y-66055829D01*
X159571060Y-65948115D01*
X159352400Y-65881785D01*
X159181979Y-65865000D01*
X158218021Y-65865000D01*
X158047600Y-65881785D01*
X157828940Y-65948115D01*
X157627421Y-66055829D01*
X157450788Y-66200788D01*
X157305829Y-66377421D01*
X157198115Y-66578940D01*
X157131785Y-66797600D01*
X157109388Y-67025000D01*
X155378421Y-67025000D01*
X155315256Y-66982795D01*
X155126898Y-66904774D01*
X154926939Y-66865000D01*
X154723061Y-66865000D01*
X154523102Y-66904774D01*
X154334744Y-66982795D01*
X154165226Y-67096063D01*
X154150000Y-67111289D01*
X154134774Y-67096063D01*
X153965256Y-66982795D01*
X153776898Y-66904774D01*
X153576939Y-66865000D01*
X153373061Y-66865000D01*
X153173102Y-66904774D01*
X152984744Y-66982795D01*
X152815226Y-67096063D01*
X152671063Y-67240226D01*
X152557795Y-67409744D01*
X152479774Y-67598102D01*
X152440000Y-67798061D01*
X150041757Y-67798061D01*
X149876898Y-67729774D01*
X149676939Y-67690000D01*
X149473061Y-67690000D01*
X149273102Y-67729774D01*
X149084744Y-67807795D01*
X148915226Y-67921063D01*
X148771063Y-68065226D01*
X148657795Y-68234744D01*
X148579774Y-68423102D01*
X148540000Y-68623061D01*
X109501007Y-68623061D01*
X109463304Y-68433517D01*
X109381515Y-68236060D01*
X109262775Y-68058353D01*
X109111647Y-67907225D01*
X108933940Y-67788485D01*
X108736483Y-67706696D01*
X108526863Y-67665000D01*
X108313137Y-67665000D01*
X108103517Y-67706696D01*
X107906060Y-67788485D01*
X107728353Y-67907225D01*
X107577225Y-68058353D01*
X107458485Y-68236060D01*
X107376696Y-68433517D01*
X107335000Y-68643137D01*
X107160000Y-68643137D01*
X107160000Y-61511648D01*
X107416735Y-61895879D01*
X108104121Y-62583265D01*
X108912401Y-63123340D01*
X109810514Y-63495350D01*
X110763945Y-63685000D01*
X111736055Y-63685000D01*
X112689486Y-63495350D01*
X113587599Y-63123340D01*
X114395879Y-62583265D01*
X115083265Y-61895879D01*
X115623340Y-61087599D01*
X115995350Y-60189486D01*
X116092881Y-59699162D01*
X122215000Y-59699162D01*
X122215000Y-60300837D01*
X122229976Y-60452894D01*
X122289159Y-60647992D01*
X122385266Y-60827797D01*
X122514604Y-60985396D01*
X122672203Y-61114734D01*
X122852007Y-61210841D01*
X123047105Y-61270024D01*
X123250000Y-61290007D01*
X123452894Y-61270024D01*
X123647992Y-61210841D01*
X123827797Y-61114734D01*
X123875000Y-61075996D01*
X123922203Y-61114734D01*
X124102007Y-61210841D01*
X124297105Y-61270024D01*
X124500000Y-61290007D01*
X124702894Y-61270024D01*
X124897992Y-61210841D01*
X125077797Y-61114734D01*
X125125000Y-61075996D01*
X125172203Y-61114734D01*
X125352007Y-61210841D01*
X125547105Y-61270024D01*
X125750000Y-61290007D01*
X125952894Y-61270024D01*
X126147992Y-61210841D01*
X126229264Y-61167401D01*
X126243658Y-61179298D01*
X126353766Y-61238646D01*
X126473336Y-61275374D01*
X126593250Y-61285000D01*
X126752000Y-61126250D01*
X126752000Y-60512311D01*
X126770024Y-60452895D01*
X126785000Y-60300838D01*
X126785000Y-60248000D01*
X127248000Y-60248000D01*
X127248000Y-61126250D01*
X127406750Y-61285000D01*
X127526664Y-61275374D01*
X127646234Y-61238646D01*
X127756342Y-61179298D01*
X127852756Y-61099608D01*
X127931771Y-61002641D01*
X127990350Y-60892122D01*
X128026242Y-60772298D01*
X128038068Y-60647774D01*
X128035000Y-60406750D01*
X127876250Y-60248000D01*
X127248000Y-60248000D01*
X126785000Y-60248000D01*
X126785000Y-59699163D01*
X126770024Y-59547106D01*
X126752000Y-59487690D01*
X126752000Y-58873750D01*
X127248000Y-58873750D01*
X127248000Y-59752000D01*
X127876250Y-59752000D01*
X128035000Y-59593250D01*
X128038068Y-59352226D01*
X128026242Y-59227702D01*
X127994898Y-59123061D01*
X143265000Y-59123061D01*
X143265000Y-59326939D01*
X143304774Y-59526898D01*
X143382795Y-59715256D01*
X143496063Y-59884774D01*
X143640226Y-60028937D01*
X143809744Y-60142205D01*
X143998102Y-60220226D01*
X144198061Y-60260000D01*
X144401939Y-60260000D01*
X144601898Y-60220226D01*
X144790256Y-60142205D01*
X144959774Y-60028937D01*
X145103937Y-59884774D01*
X145217205Y-59715256D01*
X145295226Y-59526898D01*
X145335000Y-59326939D01*
X145335000Y-59123061D01*
X145295226Y-58923102D01*
X145217205Y-58734744D01*
X145103937Y-58565226D01*
X144959774Y-58421063D01*
X144790256Y-58307795D01*
X144715646Y-58276890D01*
X149350048Y-58276890D01*
X149350048Y-58523110D01*
X149398083Y-58764598D01*
X149492307Y-58992074D01*
X149629099Y-59196798D01*
X149803202Y-59370901D01*
X150007926Y-59507693D01*
X150235402Y-59601917D01*
X150476890Y-59649952D01*
X150723110Y-59649952D01*
X150964598Y-59601917D01*
X151192074Y-59507693D01*
X151396798Y-59370901D01*
X151570901Y-59196798D01*
X151707693Y-58992074D01*
X151801917Y-58764598D01*
X151849952Y-58523110D01*
X151849952Y-58276890D01*
X151801917Y-58035402D01*
X151707693Y-57807926D01*
X151570901Y-57603202D01*
X151396798Y-57429099D01*
X151192074Y-57292307D01*
X150964598Y-57198083D01*
X150723110Y-57150048D01*
X150476890Y-57150048D01*
X150235402Y-57198083D01*
X150007926Y-57292307D01*
X149803202Y-57429099D01*
X149629099Y-57603202D01*
X149492307Y-57807926D01*
X149398083Y-58035402D01*
X149350048Y-58276890D01*
X144715646Y-58276890D01*
X144601898Y-58229774D01*
X144401939Y-58190000D01*
X144198061Y-58190000D01*
X143998102Y-58229774D01*
X143809744Y-58307795D01*
X143640226Y-58421063D01*
X143496063Y-58565226D01*
X143382795Y-58734744D01*
X143304774Y-58923102D01*
X143265000Y-59123061D01*
X127994898Y-59123061D01*
X127990350Y-59107878D01*
X127931771Y-58997359D01*
X127852756Y-58900392D01*
X127756342Y-58820702D01*
X127646234Y-58761354D01*
X127526664Y-58724626D01*
X127406750Y-58715000D01*
X127248000Y-58873750D01*
X126752000Y-58873750D01*
X126593250Y-58715000D01*
X126473336Y-58724626D01*
X126353766Y-58761354D01*
X126243658Y-58820702D01*
X126229264Y-58832599D01*
X126147993Y-58789159D01*
X125952895Y-58729976D01*
X125750000Y-58709993D01*
X125547106Y-58729976D01*
X125352008Y-58789159D01*
X125172204Y-58885266D01*
X125125001Y-58924005D01*
X125077797Y-58885266D01*
X124897993Y-58789159D01*
X124702895Y-58729976D01*
X124500000Y-58709993D01*
X124297106Y-58729976D01*
X124102008Y-58789159D01*
X123922204Y-58885266D01*
X123875001Y-58924005D01*
X123827797Y-58885266D01*
X123647993Y-58789159D01*
X123452895Y-58729976D01*
X123250000Y-58709993D01*
X123047106Y-58729976D01*
X122852008Y-58789159D01*
X122672204Y-58885266D01*
X122514605Y-59014604D01*
X122385267Y-59172203D01*
X122289159Y-59352007D01*
X122229976Y-59547105D01*
X122215000Y-59699162D01*
X116092881Y-59699162D01*
X116185000Y-59236055D01*
X116185000Y-58276890D01*
X116750048Y-58276890D01*
X116750048Y-58523110D01*
X116798083Y-58764598D01*
X116892307Y-58992074D01*
X117029099Y-59196798D01*
X117203202Y-59370901D01*
X117407926Y-59507693D01*
X117635402Y-59601917D01*
X117876890Y-59649952D01*
X118123110Y-59649952D01*
X118364598Y-59601917D01*
X118592074Y-59507693D01*
X118796798Y-59370901D01*
X118970901Y-59196798D01*
X119107693Y-58992074D01*
X119201917Y-58764598D01*
X119249952Y-58523110D01*
X119249952Y-58276890D01*
X119201917Y-58035402D01*
X119107693Y-57807926D01*
X118970901Y-57603202D01*
X118796798Y-57429099D01*
X118592074Y-57292307D01*
X118364598Y-57198083D01*
X118123110Y-57150048D01*
X117876890Y-57150048D01*
X117635402Y-57198083D01*
X117407926Y-57292307D01*
X117203202Y-57429099D01*
X117029099Y-57603202D01*
X116892307Y-57807926D01*
X116798083Y-58035402D01*
X116750048Y-58276890D01*
X116185000Y-58276890D01*
X116185000Y-58263945D01*
X115995350Y-57310514D01*
X115623340Y-56412401D01*
X115083265Y-55604121D01*
X114395879Y-54916735D01*
X114011648Y-54660000D01*
X134525131Y-54660000D01*
X134409744Y-54707795D01*
M02*
