G04 #@! TF.GenerationSoftware,KiCad,Pcbnew,(5.1.6)-1*
G04 #@! TF.CreationDate,2023-08-05T22:02:58+03:00*
G04 #@! TF.ProjectId,STM32F4_REV2,53544d33-3246-4345-9f52-4556322e6b69,rev?*
G04 #@! TF.SameCoordinates,Original*
G04 #@! TF.FileFunction,Paste,Top*
G04 #@! TF.FilePolarity,Positive*
%FSLAX46Y46*%
G04 Gerber Fmt 4.6, Leading zero omitted, Abs format (unit mm)*
G04 Created by KiCad (PCBNEW (5.1.6)-1) date 2023-08-05 22:02:58*
%MOMM*%
%LPD*%
G01*
G04 APERTURE LIST*
%ADD10R,0.740000X2.400000*%
%ADD11R,1.450000X1.150000*%
%ADD12R,1.900000X1.750000*%
%ADD13R,1.400000X0.400000*%
%ADD14R,1.200000X1.400000*%
%ADD15R,1.060000X0.650000*%
%ADD16R,0.650000X1.060000*%
%ADD17R,0.800000X1.000000*%
%ADD18R,1.500000X0.700000*%
%ADD19R,0.800000X0.900000*%
%ADD20R,2.500000X1.900000*%
%ADD21R,0.900000X1.200000*%
G04 APERTURE END LIST*
D10*
X134885000Y-61225000D03*
X134885000Y-57325000D03*
X136155000Y-61225000D03*
X136155000Y-57325000D03*
X137425000Y-61225000D03*
X137425000Y-57325000D03*
X138695000Y-61225000D03*
X138695000Y-57325000D03*
X139965000Y-61225000D03*
X139965000Y-57325000D03*
D11*
X156470000Y-72920000D03*
X156470000Y-68280000D03*
D12*
X158700000Y-71725000D03*
D13*
X156050000Y-70600000D03*
X156050000Y-69950000D03*
X156050000Y-69300000D03*
X156050000Y-71900000D03*
X156050000Y-71250000D03*
D12*
X158700000Y-69475000D03*
D14*
X114775000Y-78175000D03*
X114775000Y-80375000D03*
X113075000Y-80375000D03*
X113075000Y-78175000D03*
D15*
X148500000Y-71100000D03*
X148500000Y-72050000D03*
X148500000Y-70150000D03*
X150700000Y-70150000D03*
X150700000Y-71100000D03*
X150700000Y-72050000D03*
G36*
G01*
X121850000Y-76025000D02*
X121850000Y-74625000D01*
G75*
G02*
X121925000Y-74550000I75000J0D01*
G01*
X122075000Y-74550000D01*
G75*
G02*
X122150000Y-74625000I0J-75000D01*
G01*
X122150000Y-76025000D01*
G75*
G02*
X122075000Y-76100000I-75000J0D01*
G01*
X121925000Y-76100000D01*
G75*
G02*
X121850000Y-76025000I0J75000D01*
G01*
G37*
G36*
G01*
X122350000Y-76025000D02*
X122350000Y-74625000D01*
G75*
G02*
X122425000Y-74550000I75000J0D01*
G01*
X122575000Y-74550000D01*
G75*
G02*
X122650000Y-74625000I0J-75000D01*
G01*
X122650000Y-76025000D01*
G75*
G02*
X122575000Y-76100000I-75000J0D01*
G01*
X122425000Y-76100000D01*
G75*
G02*
X122350000Y-76025000I0J75000D01*
G01*
G37*
G36*
G01*
X122850000Y-76025000D02*
X122850000Y-74625000D01*
G75*
G02*
X122925000Y-74550000I75000J0D01*
G01*
X123075000Y-74550000D01*
G75*
G02*
X123150000Y-74625000I0J-75000D01*
G01*
X123150000Y-76025000D01*
G75*
G02*
X123075000Y-76100000I-75000J0D01*
G01*
X122925000Y-76100000D01*
G75*
G02*
X122850000Y-76025000I0J75000D01*
G01*
G37*
G36*
G01*
X123350000Y-76025000D02*
X123350000Y-74625000D01*
G75*
G02*
X123425000Y-74550000I75000J0D01*
G01*
X123575000Y-74550000D01*
G75*
G02*
X123650000Y-74625000I0J-75000D01*
G01*
X123650000Y-76025000D01*
G75*
G02*
X123575000Y-76100000I-75000J0D01*
G01*
X123425000Y-76100000D01*
G75*
G02*
X123350000Y-76025000I0J75000D01*
G01*
G37*
G36*
G01*
X123850000Y-76025000D02*
X123850000Y-74625000D01*
G75*
G02*
X123925000Y-74550000I75000J0D01*
G01*
X124075000Y-74550000D01*
G75*
G02*
X124150000Y-74625000I0J-75000D01*
G01*
X124150000Y-76025000D01*
G75*
G02*
X124075000Y-76100000I-75000J0D01*
G01*
X123925000Y-76100000D01*
G75*
G02*
X123850000Y-76025000I0J75000D01*
G01*
G37*
G36*
G01*
X124350000Y-76025000D02*
X124350000Y-74625000D01*
G75*
G02*
X124425000Y-74550000I75000J0D01*
G01*
X124575000Y-74550000D01*
G75*
G02*
X124650000Y-74625000I0J-75000D01*
G01*
X124650000Y-76025000D01*
G75*
G02*
X124575000Y-76100000I-75000J0D01*
G01*
X124425000Y-76100000D01*
G75*
G02*
X124350000Y-76025000I0J75000D01*
G01*
G37*
G36*
G01*
X124850000Y-76025000D02*
X124850000Y-74625000D01*
G75*
G02*
X124925000Y-74550000I75000J0D01*
G01*
X125075000Y-74550000D01*
G75*
G02*
X125150000Y-74625000I0J-75000D01*
G01*
X125150000Y-76025000D01*
G75*
G02*
X125075000Y-76100000I-75000J0D01*
G01*
X124925000Y-76100000D01*
G75*
G02*
X124850000Y-76025000I0J75000D01*
G01*
G37*
G36*
G01*
X125350000Y-76025000D02*
X125350000Y-74625000D01*
G75*
G02*
X125425000Y-74550000I75000J0D01*
G01*
X125575000Y-74550000D01*
G75*
G02*
X125650000Y-74625000I0J-75000D01*
G01*
X125650000Y-76025000D01*
G75*
G02*
X125575000Y-76100000I-75000J0D01*
G01*
X125425000Y-76100000D01*
G75*
G02*
X125350000Y-76025000I0J75000D01*
G01*
G37*
G36*
G01*
X125850000Y-76025000D02*
X125850000Y-74625000D01*
G75*
G02*
X125925000Y-74550000I75000J0D01*
G01*
X126075000Y-74550000D01*
G75*
G02*
X126150000Y-74625000I0J-75000D01*
G01*
X126150000Y-76025000D01*
G75*
G02*
X126075000Y-76100000I-75000J0D01*
G01*
X125925000Y-76100000D01*
G75*
G02*
X125850000Y-76025000I0J75000D01*
G01*
G37*
G36*
G01*
X126350000Y-76025000D02*
X126350000Y-74625000D01*
G75*
G02*
X126425000Y-74550000I75000J0D01*
G01*
X126575000Y-74550000D01*
G75*
G02*
X126650000Y-74625000I0J-75000D01*
G01*
X126650000Y-76025000D01*
G75*
G02*
X126575000Y-76100000I-75000J0D01*
G01*
X126425000Y-76100000D01*
G75*
G02*
X126350000Y-76025000I0J75000D01*
G01*
G37*
G36*
G01*
X126850000Y-76025000D02*
X126850000Y-74625000D01*
G75*
G02*
X126925000Y-74550000I75000J0D01*
G01*
X127075000Y-74550000D01*
G75*
G02*
X127150000Y-74625000I0J-75000D01*
G01*
X127150000Y-76025000D01*
G75*
G02*
X127075000Y-76100000I-75000J0D01*
G01*
X126925000Y-76100000D01*
G75*
G02*
X126850000Y-76025000I0J75000D01*
G01*
G37*
G36*
G01*
X127350000Y-76025000D02*
X127350000Y-74625000D01*
G75*
G02*
X127425000Y-74550000I75000J0D01*
G01*
X127575000Y-74550000D01*
G75*
G02*
X127650000Y-74625000I0J-75000D01*
G01*
X127650000Y-76025000D01*
G75*
G02*
X127575000Y-76100000I-75000J0D01*
G01*
X127425000Y-76100000D01*
G75*
G02*
X127350000Y-76025000I0J75000D01*
G01*
G37*
G36*
G01*
X127850000Y-76025000D02*
X127850000Y-74625000D01*
G75*
G02*
X127925000Y-74550000I75000J0D01*
G01*
X128075000Y-74550000D01*
G75*
G02*
X128150000Y-74625000I0J-75000D01*
G01*
X128150000Y-76025000D01*
G75*
G02*
X128075000Y-76100000I-75000J0D01*
G01*
X127925000Y-76100000D01*
G75*
G02*
X127850000Y-76025000I0J75000D01*
G01*
G37*
G36*
G01*
X128350000Y-76025000D02*
X128350000Y-74625000D01*
G75*
G02*
X128425000Y-74550000I75000J0D01*
G01*
X128575000Y-74550000D01*
G75*
G02*
X128650000Y-74625000I0J-75000D01*
G01*
X128650000Y-76025000D01*
G75*
G02*
X128575000Y-76100000I-75000J0D01*
G01*
X128425000Y-76100000D01*
G75*
G02*
X128350000Y-76025000I0J75000D01*
G01*
G37*
G36*
G01*
X128850000Y-76025000D02*
X128850000Y-74625000D01*
G75*
G02*
X128925000Y-74550000I75000J0D01*
G01*
X129075000Y-74550000D01*
G75*
G02*
X129150000Y-74625000I0J-75000D01*
G01*
X129150000Y-76025000D01*
G75*
G02*
X129075000Y-76100000I-75000J0D01*
G01*
X128925000Y-76100000D01*
G75*
G02*
X128850000Y-76025000I0J75000D01*
G01*
G37*
G36*
G01*
X129350000Y-76025000D02*
X129350000Y-74625000D01*
G75*
G02*
X129425000Y-74550000I75000J0D01*
G01*
X129575000Y-74550000D01*
G75*
G02*
X129650000Y-74625000I0J-75000D01*
G01*
X129650000Y-76025000D01*
G75*
G02*
X129575000Y-76100000I-75000J0D01*
G01*
X129425000Y-76100000D01*
G75*
G02*
X129350000Y-76025000I0J75000D01*
G01*
G37*
G36*
G01*
X130650000Y-77325000D02*
X130650000Y-77175000D01*
G75*
G02*
X130725000Y-77100000I75000J0D01*
G01*
X132125000Y-77100000D01*
G75*
G02*
X132200000Y-77175000I0J-75000D01*
G01*
X132200000Y-77325000D01*
G75*
G02*
X132125000Y-77400000I-75000J0D01*
G01*
X130725000Y-77400000D01*
G75*
G02*
X130650000Y-77325000I0J75000D01*
G01*
G37*
G36*
G01*
X130650000Y-77825000D02*
X130650000Y-77675000D01*
G75*
G02*
X130725000Y-77600000I75000J0D01*
G01*
X132125000Y-77600000D01*
G75*
G02*
X132200000Y-77675000I0J-75000D01*
G01*
X132200000Y-77825000D01*
G75*
G02*
X132125000Y-77900000I-75000J0D01*
G01*
X130725000Y-77900000D01*
G75*
G02*
X130650000Y-77825000I0J75000D01*
G01*
G37*
G36*
G01*
X130650000Y-78325000D02*
X130650000Y-78175000D01*
G75*
G02*
X130725000Y-78100000I75000J0D01*
G01*
X132125000Y-78100000D01*
G75*
G02*
X132200000Y-78175000I0J-75000D01*
G01*
X132200000Y-78325000D01*
G75*
G02*
X132125000Y-78400000I-75000J0D01*
G01*
X130725000Y-78400000D01*
G75*
G02*
X130650000Y-78325000I0J75000D01*
G01*
G37*
G36*
G01*
X130650000Y-78825000D02*
X130650000Y-78675000D01*
G75*
G02*
X130725000Y-78600000I75000J0D01*
G01*
X132125000Y-78600000D01*
G75*
G02*
X132200000Y-78675000I0J-75000D01*
G01*
X132200000Y-78825000D01*
G75*
G02*
X132125000Y-78900000I-75000J0D01*
G01*
X130725000Y-78900000D01*
G75*
G02*
X130650000Y-78825000I0J75000D01*
G01*
G37*
G36*
G01*
X130650000Y-79325000D02*
X130650000Y-79175000D01*
G75*
G02*
X130725000Y-79100000I75000J0D01*
G01*
X132125000Y-79100000D01*
G75*
G02*
X132200000Y-79175000I0J-75000D01*
G01*
X132200000Y-79325000D01*
G75*
G02*
X132125000Y-79400000I-75000J0D01*
G01*
X130725000Y-79400000D01*
G75*
G02*
X130650000Y-79325000I0J75000D01*
G01*
G37*
G36*
G01*
X130650000Y-79825000D02*
X130650000Y-79675000D01*
G75*
G02*
X130725000Y-79600000I75000J0D01*
G01*
X132125000Y-79600000D01*
G75*
G02*
X132200000Y-79675000I0J-75000D01*
G01*
X132200000Y-79825000D01*
G75*
G02*
X132125000Y-79900000I-75000J0D01*
G01*
X130725000Y-79900000D01*
G75*
G02*
X130650000Y-79825000I0J75000D01*
G01*
G37*
G36*
G01*
X130650000Y-80325000D02*
X130650000Y-80175000D01*
G75*
G02*
X130725000Y-80100000I75000J0D01*
G01*
X132125000Y-80100000D01*
G75*
G02*
X132200000Y-80175000I0J-75000D01*
G01*
X132200000Y-80325000D01*
G75*
G02*
X132125000Y-80400000I-75000J0D01*
G01*
X130725000Y-80400000D01*
G75*
G02*
X130650000Y-80325000I0J75000D01*
G01*
G37*
G36*
G01*
X130650000Y-80825000D02*
X130650000Y-80675000D01*
G75*
G02*
X130725000Y-80600000I75000J0D01*
G01*
X132125000Y-80600000D01*
G75*
G02*
X132200000Y-80675000I0J-75000D01*
G01*
X132200000Y-80825000D01*
G75*
G02*
X132125000Y-80900000I-75000J0D01*
G01*
X130725000Y-80900000D01*
G75*
G02*
X130650000Y-80825000I0J75000D01*
G01*
G37*
G36*
G01*
X130650000Y-81325000D02*
X130650000Y-81175000D01*
G75*
G02*
X130725000Y-81100000I75000J0D01*
G01*
X132125000Y-81100000D01*
G75*
G02*
X132200000Y-81175000I0J-75000D01*
G01*
X132200000Y-81325000D01*
G75*
G02*
X132125000Y-81400000I-75000J0D01*
G01*
X130725000Y-81400000D01*
G75*
G02*
X130650000Y-81325000I0J75000D01*
G01*
G37*
G36*
G01*
X130650000Y-81825000D02*
X130650000Y-81675000D01*
G75*
G02*
X130725000Y-81600000I75000J0D01*
G01*
X132125000Y-81600000D01*
G75*
G02*
X132200000Y-81675000I0J-75000D01*
G01*
X132200000Y-81825000D01*
G75*
G02*
X132125000Y-81900000I-75000J0D01*
G01*
X130725000Y-81900000D01*
G75*
G02*
X130650000Y-81825000I0J75000D01*
G01*
G37*
G36*
G01*
X130650000Y-82325000D02*
X130650000Y-82175000D01*
G75*
G02*
X130725000Y-82100000I75000J0D01*
G01*
X132125000Y-82100000D01*
G75*
G02*
X132200000Y-82175000I0J-75000D01*
G01*
X132200000Y-82325000D01*
G75*
G02*
X132125000Y-82400000I-75000J0D01*
G01*
X130725000Y-82400000D01*
G75*
G02*
X130650000Y-82325000I0J75000D01*
G01*
G37*
G36*
G01*
X130650000Y-82825000D02*
X130650000Y-82675000D01*
G75*
G02*
X130725000Y-82600000I75000J0D01*
G01*
X132125000Y-82600000D01*
G75*
G02*
X132200000Y-82675000I0J-75000D01*
G01*
X132200000Y-82825000D01*
G75*
G02*
X132125000Y-82900000I-75000J0D01*
G01*
X130725000Y-82900000D01*
G75*
G02*
X130650000Y-82825000I0J75000D01*
G01*
G37*
G36*
G01*
X130650000Y-83325000D02*
X130650000Y-83175000D01*
G75*
G02*
X130725000Y-83100000I75000J0D01*
G01*
X132125000Y-83100000D01*
G75*
G02*
X132200000Y-83175000I0J-75000D01*
G01*
X132200000Y-83325000D01*
G75*
G02*
X132125000Y-83400000I-75000J0D01*
G01*
X130725000Y-83400000D01*
G75*
G02*
X130650000Y-83325000I0J75000D01*
G01*
G37*
G36*
G01*
X130650000Y-83825000D02*
X130650000Y-83675000D01*
G75*
G02*
X130725000Y-83600000I75000J0D01*
G01*
X132125000Y-83600000D01*
G75*
G02*
X132200000Y-83675000I0J-75000D01*
G01*
X132200000Y-83825000D01*
G75*
G02*
X132125000Y-83900000I-75000J0D01*
G01*
X130725000Y-83900000D01*
G75*
G02*
X130650000Y-83825000I0J75000D01*
G01*
G37*
G36*
G01*
X130650000Y-84325000D02*
X130650000Y-84175000D01*
G75*
G02*
X130725000Y-84100000I75000J0D01*
G01*
X132125000Y-84100000D01*
G75*
G02*
X132200000Y-84175000I0J-75000D01*
G01*
X132200000Y-84325000D01*
G75*
G02*
X132125000Y-84400000I-75000J0D01*
G01*
X130725000Y-84400000D01*
G75*
G02*
X130650000Y-84325000I0J75000D01*
G01*
G37*
G36*
G01*
X130650000Y-84825000D02*
X130650000Y-84675000D01*
G75*
G02*
X130725000Y-84600000I75000J0D01*
G01*
X132125000Y-84600000D01*
G75*
G02*
X132200000Y-84675000I0J-75000D01*
G01*
X132200000Y-84825000D01*
G75*
G02*
X132125000Y-84900000I-75000J0D01*
G01*
X130725000Y-84900000D01*
G75*
G02*
X130650000Y-84825000I0J75000D01*
G01*
G37*
G36*
G01*
X129350000Y-87375000D02*
X129350000Y-85975000D01*
G75*
G02*
X129425000Y-85900000I75000J0D01*
G01*
X129575000Y-85900000D01*
G75*
G02*
X129650000Y-85975000I0J-75000D01*
G01*
X129650000Y-87375000D01*
G75*
G02*
X129575000Y-87450000I-75000J0D01*
G01*
X129425000Y-87450000D01*
G75*
G02*
X129350000Y-87375000I0J75000D01*
G01*
G37*
G36*
G01*
X128850000Y-87375000D02*
X128850000Y-85975000D01*
G75*
G02*
X128925000Y-85900000I75000J0D01*
G01*
X129075000Y-85900000D01*
G75*
G02*
X129150000Y-85975000I0J-75000D01*
G01*
X129150000Y-87375000D01*
G75*
G02*
X129075000Y-87450000I-75000J0D01*
G01*
X128925000Y-87450000D01*
G75*
G02*
X128850000Y-87375000I0J75000D01*
G01*
G37*
G36*
G01*
X128350000Y-87375000D02*
X128350000Y-85975000D01*
G75*
G02*
X128425000Y-85900000I75000J0D01*
G01*
X128575000Y-85900000D01*
G75*
G02*
X128650000Y-85975000I0J-75000D01*
G01*
X128650000Y-87375000D01*
G75*
G02*
X128575000Y-87450000I-75000J0D01*
G01*
X128425000Y-87450000D01*
G75*
G02*
X128350000Y-87375000I0J75000D01*
G01*
G37*
G36*
G01*
X127850000Y-87375000D02*
X127850000Y-85975000D01*
G75*
G02*
X127925000Y-85900000I75000J0D01*
G01*
X128075000Y-85900000D01*
G75*
G02*
X128150000Y-85975000I0J-75000D01*
G01*
X128150000Y-87375000D01*
G75*
G02*
X128075000Y-87450000I-75000J0D01*
G01*
X127925000Y-87450000D01*
G75*
G02*
X127850000Y-87375000I0J75000D01*
G01*
G37*
G36*
G01*
X127350000Y-87375000D02*
X127350000Y-85975000D01*
G75*
G02*
X127425000Y-85900000I75000J0D01*
G01*
X127575000Y-85900000D01*
G75*
G02*
X127650000Y-85975000I0J-75000D01*
G01*
X127650000Y-87375000D01*
G75*
G02*
X127575000Y-87450000I-75000J0D01*
G01*
X127425000Y-87450000D01*
G75*
G02*
X127350000Y-87375000I0J75000D01*
G01*
G37*
G36*
G01*
X126850000Y-87375000D02*
X126850000Y-85975000D01*
G75*
G02*
X126925000Y-85900000I75000J0D01*
G01*
X127075000Y-85900000D01*
G75*
G02*
X127150000Y-85975000I0J-75000D01*
G01*
X127150000Y-87375000D01*
G75*
G02*
X127075000Y-87450000I-75000J0D01*
G01*
X126925000Y-87450000D01*
G75*
G02*
X126850000Y-87375000I0J75000D01*
G01*
G37*
G36*
G01*
X126350000Y-87375000D02*
X126350000Y-85975000D01*
G75*
G02*
X126425000Y-85900000I75000J0D01*
G01*
X126575000Y-85900000D01*
G75*
G02*
X126650000Y-85975000I0J-75000D01*
G01*
X126650000Y-87375000D01*
G75*
G02*
X126575000Y-87450000I-75000J0D01*
G01*
X126425000Y-87450000D01*
G75*
G02*
X126350000Y-87375000I0J75000D01*
G01*
G37*
G36*
G01*
X125850000Y-87375000D02*
X125850000Y-85975000D01*
G75*
G02*
X125925000Y-85900000I75000J0D01*
G01*
X126075000Y-85900000D01*
G75*
G02*
X126150000Y-85975000I0J-75000D01*
G01*
X126150000Y-87375000D01*
G75*
G02*
X126075000Y-87450000I-75000J0D01*
G01*
X125925000Y-87450000D01*
G75*
G02*
X125850000Y-87375000I0J75000D01*
G01*
G37*
G36*
G01*
X125350000Y-87375000D02*
X125350000Y-85975000D01*
G75*
G02*
X125425000Y-85900000I75000J0D01*
G01*
X125575000Y-85900000D01*
G75*
G02*
X125650000Y-85975000I0J-75000D01*
G01*
X125650000Y-87375000D01*
G75*
G02*
X125575000Y-87450000I-75000J0D01*
G01*
X125425000Y-87450000D01*
G75*
G02*
X125350000Y-87375000I0J75000D01*
G01*
G37*
G36*
G01*
X124850000Y-87375000D02*
X124850000Y-85975000D01*
G75*
G02*
X124925000Y-85900000I75000J0D01*
G01*
X125075000Y-85900000D01*
G75*
G02*
X125150000Y-85975000I0J-75000D01*
G01*
X125150000Y-87375000D01*
G75*
G02*
X125075000Y-87450000I-75000J0D01*
G01*
X124925000Y-87450000D01*
G75*
G02*
X124850000Y-87375000I0J75000D01*
G01*
G37*
G36*
G01*
X124350000Y-87375000D02*
X124350000Y-85975000D01*
G75*
G02*
X124425000Y-85900000I75000J0D01*
G01*
X124575000Y-85900000D01*
G75*
G02*
X124650000Y-85975000I0J-75000D01*
G01*
X124650000Y-87375000D01*
G75*
G02*
X124575000Y-87450000I-75000J0D01*
G01*
X124425000Y-87450000D01*
G75*
G02*
X124350000Y-87375000I0J75000D01*
G01*
G37*
G36*
G01*
X123850000Y-87375000D02*
X123850000Y-85975000D01*
G75*
G02*
X123925000Y-85900000I75000J0D01*
G01*
X124075000Y-85900000D01*
G75*
G02*
X124150000Y-85975000I0J-75000D01*
G01*
X124150000Y-87375000D01*
G75*
G02*
X124075000Y-87450000I-75000J0D01*
G01*
X123925000Y-87450000D01*
G75*
G02*
X123850000Y-87375000I0J75000D01*
G01*
G37*
G36*
G01*
X123350000Y-87375000D02*
X123350000Y-85975000D01*
G75*
G02*
X123425000Y-85900000I75000J0D01*
G01*
X123575000Y-85900000D01*
G75*
G02*
X123650000Y-85975000I0J-75000D01*
G01*
X123650000Y-87375000D01*
G75*
G02*
X123575000Y-87450000I-75000J0D01*
G01*
X123425000Y-87450000D01*
G75*
G02*
X123350000Y-87375000I0J75000D01*
G01*
G37*
G36*
G01*
X122850000Y-87375000D02*
X122850000Y-85975000D01*
G75*
G02*
X122925000Y-85900000I75000J0D01*
G01*
X123075000Y-85900000D01*
G75*
G02*
X123150000Y-85975000I0J-75000D01*
G01*
X123150000Y-87375000D01*
G75*
G02*
X123075000Y-87450000I-75000J0D01*
G01*
X122925000Y-87450000D01*
G75*
G02*
X122850000Y-87375000I0J75000D01*
G01*
G37*
G36*
G01*
X122350000Y-87375000D02*
X122350000Y-85975000D01*
G75*
G02*
X122425000Y-85900000I75000J0D01*
G01*
X122575000Y-85900000D01*
G75*
G02*
X122650000Y-85975000I0J-75000D01*
G01*
X122650000Y-87375000D01*
G75*
G02*
X122575000Y-87450000I-75000J0D01*
G01*
X122425000Y-87450000D01*
G75*
G02*
X122350000Y-87375000I0J75000D01*
G01*
G37*
G36*
G01*
X121850000Y-87375000D02*
X121850000Y-85975000D01*
G75*
G02*
X121925000Y-85900000I75000J0D01*
G01*
X122075000Y-85900000D01*
G75*
G02*
X122150000Y-85975000I0J-75000D01*
G01*
X122150000Y-87375000D01*
G75*
G02*
X122075000Y-87450000I-75000J0D01*
G01*
X121925000Y-87450000D01*
G75*
G02*
X121850000Y-87375000I0J75000D01*
G01*
G37*
G36*
G01*
X119300000Y-84825000D02*
X119300000Y-84675000D01*
G75*
G02*
X119375000Y-84600000I75000J0D01*
G01*
X120775000Y-84600000D01*
G75*
G02*
X120850000Y-84675000I0J-75000D01*
G01*
X120850000Y-84825000D01*
G75*
G02*
X120775000Y-84900000I-75000J0D01*
G01*
X119375000Y-84900000D01*
G75*
G02*
X119300000Y-84825000I0J75000D01*
G01*
G37*
G36*
G01*
X119300000Y-84325000D02*
X119300000Y-84175000D01*
G75*
G02*
X119375000Y-84100000I75000J0D01*
G01*
X120775000Y-84100000D01*
G75*
G02*
X120850000Y-84175000I0J-75000D01*
G01*
X120850000Y-84325000D01*
G75*
G02*
X120775000Y-84400000I-75000J0D01*
G01*
X119375000Y-84400000D01*
G75*
G02*
X119300000Y-84325000I0J75000D01*
G01*
G37*
G36*
G01*
X119300000Y-83825000D02*
X119300000Y-83675000D01*
G75*
G02*
X119375000Y-83600000I75000J0D01*
G01*
X120775000Y-83600000D01*
G75*
G02*
X120850000Y-83675000I0J-75000D01*
G01*
X120850000Y-83825000D01*
G75*
G02*
X120775000Y-83900000I-75000J0D01*
G01*
X119375000Y-83900000D01*
G75*
G02*
X119300000Y-83825000I0J75000D01*
G01*
G37*
G36*
G01*
X119300000Y-83325000D02*
X119300000Y-83175000D01*
G75*
G02*
X119375000Y-83100000I75000J0D01*
G01*
X120775000Y-83100000D01*
G75*
G02*
X120850000Y-83175000I0J-75000D01*
G01*
X120850000Y-83325000D01*
G75*
G02*
X120775000Y-83400000I-75000J0D01*
G01*
X119375000Y-83400000D01*
G75*
G02*
X119300000Y-83325000I0J75000D01*
G01*
G37*
G36*
G01*
X119300000Y-82825000D02*
X119300000Y-82675000D01*
G75*
G02*
X119375000Y-82600000I75000J0D01*
G01*
X120775000Y-82600000D01*
G75*
G02*
X120850000Y-82675000I0J-75000D01*
G01*
X120850000Y-82825000D01*
G75*
G02*
X120775000Y-82900000I-75000J0D01*
G01*
X119375000Y-82900000D01*
G75*
G02*
X119300000Y-82825000I0J75000D01*
G01*
G37*
G36*
G01*
X119300000Y-82325000D02*
X119300000Y-82175000D01*
G75*
G02*
X119375000Y-82100000I75000J0D01*
G01*
X120775000Y-82100000D01*
G75*
G02*
X120850000Y-82175000I0J-75000D01*
G01*
X120850000Y-82325000D01*
G75*
G02*
X120775000Y-82400000I-75000J0D01*
G01*
X119375000Y-82400000D01*
G75*
G02*
X119300000Y-82325000I0J75000D01*
G01*
G37*
G36*
G01*
X119300000Y-81825000D02*
X119300000Y-81675000D01*
G75*
G02*
X119375000Y-81600000I75000J0D01*
G01*
X120775000Y-81600000D01*
G75*
G02*
X120850000Y-81675000I0J-75000D01*
G01*
X120850000Y-81825000D01*
G75*
G02*
X120775000Y-81900000I-75000J0D01*
G01*
X119375000Y-81900000D01*
G75*
G02*
X119300000Y-81825000I0J75000D01*
G01*
G37*
G36*
G01*
X119300000Y-81325000D02*
X119300000Y-81175000D01*
G75*
G02*
X119375000Y-81100000I75000J0D01*
G01*
X120775000Y-81100000D01*
G75*
G02*
X120850000Y-81175000I0J-75000D01*
G01*
X120850000Y-81325000D01*
G75*
G02*
X120775000Y-81400000I-75000J0D01*
G01*
X119375000Y-81400000D01*
G75*
G02*
X119300000Y-81325000I0J75000D01*
G01*
G37*
G36*
G01*
X119300000Y-80825000D02*
X119300000Y-80675000D01*
G75*
G02*
X119375000Y-80600000I75000J0D01*
G01*
X120775000Y-80600000D01*
G75*
G02*
X120850000Y-80675000I0J-75000D01*
G01*
X120850000Y-80825000D01*
G75*
G02*
X120775000Y-80900000I-75000J0D01*
G01*
X119375000Y-80900000D01*
G75*
G02*
X119300000Y-80825000I0J75000D01*
G01*
G37*
G36*
G01*
X119300000Y-80325000D02*
X119300000Y-80175000D01*
G75*
G02*
X119375000Y-80100000I75000J0D01*
G01*
X120775000Y-80100000D01*
G75*
G02*
X120850000Y-80175000I0J-75000D01*
G01*
X120850000Y-80325000D01*
G75*
G02*
X120775000Y-80400000I-75000J0D01*
G01*
X119375000Y-80400000D01*
G75*
G02*
X119300000Y-80325000I0J75000D01*
G01*
G37*
G36*
G01*
X119300000Y-79825000D02*
X119300000Y-79675000D01*
G75*
G02*
X119375000Y-79600000I75000J0D01*
G01*
X120775000Y-79600000D01*
G75*
G02*
X120850000Y-79675000I0J-75000D01*
G01*
X120850000Y-79825000D01*
G75*
G02*
X120775000Y-79900000I-75000J0D01*
G01*
X119375000Y-79900000D01*
G75*
G02*
X119300000Y-79825000I0J75000D01*
G01*
G37*
G36*
G01*
X119300000Y-79325000D02*
X119300000Y-79175000D01*
G75*
G02*
X119375000Y-79100000I75000J0D01*
G01*
X120775000Y-79100000D01*
G75*
G02*
X120850000Y-79175000I0J-75000D01*
G01*
X120850000Y-79325000D01*
G75*
G02*
X120775000Y-79400000I-75000J0D01*
G01*
X119375000Y-79400000D01*
G75*
G02*
X119300000Y-79325000I0J75000D01*
G01*
G37*
G36*
G01*
X119300000Y-78825000D02*
X119300000Y-78675000D01*
G75*
G02*
X119375000Y-78600000I75000J0D01*
G01*
X120775000Y-78600000D01*
G75*
G02*
X120850000Y-78675000I0J-75000D01*
G01*
X120850000Y-78825000D01*
G75*
G02*
X120775000Y-78900000I-75000J0D01*
G01*
X119375000Y-78900000D01*
G75*
G02*
X119300000Y-78825000I0J75000D01*
G01*
G37*
G36*
G01*
X119300000Y-78325000D02*
X119300000Y-78175000D01*
G75*
G02*
X119375000Y-78100000I75000J0D01*
G01*
X120775000Y-78100000D01*
G75*
G02*
X120850000Y-78175000I0J-75000D01*
G01*
X120850000Y-78325000D01*
G75*
G02*
X120775000Y-78400000I-75000J0D01*
G01*
X119375000Y-78400000D01*
G75*
G02*
X119300000Y-78325000I0J75000D01*
G01*
G37*
G36*
G01*
X119300000Y-77825000D02*
X119300000Y-77675000D01*
G75*
G02*
X119375000Y-77600000I75000J0D01*
G01*
X120775000Y-77600000D01*
G75*
G02*
X120850000Y-77675000I0J-75000D01*
G01*
X120850000Y-77825000D01*
G75*
G02*
X120775000Y-77900000I-75000J0D01*
G01*
X119375000Y-77900000D01*
G75*
G02*
X119300000Y-77825000I0J75000D01*
G01*
G37*
G36*
G01*
X119300000Y-77325000D02*
X119300000Y-77175000D01*
G75*
G02*
X119375000Y-77100000I75000J0D01*
G01*
X120775000Y-77100000D01*
G75*
G02*
X120850000Y-77175000I0J-75000D01*
G01*
X120850000Y-77325000D01*
G75*
G02*
X120775000Y-77400000I-75000J0D01*
G01*
X119375000Y-77400000D01*
G75*
G02*
X119300000Y-77325000I0J75000D01*
G01*
G37*
D16*
X144750000Y-89650000D03*
X143800000Y-89650000D03*
X145700000Y-89650000D03*
X145700000Y-91850000D03*
X144750000Y-91850000D03*
X143800000Y-91850000D03*
D17*
X109530000Y-66600000D03*
X109530000Y-73900000D03*
X107320000Y-73900000D03*
X107320000Y-66600000D03*
D18*
X110180000Y-72500000D03*
X110180000Y-71000000D03*
X110180000Y-68000000D03*
G36*
G01*
X124215000Y-71547500D02*
X124215000Y-71202500D01*
G75*
G02*
X124362500Y-71055000I147500J0D01*
G01*
X124657500Y-71055000D01*
G75*
G02*
X124805000Y-71202500I0J-147500D01*
G01*
X124805000Y-71547500D01*
G75*
G02*
X124657500Y-71695000I-147500J0D01*
G01*
X124362500Y-71695000D01*
G75*
G02*
X124215000Y-71547500I0J147500D01*
G01*
G37*
G36*
G01*
X123245000Y-71547500D02*
X123245000Y-71202500D01*
G75*
G02*
X123392500Y-71055000I147500J0D01*
G01*
X123687500Y-71055000D01*
G75*
G02*
X123835000Y-71202500I0J-147500D01*
G01*
X123835000Y-71547500D01*
G75*
G02*
X123687500Y-71695000I-147500J0D01*
G01*
X123392500Y-71695000D01*
G75*
G02*
X123245000Y-71547500I0J147500D01*
G01*
G37*
G36*
G01*
X126060000Y-71202500D02*
X126060000Y-71547500D01*
G75*
G02*
X125912500Y-71695000I-147500J0D01*
G01*
X125617500Y-71695000D01*
G75*
G02*
X125470000Y-71547500I0J147500D01*
G01*
X125470000Y-71202500D01*
G75*
G02*
X125617500Y-71055000I147500J0D01*
G01*
X125912500Y-71055000D01*
G75*
G02*
X126060000Y-71202500I0J-147500D01*
G01*
G37*
G36*
G01*
X127030000Y-71202500D02*
X127030000Y-71547500D01*
G75*
G02*
X126882500Y-71695000I-147500J0D01*
G01*
X126587500Y-71695000D01*
G75*
G02*
X126440000Y-71547500I0J147500D01*
G01*
X126440000Y-71202500D01*
G75*
G02*
X126587500Y-71055000I147500J0D01*
G01*
X126882500Y-71055000D01*
G75*
G02*
X127030000Y-71202500I0J-147500D01*
G01*
G37*
G36*
G01*
X117756250Y-87150000D02*
X117243750Y-87150000D01*
G75*
G02*
X117025000Y-86931250I0J218750D01*
G01*
X117025000Y-86493750D01*
G75*
G02*
X117243750Y-86275000I218750J0D01*
G01*
X117756250Y-86275000D01*
G75*
G02*
X117975000Y-86493750I0J-218750D01*
G01*
X117975000Y-86931250D01*
G75*
G02*
X117756250Y-87150000I-218750J0D01*
G01*
G37*
G36*
G01*
X117756250Y-88725000D02*
X117243750Y-88725000D01*
G75*
G02*
X117025000Y-88506250I0J218750D01*
G01*
X117025000Y-88068750D01*
G75*
G02*
X117243750Y-87850000I218750J0D01*
G01*
X117756250Y-87850000D01*
G75*
G02*
X117975000Y-88068750I0J-218750D01*
G01*
X117975000Y-88506250D01*
G75*
G02*
X117756250Y-88725000I-218750J0D01*
G01*
G37*
G36*
G01*
X116810000Y-79827500D02*
X116810000Y-80172500D01*
G75*
G02*
X116662500Y-80320000I-147500J0D01*
G01*
X116367500Y-80320000D01*
G75*
G02*
X116220000Y-80172500I0J147500D01*
G01*
X116220000Y-79827500D01*
G75*
G02*
X116367500Y-79680000I147500J0D01*
G01*
X116662500Y-79680000D01*
G75*
G02*
X116810000Y-79827500I0J-147500D01*
G01*
G37*
G36*
G01*
X117780000Y-79827500D02*
X117780000Y-80172500D01*
G75*
G02*
X117632500Y-80320000I-147500J0D01*
G01*
X117337500Y-80320000D01*
G75*
G02*
X117190000Y-80172500I0J147500D01*
G01*
X117190000Y-79827500D01*
G75*
G02*
X117337500Y-79680000I147500J0D01*
G01*
X117632500Y-79680000D01*
G75*
G02*
X117780000Y-79827500I0J-147500D01*
G01*
G37*
G36*
G01*
X113675000Y-71172500D02*
X113675000Y-70827500D01*
G75*
G02*
X113822500Y-70680000I147500J0D01*
G01*
X114117500Y-70680000D01*
G75*
G02*
X114265000Y-70827500I0J-147500D01*
G01*
X114265000Y-71172500D01*
G75*
G02*
X114117500Y-71320000I-147500J0D01*
G01*
X113822500Y-71320000D01*
G75*
G02*
X113675000Y-71172500I0J147500D01*
G01*
G37*
G36*
G01*
X112705000Y-71172500D02*
X112705000Y-70827500D01*
G75*
G02*
X112852500Y-70680000I147500J0D01*
G01*
X113147500Y-70680000D01*
G75*
G02*
X113295000Y-70827500I0J-147500D01*
G01*
X113295000Y-71172500D01*
G75*
G02*
X113147500Y-71320000I-147500J0D01*
G01*
X112852500Y-71320000D01*
G75*
G02*
X112705000Y-71172500I0J147500D01*
G01*
G37*
G36*
G01*
X145650000Y-58993750D02*
X145650000Y-59506250D01*
G75*
G02*
X145431250Y-59725000I-218750J0D01*
G01*
X144993750Y-59725000D01*
G75*
G02*
X144775000Y-59506250I0J218750D01*
G01*
X144775000Y-58993750D01*
G75*
G02*
X144993750Y-58775000I218750J0D01*
G01*
X145431250Y-58775000D01*
G75*
G02*
X145650000Y-58993750I0J-218750D01*
G01*
G37*
G36*
G01*
X147225000Y-58993750D02*
X147225000Y-59506250D01*
G75*
G02*
X147006250Y-59725000I-218750J0D01*
G01*
X146568750Y-59725000D01*
G75*
G02*
X146350000Y-59506250I0J218750D01*
G01*
X146350000Y-58993750D01*
G75*
G02*
X146568750Y-58775000I218750J0D01*
G01*
X147006250Y-58775000D01*
G75*
G02*
X147225000Y-58993750I0J-218750D01*
G01*
G37*
G36*
G01*
X151506250Y-92900000D02*
X150993750Y-92900000D01*
G75*
G02*
X150775000Y-92681250I0J218750D01*
G01*
X150775000Y-92243750D01*
G75*
G02*
X150993750Y-92025000I218750J0D01*
G01*
X151506250Y-92025000D01*
G75*
G02*
X151725000Y-92243750I0J-218750D01*
G01*
X151725000Y-92681250D01*
G75*
G02*
X151506250Y-92900000I-218750J0D01*
G01*
G37*
G36*
G01*
X151506250Y-94475000D02*
X150993750Y-94475000D01*
G75*
G02*
X150775000Y-94256250I0J218750D01*
G01*
X150775000Y-93818750D01*
G75*
G02*
X150993750Y-93600000I218750J0D01*
G01*
X151506250Y-93600000D01*
G75*
G02*
X151725000Y-93818750I0J-218750D01*
G01*
X151725000Y-94256250D01*
G75*
G02*
X151506250Y-94475000I-218750J0D01*
G01*
G37*
G36*
G01*
X149243750Y-93600000D02*
X149756250Y-93600000D01*
G75*
G02*
X149975000Y-93818750I0J-218750D01*
G01*
X149975000Y-94256250D01*
G75*
G02*
X149756250Y-94475000I-218750J0D01*
G01*
X149243750Y-94475000D01*
G75*
G02*
X149025000Y-94256250I0J218750D01*
G01*
X149025000Y-93818750D01*
G75*
G02*
X149243750Y-93600000I218750J0D01*
G01*
G37*
G36*
G01*
X149243750Y-92025000D02*
X149756250Y-92025000D01*
G75*
G02*
X149975000Y-92243750I0J-218750D01*
G01*
X149975000Y-92681250D01*
G75*
G02*
X149756250Y-92900000I-218750J0D01*
G01*
X149243750Y-92900000D01*
G75*
G02*
X149025000Y-92681250I0J218750D01*
G01*
X149025000Y-92243750D01*
G75*
G02*
X149243750Y-92025000I218750J0D01*
G01*
G37*
G36*
G01*
X148006250Y-92900000D02*
X147493750Y-92900000D01*
G75*
G02*
X147275000Y-92681250I0J218750D01*
G01*
X147275000Y-92243750D01*
G75*
G02*
X147493750Y-92025000I218750J0D01*
G01*
X148006250Y-92025000D01*
G75*
G02*
X148225000Y-92243750I0J-218750D01*
G01*
X148225000Y-92681250D01*
G75*
G02*
X148006250Y-92900000I-218750J0D01*
G01*
G37*
G36*
G01*
X148006250Y-94475000D02*
X147493750Y-94475000D01*
G75*
G02*
X147275000Y-94256250I0J218750D01*
G01*
X147275000Y-93818750D01*
G75*
G02*
X147493750Y-93600000I218750J0D01*
G01*
X148006250Y-93600000D01*
G75*
G02*
X148225000Y-93818750I0J-218750D01*
G01*
X148225000Y-94256250D01*
G75*
G02*
X148006250Y-94475000I-218750J0D01*
G01*
G37*
G36*
G01*
X149756250Y-89650000D02*
X149243750Y-89650000D01*
G75*
G02*
X149025000Y-89431250I0J218750D01*
G01*
X149025000Y-88993750D01*
G75*
G02*
X149243750Y-88775000I218750J0D01*
G01*
X149756250Y-88775000D01*
G75*
G02*
X149975000Y-88993750I0J-218750D01*
G01*
X149975000Y-89431250D01*
G75*
G02*
X149756250Y-89650000I-218750J0D01*
G01*
G37*
G36*
G01*
X149756250Y-91225000D02*
X149243750Y-91225000D01*
G75*
G02*
X149025000Y-91006250I0J218750D01*
G01*
X149025000Y-90568750D01*
G75*
G02*
X149243750Y-90350000I218750J0D01*
G01*
X149756250Y-90350000D01*
G75*
G02*
X149975000Y-90568750I0J-218750D01*
G01*
X149975000Y-91006250D01*
G75*
G02*
X149756250Y-91225000I-218750J0D01*
G01*
G37*
G36*
G01*
X147493750Y-90350000D02*
X148006250Y-90350000D01*
G75*
G02*
X148225000Y-90568750I0J-218750D01*
G01*
X148225000Y-91006250D01*
G75*
G02*
X148006250Y-91225000I-218750J0D01*
G01*
X147493750Y-91225000D01*
G75*
G02*
X147275000Y-91006250I0J218750D01*
G01*
X147275000Y-90568750D01*
G75*
G02*
X147493750Y-90350000I218750J0D01*
G01*
G37*
G36*
G01*
X147493750Y-88775000D02*
X148006250Y-88775000D01*
G75*
G02*
X148225000Y-88993750I0J-218750D01*
G01*
X148225000Y-89431250D01*
G75*
G02*
X148006250Y-89650000I-218750J0D01*
G01*
X147493750Y-89650000D01*
G75*
G02*
X147275000Y-89431250I0J218750D01*
G01*
X147275000Y-88993750D01*
G75*
G02*
X147493750Y-88775000I218750J0D01*
G01*
G37*
D19*
X148000000Y-84750000D03*
X147050000Y-82750000D03*
X148950000Y-82750000D03*
G36*
G01*
X115455000Y-84922500D02*
X115455000Y-84577500D01*
G75*
G02*
X115602500Y-84430000I147500J0D01*
G01*
X115897500Y-84430000D01*
G75*
G02*
X116045000Y-84577500I0J-147500D01*
G01*
X116045000Y-84922500D01*
G75*
G02*
X115897500Y-85070000I-147500J0D01*
G01*
X115602500Y-85070000D01*
G75*
G02*
X115455000Y-84922500I0J147500D01*
G01*
G37*
G36*
G01*
X114485000Y-84922500D02*
X114485000Y-84577500D01*
G75*
G02*
X114632500Y-84430000I147500J0D01*
G01*
X114927500Y-84430000D01*
G75*
G02*
X115075000Y-84577500I0J-147500D01*
G01*
X115075000Y-84922500D01*
G75*
G02*
X114927500Y-85070000I-147500J0D01*
G01*
X114632500Y-85070000D01*
G75*
G02*
X114485000Y-84922500I0J147500D01*
G01*
G37*
D20*
X137500000Y-92300000D03*
X137500000Y-88200000D03*
G36*
G01*
X145206250Y-83300000D02*
X144293750Y-83300000D01*
G75*
G02*
X144050000Y-83056250I0J243750D01*
G01*
X144050000Y-82568750D01*
G75*
G02*
X144293750Y-82325000I243750J0D01*
G01*
X145206250Y-82325000D01*
G75*
G02*
X145450000Y-82568750I0J-243750D01*
G01*
X145450000Y-83056250D01*
G75*
G02*
X145206250Y-83300000I-243750J0D01*
G01*
G37*
G36*
G01*
X145206250Y-85175000D02*
X144293750Y-85175000D01*
G75*
G02*
X144050000Y-84931250I0J243750D01*
G01*
X144050000Y-84443750D01*
G75*
G02*
X144293750Y-84200000I243750J0D01*
G01*
X145206250Y-84200000D01*
G75*
G02*
X145450000Y-84443750I0J-243750D01*
G01*
X145450000Y-84931250D01*
G75*
G02*
X145206250Y-85175000I-243750J0D01*
G01*
G37*
G36*
G01*
X146975000Y-81125000D02*
X146975000Y-79875000D01*
G75*
G02*
X147225000Y-79625000I250000J0D01*
G01*
X147975000Y-79625000D01*
G75*
G02*
X148225000Y-79875000I0J-250000D01*
G01*
X148225000Y-81125000D01*
G75*
G02*
X147975000Y-81375000I-250000J0D01*
G01*
X147225000Y-81375000D01*
G75*
G02*
X146975000Y-81125000I0J250000D01*
G01*
G37*
G36*
G01*
X144175000Y-81125000D02*
X144175000Y-79875000D01*
G75*
G02*
X144425000Y-79625000I250000J0D01*
G01*
X145175000Y-79625000D01*
G75*
G02*
X145425000Y-79875000I0J-250000D01*
G01*
X145425000Y-81125000D01*
G75*
G02*
X145175000Y-81375000I-250000J0D01*
G01*
X144425000Y-81375000D01*
G75*
G02*
X144175000Y-81125000I0J250000D01*
G01*
G37*
G36*
G01*
X119506250Y-87112500D02*
X118993750Y-87112500D01*
G75*
G02*
X118775000Y-86893750I0J218750D01*
G01*
X118775000Y-86456250D01*
G75*
G02*
X118993750Y-86237500I218750J0D01*
G01*
X119506250Y-86237500D01*
G75*
G02*
X119725000Y-86456250I0J-218750D01*
G01*
X119725000Y-86893750D01*
G75*
G02*
X119506250Y-87112500I-218750J0D01*
G01*
G37*
G36*
G01*
X119506250Y-88687500D02*
X118993750Y-88687500D01*
G75*
G02*
X118775000Y-88468750I0J218750D01*
G01*
X118775000Y-88031250D01*
G75*
G02*
X118993750Y-87812500I218750J0D01*
G01*
X119506250Y-87812500D01*
G75*
G02*
X119725000Y-88031250I0J-218750D01*
G01*
X119725000Y-88468750D01*
G75*
G02*
X119506250Y-88687500I-218750J0D01*
G01*
G37*
G36*
G01*
X145650000Y-56993750D02*
X145650000Y-57506250D01*
G75*
G02*
X145431250Y-57725000I-218750J0D01*
G01*
X144993750Y-57725000D01*
G75*
G02*
X144775000Y-57506250I0J218750D01*
G01*
X144775000Y-56993750D01*
G75*
G02*
X144993750Y-56775000I218750J0D01*
G01*
X145431250Y-56775000D01*
G75*
G02*
X145650000Y-56993750I0J-218750D01*
G01*
G37*
G36*
G01*
X147225000Y-56993750D02*
X147225000Y-57506250D01*
G75*
G02*
X147006250Y-57725000I-218750J0D01*
G01*
X146568750Y-57725000D01*
G75*
G02*
X146350000Y-57506250I0J218750D01*
G01*
X146350000Y-56993750D01*
G75*
G02*
X146568750Y-56775000I218750J0D01*
G01*
X147006250Y-56775000D01*
G75*
G02*
X147225000Y-56993750I0J-218750D01*
G01*
G37*
D21*
X140900000Y-85500000D03*
X137600000Y-85500000D03*
X153100000Y-80500000D03*
X149800000Y-80500000D03*
G36*
G01*
X113735000Y-81852500D02*
X113735000Y-82197500D01*
G75*
G02*
X113587500Y-82345000I-147500J0D01*
G01*
X113292500Y-82345000D01*
G75*
G02*
X113145000Y-82197500I0J147500D01*
G01*
X113145000Y-81852500D01*
G75*
G02*
X113292500Y-81705000I147500J0D01*
G01*
X113587500Y-81705000D01*
G75*
G02*
X113735000Y-81852500I0J-147500D01*
G01*
G37*
G36*
G01*
X114705000Y-81852500D02*
X114705000Y-82197500D01*
G75*
G02*
X114557500Y-82345000I-147500J0D01*
G01*
X114262500Y-82345000D01*
G75*
G02*
X114115000Y-82197500I0J147500D01*
G01*
X114115000Y-81852500D01*
G75*
G02*
X114262500Y-81705000I147500J0D01*
G01*
X114557500Y-81705000D01*
G75*
G02*
X114705000Y-81852500I0J-147500D01*
G01*
G37*
G36*
G01*
X114115000Y-76697500D02*
X114115000Y-76352500D01*
G75*
G02*
X114262500Y-76205000I147500J0D01*
G01*
X114557500Y-76205000D01*
G75*
G02*
X114705000Y-76352500I0J-147500D01*
G01*
X114705000Y-76697500D01*
G75*
G02*
X114557500Y-76845000I-147500J0D01*
G01*
X114262500Y-76845000D01*
G75*
G02*
X114115000Y-76697500I0J147500D01*
G01*
G37*
G36*
G01*
X113145000Y-76697500D02*
X113145000Y-76352500D01*
G75*
G02*
X113292500Y-76205000I147500J0D01*
G01*
X113587500Y-76205000D01*
G75*
G02*
X113735000Y-76352500I0J-147500D01*
G01*
X113735000Y-76697500D01*
G75*
G02*
X113587500Y-76845000I-147500J0D01*
G01*
X113292500Y-76845000D01*
G75*
G02*
X113145000Y-76697500I0J147500D01*
G01*
G37*
G36*
G01*
X134256250Y-76400000D02*
X133743750Y-76400000D01*
G75*
G02*
X133525000Y-76181250I0J218750D01*
G01*
X133525000Y-75743750D01*
G75*
G02*
X133743750Y-75525000I218750J0D01*
G01*
X134256250Y-75525000D01*
G75*
G02*
X134475000Y-75743750I0J-218750D01*
G01*
X134475000Y-76181250D01*
G75*
G02*
X134256250Y-76400000I-218750J0D01*
G01*
G37*
G36*
G01*
X134256250Y-77975000D02*
X133743750Y-77975000D01*
G75*
G02*
X133525000Y-77756250I0J218750D01*
G01*
X133525000Y-77318750D01*
G75*
G02*
X133743750Y-77100000I218750J0D01*
G01*
X134256250Y-77100000D01*
G75*
G02*
X134475000Y-77318750I0J-218750D01*
G01*
X134475000Y-77756250D01*
G75*
G02*
X134256250Y-77975000I-218750J0D01*
G01*
G37*
G36*
G01*
X130600000Y-89256250D02*
X130600000Y-88743750D01*
G75*
G02*
X130818750Y-88525000I218750J0D01*
G01*
X131256250Y-88525000D01*
G75*
G02*
X131475000Y-88743750I0J-218750D01*
G01*
X131475000Y-89256250D01*
G75*
G02*
X131256250Y-89475000I-218750J0D01*
G01*
X130818750Y-89475000D01*
G75*
G02*
X130600000Y-89256250I0J218750D01*
G01*
G37*
G36*
G01*
X129025000Y-89256250D02*
X129025000Y-88743750D01*
G75*
G02*
X129243750Y-88525000I218750J0D01*
G01*
X129681250Y-88525000D01*
G75*
G02*
X129900000Y-88743750I0J-218750D01*
G01*
X129900000Y-89256250D01*
G75*
G02*
X129681250Y-89475000I-218750J0D01*
G01*
X129243750Y-89475000D01*
G75*
G02*
X129025000Y-89256250I0J218750D01*
G01*
G37*
G36*
G01*
X118172500Y-82810000D02*
X117827500Y-82810000D01*
G75*
G02*
X117680000Y-82662500I0J147500D01*
G01*
X117680000Y-82367500D01*
G75*
G02*
X117827500Y-82220000I147500J0D01*
G01*
X118172500Y-82220000D01*
G75*
G02*
X118320000Y-82367500I0J-147500D01*
G01*
X118320000Y-82662500D01*
G75*
G02*
X118172500Y-82810000I-147500J0D01*
G01*
G37*
G36*
G01*
X118172500Y-83780000D02*
X117827500Y-83780000D01*
G75*
G02*
X117680000Y-83632500I0J147500D01*
G01*
X117680000Y-83337500D01*
G75*
G02*
X117827500Y-83190000I147500J0D01*
G01*
X118172500Y-83190000D01*
G75*
G02*
X118320000Y-83337500I0J-147500D01*
G01*
X118320000Y-83632500D01*
G75*
G02*
X118172500Y-83780000I-147500J0D01*
G01*
G37*
G36*
G01*
X116922500Y-82810000D02*
X116577500Y-82810000D01*
G75*
G02*
X116430000Y-82662500I0J147500D01*
G01*
X116430000Y-82367500D01*
G75*
G02*
X116577500Y-82220000I147500J0D01*
G01*
X116922500Y-82220000D01*
G75*
G02*
X117070000Y-82367500I0J-147500D01*
G01*
X117070000Y-82662500D01*
G75*
G02*
X116922500Y-82810000I-147500J0D01*
G01*
G37*
G36*
G01*
X116922500Y-83780000D02*
X116577500Y-83780000D01*
G75*
G02*
X116430000Y-83632500I0J147500D01*
G01*
X116430000Y-83337500D01*
G75*
G02*
X116577500Y-83190000I147500J0D01*
G01*
X116922500Y-83190000D01*
G75*
G02*
X117070000Y-83337500I0J-147500D01*
G01*
X117070000Y-83632500D01*
G75*
G02*
X116922500Y-83780000I-147500J0D01*
G01*
G37*
G36*
G01*
X122680000Y-73422500D02*
X122680000Y-73077500D01*
G75*
G02*
X122827500Y-72930000I147500J0D01*
G01*
X123122500Y-72930000D01*
G75*
G02*
X123270000Y-73077500I0J-147500D01*
G01*
X123270000Y-73422500D01*
G75*
G02*
X123122500Y-73570000I-147500J0D01*
G01*
X122827500Y-73570000D01*
G75*
G02*
X122680000Y-73422500I0J147500D01*
G01*
G37*
G36*
G01*
X121710000Y-73422500D02*
X121710000Y-73077500D01*
G75*
G02*
X121857500Y-72930000I147500J0D01*
G01*
X122152500Y-72930000D01*
G75*
G02*
X122300000Y-73077500I0J-147500D01*
G01*
X122300000Y-73422500D01*
G75*
G02*
X122152500Y-73570000I-147500J0D01*
G01*
X121857500Y-73570000D01*
G75*
G02*
X121710000Y-73422500I0J147500D01*
G01*
G37*
G36*
G01*
X131922500Y-75060000D02*
X131577500Y-75060000D01*
G75*
G02*
X131430000Y-74912500I0J147500D01*
G01*
X131430000Y-74617500D01*
G75*
G02*
X131577500Y-74470000I147500J0D01*
G01*
X131922500Y-74470000D01*
G75*
G02*
X132070000Y-74617500I0J-147500D01*
G01*
X132070000Y-74912500D01*
G75*
G02*
X131922500Y-75060000I-147500J0D01*
G01*
G37*
G36*
G01*
X131922500Y-76030000D02*
X131577500Y-76030000D01*
G75*
G02*
X131430000Y-75882500I0J147500D01*
G01*
X131430000Y-75587500D01*
G75*
G02*
X131577500Y-75440000I147500J0D01*
G01*
X131922500Y-75440000D01*
G75*
G02*
X132070000Y-75587500I0J-147500D01*
G01*
X132070000Y-75882500D01*
G75*
G02*
X131922500Y-76030000I-147500J0D01*
G01*
G37*
G36*
G01*
X131440000Y-87422500D02*
X131440000Y-87077500D01*
G75*
G02*
X131587500Y-86930000I147500J0D01*
G01*
X131882500Y-86930000D01*
G75*
G02*
X132030000Y-87077500I0J-147500D01*
G01*
X132030000Y-87422500D01*
G75*
G02*
X131882500Y-87570000I-147500J0D01*
G01*
X131587500Y-87570000D01*
G75*
G02*
X131440000Y-87422500I0J147500D01*
G01*
G37*
G36*
G01*
X130470000Y-87422500D02*
X130470000Y-87077500D01*
G75*
G02*
X130617500Y-86930000I147500J0D01*
G01*
X130912500Y-86930000D01*
G75*
G02*
X131060000Y-87077500I0J-147500D01*
G01*
X131060000Y-87422500D01*
G75*
G02*
X130912500Y-87570000I-147500J0D01*
G01*
X130617500Y-87570000D01*
G75*
G02*
X130470000Y-87422500I0J147500D01*
G01*
G37*
G36*
G01*
X122575000Y-88577500D02*
X122575000Y-88922500D01*
G75*
G02*
X122427500Y-89070000I-147500J0D01*
G01*
X122132500Y-89070000D01*
G75*
G02*
X121985000Y-88922500I0J147500D01*
G01*
X121985000Y-88577500D01*
G75*
G02*
X122132500Y-88430000I147500J0D01*
G01*
X122427500Y-88430000D01*
G75*
G02*
X122575000Y-88577500I0J-147500D01*
G01*
G37*
G36*
G01*
X123545000Y-88577500D02*
X123545000Y-88922500D01*
G75*
G02*
X123397500Y-89070000I-147500J0D01*
G01*
X123102500Y-89070000D01*
G75*
G02*
X122955000Y-88922500I0J147500D01*
G01*
X122955000Y-88577500D01*
G75*
G02*
X123102500Y-88430000I147500J0D01*
G01*
X123397500Y-88430000D01*
G75*
G02*
X123545000Y-88577500I0J-147500D01*
G01*
G37*
G36*
G01*
X118422500Y-76560000D02*
X118077500Y-76560000D01*
G75*
G02*
X117930000Y-76412500I0J147500D01*
G01*
X117930000Y-76117500D01*
G75*
G02*
X118077500Y-75970000I147500J0D01*
G01*
X118422500Y-75970000D01*
G75*
G02*
X118570000Y-76117500I0J-147500D01*
G01*
X118570000Y-76412500D01*
G75*
G02*
X118422500Y-76560000I-147500J0D01*
G01*
G37*
G36*
G01*
X118422500Y-77530000D02*
X118077500Y-77530000D01*
G75*
G02*
X117930000Y-77382500I0J147500D01*
G01*
X117930000Y-77087500D01*
G75*
G02*
X118077500Y-76940000I147500J0D01*
G01*
X118422500Y-76940000D01*
G75*
G02*
X118570000Y-77087500I0J-147500D01*
G01*
X118570000Y-77382500D01*
G75*
G02*
X118422500Y-77530000I-147500J0D01*
G01*
G37*
G36*
G01*
X118875000Y-72993750D02*
X118875000Y-73506250D01*
G75*
G02*
X118656250Y-73725000I-218750J0D01*
G01*
X118218750Y-73725000D01*
G75*
G02*
X118000000Y-73506250I0J218750D01*
G01*
X118000000Y-72993750D01*
G75*
G02*
X118218750Y-72775000I218750J0D01*
G01*
X118656250Y-72775000D01*
G75*
G02*
X118875000Y-72993750I0J-218750D01*
G01*
G37*
G36*
G01*
X120450000Y-72993750D02*
X120450000Y-73506250D01*
G75*
G02*
X120231250Y-73725000I-218750J0D01*
G01*
X119793750Y-73725000D01*
G75*
G02*
X119575000Y-73506250I0J218750D01*
G01*
X119575000Y-72993750D01*
G75*
G02*
X119793750Y-72775000I218750J0D01*
G01*
X120231250Y-72775000D01*
G75*
G02*
X120450000Y-72993750I0J-218750D01*
G01*
G37*
G36*
G01*
X141493750Y-91100000D02*
X142006250Y-91100000D01*
G75*
G02*
X142225000Y-91318750I0J-218750D01*
G01*
X142225000Y-91756250D01*
G75*
G02*
X142006250Y-91975000I-218750J0D01*
G01*
X141493750Y-91975000D01*
G75*
G02*
X141275000Y-91756250I0J218750D01*
G01*
X141275000Y-91318750D01*
G75*
G02*
X141493750Y-91100000I218750J0D01*
G01*
G37*
G36*
G01*
X141493750Y-89525000D02*
X142006250Y-89525000D01*
G75*
G02*
X142225000Y-89743750I0J-218750D01*
G01*
X142225000Y-90181250D01*
G75*
G02*
X142006250Y-90400000I-218750J0D01*
G01*
X141493750Y-90400000D01*
G75*
G02*
X141275000Y-90181250I0J218750D01*
G01*
X141275000Y-89743750D01*
G75*
G02*
X141493750Y-89525000I218750J0D01*
G01*
G37*
G36*
G01*
X139525000Y-98625000D02*
X139525000Y-97375000D01*
G75*
G02*
X139775000Y-97125000I250000J0D01*
G01*
X140525000Y-97125000D01*
G75*
G02*
X140775000Y-97375000I0J-250000D01*
G01*
X140775000Y-98625000D01*
G75*
G02*
X140525000Y-98875000I-250000J0D01*
G01*
X139775000Y-98875000D01*
G75*
G02*
X139525000Y-98625000I0J250000D01*
G01*
G37*
G36*
G01*
X136725000Y-98625000D02*
X136725000Y-97375000D01*
G75*
G02*
X136975000Y-97125000I250000J0D01*
G01*
X137725000Y-97125000D01*
G75*
G02*
X137975000Y-97375000I0J-250000D01*
G01*
X137975000Y-98625000D01*
G75*
G02*
X137725000Y-98875000I-250000J0D01*
G01*
X136975000Y-98875000D01*
G75*
G02*
X136725000Y-98625000I0J250000D01*
G01*
G37*
G36*
G01*
X139525000Y-95625000D02*
X139525000Y-94375000D01*
G75*
G02*
X139775000Y-94125000I250000J0D01*
G01*
X140525000Y-94125000D01*
G75*
G02*
X140775000Y-94375000I0J-250000D01*
G01*
X140775000Y-95625000D01*
G75*
G02*
X140525000Y-95875000I-250000J0D01*
G01*
X139775000Y-95875000D01*
G75*
G02*
X139525000Y-95625000I0J250000D01*
G01*
G37*
G36*
G01*
X136725000Y-95625000D02*
X136725000Y-94375000D01*
G75*
G02*
X136975000Y-94125000I250000J0D01*
G01*
X137725000Y-94125000D01*
G75*
G02*
X137975000Y-94375000I0J-250000D01*
G01*
X137975000Y-95625000D01*
G75*
G02*
X137725000Y-95875000I-250000J0D01*
G01*
X136975000Y-95875000D01*
G75*
G02*
X136725000Y-95625000I0J250000D01*
G01*
G37*
G36*
G01*
X146950000Y-87850000D02*
X146950000Y-86600000D01*
G75*
G02*
X147200000Y-86350000I250000J0D01*
G01*
X147950000Y-86350000D01*
G75*
G02*
X148200000Y-86600000I0J-250000D01*
G01*
X148200000Y-87850000D01*
G75*
G02*
X147950000Y-88100000I-250000J0D01*
G01*
X147200000Y-88100000D01*
G75*
G02*
X146950000Y-87850000I0J250000D01*
G01*
G37*
G36*
G01*
X144150000Y-87850000D02*
X144150000Y-86600000D01*
G75*
G02*
X144400000Y-86350000I250000J0D01*
G01*
X145150000Y-86350000D01*
G75*
G02*
X145400000Y-86600000I0J-250000D01*
G01*
X145400000Y-87850000D01*
G75*
G02*
X145150000Y-88100000I-250000J0D01*
G01*
X144400000Y-88100000D01*
G75*
G02*
X144150000Y-87850000I0J250000D01*
G01*
G37*
M02*
