G04 #@! TF.GenerationSoftware,KiCad,Pcbnew,(5.1.6)-1*
G04 #@! TF.CreationDate,2023-08-05T22:02:59+03:00*
G04 #@! TF.ProjectId,STM32F4_REV2,53544d33-3246-4345-9f52-4556322e6b69,rev?*
G04 #@! TF.SameCoordinates,Original*
G04 #@! TF.FileFunction,Soldermask,Top*
G04 #@! TF.FilePolarity,Negative*
%FSLAX46Y46*%
G04 Gerber Fmt 4.6, Leading zero omitted, Abs format (unit mm)*
G04 Created by KiCad (PCBNEW (5.1.6)-1) date 2023-08-05 22:02:59*
%MOMM*%
%LPD*%
G01*
G04 APERTURE LIST*
%ADD10C,0.100000*%
G04 APERTURE END LIST*
D10*
G36*
X158048156Y-94922794D02*
G01*
X158769140Y-95066206D01*
X159560972Y-95394193D01*
X160273601Y-95870357D01*
X160879643Y-96476399D01*
X161355807Y-97189028D01*
X161683794Y-97980860D01*
X161816581Y-98648426D01*
X161847890Y-98805826D01*
X161851000Y-98821464D01*
X161851000Y-99678536D01*
X161683794Y-100519140D01*
X161355807Y-101310972D01*
X160879643Y-102023601D01*
X160273601Y-102629643D01*
X159560972Y-103105807D01*
X158769140Y-103433794D01*
X158048156Y-103577206D01*
X157928537Y-103601000D01*
X157071463Y-103601000D01*
X156951844Y-103577206D01*
X156230860Y-103433794D01*
X155439028Y-103105807D01*
X154726399Y-102629643D01*
X154120357Y-102023601D01*
X153644193Y-101310972D01*
X153316206Y-100519140D01*
X153149000Y-99678536D01*
X153149000Y-98821464D01*
X153152111Y-98805826D01*
X153183419Y-98648426D01*
X153316206Y-97980860D01*
X153644193Y-97189028D01*
X154120357Y-96476399D01*
X154726399Y-95870357D01*
X155439028Y-95394193D01*
X156230860Y-95066206D01*
X156951844Y-94922794D01*
X157071463Y-94899000D01*
X157928537Y-94899000D01*
X158048156Y-94922794D01*
G37*
G36*
X111798156Y-94922794D02*
G01*
X112519140Y-95066206D01*
X113310972Y-95394193D01*
X114023601Y-95870357D01*
X114629643Y-96476399D01*
X115105807Y-97189028D01*
X115433794Y-97980860D01*
X115566581Y-98648426D01*
X115597890Y-98805826D01*
X115601000Y-98821464D01*
X115601000Y-99678536D01*
X115433794Y-100519140D01*
X115105807Y-101310972D01*
X114629643Y-102023601D01*
X114023601Y-102629643D01*
X113310972Y-103105807D01*
X112519140Y-103433794D01*
X111798156Y-103577206D01*
X111678537Y-103601000D01*
X110821463Y-103601000D01*
X110701844Y-103577206D01*
X109980860Y-103433794D01*
X109189028Y-103105807D01*
X108476399Y-102629643D01*
X107870357Y-102023601D01*
X107394193Y-101310972D01*
X107066206Y-100519140D01*
X106899000Y-99678536D01*
X106899000Y-98821464D01*
X106902111Y-98805826D01*
X106933419Y-98648426D01*
X107066206Y-97980860D01*
X107394193Y-97189028D01*
X107870357Y-96476399D01*
X108476399Y-95870357D01*
X109189028Y-95394193D01*
X109980860Y-95066206D01*
X110701844Y-94922794D01*
X110821463Y-94899000D01*
X111678537Y-94899000D01*
X111798156Y-94922794D01*
G37*
G36*
X128038409Y-97530525D02*
G01*
X128123425Y-97556314D01*
X128201774Y-97598193D01*
X128270449Y-97654552D01*
X128326807Y-97723225D01*
X128368686Y-97801574D01*
X128394475Y-97886590D01*
X128401000Y-97952842D01*
X128401000Y-98497158D01*
X128394475Y-98563410D01*
X128368686Y-98648426D01*
X128326807Y-98726775D01*
X128270449Y-98795449D01*
X128201775Y-98851807D01*
X128123426Y-98893686D01*
X128038410Y-98919475D01*
X127950000Y-98928182D01*
X127861591Y-98919475D01*
X127776575Y-98893686D01*
X127698226Y-98851807D01*
X127629552Y-98795449D01*
X127573195Y-98726776D01*
X127531313Y-98648423D01*
X127505525Y-98563410D01*
X127499000Y-98497158D01*
X127499000Y-97952843D01*
X127505525Y-97886591D01*
X127531314Y-97801575D01*
X127573193Y-97723226D01*
X127629552Y-97654551D01*
X127698225Y-97598193D01*
X127776574Y-97556314D01*
X127861590Y-97530525D01*
X127950000Y-97521818D01*
X128038409Y-97530525D01*
G37*
G36*
X126788409Y-97530525D02*
G01*
X126873425Y-97556314D01*
X126951774Y-97598193D01*
X127020449Y-97654552D01*
X127076807Y-97723225D01*
X127118686Y-97801574D01*
X127144475Y-97886590D01*
X127151000Y-97952842D01*
X127151000Y-98497158D01*
X127144475Y-98563410D01*
X127118686Y-98648426D01*
X127076807Y-98726775D01*
X127020449Y-98795449D01*
X126951775Y-98851807D01*
X126873426Y-98893686D01*
X126788410Y-98919475D01*
X126700000Y-98928182D01*
X126611591Y-98919475D01*
X126526575Y-98893686D01*
X126448226Y-98851807D01*
X126379552Y-98795449D01*
X126323195Y-98726776D01*
X126281313Y-98648423D01*
X126255525Y-98563410D01*
X126249000Y-98497158D01*
X126249000Y-97952843D01*
X126255525Y-97886591D01*
X126281314Y-97801575D01*
X126323193Y-97723226D01*
X126379552Y-97654551D01*
X126448225Y-97598193D01*
X126526574Y-97556314D01*
X126611590Y-97530525D01*
X126700000Y-97521818D01*
X126788409Y-97530525D01*
G37*
G36*
X125538409Y-97530525D02*
G01*
X125623425Y-97556314D01*
X125701774Y-97598193D01*
X125770449Y-97654552D01*
X125826807Y-97723225D01*
X125868686Y-97801574D01*
X125894475Y-97886590D01*
X125901000Y-97952842D01*
X125901000Y-98497158D01*
X125894475Y-98563410D01*
X125868686Y-98648426D01*
X125826807Y-98726775D01*
X125770449Y-98795449D01*
X125701775Y-98851807D01*
X125623426Y-98893686D01*
X125538410Y-98919475D01*
X125450000Y-98928182D01*
X125361591Y-98919475D01*
X125276575Y-98893686D01*
X125198226Y-98851807D01*
X125129552Y-98795449D01*
X125073195Y-98726776D01*
X125031313Y-98648423D01*
X125005525Y-98563410D01*
X124999000Y-98497158D01*
X124999000Y-97952843D01*
X125005525Y-97886591D01*
X125031314Y-97801575D01*
X125073193Y-97723226D01*
X125129552Y-97654551D01*
X125198225Y-97598193D01*
X125276574Y-97556314D01*
X125361590Y-97530525D01*
X125450000Y-97521818D01*
X125538409Y-97530525D01*
G37*
G36*
X124519683Y-97527725D02*
G01*
X124550143Y-97536966D01*
X124578223Y-97551974D01*
X124602831Y-97572169D01*
X124623026Y-97596777D01*
X124638034Y-97624857D01*
X124647275Y-97655317D01*
X124651000Y-97693140D01*
X124651000Y-98756860D01*
X124647275Y-98794683D01*
X124638034Y-98825143D01*
X124623026Y-98853223D01*
X124602831Y-98877831D01*
X124578223Y-98898026D01*
X124550143Y-98913034D01*
X124519683Y-98922275D01*
X124481860Y-98926000D01*
X123918140Y-98926000D01*
X123880317Y-98922275D01*
X123849857Y-98913034D01*
X123821777Y-98898026D01*
X123797169Y-98877831D01*
X123776974Y-98853223D01*
X123761966Y-98825143D01*
X123752725Y-98794683D01*
X123749000Y-98756860D01*
X123749000Y-97693140D01*
X123752725Y-97655317D01*
X123761966Y-97624857D01*
X123776974Y-97596777D01*
X123797169Y-97572169D01*
X123821777Y-97551974D01*
X123849857Y-97536966D01*
X123880317Y-97527725D01*
X123918140Y-97524000D01*
X124481860Y-97524000D01*
X124519683Y-97527725D01*
G37*
G36*
X140668604Y-97078347D02*
G01*
X140705144Y-97089432D01*
X140738821Y-97107433D01*
X140768341Y-97131659D01*
X140792567Y-97161179D01*
X140810568Y-97194856D01*
X140821653Y-97231396D01*
X140826000Y-97275538D01*
X140826000Y-98724462D01*
X140821653Y-98768604D01*
X140810568Y-98805144D01*
X140792567Y-98838821D01*
X140768341Y-98868341D01*
X140738821Y-98892567D01*
X140705144Y-98910568D01*
X140668604Y-98921653D01*
X140624462Y-98926000D01*
X139675538Y-98926000D01*
X139631396Y-98921653D01*
X139594856Y-98910568D01*
X139561179Y-98892567D01*
X139531659Y-98868341D01*
X139507433Y-98838821D01*
X139489432Y-98805144D01*
X139478347Y-98768604D01*
X139474000Y-98724462D01*
X139474000Y-97275538D01*
X139478347Y-97231396D01*
X139489432Y-97194856D01*
X139507433Y-97161179D01*
X139531659Y-97131659D01*
X139561179Y-97107433D01*
X139594856Y-97089432D01*
X139631396Y-97078347D01*
X139675538Y-97074000D01*
X140624462Y-97074000D01*
X140668604Y-97078347D01*
G37*
G36*
X137868604Y-97078347D02*
G01*
X137905144Y-97089432D01*
X137938821Y-97107433D01*
X137968341Y-97131659D01*
X137992567Y-97161179D01*
X138010568Y-97194856D01*
X138021653Y-97231396D01*
X138026000Y-97275538D01*
X138026000Y-98724462D01*
X138021653Y-98768604D01*
X138010568Y-98805144D01*
X137992567Y-98838821D01*
X137968341Y-98868341D01*
X137938821Y-98892567D01*
X137905144Y-98910568D01*
X137868604Y-98921653D01*
X137824462Y-98926000D01*
X136875538Y-98926000D01*
X136831396Y-98921653D01*
X136794856Y-98910568D01*
X136761179Y-98892567D01*
X136731659Y-98868341D01*
X136707433Y-98838821D01*
X136689432Y-98805144D01*
X136678347Y-98768604D01*
X136674000Y-98724462D01*
X136674000Y-97275538D01*
X136678347Y-97231396D01*
X136689432Y-97194856D01*
X136707433Y-97161179D01*
X136731659Y-97131659D01*
X136761179Y-97107433D01*
X136794856Y-97089432D01*
X136831396Y-97078347D01*
X136875538Y-97074000D01*
X137824462Y-97074000D01*
X137868604Y-97078347D01*
G37*
G36*
X137868604Y-94078347D02*
G01*
X137905144Y-94089432D01*
X137938821Y-94107433D01*
X137968341Y-94131659D01*
X137992567Y-94161179D01*
X138010568Y-94194856D01*
X138021653Y-94231396D01*
X138026000Y-94275538D01*
X138026000Y-95724462D01*
X138021653Y-95768604D01*
X138010568Y-95805144D01*
X137992567Y-95838821D01*
X137968341Y-95868341D01*
X137938821Y-95892567D01*
X137905144Y-95910568D01*
X137868604Y-95921653D01*
X137824462Y-95926000D01*
X136875538Y-95926000D01*
X136831396Y-95921653D01*
X136794856Y-95910568D01*
X136761179Y-95892567D01*
X136731659Y-95868341D01*
X136707433Y-95838821D01*
X136689432Y-95805144D01*
X136678347Y-95768604D01*
X136674000Y-95724462D01*
X136674000Y-94275538D01*
X136678347Y-94231396D01*
X136689432Y-94194856D01*
X136707433Y-94161179D01*
X136731659Y-94131659D01*
X136761179Y-94107433D01*
X136794856Y-94089432D01*
X136831396Y-94078347D01*
X136875538Y-94074000D01*
X137824462Y-94074000D01*
X137868604Y-94078347D01*
G37*
G36*
X140668604Y-94078347D02*
G01*
X140705144Y-94089432D01*
X140738821Y-94107433D01*
X140768341Y-94131659D01*
X140792567Y-94161179D01*
X140810568Y-94194856D01*
X140821653Y-94231396D01*
X140826000Y-94275538D01*
X140826000Y-95724462D01*
X140821653Y-95768604D01*
X140810568Y-95805144D01*
X140792567Y-95838821D01*
X140768341Y-95868341D01*
X140738821Y-95892567D01*
X140705144Y-95910568D01*
X140668604Y-95921653D01*
X140624462Y-95926000D01*
X139675538Y-95926000D01*
X139631396Y-95921653D01*
X139594856Y-95910568D01*
X139561179Y-95892567D01*
X139531659Y-95868341D01*
X139507433Y-95838821D01*
X139489432Y-95805144D01*
X139478347Y-95768604D01*
X139474000Y-95724462D01*
X139474000Y-94275538D01*
X139478347Y-94231396D01*
X139489432Y-94194856D01*
X139507433Y-94161179D01*
X139531659Y-94131659D01*
X139561179Y-94107433D01*
X139594856Y-94089432D01*
X139631396Y-94078347D01*
X139675538Y-94074000D01*
X140624462Y-94074000D01*
X140668604Y-94078347D01*
G37*
G36*
X149879591Y-93553085D02*
G01*
X149913569Y-93563393D01*
X149944890Y-93580134D01*
X149972339Y-93602661D01*
X149994866Y-93630110D01*
X150011607Y-93661431D01*
X150021915Y-93695409D01*
X150026000Y-93736890D01*
X150026000Y-94338110D01*
X150021915Y-94379591D01*
X150011607Y-94413569D01*
X149994866Y-94444890D01*
X149972339Y-94472339D01*
X149944890Y-94494866D01*
X149913569Y-94511607D01*
X149879591Y-94521915D01*
X149838110Y-94526000D01*
X149161890Y-94526000D01*
X149120409Y-94521915D01*
X149086431Y-94511607D01*
X149055110Y-94494866D01*
X149027661Y-94472339D01*
X149005134Y-94444890D01*
X148988393Y-94413569D01*
X148978085Y-94379591D01*
X148974000Y-94338110D01*
X148974000Y-93736890D01*
X148978085Y-93695409D01*
X148988393Y-93661431D01*
X149005134Y-93630110D01*
X149027661Y-93602661D01*
X149055110Y-93580134D01*
X149086431Y-93563393D01*
X149120409Y-93553085D01*
X149161890Y-93549000D01*
X149838110Y-93549000D01*
X149879591Y-93553085D01*
G37*
G36*
X148129591Y-93553085D02*
G01*
X148163569Y-93563393D01*
X148194890Y-93580134D01*
X148222339Y-93602661D01*
X148244866Y-93630110D01*
X148261607Y-93661431D01*
X148271915Y-93695409D01*
X148276000Y-93736890D01*
X148276000Y-94338110D01*
X148271915Y-94379591D01*
X148261607Y-94413569D01*
X148244866Y-94444890D01*
X148222339Y-94472339D01*
X148194890Y-94494866D01*
X148163569Y-94511607D01*
X148129591Y-94521915D01*
X148088110Y-94526000D01*
X147411890Y-94526000D01*
X147370409Y-94521915D01*
X147336431Y-94511607D01*
X147305110Y-94494866D01*
X147277661Y-94472339D01*
X147255134Y-94444890D01*
X147238393Y-94413569D01*
X147228085Y-94379591D01*
X147224000Y-94338110D01*
X147224000Y-93736890D01*
X147228085Y-93695409D01*
X147238393Y-93661431D01*
X147255134Y-93630110D01*
X147277661Y-93602661D01*
X147305110Y-93580134D01*
X147336431Y-93563393D01*
X147370409Y-93553085D01*
X147411890Y-93549000D01*
X148088110Y-93549000D01*
X148129591Y-93553085D01*
G37*
G36*
X151629591Y-93553085D02*
G01*
X151663569Y-93563393D01*
X151694890Y-93580134D01*
X151722339Y-93602661D01*
X151744866Y-93630110D01*
X151761607Y-93661431D01*
X151771915Y-93695409D01*
X151776000Y-93736890D01*
X151776000Y-94338110D01*
X151771915Y-94379591D01*
X151761607Y-94413569D01*
X151744866Y-94444890D01*
X151722339Y-94472339D01*
X151694890Y-94494866D01*
X151663569Y-94511607D01*
X151629591Y-94521915D01*
X151588110Y-94526000D01*
X150911890Y-94526000D01*
X150870409Y-94521915D01*
X150836431Y-94511607D01*
X150805110Y-94494866D01*
X150777661Y-94472339D01*
X150755134Y-94444890D01*
X150738393Y-94413569D01*
X150728085Y-94379591D01*
X150724000Y-94338110D01*
X150724000Y-93736890D01*
X150728085Y-93695409D01*
X150738393Y-93661431D01*
X150755134Y-93630110D01*
X150777661Y-93602661D01*
X150805110Y-93580134D01*
X150836431Y-93563393D01*
X150870409Y-93553085D01*
X150911890Y-93549000D01*
X151588110Y-93549000D01*
X151629591Y-93553085D01*
G37*
G36*
X138801000Y-93301000D02*
G01*
X136199000Y-93301000D01*
X136199000Y-91299000D01*
X138801000Y-91299000D01*
X138801000Y-93301000D01*
G37*
G36*
X148129591Y-91978085D02*
G01*
X148163569Y-91988393D01*
X148194890Y-92005134D01*
X148222339Y-92027661D01*
X148244866Y-92055110D01*
X148261607Y-92086431D01*
X148271915Y-92120409D01*
X148276000Y-92161890D01*
X148276000Y-92763110D01*
X148271915Y-92804591D01*
X148261607Y-92838569D01*
X148244866Y-92869890D01*
X148222339Y-92897339D01*
X148194890Y-92919866D01*
X148163569Y-92936607D01*
X148129591Y-92946915D01*
X148088110Y-92951000D01*
X147411890Y-92951000D01*
X147370409Y-92946915D01*
X147336431Y-92936607D01*
X147305110Y-92919866D01*
X147277661Y-92897339D01*
X147255134Y-92869890D01*
X147238393Y-92838569D01*
X147228085Y-92804591D01*
X147224000Y-92763110D01*
X147224000Y-92161890D01*
X147228085Y-92120409D01*
X147238393Y-92086431D01*
X147255134Y-92055110D01*
X147277661Y-92027661D01*
X147305110Y-92005134D01*
X147336431Y-91988393D01*
X147370409Y-91978085D01*
X147411890Y-91974000D01*
X148088110Y-91974000D01*
X148129591Y-91978085D01*
G37*
G36*
X149879591Y-91978085D02*
G01*
X149913569Y-91988393D01*
X149944890Y-92005134D01*
X149972339Y-92027661D01*
X149994866Y-92055110D01*
X150011607Y-92086431D01*
X150021915Y-92120409D01*
X150026000Y-92161890D01*
X150026000Y-92763110D01*
X150021915Y-92804591D01*
X150011607Y-92838569D01*
X149994866Y-92869890D01*
X149972339Y-92897339D01*
X149944890Y-92919866D01*
X149913569Y-92936607D01*
X149879591Y-92946915D01*
X149838110Y-92951000D01*
X149161890Y-92951000D01*
X149120409Y-92946915D01*
X149086431Y-92936607D01*
X149055110Y-92919866D01*
X149027661Y-92897339D01*
X149005134Y-92869890D01*
X148988393Y-92838569D01*
X148978085Y-92804591D01*
X148974000Y-92763110D01*
X148974000Y-92161890D01*
X148978085Y-92120409D01*
X148988393Y-92086431D01*
X149005134Y-92055110D01*
X149027661Y-92027661D01*
X149055110Y-92005134D01*
X149086431Y-91988393D01*
X149120409Y-91978085D01*
X149161890Y-91974000D01*
X149838110Y-91974000D01*
X149879591Y-91978085D01*
G37*
G36*
X151629591Y-91978085D02*
G01*
X151663569Y-91988393D01*
X151694890Y-92005134D01*
X151722339Y-92027661D01*
X151744866Y-92055110D01*
X151761607Y-92086431D01*
X151771915Y-92120409D01*
X151776000Y-92161890D01*
X151776000Y-92763110D01*
X151771915Y-92804591D01*
X151761607Y-92838569D01*
X151744866Y-92869890D01*
X151722339Y-92897339D01*
X151694890Y-92919866D01*
X151663569Y-92936607D01*
X151629591Y-92946915D01*
X151588110Y-92951000D01*
X150911890Y-92951000D01*
X150870409Y-92946915D01*
X150836431Y-92936607D01*
X150805110Y-92919866D01*
X150777661Y-92897339D01*
X150755134Y-92869890D01*
X150738393Y-92838569D01*
X150728085Y-92804591D01*
X150724000Y-92763110D01*
X150724000Y-92161890D01*
X150728085Y-92120409D01*
X150738393Y-92086431D01*
X150755134Y-92055110D01*
X150777661Y-92027661D01*
X150805110Y-92005134D01*
X150836431Y-91988393D01*
X150870409Y-91978085D01*
X150911890Y-91974000D01*
X151588110Y-91974000D01*
X151629591Y-91978085D01*
G37*
G36*
X146076000Y-92431000D02*
G01*
X143424000Y-92431000D01*
X143424000Y-91269000D01*
X146076000Y-91269000D01*
X146076000Y-92431000D01*
G37*
G36*
X142129591Y-91053085D02*
G01*
X142163569Y-91063393D01*
X142194890Y-91080134D01*
X142222339Y-91102661D01*
X142244866Y-91130110D01*
X142261607Y-91161431D01*
X142271915Y-91195409D01*
X142276000Y-91236890D01*
X142276000Y-91838110D01*
X142271915Y-91879591D01*
X142261607Y-91913569D01*
X142244866Y-91944890D01*
X142222339Y-91972339D01*
X142194890Y-91994866D01*
X142163569Y-92011607D01*
X142129591Y-92021915D01*
X142088110Y-92026000D01*
X141411890Y-92026000D01*
X141370409Y-92021915D01*
X141336431Y-92011607D01*
X141305110Y-91994866D01*
X141277661Y-91972339D01*
X141255134Y-91944890D01*
X141238393Y-91913569D01*
X141228085Y-91879591D01*
X141224000Y-91838110D01*
X141224000Y-91236890D01*
X141228085Y-91195409D01*
X141238393Y-91161431D01*
X141255134Y-91130110D01*
X141277661Y-91102661D01*
X141305110Y-91080134D01*
X141336431Y-91063393D01*
X141370409Y-91053085D01*
X141411890Y-91049000D01*
X142088110Y-91049000D01*
X142129591Y-91053085D01*
G37*
G36*
X157851000Y-91601000D02*
G01*
X155149000Y-91601000D01*
X155149000Y-88899000D01*
X157851000Y-88899000D01*
X157851000Y-91601000D01*
G37*
G36*
X149879591Y-90303085D02*
G01*
X149913569Y-90313393D01*
X149944890Y-90330134D01*
X149972339Y-90352661D01*
X149994866Y-90380110D01*
X150011607Y-90411431D01*
X150021915Y-90445409D01*
X150026000Y-90486890D01*
X150026000Y-91088110D01*
X150021915Y-91129591D01*
X150011607Y-91163569D01*
X149994866Y-91194890D01*
X149972339Y-91222339D01*
X149944890Y-91244866D01*
X149913569Y-91261607D01*
X149879591Y-91271915D01*
X149838110Y-91276000D01*
X149161890Y-91276000D01*
X149120409Y-91271915D01*
X149086431Y-91261607D01*
X149055110Y-91244866D01*
X149027661Y-91222339D01*
X149005134Y-91194890D01*
X148988393Y-91163569D01*
X148978085Y-91129591D01*
X148974000Y-91088110D01*
X148974000Y-90486890D01*
X148978085Y-90445409D01*
X148988393Y-90411431D01*
X149005134Y-90380110D01*
X149027661Y-90352661D01*
X149055110Y-90330134D01*
X149086431Y-90313393D01*
X149120409Y-90303085D01*
X149161890Y-90299000D01*
X149838110Y-90299000D01*
X149879591Y-90303085D01*
G37*
G36*
X148129591Y-90303085D02*
G01*
X148163569Y-90313393D01*
X148194890Y-90330134D01*
X148222339Y-90352661D01*
X148244866Y-90380110D01*
X148261607Y-90411431D01*
X148271915Y-90445409D01*
X148276000Y-90486890D01*
X148276000Y-91088110D01*
X148271915Y-91129591D01*
X148261607Y-91163569D01*
X148244866Y-91194890D01*
X148222339Y-91222339D01*
X148194890Y-91244866D01*
X148163569Y-91261607D01*
X148129591Y-91271915D01*
X148088110Y-91276000D01*
X147411890Y-91276000D01*
X147370409Y-91271915D01*
X147336431Y-91261607D01*
X147305110Y-91244866D01*
X147277661Y-91222339D01*
X147255134Y-91194890D01*
X147238393Y-91163569D01*
X147228085Y-91129591D01*
X147224000Y-91088110D01*
X147224000Y-90486890D01*
X147228085Y-90445409D01*
X147238393Y-90411431D01*
X147255134Y-90380110D01*
X147277661Y-90352661D01*
X147305110Y-90330134D01*
X147336431Y-90313393D01*
X147370409Y-90303085D01*
X147411890Y-90299000D01*
X148088110Y-90299000D01*
X148129591Y-90303085D01*
G37*
G36*
X142129591Y-89478085D02*
G01*
X142163569Y-89488393D01*
X142194890Y-89505134D01*
X142222339Y-89527661D01*
X142244866Y-89555110D01*
X142261607Y-89586431D01*
X142271915Y-89620409D01*
X142276000Y-89661890D01*
X142276000Y-90263110D01*
X142271915Y-90304591D01*
X142261607Y-90338569D01*
X142244866Y-90369890D01*
X142222339Y-90397339D01*
X142194890Y-90419866D01*
X142163569Y-90436607D01*
X142129591Y-90446915D01*
X142088110Y-90451000D01*
X141411890Y-90451000D01*
X141370409Y-90446915D01*
X141336431Y-90436607D01*
X141305110Y-90419866D01*
X141277661Y-90397339D01*
X141255134Y-90369890D01*
X141238393Y-90338569D01*
X141228085Y-90304591D01*
X141224000Y-90263110D01*
X141224000Y-89661890D01*
X141228085Y-89620409D01*
X141238393Y-89586431D01*
X141255134Y-89555110D01*
X141277661Y-89527661D01*
X141305110Y-89505134D01*
X141336431Y-89488393D01*
X141370409Y-89478085D01*
X141411890Y-89474000D01*
X142088110Y-89474000D01*
X142129591Y-89478085D01*
G37*
G36*
X146076000Y-90231000D02*
G01*
X143424000Y-90231000D01*
X143424000Y-89069000D01*
X146076000Y-89069000D01*
X146076000Y-90231000D01*
G37*
G36*
X149879591Y-88728085D02*
G01*
X149913569Y-88738393D01*
X149944890Y-88755134D01*
X149972339Y-88777661D01*
X149994866Y-88805110D01*
X150011607Y-88836431D01*
X150021915Y-88870409D01*
X150026000Y-88911890D01*
X150026000Y-89513110D01*
X150021915Y-89554591D01*
X150011607Y-89588569D01*
X149994866Y-89619890D01*
X149972339Y-89647339D01*
X149944890Y-89669866D01*
X149913569Y-89686607D01*
X149879591Y-89696915D01*
X149838110Y-89701000D01*
X149161890Y-89701000D01*
X149120409Y-89696915D01*
X149086431Y-89686607D01*
X149055110Y-89669866D01*
X149027661Y-89647339D01*
X149005134Y-89619890D01*
X148988393Y-89588569D01*
X148978085Y-89554591D01*
X148974000Y-89513110D01*
X148974000Y-88911890D01*
X148978085Y-88870409D01*
X148988393Y-88836431D01*
X149005134Y-88805110D01*
X149027661Y-88777661D01*
X149055110Y-88755134D01*
X149086431Y-88738393D01*
X149120409Y-88728085D01*
X149161890Y-88724000D01*
X149838110Y-88724000D01*
X149879591Y-88728085D01*
G37*
G36*
X148129591Y-88728085D02*
G01*
X148163569Y-88738393D01*
X148194890Y-88755134D01*
X148222339Y-88777661D01*
X148244866Y-88805110D01*
X148261607Y-88836431D01*
X148271915Y-88870409D01*
X148276000Y-88911890D01*
X148276000Y-89513110D01*
X148271915Y-89554591D01*
X148261607Y-89588569D01*
X148244866Y-89619890D01*
X148222339Y-89647339D01*
X148194890Y-89669866D01*
X148163569Y-89686607D01*
X148129591Y-89696915D01*
X148088110Y-89701000D01*
X147411890Y-89701000D01*
X147370409Y-89696915D01*
X147336431Y-89686607D01*
X147305110Y-89669866D01*
X147277661Y-89647339D01*
X147255134Y-89619890D01*
X147238393Y-89588569D01*
X147228085Y-89554591D01*
X147224000Y-89513110D01*
X147224000Y-88911890D01*
X147228085Y-88870409D01*
X147238393Y-88836431D01*
X147255134Y-88805110D01*
X147277661Y-88777661D01*
X147305110Y-88755134D01*
X147336431Y-88738393D01*
X147370409Y-88728085D01*
X147411890Y-88724000D01*
X148088110Y-88724000D01*
X148129591Y-88728085D01*
G37*
G36*
X131379591Y-88478085D02*
G01*
X131413569Y-88488393D01*
X131444890Y-88505134D01*
X131472339Y-88527661D01*
X131494866Y-88555110D01*
X131511607Y-88586431D01*
X131521915Y-88620409D01*
X131526000Y-88661890D01*
X131526000Y-89338110D01*
X131521915Y-89379591D01*
X131511607Y-89413569D01*
X131494866Y-89444890D01*
X131472339Y-89472339D01*
X131444890Y-89494866D01*
X131413569Y-89511607D01*
X131379591Y-89521915D01*
X131338110Y-89526000D01*
X130736890Y-89526000D01*
X130695409Y-89521915D01*
X130661431Y-89511607D01*
X130630110Y-89494866D01*
X130602661Y-89472339D01*
X130580134Y-89444890D01*
X130563393Y-89413569D01*
X130553085Y-89379591D01*
X130549000Y-89338110D01*
X130549000Y-88661890D01*
X130553085Y-88620409D01*
X130563393Y-88586431D01*
X130580134Y-88555110D01*
X130602661Y-88527661D01*
X130630110Y-88505134D01*
X130661431Y-88488393D01*
X130695409Y-88478085D01*
X130736890Y-88474000D01*
X131338110Y-88474000D01*
X131379591Y-88478085D01*
G37*
G36*
X129804591Y-88478085D02*
G01*
X129838569Y-88488393D01*
X129869890Y-88505134D01*
X129897339Y-88527661D01*
X129919866Y-88555110D01*
X129936607Y-88586431D01*
X129946915Y-88620409D01*
X129951000Y-88661890D01*
X129951000Y-89338110D01*
X129946915Y-89379591D01*
X129936607Y-89413569D01*
X129919866Y-89444890D01*
X129897339Y-89472339D01*
X129869890Y-89494866D01*
X129838569Y-89511607D01*
X129804591Y-89521915D01*
X129763110Y-89526000D01*
X129161890Y-89526000D01*
X129120409Y-89521915D01*
X129086431Y-89511607D01*
X129055110Y-89494866D01*
X129027661Y-89472339D01*
X129005134Y-89444890D01*
X128988393Y-89413569D01*
X128978085Y-89379591D01*
X128974000Y-89338110D01*
X128974000Y-88661890D01*
X128978085Y-88620409D01*
X128988393Y-88586431D01*
X129005134Y-88555110D01*
X129027661Y-88527661D01*
X129055110Y-88505134D01*
X129086431Y-88488393D01*
X129120409Y-88478085D01*
X129161890Y-88474000D01*
X129763110Y-88474000D01*
X129804591Y-88478085D01*
G37*
G36*
X138801000Y-89201000D02*
G01*
X136199000Y-89201000D01*
X136199000Y-87199000D01*
X138801000Y-87199000D01*
X138801000Y-89201000D01*
G37*
G36*
X122536938Y-88381716D02*
G01*
X122557557Y-88387971D01*
X122576553Y-88398124D01*
X122593208Y-88411792D01*
X122606876Y-88428447D01*
X122617029Y-88447443D01*
X122623284Y-88468062D01*
X122626000Y-88495640D01*
X122626000Y-89004360D01*
X122623284Y-89031938D01*
X122617029Y-89052557D01*
X122606876Y-89071553D01*
X122593208Y-89088208D01*
X122576553Y-89101876D01*
X122557557Y-89112029D01*
X122536938Y-89118284D01*
X122509360Y-89121000D01*
X122050640Y-89121000D01*
X122023062Y-89118284D01*
X122002443Y-89112029D01*
X121983447Y-89101876D01*
X121966792Y-89088208D01*
X121953124Y-89071553D01*
X121942971Y-89052557D01*
X121936716Y-89031938D01*
X121934000Y-89004360D01*
X121934000Y-88495640D01*
X121936716Y-88468062D01*
X121942971Y-88447443D01*
X121953124Y-88428447D01*
X121966792Y-88411792D01*
X121983447Y-88398124D01*
X122002443Y-88387971D01*
X122023062Y-88381716D01*
X122050640Y-88379000D01*
X122509360Y-88379000D01*
X122536938Y-88381716D01*
G37*
G36*
X123506938Y-88381716D02*
G01*
X123527557Y-88387971D01*
X123546553Y-88398124D01*
X123563208Y-88411792D01*
X123576876Y-88428447D01*
X123587029Y-88447443D01*
X123593284Y-88468062D01*
X123596000Y-88495640D01*
X123596000Y-89004360D01*
X123593284Y-89031938D01*
X123587029Y-89052557D01*
X123576876Y-89071553D01*
X123563208Y-89088208D01*
X123546553Y-89101876D01*
X123527557Y-89112029D01*
X123506938Y-89118284D01*
X123479360Y-89121000D01*
X123020640Y-89121000D01*
X122993062Y-89118284D01*
X122972443Y-89112029D01*
X122953447Y-89101876D01*
X122936792Y-89088208D01*
X122923124Y-89071553D01*
X122912971Y-89052557D01*
X122906716Y-89031938D01*
X122904000Y-89004360D01*
X122904000Y-88495640D01*
X122906716Y-88468062D01*
X122912971Y-88447443D01*
X122923124Y-88428447D01*
X122936792Y-88411792D01*
X122953447Y-88398124D01*
X122972443Y-88387971D01*
X122993062Y-88381716D01*
X123020640Y-88379000D01*
X123479360Y-88379000D01*
X123506938Y-88381716D01*
G37*
G36*
X117879591Y-87803085D02*
G01*
X117913569Y-87813393D01*
X117944890Y-87830134D01*
X117972339Y-87852661D01*
X117994866Y-87880110D01*
X118011607Y-87911431D01*
X118021915Y-87945409D01*
X118026000Y-87986890D01*
X118026000Y-88588110D01*
X118021915Y-88629591D01*
X118011607Y-88663569D01*
X117994866Y-88694890D01*
X117972339Y-88722339D01*
X117944890Y-88744866D01*
X117913569Y-88761607D01*
X117879591Y-88771915D01*
X117838110Y-88776000D01*
X117161890Y-88776000D01*
X117120409Y-88771915D01*
X117086431Y-88761607D01*
X117055110Y-88744866D01*
X117027661Y-88722339D01*
X117005134Y-88694890D01*
X116988393Y-88663569D01*
X116978085Y-88629591D01*
X116974000Y-88588110D01*
X116974000Y-87986890D01*
X116978085Y-87945409D01*
X116988393Y-87911431D01*
X117005134Y-87880110D01*
X117027661Y-87852661D01*
X117055110Y-87830134D01*
X117086431Y-87813393D01*
X117120409Y-87803085D01*
X117161890Y-87799000D01*
X117838110Y-87799000D01*
X117879591Y-87803085D01*
G37*
G36*
X119629591Y-87765585D02*
G01*
X119663569Y-87775893D01*
X119694890Y-87792634D01*
X119722339Y-87815161D01*
X119744866Y-87842610D01*
X119761607Y-87873931D01*
X119771915Y-87907909D01*
X119776000Y-87949390D01*
X119776000Y-88550610D01*
X119771915Y-88592091D01*
X119761607Y-88626069D01*
X119744866Y-88657390D01*
X119722339Y-88684839D01*
X119694890Y-88707366D01*
X119663569Y-88724107D01*
X119629591Y-88734415D01*
X119588110Y-88738500D01*
X118911890Y-88738500D01*
X118870409Y-88734415D01*
X118836431Y-88724107D01*
X118805110Y-88707366D01*
X118777661Y-88684839D01*
X118755134Y-88657390D01*
X118738393Y-88626069D01*
X118728085Y-88592091D01*
X118724000Y-88550610D01*
X118724000Y-87949390D01*
X118728085Y-87907909D01*
X118738393Y-87873931D01*
X118755134Y-87842610D01*
X118777661Y-87815161D01*
X118805110Y-87792634D01*
X118836431Y-87775893D01*
X118870409Y-87765585D01*
X118911890Y-87761500D01*
X119588110Y-87761500D01*
X119629591Y-87765585D01*
G37*
G36*
X145293604Y-86303347D02*
G01*
X145330144Y-86314432D01*
X145363821Y-86332433D01*
X145393341Y-86356659D01*
X145417567Y-86386179D01*
X145435568Y-86419856D01*
X145446653Y-86456396D01*
X145451000Y-86500538D01*
X145451000Y-87949462D01*
X145446653Y-87993604D01*
X145435568Y-88030144D01*
X145417567Y-88063821D01*
X145393341Y-88093341D01*
X145363821Y-88117567D01*
X145330144Y-88135568D01*
X145293604Y-88146653D01*
X145249462Y-88151000D01*
X144300538Y-88151000D01*
X144256396Y-88146653D01*
X144219856Y-88135568D01*
X144186179Y-88117567D01*
X144156659Y-88093341D01*
X144132433Y-88063821D01*
X144114432Y-88030144D01*
X144103347Y-87993604D01*
X144099000Y-87949462D01*
X144099000Y-86500538D01*
X144103347Y-86456396D01*
X144114432Y-86419856D01*
X144132433Y-86386179D01*
X144156659Y-86356659D01*
X144186179Y-86332433D01*
X144219856Y-86314432D01*
X144256396Y-86303347D01*
X144300538Y-86299000D01*
X145249462Y-86299000D01*
X145293604Y-86303347D01*
G37*
G36*
X148093604Y-86303347D02*
G01*
X148130144Y-86314432D01*
X148163821Y-86332433D01*
X148193341Y-86356659D01*
X148217567Y-86386179D01*
X148235568Y-86419856D01*
X148246653Y-86456396D01*
X148251000Y-86500538D01*
X148251000Y-87949462D01*
X148246653Y-87993604D01*
X148235568Y-88030144D01*
X148217567Y-88063821D01*
X148193341Y-88093341D01*
X148163821Y-88117567D01*
X148130144Y-88135568D01*
X148093604Y-88146653D01*
X148049462Y-88151000D01*
X147100538Y-88151000D01*
X147056396Y-88146653D01*
X147019856Y-88135568D01*
X146986179Y-88117567D01*
X146956659Y-88093341D01*
X146932433Y-88063821D01*
X146914432Y-88030144D01*
X146903347Y-87993604D01*
X146899000Y-87949462D01*
X146899000Y-86500538D01*
X146903347Y-86456396D01*
X146914432Y-86419856D01*
X146932433Y-86386179D01*
X146956659Y-86356659D01*
X146986179Y-86332433D01*
X147019856Y-86314432D01*
X147056396Y-86303347D01*
X147100538Y-86299000D01*
X148049462Y-86299000D01*
X148093604Y-86303347D01*
G37*
G36*
X131991938Y-86881716D02*
G01*
X132012557Y-86887971D01*
X132031553Y-86898124D01*
X132048208Y-86911792D01*
X132061876Y-86928447D01*
X132072029Y-86947443D01*
X132078284Y-86968062D01*
X132081000Y-86995640D01*
X132081000Y-87504360D01*
X132078284Y-87531938D01*
X132072029Y-87552557D01*
X132061876Y-87571553D01*
X132048208Y-87588208D01*
X132031553Y-87601876D01*
X132012557Y-87612029D01*
X131991938Y-87618284D01*
X131964360Y-87621000D01*
X131505640Y-87621000D01*
X131478062Y-87618284D01*
X131457443Y-87612029D01*
X131438447Y-87601876D01*
X131421792Y-87588208D01*
X131408124Y-87571553D01*
X131397971Y-87552557D01*
X131391716Y-87531938D01*
X131389000Y-87504360D01*
X131389000Y-86995640D01*
X131391716Y-86968062D01*
X131397971Y-86947443D01*
X131408124Y-86928447D01*
X131421792Y-86911792D01*
X131438447Y-86898124D01*
X131457443Y-86887971D01*
X131478062Y-86881716D01*
X131505640Y-86879000D01*
X131964360Y-86879000D01*
X131991938Y-86881716D01*
G37*
G36*
X131021938Y-86881716D02*
G01*
X131042557Y-86887971D01*
X131061553Y-86898124D01*
X131078208Y-86911792D01*
X131091876Y-86928447D01*
X131102029Y-86947443D01*
X131108284Y-86968062D01*
X131111000Y-86995640D01*
X131111000Y-87504360D01*
X131108284Y-87531938D01*
X131102029Y-87552557D01*
X131091876Y-87571553D01*
X131078208Y-87588208D01*
X131061553Y-87601876D01*
X131042557Y-87612029D01*
X131021938Y-87618284D01*
X130994360Y-87621000D01*
X130535640Y-87621000D01*
X130508062Y-87618284D01*
X130487443Y-87612029D01*
X130468447Y-87601876D01*
X130451792Y-87588208D01*
X130438124Y-87571553D01*
X130427971Y-87552557D01*
X130421716Y-87531938D01*
X130419000Y-87504360D01*
X130419000Y-86995640D01*
X130421716Y-86968062D01*
X130427971Y-86947443D01*
X130438124Y-86928447D01*
X130451792Y-86911792D01*
X130468447Y-86898124D01*
X130487443Y-86887971D01*
X130508062Y-86881716D01*
X130535640Y-86879000D01*
X130994360Y-86879000D01*
X131021938Y-86881716D01*
G37*
G36*
X122170295Y-85850323D02*
G01*
X122177309Y-85852451D01*
X122191077Y-85859810D01*
X122213716Y-85869187D01*
X122237749Y-85873967D01*
X122262253Y-85873967D01*
X122286286Y-85869186D01*
X122308923Y-85859810D01*
X122322691Y-85852451D01*
X122329705Y-85850323D01*
X122343140Y-85849000D01*
X122656860Y-85849000D01*
X122670295Y-85850323D01*
X122677309Y-85852451D01*
X122691077Y-85859810D01*
X122713716Y-85869187D01*
X122737749Y-85873967D01*
X122762253Y-85873967D01*
X122786286Y-85869186D01*
X122808923Y-85859810D01*
X122822691Y-85852451D01*
X122829705Y-85850323D01*
X122843140Y-85849000D01*
X123156860Y-85849000D01*
X123170295Y-85850323D01*
X123177309Y-85852451D01*
X123191077Y-85859810D01*
X123213716Y-85869187D01*
X123237749Y-85873967D01*
X123262253Y-85873967D01*
X123286286Y-85869186D01*
X123308923Y-85859810D01*
X123322691Y-85852451D01*
X123329705Y-85850323D01*
X123343140Y-85849000D01*
X123656860Y-85849000D01*
X123670295Y-85850323D01*
X123677309Y-85852451D01*
X123691077Y-85859810D01*
X123713716Y-85869187D01*
X123737749Y-85873967D01*
X123762253Y-85873967D01*
X123786286Y-85869186D01*
X123808923Y-85859810D01*
X123822691Y-85852451D01*
X123829705Y-85850323D01*
X123843140Y-85849000D01*
X124156860Y-85849000D01*
X124170295Y-85850323D01*
X124177309Y-85852451D01*
X124191077Y-85859810D01*
X124213716Y-85869187D01*
X124237749Y-85873967D01*
X124262253Y-85873967D01*
X124286286Y-85869186D01*
X124308923Y-85859810D01*
X124322691Y-85852451D01*
X124329705Y-85850323D01*
X124343140Y-85849000D01*
X124656860Y-85849000D01*
X124670295Y-85850323D01*
X124677309Y-85852451D01*
X124691077Y-85859810D01*
X124713716Y-85869187D01*
X124737749Y-85873967D01*
X124762253Y-85873967D01*
X124786286Y-85869186D01*
X124808923Y-85859810D01*
X124822691Y-85852451D01*
X124829705Y-85850323D01*
X124843140Y-85849000D01*
X125156860Y-85849000D01*
X125170295Y-85850323D01*
X125177309Y-85852451D01*
X125191077Y-85859810D01*
X125213716Y-85869187D01*
X125237749Y-85873967D01*
X125262253Y-85873967D01*
X125286286Y-85869186D01*
X125308923Y-85859810D01*
X125322691Y-85852451D01*
X125329705Y-85850323D01*
X125343140Y-85849000D01*
X125656860Y-85849000D01*
X125670295Y-85850323D01*
X125677309Y-85852451D01*
X125691077Y-85859810D01*
X125713716Y-85869187D01*
X125737749Y-85873967D01*
X125762253Y-85873967D01*
X125786286Y-85869186D01*
X125808923Y-85859810D01*
X125822691Y-85852451D01*
X125829705Y-85850323D01*
X125843140Y-85849000D01*
X126156860Y-85849000D01*
X126170295Y-85850323D01*
X126177309Y-85852451D01*
X126191077Y-85859810D01*
X126213716Y-85869187D01*
X126237749Y-85873967D01*
X126262253Y-85873967D01*
X126286286Y-85869186D01*
X126308923Y-85859810D01*
X126322691Y-85852451D01*
X126329705Y-85850323D01*
X126343140Y-85849000D01*
X126656860Y-85849000D01*
X126670295Y-85850323D01*
X126677309Y-85852451D01*
X126691077Y-85859810D01*
X126713716Y-85869187D01*
X126737749Y-85873967D01*
X126762253Y-85873967D01*
X126786286Y-85869186D01*
X126808923Y-85859810D01*
X126822691Y-85852451D01*
X126829705Y-85850323D01*
X126843140Y-85849000D01*
X127156860Y-85849000D01*
X127170295Y-85850323D01*
X127177309Y-85852451D01*
X127191077Y-85859810D01*
X127213716Y-85869187D01*
X127237749Y-85873967D01*
X127262253Y-85873967D01*
X127286286Y-85869186D01*
X127308923Y-85859810D01*
X127322691Y-85852451D01*
X127329705Y-85850323D01*
X127343140Y-85849000D01*
X127656860Y-85849000D01*
X127670295Y-85850323D01*
X127677309Y-85852451D01*
X127691077Y-85859810D01*
X127713716Y-85869187D01*
X127737749Y-85873967D01*
X127762253Y-85873967D01*
X127786286Y-85869186D01*
X127808923Y-85859810D01*
X127822691Y-85852451D01*
X127829705Y-85850323D01*
X127843140Y-85849000D01*
X128156860Y-85849000D01*
X128170295Y-85850323D01*
X128177309Y-85852451D01*
X128191077Y-85859810D01*
X128213716Y-85869187D01*
X128237749Y-85873967D01*
X128262253Y-85873967D01*
X128286286Y-85869186D01*
X128308923Y-85859810D01*
X128322691Y-85852451D01*
X128329705Y-85850323D01*
X128343140Y-85849000D01*
X128656860Y-85849000D01*
X128670295Y-85850323D01*
X128677309Y-85852451D01*
X128691077Y-85859810D01*
X128713716Y-85869187D01*
X128737749Y-85873967D01*
X128762253Y-85873967D01*
X128786286Y-85869186D01*
X128808923Y-85859810D01*
X128822691Y-85852451D01*
X128829705Y-85850323D01*
X128843140Y-85849000D01*
X129156860Y-85849000D01*
X129170295Y-85850323D01*
X129177309Y-85852451D01*
X129191077Y-85859810D01*
X129213716Y-85869187D01*
X129237749Y-85873967D01*
X129262253Y-85873967D01*
X129286286Y-85869186D01*
X129308923Y-85859810D01*
X129322691Y-85852451D01*
X129329705Y-85850323D01*
X129343140Y-85849000D01*
X129656860Y-85849000D01*
X129670295Y-85850323D01*
X129677310Y-85852451D01*
X129683776Y-85855908D01*
X129689442Y-85860558D01*
X129694092Y-85866224D01*
X129697549Y-85872690D01*
X129699677Y-85879705D01*
X129701000Y-85893140D01*
X129701000Y-87456860D01*
X129699677Y-87470295D01*
X129697549Y-87477310D01*
X129694092Y-87483776D01*
X129689442Y-87489442D01*
X129683776Y-87494092D01*
X129677310Y-87497549D01*
X129670295Y-87499677D01*
X129656860Y-87501000D01*
X129343140Y-87501000D01*
X129329705Y-87499677D01*
X129322691Y-87497549D01*
X129308923Y-87490190D01*
X129286284Y-87480813D01*
X129262251Y-87476033D01*
X129237747Y-87476033D01*
X129213714Y-87480814D01*
X129191077Y-87490190D01*
X129177309Y-87497549D01*
X129170295Y-87499677D01*
X129156860Y-87501000D01*
X128843140Y-87501000D01*
X128829705Y-87499677D01*
X128822691Y-87497549D01*
X128808923Y-87490190D01*
X128786284Y-87480813D01*
X128762251Y-87476033D01*
X128737747Y-87476033D01*
X128713714Y-87480814D01*
X128691077Y-87490190D01*
X128677309Y-87497549D01*
X128670295Y-87499677D01*
X128656860Y-87501000D01*
X128343140Y-87501000D01*
X128329705Y-87499677D01*
X128322691Y-87497549D01*
X128308923Y-87490190D01*
X128286284Y-87480813D01*
X128262251Y-87476033D01*
X128237747Y-87476033D01*
X128213714Y-87480814D01*
X128191077Y-87490190D01*
X128177309Y-87497549D01*
X128170295Y-87499677D01*
X128156860Y-87501000D01*
X127843140Y-87501000D01*
X127829705Y-87499677D01*
X127822691Y-87497549D01*
X127808923Y-87490190D01*
X127786284Y-87480813D01*
X127762251Y-87476033D01*
X127737747Y-87476033D01*
X127713714Y-87480814D01*
X127691077Y-87490190D01*
X127677309Y-87497549D01*
X127670295Y-87499677D01*
X127656860Y-87501000D01*
X127343140Y-87501000D01*
X127329705Y-87499677D01*
X127322691Y-87497549D01*
X127308923Y-87490190D01*
X127286284Y-87480813D01*
X127262251Y-87476033D01*
X127237747Y-87476033D01*
X127213714Y-87480814D01*
X127191077Y-87490190D01*
X127177309Y-87497549D01*
X127170295Y-87499677D01*
X127156860Y-87501000D01*
X126843140Y-87501000D01*
X126829705Y-87499677D01*
X126822691Y-87497549D01*
X126808923Y-87490190D01*
X126786284Y-87480813D01*
X126762251Y-87476033D01*
X126737747Y-87476033D01*
X126713714Y-87480814D01*
X126691077Y-87490190D01*
X126677309Y-87497549D01*
X126670295Y-87499677D01*
X126656860Y-87501000D01*
X126343140Y-87501000D01*
X126329705Y-87499677D01*
X126322691Y-87497549D01*
X126308923Y-87490190D01*
X126286284Y-87480813D01*
X126262251Y-87476033D01*
X126237747Y-87476033D01*
X126213714Y-87480814D01*
X126191077Y-87490190D01*
X126177309Y-87497549D01*
X126170295Y-87499677D01*
X126156860Y-87501000D01*
X125843140Y-87501000D01*
X125829705Y-87499677D01*
X125822691Y-87497549D01*
X125808923Y-87490190D01*
X125786284Y-87480813D01*
X125762251Y-87476033D01*
X125737747Y-87476033D01*
X125713714Y-87480814D01*
X125691077Y-87490190D01*
X125677309Y-87497549D01*
X125670295Y-87499677D01*
X125656860Y-87501000D01*
X125343140Y-87501000D01*
X125329705Y-87499677D01*
X125322691Y-87497549D01*
X125308923Y-87490190D01*
X125286284Y-87480813D01*
X125262251Y-87476033D01*
X125237747Y-87476033D01*
X125213714Y-87480814D01*
X125191077Y-87490190D01*
X125177309Y-87497549D01*
X125170295Y-87499677D01*
X125156860Y-87501000D01*
X124843140Y-87501000D01*
X124829705Y-87499677D01*
X124822691Y-87497549D01*
X124808923Y-87490190D01*
X124786284Y-87480813D01*
X124762251Y-87476033D01*
X124737747Y-87476033D01*
X124713714Y-87480814D01*
X124691077Y-87490190D01*
X124677309Y-87497549D01*
X124670295Y-87499677D01*
X124656860Y-87501000D01*
X124343140Y-87501000D01*
X124329705Y-87499677D01*
X124322691Y-87497549D01*
X124308923Y-87490190D01*
X124286284Y-87480813D01*
X124262251Y-87476033D01*
X124237747Y-87476033D01*
X124213714Y-87480814D01*
X124191077Y-87490190D01*
X124177309Y-87497549D01*
X124170295Y-87499677D01*
X124156860Y-87501000D01*
X123843140Y-87501000D01*
X123829705Y-87499677D01*
X123822691Y-87497549D01*
X123808923Y-87490190D01*
X123786284Y-87480813D01*
X123762251Y-87476033D01*
X123737747Y-87476033D01*
X123713714Y-87480814D01*
X123691077Y-87490190D01*
X123677309Y-87497549D01*
X123670295Y-87499677D01*
X123656860Y-87501000D01*
X123343140Y-87501000D01*
X123329705Y-87499677D01*
X123322691Y-87497549D01*
X123308923Y-87490190D01*
X123286284Y-87480813D01*
X123262251Y-87476033D01*
X123237747Y-87476033D01*
X123213714Y-87480814D01*
X123191077Y-87490190D01*
X123177309Y-87497549D01*
X123170295Y-87499677D01*
X123156860Y-87501000D01*
X122843140Y-87501000D01*
X122829705Y-87499677D01*
X122822691Y-87497549D01*
X122808923Y-87490190D01*
X122786284Y-87480813D01*
X122762251Y-87476033D01*
X122737747Y-87476033D01*
X122713714Y-87480814D01*
X122691077Y-87490190D01*
X122677309Y-87497549D01*
X122670295Y-87499677D01*
X122656860Y-87501000D01*
X122343140Y-87501000D01*
X122329705Y-87499677D01*
X122322691Y-87497549D01*
X122308923Y-87490190D01*
X122286284Y-87480813D01*
X122262251Y-87476033D01*
X122237747Y-87476033D01*
X122213714Y-87480814D01*
X122191077Y-87490190D01*
X122177309Y-87497549D01*
X122170295Y-87499677D01*
X122156860Y-87501000D01*
X121843140Y-87501000D01*
X121829705Y-87499677D01*
X121822690Y-87497549D01*
X121816224Y-87494092D01*
X121810558Y-87489442D01*
X121805908Y-87483776D01*
X121802451Y-87477310D01*
X121800323Y-87470295D01*
X121799000Y-87456860D01*
X121799000Y-85893140D01*
X121800323Y-85879705D01*
X121802451Y-85872690D01*
X121805908Y-85866224D01*
X121810558Y-85860558D01*
X121816224Y-85855908D01*
X121822690Y-85852451D01*
X121829705Y-85850323D01*
X121843140Y-85849000D01*
X122156860Y-85849000D01*
X122170295Y-85850323D01*
G37*
G36*
X117879591Y-86228085D02*
G01*
X117913569Y-86238393D01*
X117944890Y-86255134D01*
X117972339Y-86277661D01*
X117994866Y-86305110D01*
X118011607Y-86336431D01*
X118021915Y-86370409D01*
X118026000Y-86411890D01*
X118026000Y-87013110D01*
X118021915Y-87054591D01*
X118011607Y-87088569D01*
X117994866Y-87119890D01*
X117972339Y-87147339D01*
X117944890Y-87169866D01*
X117913569Y-87186607D01*
X117879591Y-87196915D01*
X117838110Y-87201000D01*
X117161890Y-87201000D01*
X117120409Y-87196915D01*
X117086431Y-87186607D01*
X117055110Y-87169866D01*
X117027661Y-87147339D01*
X117005134Y-87119890D01*
X116988393Y-87088569D01*
X116978085Y-87054591D01*
X116974000Y-87013110D01*
X116974000Y-86411890D01*
X116978085Y-86370409D01*
X116988393Y-86336431D01*
X117005134Y-86305110D01*
X117027661Y-86277661D01*
X117055110Y-86255134D01*
X117086431Y-86238393D01*
X117120409Y-86228085D01*
X117161890Y-86224000D01*
X117838110Y-86224000D01*
X117879591Y-86228085D01*
G37*
G36*
X119629591Y-86190585D02*
G01*
X119663569Y-86200893D01*
X119694890Y-86217634D01*
X119722339Y-86240161D01*
X119744866Y-86267610D01*
X119761607Y-86298931D01*
X119771915Y-86332909D01*
X119776000Y-86374390D01*
X119776000Y-86975610D01*
X119771915Y-87017091D01*
X119761607Y-87051069D01*
X119744866Y-87082390D01*
X119722339Y-87109839D01*
X119694890Y-87132366D01*
X119663569Y-87149107D01*
X119629591Y-87159415D01*
X119588110Y-87163500D01*
X118911890Y-87163500D01*
X118870409Y-87159415D01*
X118836431Y-87149107D01*
X118805110Y-87132366D01*
X118777661Y-87109839D01*
X118755134Y-87082390D01*
X118738393Y-87051069D01*
X118728085Y-87017091D01*
X118724000Y-86975610D01*
X118724000Y-86374390D01*
X118728085Y-86332909D01*
X118738393Y-86298931D01*
X118755134Y-86267610D01*
X118777661Y-86240161D01*
X118805110Y-86217634D01*
X118836431Y-86200893D01*
X118870409Y-86190585D01*
X118911890Y-86186500D01*
X119588110Y-86186500D01*
X119629591Y-86190585D01*
G37*
G36*
X156894072Y-83950918D02*
G01*
X157100170Y-84036286D01*
X157139939Y-84052759D01*
X157227162Y-84111040D01*
X157361211Y-84200609D01*
X157549391Y-84388789D01*
X157588582Y-84447443D01*
X157685935Y-84593140D01*
X157697242Y-84610063D01*
X157799082Y-84855928D01*
X157851000Y-85116937D01*
X157851000Y-85383063D01*
X157799082Y-85644072D01*
X157713651Y-85850323D01*
X157697241Y-85889939D01*
X157670544Y-85929893D01*
X157549391Y-86111211D01*
X157361211Y-86299391D01*
X157275504Y-86356659D01*
X157139939Y-86447241D01*
X157139938Y-86447242D01*
X157139937Y-86447242D01*
X156894072Y-86549082D01*
X156633063Y-86601000D01*
X156366937Y-86601000D01*
X156105928Y-86549082D01*
X155860063Y-86447242D01*
X155860062Y-86447242D01*
X155860061Y-86447241D01*
X155724496Y-86356659D01*
X155638789Y-86299391D01*
X155450609Y-86111211D01*
X155329456Y-85929893D01*
X155302759Y-85889939D01*
X155286350Y-85850323D01*
X155200918Y-85644072D01*
X155149000Y-85383063D01*
X155149000Y-85116937D01*
X155200918Y-84855928D01*
X155302758Y-84610063D01*
X155314066Y-84593140D01*
X155411418Y-84447443D01*
X155450609Y-84388789D01*
X155638789Y-84200609D01*
X155772838Y-84111040D01*
X155860061Y-84052759D01*
X155899831Y-84036286D01*
X156105928Y-83950918D01*
X156366937Y-83899000D01*
X156633063Y-83899000D01*
X156894072Y-83950918D01*
G37*
G36*
X138101000Y-86151000D02*
G01*
X137099000Y-86151000D01*
X137099000Y-84849000D01*
X138101000Y-84849000D01*
X138101000Y-86151000D01*
G37*
G36*
X141401000Y-86151000D02*
G01*
X140399000Y-86151000D01*
X140399000Y-84849000D01*
X141401000Y-84849000D01*
X141401000Y-86151000D01*
G37*
G36*
X148451000Y-85251000D02*
G01*
X147549000Y-85251000D01*
X147549000Y-84249000D01*
X148451000Y-84249000D01*
X148451000Y-85251000D01*
G37*
G36*
X145334468Y-84153565D02*
G01*
X145373138Y-84165296D01*
X145408777Y-84184346D01*
X145440017Y-84209983D01*
X145465654Y-84241223D01*
X145484704Y-84276862D01*
X145496435Y-84315532D01*
X145501000Y-84361888D01*
X145501000Y-85013112D01*
X145496435Y-85059468D01*
X145484704Y-85098138D01*
X145465654Y-85133777D01*
X145440017Y-85165017D01*
X145408777Y-85190654D01*
X145373138Y-85209704D01*
X145334468Y-85221435D01*
X145288112Y-85226000D01*
X144211888Y-85226000D01*
X144165532Y-85221435D01*
X144126862Y-85209704D01*
X144091223Y-85190654D01*
X144059983Y-85165017D01*
X144034346Y-85133777D01*
X144015296Y-85098138D01*
X144003565Y-85059468D01*
X143999000Y-85013112D01*
X143999000Y-84361888D01*
X144003565Y-84315532D01*
X144015296Y-84276862D01*
X144034346Y-84241223D01*
X144059983Y-84209983D01*
X144091223Y-84184346D01*
X144126862Y-84165296D01*
X144165532Y-84153565D01*
X144211888Y-84149000D01*
X145288112Y-84149000D01*
X145334468Y-84153565D01*
G37*
G36*
X116006938Y-84381716D02*
G01*
X116027557Y-84387971D01*
X116046553Y-84398124D01*
X116063208Y-84411792D01*
X116076876Y-84428447D01*
X116087029Y-84447443D01*
X116093284Y-84468062D01*
X116096000Y-84495640D01*
X116096000Y-85004360D01*
X116093284Y-85031938D01*
X116087029Y-85052557D01*
X116076876Y-85071553D01*
X116063208Y-85088208D01*
X116046553Y-85101876D01*
X116027557Y-85112029D01*
X116006938Y-85118284D01*
X115979360Y-85121000D01*
X115520640Y-85121000D01*
X115493062Y-85118284D01*
X115472443Y-85112029D01*
X115453447Y-85101876D01*
X115436792Y-85088208D01*
X115423124Y-85071553D01*
X115412971Y-85052557D01*
X115406716Y-85031938D01*
X115404000Y-85004360D01*
X115404000Y-84495640D01*
X115406716Y-84468062D01*
X115412971Y-84447443D01*
X115423124Y-84428447D01*
X115436792Y-84411792D01*
X115453447Y-84398124D01*
X115472443Y-84387971D01*
X115493062Y-84381716D01*
X115520640Y-84379000D01*
X115979360Y-84379000D01*
X116006938Y-84381716D01*
G37*
G36*
X115036938Y-84381716D02*
G01*
X115057557Y-84387971D01*
X115076553Y-84398124D01*
X115093208Y-84411792D01*
X115106876Y-84428447D01*
X115117029Y-84447443D01*
X115123284Y-84468062D01*
X115126000Y-84495640D01*
X115126000Y-85004360D01*
X115123284Y-85031938D01*
X115117029Y-85052557D01*
X115106876Y-85071553D01*
X115093208Y-85088208D01*
X115076553Y-85101876D01*
X115057557Y-85112029D01*
X115036938Y-85118284D01*
X115009360Y-85121000D01*
X114550640Y-85121000D01*
X114523062Y-85118284D01*
X114502443Y-85112029D01*
X114483447Y-85101876D01*
X114466792Y-85088208D01*
X114453124Y-85071553D01*
X114442971Y-85052557D01*
X114436716Y-85031938D01*
X114434000Y-85004360D01*
X114434000Y-84495640D01*
X114436716Y-84468062D01*
X114442971Y-84447443D01*
X114453124Y-84428447D01*
X114466792Y-84411792D01*
X114483447Y-84398124D01*
X114502443Y-84387971D01*
X114523062Y-84381716D01*
X114550640Y-84379000D01*
X115009360Y-84379000D01*
X115036938Y-84381716D01*
G37*
G36*
X132220295Y-77050323D02*
G01*
X132227310Y-77052451D01*
X132233776Y-77055908D01*
X132239442Y-77060558D01*
X132244092Y-77066224D01*
X132247549Y-77072690D01*
X132249677Y-77079705D01*
X132251000Y-77093140D01*
X132251000Y-77406860D01*
X132249677Y-77420295D01*
X132247549Y-77427309D01*
X132240190Y-77441077D01*
X132230813Y-77463716D01*
X132226033Y-77487749D01*
X132226033Y-77512253D01*
X132230814Y-77536286D01*
X132240190Y-77558923D01*
X132247549Y-77572691D01*
X132249677Y-77579705D01*
X132251000Y-77593140D01*
X132251000Y-77906860D01*
X132249677Y-77920295D01*
X132247549Y-77927309D01*
X132240190Y-77941077D01*
X132230813Y-77963716D01*
X132226033Y-77987749D01*
X132226033Y-78012253D01*
X132230814Y-78036286D01*
X132240190Y-78058923D01*
X132247549Y-78072691D01*
X132249677Y-78079705D01*
X132251000Y-78093140D01*
X132251000Y-78406860D01*
X132249677Y-78420295D01*
X132247549Y-78427309D01*
X132240190Y-78441077D01*
X132230813Y-78463716D01*
X132226033Y-78487749D01*
X132226033Y-78512253D01*
X132230814Y-78536286D01*
X132240190Y-78558923D01*
X132247549Y-78572691D01*
X132249677Y-78579705D01*
X132251000Y-78593140D01*
X132251000Y-78906860D01*
X132249677Y-78920295D01*
X132247549Y-78927309D01*
X132240190Y-78941077D01*
X132230813Y-78963716D01*
X132226033Y-78987749D01*
X132226033Y-79012253D01*
X132230814Y-79036286D01*
X132240190Y-79058923D01*
X132247549Y-79072691D01*
X132249677Y-79079705D01*
X132251000Y-79093140D01*
X132251000Y-79406860D01*
X132249677Y-79420295D01*
X132247549Y-79427309D01*
X132240190Y-79441077D01*
X132230813Y-79463716D01*
X132226033Y-79487749D01*
X132226033Y-79512253D01*
X132230814Y-79536286D01*
X132240190Y-79558923D01*
X132247549Y-79572691D01*
X132249677Y-79579705D01*
X132251000Y-79593140D01*
X132251000Y-79906860D01*
X132249677Y-79920295D01*
X132247549Y-79927309D01*
X132240190Y-79941077D01*
X132230813Y-79963716D01*
X132226033Y-79987749D01*
X132226033Y-80012253D01*
X132230814Y-80036286D01*
X132240190Y-80058923D01*
X132247549Y-80072691D01*
X132249677Y-80079705D01*
X132251000Y-80093140D01*
X132251000Y-80406860D01*
X132249677Y-80420295D01*
X132247549Y-80427309D01*
X132240190Y-80441077D01*
X132230813Y-80463716D01*
X132226033Y-80487749D01*
X132226033Y-80512253D01*
X132230814Y-80536286D01*
X132240190Y-80558923D01*
X132247549Y-80572691D01*
X132249677Y-80579705D01*
X132251000Y-80593140D01*
X132251000Y-80906860D01*
X132249677Y-80920295D01*
X132247549Y-80927309D01*
X132240190Y-80941077D01*
X132230813Y-80963716D01*
X132226033Y-80987749D01*
X132226033Y-81012253D01*
X132230814Y-81036286D01*
X132240190Y-81058923D01*
X132247549Y-81072691D01*
X132249677Y-81079705D01*
X132251000Y-81093140D01*
X132251000Y-81406860D01*
X132249677Y-81420295D01*
X132247549Y-81427309D01*
X132240190Y-81441077D01*
X132230813Y-81463716D01*
X132226033Y-81487749D01*
X132226033Y-81512253D01*
X132230814Y-81536286D01*
X132240190Y-81558923D01*
X132247549Y-81572691D01*
X132249677Y-81579705D01*
X132251000Y-81593140D01*
X132251000Y-81906860D01*
X132249677Y-81920295D01*
X132247549Y-81927309D01*
X132240190Y-81941077D01*
X132230813Y-81963716D01*
X132226033Y-81987749D01*
X132226033Y-82012253D01*
X132230814Y-82036286D01*
X132240190Y-82058923D01*
X132247549Y-82072691D01*
X132249677Y-82079705D01*
X132251000Y-82093140D01*
X132251000Y-82406860D01*
X132249677Y-82420295D01*
X132247549Y-82427309D01*
X132240190Y-82441077D01*
X132230813Y-82463716D01*
X132226033Y-82487749D01*
X132226033Y-82512253D01*
X132230814Y-82536286D01*
X132240190Y-82558923D01*
X132247549Y-82572691D01*
X132249677Y-82579705D01*
X132251000Y-82593140D01*
X132251000Y-82906860D01*
X132249677Y-82920295D01*
X132247549Y-82927309D01*
X132240190Y-82941077D01*
X132230813Y-82963716D01*
X132226033Y-82987749D01*
X132226033Y-83012253D01*
X132230814Y-83036286D01*
X132240190Y-83058923D01*
X132247549Y-83072691D01*
X132249677Y-83079705D01*
X132251000Y-83093140D01*
X132251000Y-83406860D01*
X132249677Y-83420295D01*
X132247549Y-83427309D01*
X132240190Y-83441077D01*
X132230813Y-83463716D01*
X132226033Y-83487749D01*
X132226033Y-83512253D01*
X132230814Y-83536286D01*
X132240190Y-83558923D01*
X132247549Y-83572691D01*
X132249677Y-83579705D01*
X132251000Y-83593140D01*
X132251000Y-83906860D01*
X132249677Y-83920295D01*
X132247549Y-83927309D01*
X132240190Y-83941077D01*
X132230813Y-83963716D01*
X132226033Y-83987749D01*
X132226033Y-84012253D01*
X132230814Y-84036286D01*
X132240190Y-84058923D01*
X132247549Y-84072691D01*
X132249677Y-84079705D01*
X132251000Y-84093140D01*
X132251000Y-84406860D01*
X132249677Y-84420295D01*
X132247549Y-84427309D01*
X132240190Y-84441077D01*
X132230813Y-84463716D01*
X132226033Y-84487749D01*
X132226033Y-84512253D01*
X132230814Y-84536286D01*
X132240190Y-84558923D01*
X132247549Y-84572691D01*
X132249677Y-84579705D01*
X132251000Y-84593140D01*
X132251000Y-84906860D01*
X132249677Y-84920295D01*
X132247549Y-84927310D01*
X132244092Y-84933776D01*
X132239442Y-84939442D01*
X132233776Y-84944092D01*
X132227310Y-84947549D01*
X132220295Y-84949677D01*
X132206860Y-84951000D01*
X130643140Y-84951000D01*
X130629705Y-84949677D01*
X130622690Y-84947549D01*
X130616224Y-84944092D01*
X130610558Y-84939442D01*
X130605908Y-84933776D01*
X130602451Y-84927310D01*
X130600323Y-84920295D01*
X130599000Y-84906860D01*
X130599000Y-84593140D01*
X130600323Y-84579705D01*
X130602451Y-84572691D01*
X130609810Y-84558923D01*
X130619187Y-84536284D01*
X130623967Y-84512251D01*
X130623967Y-84487747D01*
X130619186Y-84463714D01*
X130609810Y-84441077D01*
X130602451Y-84427309D01*
X130600323Y-84420295D01*
X130599000Y-84406860D01*
X130599000Y-84093140D01*
X130600323Y-84079705D01*
X130602451Y-84072691D01*
X130609810Y-84058923D01*
X130619187Y-84036284D01*
X130623967Y-84012251D01*
X130623967Y-83987747D01*
X130619186Y-83963714D01*
X130609810Y-83941077D01*
X130602451Y-83927309D01*
X130600323Y-83920295D01*
X130599000Y-83906860D01*
X130599000Y-83593140D01*
X130600323Y-83579705D01*
X130602451Y-83572691D01*
X130609810Y-83558923D01*
X130619187Y-83536284D01*
X130623967Y-83512251D01*
X130623967Y-83487747D01*
X130619186Y-83463714D01*
X130609810Y-83441077D01*
X130602451Y-83427309D01*
X130600323Y-83420295D01*
X130599000Y-83406860D01*
X130599000Y-83093140D01*
X130600323Y-83079705D01*
X130602451Y-83072691D01*
X130609810Y-83058923D01*
X130619187Y-83036284D01*
X130623967Y-83012251D01*
X130623967Y-82987747D01*
X130619186Y-82963714D01*
X130609810Y-82941077D01*
X130602451Y-82927309D01*
X130600323Y-82920295D01*
X130599000Y-82906860D01*
X130599000Y-82593140D01*
X130600323Y-82579705D01*
X130602451Y-82572691D01*
X130609810Y-82558923D01*
X130619187Y-82536284D01*
X130623967Y-82512251D01*
X130623967Y-82487747D01*
X130619186Y-82463714D01*
X130609810Y-82441077D01*
X130602451Y-82427309D01*
X130600323Y-82420295D01*
X130599000Y-82406860D01*
X130599000Y-82093140D01*
X130600323Y-82079705D01*
X130602451Y-82072691D01*
X130609810Y-82058923D01*
X130619187Y-82036284D01*
X130623967Y-82012251D01*
X130623967Y-81987747D01*
X130619186Y-81963714D01*
X130609810Y-81941077D01*
X130602451Y-81927309D01*
X130600323Y-81920295D01*
X130599000Y-81906860D01*
X130599000Y-81593140D01*
X130600323Y-81579705D01*
X130602451Y-81572691D01*
X130609810Y-81558923D01*
X130619187Y-81536284D01*
X130623967Y-81512251D01*
X130623967Y-81487747D01*
X130619186Y-81463714D01*
X130609810Y-81441077D01*
X130602451Y-81427309D01*
X130600323Y-81420295D01*
X130599000Y-81406860D01*
X130599000Y-81093140D01*
X130600323Y-81079705D01*
X130602451Y-81072691D01*
X130609810Y-81058923D01*
X130619187Y-81036284D01*
X130623967Y-81012251D01*
X130623967Y-80987747D01*
X130619186Y-80963714D01*
X130609810Y-80941077D01*
X130602451Y-80927309D01*
X130600323Y-80920295D01*
X130599000Y-80906860D01*
X130599000Y-80593140D01*
X130600323Y-80579705D01*
X130602451Y-80572691D01*
X130609810Y-80558923D01*
X130619187Y-80536284D01*
X130623967Y-80512251D01*
X130623967Y-80487747D01*
X130619186Y-80463714D01*
X130609810Y-80441077D01*
X130602451Y-80427309D01*
X130600323Y-80420295D01*
X130599000Y-80406860D01*
X130599000Y-80093140D01*
X130600323Y-80079705D01*
X130602451Y-80072691D01*
X130609810Y-80058923D01*
X130619187Y-80036284D01*
X130623967Y-80012251D01*
X130623967Y-79987747D01*
X130619186Y-79963714D01*
X130609810Y-79941077D01*
X130602451Y-79927309D01*
X130600323Y-79920295D01*
X130599000Y-79906860D01*
X130599000Y-79593140D01*
X130600323Y-79579705D01*
X130602451Y-79572691D01*
X130609810Y-79558923D01*
X130619187Y-79536284D01*
X130623967Y-79512251D01*
X130623967Y-79487747D01*
X130619186Y-79463714D01*
X130609810Y-79441077D01*
X130602451Y-79427309D01*
X130600323Y-79420295D01*
X130599000Y-79406860D01*
X130599000Y-79093140D01*
X130600323Y-79079705D01*
X130602451Y-79072691D01*
X130609810Y-79058923D01*
X130619187Y-79036284D01*
X130623967Y-79012251D01*
X130623967Y-78987747D01*
X130619186Y-78963714D01*
X130609810Y-78941077D01*
X130602451Y-78927309D01*
X130600323Y-78920295D01*
X130599000Y-78906860D01*
X130599000Y-78593140D01*
X130600323Y-78579705D01*
X130602451Y-78572691D01*
X130609810Y-78558923D01*
X130619187Y-78536284D01*
X130623967Y-78512251D01*
X130623967Y-78487747D01*
X130619186Y-78463714D01*
X130609810Y-78441077D01*
X130602451Y-78427309D01*
X130600323Y-78420295D01*
X130599000Y-78406860D01*
X130599000Y-78093140D01*
X130600323Y-78079705D01*
X130602451Y-78072691D01*
X130609810Y-78058923D01*
X130619187Y-78036284D01*
X130623967Y-78012251D01*
X130623967Y-77987747D01*
X130619186Y-77963714D01*
X130609810Y-77941077D01*
X130602451Y-77927309D01*
X130600323Y-77920295D01*
X130599000Y-77906860D01*
X130599000Y-77593140D01*
X130600323Y-77579705D01*
X130602451Y-77572691D01*
X130609810Y-77558923D01*
X130619187Y-77536284D01*
X130623967Y-77512251D01*
X130623967Y-77487747D01*
X130619186Y-77463714D01*
X130609810Y-77441077D01*
X130602451Y-77427309D01*
X130600323Y-77420295D01*
X130599000Y-77406860D01*
X130599000Y-77093140D01*
X130600323Y-77079705D01*
X130602451Y-77072690D01*
X130605908Y-77066224D01*
X130610558Y-77060558D01*
X130616224Y-77055908D01*
X130622690Y-77052451D01*
X130629705Y-77050323D01*
X130643140Y-77049000D01*
X132206860Y-77049000D01*
X132220295Y-77050323D01*
G37*
G36*
X120870295Y-77050323D02*
G01*
X120877310Y-77052451D01*
X120883776Y-77055908D01*
X120889442Y-77060558D01*
X120894092Y-77066224D01*
X120897549Y-77072690D01*
X120899677Y-77079705D01*
X120901000Y-77093140D01*
X120901000Y-77406860D01*
X120899677Y-77420295D01*
X120897549Y-77427309D01*
X120890190Y-77441077D01*
X120880813Y-77463716D01*
X120876033Y-77487749D01*
X120876033Y-77512253D01*
X120880814Y-77536286D01*
X120890190Y-77558923D01*
X120897549Y-77572691D01*
X120899677Y-77579705D01*
X120901000Y-77593140D01*
X120901000Y-77906860D01*
X120899677Y-77920295D01*
X120897549Y-77927309D01*
X120890190Y-77941077D01*
X120880813Y-77963716D01*
X120876033Y-77987749D01*
X120876033Y-78012253D01*
X120880814Y-78036286D01*
X120890190Y-78058923D01*
X120897549Y-78072691D01*
X120899677Y-78079705D01*
X120901000Y-78093140D01*
X120901000Y-78406860D01*
X120899677Y-78420295D01*
X120897549Y-78427309D01*
X120890190Y-78441077D01*
X120880813Y-78463716D01*
X120876033Y-78487749D01*
X120876033Y-78512253D01*
X120880814Y-78536286D01*
X120890190Y-78558923D01*
X120897549Y-78572691D01*
X120899677Y-78579705D01*
X120901000Y-78593140D01*
X120901000Y-78906860D01*
X120899677Y-78920295D01*
X120897549Y-78927309D01*
X120890190Y-78941077D01*
X120880813Y-78963716D01*
X120876033Y-78987749D01*
X120876033Y-79012253D01*
X120880814Y-79036286D01*
X120890190Y-79058923D01*
X120897549Y-79072691D01*
X120899677Y-79079705D01*
X120901000Y-79093140D01*
X120901000Y-79406860D01*
X120899677Y-79420295D01*
X120897549Y-79427309D01*
X120890190Y-79441077D01*
X120880813Y-79463716D01*
X120876033Y-79487749D01*
X120876033Y-79512253D01*
X120880814Y-79536286D01*
X120890190Y-79558923D01*
X120897549Y-79572691D01*
X120899677Y-79579705D01*
X120901000Y-79593140D01*
X120901000Y-79906860D01*
X120899677Y-79920295D01*
X120897549Y-79927309D01*
X120890190Y-79941077D01*
X120880813Y-79963716D01*
X120876033Y-79987749D01*
X120876033Y-80012253D01*
X120880814Y-80036286D01*
X120890190Y-80058923D01*
X120897549Y-80072691D01*
X120899677Y-80079705D01*
X120901000Y-80093140D01*
X120901000Y-80406860D01*
X120899677Y-80420295D01*
X120897549Y-80427309D01*
X120890190Y-80441077D01*
X120880813Y-80463716D01*
X120876033Y-80487749D01*
X120876033Y-80512253D01*
X120880814Y-80536286D01*
X120890190Y-80558923D01*
X120897549Y-80572691D01*
X120899677Y-80579705D01*
X120901000Y-80593140D01*
X120901000Y-80906860D01*
X120899677Y-80920295D01*
X120897549Y-80927309D01*
X120890190Y-80941077D01*
X120880813Y-80963716D01*
X120876033Y-80987749D01*
X120876033Y-81012253D01*
X120880814Y-81036286D01*
X120890190Y-81058923D01*
X120897549Y-81072691D01*
X120899677Y-81079705D01*
X120901000Y-81093140D01*
X120901000Y-81406860D01*
X120899677Y-81420295D01*
X120897549Y-81427309D01*
X120890190Y-81441077D01*
X120880813Y-81463716D01*
X120876033Y-81487749D01*
X120876033Y-81512253D01*
X120880814Y-81536286D01*
X120890190Y-81558923D01*
X120897549Y-81572691D01*
X120899677Y-81579705D01*
X120901000Y-81593140D01*
X120901000Y-81906860D01*
X120899677Y-81920295D01*
X120897549Y-81927309D01*
X120890190Y-81941077D01*
X120880813Y-81963716D01*
X120876033Y-81987749D01*
X120876033Y-82012253D01*
X120880814Y-82036286D01*
X120890190Y-82058923D01*
X120897549Y-82072691D01*
X120899677Y-82079705D01*
X120901000Y-82093140D01*
X120901000Y-82406860D01*
X120899677Y-82420295D01*
X120897549Y-82427309D01*
X120890190Y-82441077D01*
X120880813Y-82463716D01*
X120876033Y-82487749D01*
X120876033Y-82512253D01*
X120880814Y-82536286D01*
X120890190Y-82558923D01*
X120897549Y-82572691D01*
X120899677Y-82579705D01*
X120901000Y-82593140D01*
X120901000Y-82906860D01*
X120899677Y-82920295D01*
X120897549Y-82927309D01*
X120890190Y-82941077D01*
X120880813Y-82963716D01*
X120876033Y-82987749D01*
X120876033Y-83012253D01*
X120880814Y-83036286D01*
X120890190Y-83058923D01*
X120897549Y-83072691D01*
X120899677Y-83079705D01*
X120901000Y-83093140D01*
X120901000Y-83406860D01*
X120899677Y-83420295D01*
X120897549Y-83427309D01*
X120890190Y-83441077D01*
X120880813Y-83463716D01*
X120876033Y-83487749D01*
X120876033Y-83512253D01*
X120880814Y-83536286D01*
X120890190Y-83558923D01*
X120897549Y-83572691D01*
X120899677Y-83579705D01*
X120901000Y-83593140D01*
X120901000Y-83906860D01*
X120899677Y-83920295D01*
X120897549Y-83927309D01*
X120890190Y-83941077D01*
X120880813Y-83963716D01*
X120876033Y-83987749D01*
X120876033Y-84012253D01*
X120880814Y-84036286D01*
X120890190Y-84058923D01*
X120897549Y-84072691D01*
X120899677Y-84079705D01*
X120901000Y-84093140D01*
X120901000Y-84406860D01*
X120899677Y-84420295D01*
X120897549Y-84427309D01*
X120890190Y-84441077D01*
X120880813Y-84463716D01*
X120876033Y-84487749D01*
X120876033Y-84512253D01*
X120880814Y-84536286D01*
X120890190Y-84558923D01*
X120897549Y-84572691D01*
X120899677Y-84579705D01*
X120901000Y-84593140D01*
X120901000Y-84906860D01*
X120899677Y-84920295D01*
X120897549Y-84927310D01*
X120894092Y-84933776D01*
X120889442Y-84939442D01*
X120883776Y-84944092D01*
X120877310Y-84947549D01*
X120870295Y-84949677D01*
X120856860Y-84951000D01*
X119293140Y-84951000D01*
X119279705Y-84949677D01*
X119272690Y-84947549D01*
X119266224Y-84944092D01*
X119260558Y-84939442D01*
X119255908Y-84933776D01*
X119252451Y-84927310D01*
X119250323Y-84920295D01*
X119249000Y-84906860D01*
X119249000Y-84593140D01*
X119250323Y-84579705D01*
X119252451Y-84572691D01*
X119259810Y-84558923D01*
X119269187Y-84536284D01*
X119273967Y-84512251D01*
X119273967Y-84487747D01*
X119269186Y-84463714D01*
X119259810Y-84441077D01*
X119252451Y-84427309D01*
X119250323Y-84420295D01*
X119249000Y-84406860D01*
X119249000Y-84093140D01*
X119250323Y-84079705D01*
X119252451Y-84072691D01*
X119259810Y-84058923D01*
X119269187Y-84036284D01*
X119273967Y-84012251D01*
X119273967Y-83987747D01*
X119269186Y-83963714D01*
X119259810Y-83941077D01*
X119252451Y-83927309D01*
X119250323Y-83920295D01*
X119249000Y-83906860D01*
X119249000Y-83593140D01*
X119250323Y-83579705D01*
X119252451Y-83572691D01*
X119259810Y-83558923D01*
X119269187Y-83536284D01*
X119273967Y-83512251D01*
X119273967Y-83487747D01*
X119269186Y-83463714D01*
X119259810Y-83441077D01*
X119252451Y-83427309D01*
X119250323Y-83420295D01*
X119249000Y-83406860D01*
X119249000Y-83093140D01*
X119250323Y-83079705D01*
X119252451Y-83072691D01*
X119259810Y-83058923D01*
X119269187Y-83036284D01*
X119273967Y-83012251D01*
X119273967Y-82987747D01*
X119269186Y-82963714D01*
X119259810Y-82941077D01*
X119252451Y-82927309D01*
X119250323Y-82920295D01*
X119249000Y-82906860D01*
X119249000Y-82593140D01*
X119250323Y-82579705D01*
X119252451Y-82572691D01*
X119259810Y-82558923D01*
X119269187Y-82536284D01*
X119273967Y-82512251D01*
X119273967Y-82487747D01*
X119269186Y-82463714D01*
X119259810Y-82441077D01*
X119252451Y-82427309D01*
X119250323Y-82420295D01*
X119249000Y-82406860D01*
X119249000Y-82093140D01*
X119250323Y-82079705D01*
X119252451Y-82072691D01*
X119259810Y-82058923D01*
X119269187Y-82036284D01*
X119273967Y-82012251D01*
X119273967Y-81987747D01*
X119269186Y-81963714D01*
X119259810Y-81941077D01*
X119252451Y-81927309D01*
X119250323Y-81920295D01*
X119249000Y-81906860D01*
X119249000Y-81593140D01*
X119250323Y-81579705D01*
X119252451Y-81572691D01*
X119259810Y-81558923D01*
X119269187Y-81536284D01*
X119273967Y-81512251D01*
X119273967Y-81487747D01*
X119269186Y-81463714D01*
X119259810Y-81441077D01*
X119252451Y-81427309D01*
X119250323Y-81420295D01*
X119249000Y-81406860D01*
X119249000Y-81093140D01*
X119250323Y-81079705D01*
X119252451Y-81072691D01*
X119259810Y-81058923D01*
X119269187Y-81036284D01*
X119273967Y-81012251D01*
X119273967Y-80987747D01*
X119269186Y-80963714D01*
X119259810Y-80941077D01*
X119252451Y-80927309D01*
X119250323Y-80920295D01*
X119249000Y-80906860D01*
X119249000Y-80593140D01*
X119250323Y-80579705D01*
X119252451Y-80572691D01*
X119259810Y-80558923D01*
X119269187Y-80536284D01*
X119273967Y-80512251D01*
X119273967Y-80487747D01*
X119269186Y-80463714D01*
X119259810Y-80441077D01*
X119252451Y-80427309D01*
X119250323Y-80420295D01*
X119249000Y-80406860D01*
X119249000Y-80093140D01*
X119250323Y-80079705D01*
X119252451Y-80072691D01*
X119259810Y-80058923D01*
X119269187Y-80036284D01*
X119273967Y-80012251D01*
X119273967Y-79987747D01*
X119269186Y-79963714D01*
X119259810Y-79941077D01*
X119252451Y-79927309D01*
X119250323Y-79920295D01*
X119249000Y-79906860D01*
X119249000Y-79593140D01*
X119250323Y-79579705D01*
X119252451Y-79572691D01*
X119259810Y-79558923D01*
X119269187Y-79536284D01*
X119273967Y-79512251D01*
X119273967Y-79487747D01*
X119269186Y-79463714D01*
X119259810Y-79441077D01*
X119252451Y-79427309D01*
X119250323Y-79420295D01*
X119249000Y-79406860D01*
X119249000Y-79093140D01*
X119250323Y-79079705D01*
X119252451Y-79072691D01*
X119259810Y-79058923D01*
X119269187Y-79036284D01*
X119273967Y-79012251D01*
X119273967Y-78987747D01*
X119269186Y-78963714D01*
X119259810Y-78941077D01*
X119252451Y-78927309D01*
X119250323Y-78920295D01*
X119249000Y-78906860D01*
X119249000Y-78593140D01*
X119250323Y-78579705D01*
X119252451Y-78572691D01*
X119259810Y-78558923D01*
X119269187Y-78536284D01*
X119273967Y-78512251D01*
X119273967Y-78487747D01*
X119269186Y-78463714D01*
X119259810Y-78441077D01*
X119252451Y-78427309D01*
X119250323Y-78420295D01*
X119249000Y-78406860D01*
X119249000Y-78093140D01*
X119250323Y-78079705D01*
X119252451Y-78072691D01*
X119259810Y-78058923D01*
X119269187Y-78036284D01*
X119273967Y-78012251D01*
X119273967Y-77987747D01*
X119269186Y-77963714D01*
X119259810Y-77941077D01*
X119252451Y-77927309D01*
X119250323Y-77920295D01*
X119249000Y-77906860D01*
X119249000Y-77593140D01*
X119250323Y-77579705D01*
X119252451Y-77572691D01*
X119259810Y-77558923D01*
X119269187Y-77536284D01*
X119273967Y-77512251D01*
X119273967Y-77487747D01*
X119269186Y-77463714D01*
X119259810Y-77441077D01*
X119252451Y-77427309D01*
X119250323Y-77420295D01*
X119249000Y-77406860D01*
X119249000Y-77093140D01*
X119250323Y-77079705D01*
X119252451Y-77072690D01*
X119255908Y-77066224D01*
X119260558Y-77060558D01*
X119266224Y-77055908D01*
X119272690Y-77052451D01*
X119279705Y-77050323D01*
X119293140Y-77049000D01*
X120856860Y-77049000D01*
X120870295Y-77050323D01*
G37*
G36*
X117031938Y-83141716D02*
G01*
X117052557Y-83147971D01*
X117071553Y-83158124D01*
X117088208Y-83171792D01*
X117101876Y-83188447D01*
X117112029Y-83207443D01*
X117118284Y-83228062D01*
X117121000Y-83255640D01*
X117121000Y-83714360D01*
X117118284Y-83741938D01*
X117112029Y-83762557D01*
X117101876Y-83781553D01*
X117088208Y-83798208D01*
X117071553Y-83811876D01*
X117052557Y-83822029D01*
X117031938Y-83828284D01*
X117004360Y-83831000D01*
X116495640Y-83831000D01*
X116468062Y-83828284D01*
X116447443Y-83822029D01*
X116428447Y-83811876D01*
X116411792Y-83798208D01*
X116398124Y-83781553D01*
X116387971Y-83762557D01*
X116381716Y-83741938D01*
X116379000Y-83714360D01*
X116379000Y-83255640D01*
X116381716Y-83228062D01*
X116387971Y-83207443D01*
X116398124Y-83188447D01*
X116411792Y-83171792D01*
X116428447Y-83158124D01*
X116447443Y-83147971D01*
X116468062Y-83141716D01*
X116495640Y-83139000D01*
X117004360Y-83139000D01*
X117031938Y-83141716D01*
G37*
G36*
X118281938Y-83141716D02*
G01*
X118302557Y-83147971D01*
X118321553Y-83158124D01*
X118338208Y-83171792D01*
X118351876Y-83188447D01*
X118362029Y-83207443D01*
X118368284Y-83228062D01*
X118371000Y-83255640D01*
X118371000Y-83714360D01*
X118368284Y-83741938D01*
X118362029Y-83762557D01*
X118351876Y-83781553D01*
X118338208Y-83798208D01*
X118321553Y-83811876D01*
X118302557Y-83822029D01*
X118281938Y-83828284D01*
X118254360Y-83831000D01*
X117745640Y-83831000D01*
X117718062Y-83828284D01*
X117697443Y-83822029D01*
X117678447Y-83811876D01*
X117661792Y-83798208D01*
X117648124Y-83781553D01*
X117637971Y-83762557D01*
X117631716Y-83741938D01*
X117629000Y-83714360D01*
X117629000Y-83255640D01*
X117631716Y-83228062D01*
X117637971Y-83207443D01*
X117648124Y-83188447D01*
X117661792Y-83171792D01*
X117678447Y-83158124D01*
X117697443Y-83147971D01*
X117718062Y-83141716D01*
X117745640Y-83139000D01*
X118254360Y-83139000D01*
X118281938Y-83141716D01*
G37*
G36*
X145334468Y-82278565D02*
G01*
X145373138Y-82290296D01*
X145408777Y-82309346D01*
X145440017Y-82334983D01*
X145465654Y-82366223D01*
X145484704Y-82401862D01*
X145496435Y-82440532D01*
X145501000Y-82486888D01*
X145501000Y-83138112D01*
X145496435Y-83184468D01*
X145484704Y-83223138D01*
X145465654Y-83258777D01*
X145440017Y-83290017D01*
X145408777Y-83315654D01*
X145373138Y-83334704D01*
X145334468Y-83346435D01*
X145288112Y-83351000D01*
X144211888Y-83351000D01*
X144165532Y-83346435D01*
X144126862Y-83334704D01*
X144091223Y-83315654D01*
X144059983Y-83290017D01*
X144034346Y-83258777D01*
X144015296Y-83223138D01*
X144003565Y-83184468D01*
X143999000Y-83138112D01*
X143999000Y-82486888D01*
X144003565Y-82440532D01*
X144015296Y-82401862D01*
X144034346Y-82366223D01*
X144059983Y-82334983D01*
X144091223Y-82309346D01*
X144126862Y-82290296D01*
X144165532Y-82278565D01*
X144211888Y-82274000D01*
X145288112Y-82274000D01*
X145334468Y-82278565D01*
G37*
G36*
X147501000Y-83251000D02*
G01*
X146599000Y-83251000D01*
X146599000Y-82249000D01*
X147501000Y-82249000D01*
X147501000Y-83251000D01*
G37*
G36*
X149401000Y-83251000D02*
G01*
X148499000Y-83251000D01*
X148499000Y-82249000D01*
X149401000Y-82249000D01*
X149401000Y-83251000D01*
G37*
G36*
X118281938Y-82171716D02*
G01*
X118302557Y-82177971D01*
X118321553Y-82188124D01*
X118338208Y-82201792D01*
X118351876Y-82218447D01*
X118362029Y-82237443D01*
X118368284Y-82258062D01*
X118371000Y-82285640D01*
X118371000Y-82744360D01*
X118368284Y-82771938D01*
X118362029Y-82792557D01*
X118351876Y-82811553D01*
X118338208Y-82828208D01*
X118321553Y-82841876D01*
X118302557Y-82852029D01*
X118281938Y-82858284D01*
X118254360Y-82861000D01*
X117745640Y-82861000D01*
X117718062Y-82858284D01*
X117697443Y-82852029D01*
X117678447Y-82841876D01*
X117661792Y-82828208D01*
X117648124Y-82811553D01*
X117637971Y-82792557D01*
X117631716Y-82771938D01*
X117629000Y-82744360D01*
X117629000Y-82285640D01*
X117631716Y-82258062D01*
X117637971Y-82237443D01*
X117648124Y-82218447D01*
X117661792Y-82201792D01*
X117678447Y-82188124D01*
X117697443Y-82177971D01*
X117718062Y-82171716D01*
X117745640Y-82169000D01*
X118254360Y-82169000D01*
X118281938Y-82171716D01*
G37*
G36*
X117031938Y-82171716D02*
G01*
X117052557Y-82177971D01*
X117071553Y-82188124D01*
X117088208Y-82201792D01*
X117101876Y-82218447D01*
X117112029Y-82237443D01*
X117118284Y-82258062D01*
X117121000Y-82285640D01*
X117121000Y-82744360D01*
X117118284Y-82771938D01*
X117112029Y-82792557D01*
X117101876Y-82811553D01*
X117088208Y-82828208D01*
X117071553Y-82841876D01*
X117052557Y-82852029D01*
X117031938Y-82858284D01*
X117004360Y-82861000D01*
X116495640Y-82861000D01*
X116468062Y-82858284D01*
X116447443Y-82852029D01*
X116428447Y-82841876D01*
X116411792Y-82828208D01*
X116398124Y-82811553D01*
X116387971Y-82792557D01*
X116381716Y-82771938D01*
X116379000Y-82744360D01*
X116379000Y-82285640D01*
X116381716Y-82258062D01*
X116387971Y-82237443D01*
X116398124Y-82218447D01*
X116411792Y-82201792D01*
X116428447Y-82188124D01*
X116447443Y-82177971D01*
X116468062Y-82171716D01*
X116495640Y-82169000D01*
X117004360Y-82169000D01*
X117031938Y-82171716D01*
G37*
G36*
X113696938Y-81656716D02*
G01*
X113717557Y-81662971D01*
X113736553Y-81673124D01*
X113753208Y-81686792D01*
X113766876Y-81703447D01*
X113777029Y-81722443D01*
X113783284Y-81743062D01*
X113786000Y-81770640D01*
X113786000Y-82279360D01*
X113783284Y-82306938D01*
X113777029Y-82327557D01*
X113766876Y-82346553D01*
X113753208Y-82363208D01*
X113736553Y-82376876D01*
X113717557Y-82387029D01*
X113696938Y-82393284D01*
X113669360Y-82396000D01*
X113210640Y-82396000D01*
X113183062Y-82393284D01*
X113162443Y-82387029D01*
X113143447Y-82376876D01*
X113126792Y-82363208D01*
X113113124Y-82346553D01*
X113102971Y-82327557D01*
X113096716Y-82306938D01*
X113094000Y-82279360D01*
X113094000Y-81770640D01*
X113096716Y-81743062D01*
X113102971Y-81722443D01*
X113113124Y-81703447D01*
X113126792Y-81686792D01*
X113143447Y-81673124D01*
X113162443Y-81662971D01*
X113183062Y-81656716D01*
X113210640Y-81654000D01*
X113669360Y-81654000D01*
X113696938Y-81656716D01*
G37*
G36*
X114666938Y-81656716D02*
G01*
X114687557Y-81662971D01*
X114706553Y-81673124D01*
X114723208Y-81686792D01*
X114736876Y-81703447D01*
X114747029Y-81722443D01*
X114753284Y-81743062D01*
X114756000Y-81770640D01*
X114756000Y-82279360D01*
X114753284Y-82306938D01*
X114747029Y-82327557D01*
X114736876Y-82346553D01*
X114723208Y-82363208D01*
X114706553Y-82376876D01*
X114687557Y-82387029D01*
X114666938Y-82393284D01*
X114639360Y-82396000D01*
X114180640Y-82396000D01*
X114153062Y-82393284D01*
X114132443Y-82387029D01*
X114113447Y-82376876D01*
X114096792Y-82363208D01*
X114083124Y-82346553D01*
X114072971Y-82327557D01*
X114066716Y-82306938D01*
X114064000Y-82279360D01*
X114064000Y-81770640D01*
X114066716Y-81743062D01*
X114072971Y-81722443D01*
X114083124Y-81703447D01*
X114096792Y-81686792D01*
X114113447Y-81673124D01*
X114132443Y-81662971D01*
X114153062Y-81656716D01*
X114180640Y-81654000D01*
X114639360Y-81654000D01*
X114666938Y-81656716D01*
G37*
G36*
X148118604Y-79578347D02*
G01*
X148155144Y-79589432D01*
X148188821Y-79607433D01*
X148218341Y-79631659D01*
X148242567Y-79661179D01*
X148260568Y-79694856D01*
X148271653Y-79731396D01*
X148276000Y-79775538D01*
X148276000Y-81224462D01*
X148271653Y-81268604D01*
X148260568Y-81305144D01*
X148242567Y-81338821D01*
X148218341Y-81368341D01*
X148188821Y-81392567D01*
X148155144Y-81410568D01*
X148118604Y-81421653D01*
X148074462Y-81426000D01*
X147125538Y-81426000D01*
X147081396Y-81421653D01*
X147044856Y-81410568D01*
X147011179Y-81392567D01*
X146981659Y-81368341D01*
X146957433Y-81338821D01*
X146939432Y-81305144D01*
X146928347Y-81268604D01*
X146924000Y-81224462D01*
X146924000Y-79775538D01*
X146928347Y-79731396D01*
X146939432Y-79694856D01*
X146957433Y-79661179D01*
X146981659Y-79631659D01*
X147011179Y-79607433D01*
X147044856Y-79589432D01*
X147081396Y-79578347D01*
X147125538Y-79574000D01*
X148074462Y-79574000D01*
X148118604Y-79578347D01*
G37*
G36*
X145318604Y-79578347D02*
G01*
X145355144Y-79589432D01*
X145388821Y-79607433D01*
X145418341Y-79631659D01*
X145442567Y-79661179D01*
X145460568Y-79694856D01*
X145471653Y-79731396D01*
X145476000Y-79775538D01*
X145476000Y-81224462D01*
X145471653Y-81268604D01*
X145460568Y-81305144D01*
X145442567Y-81338821D01*
X145418341Y-81368341D01*
X145388821Y-81392567D01*
X145355144Y-81410568D01*
X145318604Y-81421653D01*
X145274462Y-81426000D01*
X144325538Y-81426000D01*
X144281396Y-81421653D01*
X144244856Y-81410568D01*
X144211179Y-81392567D01*
X144181659Y-81368341D01*
X144157433Y-81338821D01*
X144139432Y-81305144D01*
X144128347Y-81268604D01*
X144124000Y-81224462D01*
X144124000Y-79775538D01*
X144128347Y-79731396D01*
X144139432Y-79694856D01*
X144157433Y-79661179D01*
X144181659Y-79631659D01*
X144211179Y-79607433D01*
X144244856Y-79589432D01*
X144281396Y-79578347D01*
X144325538Y-79574000D01*
X145274462Y-79574000D01*
X145318604Y-79578347D01*
G37*
G36*
X150301000Y-81151000D02*
G01*
X149299000Y-81151000D01*
X149299000Y-79849000D01*
X150301000Y-79849000D01*
X150301000Y-81151000D01*
G37*
G36*
X153601000Y-81151000D02*
G01*
X152599000Y-81151000D01*
X152599000Y-79849000D01*
X153601000Y-79849000D01*
X153601000Y-81151000D01*
G37*
G36*
X115426000Y-81126000D02*
G01*
X114124000Y-81126000D01*
X114124000Y-79624000D01*
X115426000Y-79624000D01*
X115426000Y-81126000D01*
G37*
G36*
X113726000Y-81126000D02*
G01*
X112424000Y-81126000D01*
X112424000Y-79624000D01*
X113726000Y-79624000D01*
X113726000Y-81126000D01*
G37*
G36*
X117741938Y-79631716D02*
G01*
X117762557Y-79637971D01*
X117781553Y-79648124D01*
X117798208Y-79661792D01*
X117811876Y-79678447D01*
X117822029Y-79697443D01*
X117828284Y-79718062D01*
X117831000Y-79745640D01*
X117831000Y-80254360D01*
X117828284Y-80281938D01*
X117822029Y-80302557D01*
X117811876Y-80321553D01*
X117798208Y-80338208D01*
X117781553Y-80351876D01*
X117762557Y-80362029D01*
X117741938Y-80368284D01*
X117714360Y-80371000D01*
X117255640Y-80371000D01*
X117228062Y-80368284D01*
X117207443Y-80362029D01*
X117188447Y-80351876D01*
X117171792Y-80338208D01*
X117158124Y-80321553D01*
X117147971Y-80302557D01*
X117141716Y-80281938D01*
X117139000Y-80254360D01*
X117139000Y-79745640D01*
X117141716Y-79718062D01*
X117147971Y-79697443D01*
X117158124Y-79678447D01*
X117171792Y-79661792D01*
X117188447Y-79648124D01*
X117207443Y-79637971D01*
X117228062Y-79631716D01*
X117255640Y-79629000D01*
X117714360Y-79629000D01*
X117741938Y-79631716D01*
G37*
G36*
X116771938Y-79631716D02*
G01*
X116792557Y-79637971D01*
X116811553Y-79648124D01*
X116828208Y-79661792D01*
X116841876Y-79678447D01*
X116852029Y-79697443D01*
X116858284Y-79718062D01*
X116861000Y-79745640D01*
X116861000Y-80254360D01*
X116858284Y-80281938D01*
X116852029Y-80302557D01*
X116841876Y-80321553D01*
X116828208Y-80338208D01*
X116811553Y-80351876D01*
X116792557Y-80362029D01*
X116771938Y-80368284D01*
X116744360Y-80371000D01*
X116285640Y-80371000D01*
X116258062Y-80368284D01*
X116237443Y-80362029D01*
X116218447Y-80351876D01*
X116201792Y-80338208D01*
X116188124Y-80321553D01*
X116177971Y-80302557D01*
X116171716Y-80281938D01*
X116169000Y-80254360D01*
X116169000Y-79745640D01*
X116171716Y-79718062D01*
X116177971Y-79697443D01*
X116188124Y-79678447D01*
X116201792Y-79661792D01*
X116218447Y-79648124D01*
X116237443Y-79637971D01*
X116258062Y-79631716D01*
X116285640Y-79629000D01*
X116744360Y-79629000D01*
X116771938Y-79631716D01*
G37*
G36*
X115426000Y-78926000D02*
G01*
X114124000Y-78926000D01*
X114124000Y-77424000D01*
X115426000Y-77424000D01*
X115426000Y-78926000D01*
G37*
G36*
X113726000Y-78926000D02*
G01*
X112424000Y-78926000D01*
X112424000Y-77424000D01*
X113726000Y-77424000D01*
X113726000Y-78926000D01*
G37*
G36*
X134379591Y-77053085D02*
G01*
X134413569Y-77063393D01*
X134444890Y-77080134D01*
X134472339Y-77102661D01*
X134494866Y-77130110D01*
X134511607Y-77161431D01*
X134521915Y-77195409D01*
X134526000Y-77236890D01*
X134526000Y-77838110D01*
X134521915Y-77879591D01*
X134511607Y-77913569D01*
X134494866Y-77944890D01*
X134472339Y-77972339D01*
X134444890Y-77994866D01*
X134413569Y-78011607D01*
X134379591Y-78021915D01*
X134338110Y-78026000D01*
X133661890Y-78026000D01*
X133620409Y-78021915D01*
X133586431Y-78011607D01*
X133555110Y-77994866D01*
X133527661Y-77972339D01*
X133505134Y-77944890D01*
X133488393Y-77913569D01*
X133478085Y-77879591D01*
X133474000Y-77838110D01*
X133474000Y-77236890D01*
X133478085Y-77195409D01*
X133488393Y-77161431D01*
X133505134Y-77130110D01*
X133527661Y-77102661D01*
X133555110Y-77080134D01*
X133586431Y-77063393D01*
X133620409Y-77053085D01*
X133661890Y-77049000D01*
X134338110Y-77049000D01*
X134379591Y-77053085D01*
G37*
G36*
X118531938Y-76891716D02*
G01*
X118552557Y-76897971D01*
X118571553Y-76908124D01*
X118588208Y-76921792D01*
X118601876Y-76938447D01*
X118612029Y-76957443D01*
X118618284Y-76978062D01*
X118621000Y-77005640D01*
X118621000Y-77464360D01*
X118618284Y-77491938D01*
X118612029Y-77512557D01*
X118601876Y-77531553D01*
X118588208Y-77548208D01*
X118571553Y-77561876D01*
X118552557Y-77572029D01*
X118531938Y-77578284D01*
X118504360Y-77581000D01*
X117995640Y-77581000D01*
X117968062Y-77578284D01*
X117947443Y-77572029D01*
X117928447Y-77561876D01*
X117911792Y-77548208D01*
X117898124Y-77531553D01*
X117887971Y-77512557D01*
X117881716Y-77491938D01*
X117879000Y-77464360D01*
X117879000Y-77005640D01*
X117881716Y-76978062D01*
X117887971Y-76957443D01*
X117898124Y-76938447D01*
X117911792Y-76921792D01*
X117928447Y-76908124D01*
X117947443Y-76897971D01*
X117968062Y-76891716D01*
X117995640Y-76889000D01*
X118504360Y-76889000D01*
X118531938Y-76891716D01*
G37*
G36*
X114666938Y-76156716D02*
G01*
X114687557Y-76162971D01*
X114706553Y-76173124D01*
X114723208Y-76186792D01*
X114736876Y-76203447D01*
X114747029Y-76222443D01*
X114753284Y-76243062D01*
X114756000Y-76270640D01*
X114756000Y-76779360D01*
X114753284Y-76806938D01*
X114747029Y-76827557D01*
X114736876Y-76846553D01*
X114723208Y-76863208D01*
X114706553Y-76876876D01*
X114687557Y-76887029D01*
X114666938Y-76893284D01*
X114639360Y-76896000D01*
X114180640Y-76896000D01*
X114153062Y-76893284D01*
X114132443Y-76887029D01*
X114113447Y-76876876D01*
X114096792Y-76863208D01*
X114083124Y-76846553D01*
X114072971Y-76827557D01*
X114066716Y-76806938D01*
X114064000Y-76779360D01*
X114064000Y-76270640D01*
X114066716Y-76243062D01*
X114072971Y-76222443D01*
X114083124Y-76203447D01*
X114096792Y-76186792D01*
X114113447Y-76173124D01*
X114132443Y-76162971D01*
X114153062Y-76156716D01*
X114180640Y-76154000D01*
X114639360Y-76154000D01*
X114666938Y-76156716D01*
G37*
G36*
X113696938Y-76156716D02*
G01*
X113717557Y-76162971D01*
X113736553Y-76173124D01*
X113753208Y-76186792D01*
X113766876Y-76203447D01*
X113777029Y-76222443D01*
X113783284Y-76243062D01*
X113786000Y-76270640D01*
X113786000Y-76779360D01*
X113783284Y-76806938D01*
X113777029Y-76827557D01*
X113766876Y-76846553D01*
X113753208Y-76863208D01*
X113736553Y-76876876D01*
X113717557Y-76887029D01*
X113696938Y-76893284D01*
X113669360Y-76896000D01*
X113210640Y-76896000D01*
X113183062Y-76893284D01*
X113162443Y-76887029D01*
X113143447Y-76876876D01*
X113126792Y-76863208D01*
X113113124Y-76846553D01*
X113102971Y-76827557D01*
X113096716Y-76806938D01*
X113094000Y-76779360D01*
X113094000Y-76270640D01*
X113096716Y-76243062D01*
X113102971Y-76222443D01*
X113113124Y-76203447D01*
X113126792Y-76186792D01*
X113143447Y-76173124D01*
X113162443Y-76162971D01*
X113183062Y-76156716D01*
X113210640Y-76154000D01*
X113669360Y-76154000D01*
X113696938Y-76156716D01*
G37*
G36*
X118531938Y-75921716D02*
G01*
X118552557Y-75927971D01*
X118571553Y-75938124D01*
X118588208Y-75951792D01*
X118601876Y-75968447D01*
X118612029Y-75987443D01*
X118618284Y-76008062D01*
X118621000Y-76035640D01*
X118621000Y-76494360D01*
X118618284Y-76521938D01*
X118612029Y-76542557D01*
X118601876Y-76561553D01*
X118588208Y-76578208D01*
X118571553Y-76591876D01*
X118552557Y-76602029D01*
X118531938Y-76608284D01*
X118504360Y-76611000D01*
X117995640Y-76611000D01*
X117968062Y-76608284D01*
X117947443Y-76602029D01*
X117928447Y-76591876D01*
X117911792Y-76578208D01*
X117898124Y-76561553D01*
X117887971Y-76542557D01*
X117881716Y-76521938D01*
X117879000Y-76494360D01*
X117879000Y-76035640D01*
X117881716Y-76008062D01*
X117887971Y-75987443D01*
X117898124Y-75968447D01*
X117911792Y-75951792D01*
X117928447Y-75938124D01*
X117947443Y-75927971D01*
X117968062Y-75921716D01*
X117995640Y-75919000D01*
X118504360Y-75919000D01*
X118531938Y-75921716D01*
G37*
G36*
X134379591Y-75478085D02*
G01*
X134413569Y-75488393D01*
X134444890Y-75505134D01*
X134472339Y-75527661D01*
X134494866Y-75555110D01*
X134511607Y-75586431D01*
X134521915Y-75620409D01*
X134526000Y-75661890D01*
X134526000Y-76263110D01*
X134521915Y-76304591D01*
X134511607Y-76338569D01*
X134494866Y-76369890D01*
X134472339Y-76397339D01*
X134444890Y-76419866D01*
X134413569Y-76436607D01*
X134379591Y-76446915D01*
X134338110Y-76451000D01*
X133661890Y-76451000D01*
X133620409Y-76446915D01*
X133586431Y-76436607D01*
X133555110Y-76419866D01*
X133527661Y-76397339D01*
X133505134Y-76369890D01*
X133488393Y-76338569D01*
X133478085Y-76304591D01*
X133474000Y-76263110D01*
X133474000Y-75661890D01*
X133478085Y-75620409D01*
X133488393Y-75586431D01*
X133505134Y-75555110D01*
X133527661Y-75527661D01*
X133555110Y-75505134D01*
X133586431Y-75488393D01*
X133620409Y-75478085D01*
X133661890Y-75474000D01*
X134338110Y-75474000D01*
X134379591Y-75478085D01*
G37*
G36*
X122170295Y-74500323D02*
G01*
X122177309Y-74502451D01*
X122191077Y-74509810D01*
X122213716Y-74519187D01*
X122237749Y-74523967D01*
X122262253Y-74523967D01*
X122286286Y-74519186D01*
X122308923Y-74509810D01*
X122322691Y-74502451D01*
X122329705Y-74500323D01*
X122343140Y-74499000D01*
X122656860Y-74499000D01*
X122670295Y-74500323D01*
X122677309Y-74502451D01*
X122691077Y-74509810D01*
X122713716Y-74519187D01*
X122737749Y-74523967D01*
X122762253Y-74523967D01*
X122786286Y-74519186D01*
X122808923Y-74509810D01*
X122822691Y-74502451D01*
X122829705Y-74500323D01*
X122843140Y-74499000D01*
X123156860Y-74499000D01*
X123170295Y-74500323D01*
X123177309Y-74502451D01*
X123191077Y-74509810D01*
X123213716Y-74519187D01*
X123237749Y-74523967D01*
X123262253Y-74523967D01*
X123286286Y-74519186D01*
X123308923Y-74509810D01*
X123322691Y-74502451D01*
X123329705Y-74500323D01*
X123343140Y-74499000D01*
X123656860Y-74499000D01*
X123670295Y-74500323D01*
X123677309Y-74502451D01*
X123691077Y-74509810D01*
X123713716Y-74519187D01*
X123737749Y-74523967D01*
X123762253Y-74523967D01*
X123786286Y-74519186D01*
X123808923Y-74509810D01*
X123822691Y-74502451D01*
X123829705Y-74500323D01*
X123843140Y-74499000D01*
X124156860Y-74499000D01*
X124170295Y-74500323D01*
X124177309Y-74502451D01*
X124191077Y-74509810D01*
X124213716Y-74519187D01*
X124237749Y-74523967D01*
X124262253Y-74523967D01*
X124286286Y-74519186D01*
X124308923Y-74509810D01*
X124322691Y-74502451D01*
X124329705Y-74500323D01*
X124343140Y-74499000D01*
X124656860Y-74499000D01*
X124670295Y-74500323D01*
X124677309Y-74502451D01*
X124691077Y-74509810D01*
X124713716Y-74519187D01*
X124737749Y-74523967D01*
X124762253Y-74523967D01*
X124786286Y-74519186D01*
X124808923Y-74509810D01*
X124822691Y-74502451D01*
X124829705Y-74500323D01*
X124843140Y-74499000D01*
X125156860Y-74499000D01*
X125170295Y-74500323D01*
X125177309Y-74502451D01*
X125191077Y-74509810D01*
X125213716Y-74519187D01*
X125237749Y-74523967D01*
X125262253Y-74523967D01*
X125286286Y-74519186D01*
X125308923Y-74509810D01*
X125322691Y-74502451D01*
X125329705Y-74500323D01*
X125343140Y-74499000D01*
X125656860Y-74499000D01*
X125670295Y-74500323D01*
X125677309Y-74502451D01*
X125691077Y-74509810D01*
X125713716Y-74519187D01*
X125737749Y-74523967D01*
X125762253Y-74523967D01*
X125786286Y-74519186D01*
X125808923Y-74509810D01*
X125822691Y-74502451D01*
X125829705Y-74500323D01*
X125843140Y-74499000D01*
X126156860Y-74499000D01*
X126170295Y-74500323D01*
X126177309Y-74502451D01*
X126191077Y-74509810D01*
X126213716Y-74519187D01*
X126237749Y-74523967D01*
X126262253Y-74523967D01*
X126286286Y-74519186D01*
X126308923Y-74509810D01*
X126322691Y-74502451D01*
X126329705Y-74500323D01*
X126343140Y-74499000D01*
X126656860Y-74499000D01*
X126670295Y-74500323D01*
X126677309Y-74502451D01*
X126691077Y-74509810D01*
X126713716Y-74519187D01*
X126737749Y-74523967D01*
X126762253Y-74523967D01*
X126786286Y-74519186D01*
X126808923Y-74509810D01*
X126822691Y-74502451D01*
X126829705Y-74500323D01*
X126843140Y-74499000D01*
X127156860Y-74499000D01*
X127170295Y-74500323D01*
X127177309Y-74502451D01*
X127191077Y-74509810D01*
X127213716Y-74519187D01*
X127237749Y-74523967D01*
X127262253Y-74523967D01*
X127286286Y-74519186D01*
X127308923Y-74509810D01*
X127322691Y-74502451D01*
X127329705Y-74500323D01*
X127343140Y-74499000D01*
X127656860Y-74499000D01*
X127670295Y-74500323D01*
X127677309Y-74502451D01*
X127691077Y-74509810D01*
X127713716Y-74519187D01*
X127737749Y-74523967D01*
X127762253Y-74523967D01*
X127786286Y-74519186D01*
X127808923Y-74509810D01*
X127822691Y-74502451D01*
X127829705Y-74500323D01*
X127843140Y-74499000D01*
X128156860Y-74499000D01*
X128170295Y-74500323D01*
X128177309Y-74502451D01*
X128191077Y-74509810D01*
X128213716Y-74519187D01*
X128237749Y-74523967D01*
X128262253Y-74523967D01*
X128286286Y-74519186D01*
X128308923Y-74509810D01*
X128322691Y-74502451D01*
X128329705Y-74500323D01*
X128343140Y-74499000D01*
X128656860Y-74499000D01*
X128670295Y-74500323D01*
X128677309Y-74502451D01*
X128691077Y-74509810D01*
X128713716Y-74519187D01*
X128737749Y-74523967D01*
X128762253Y-74523967D01*
X128786286Y-74519186D01*
X128808923Y-74509810D01*
X128822691Y-74502451D01*
X128829705Y-74500323D01*
X128843140Y-74499000D01*
X129156860Y-74499000D01*
X129170295Y-74500323D01*
X129177309Y-74502451D01*
X129191077Y-74509810D01*
X129213716Y-74519187D01*
X129237749Y-74523967D01*
X129262253Y-74523967D01*
X129286286Y-74519186D01*
X129308923Y-74509810D01*
X129322691Y-74502451D01*
X129329705Y-74500323D01*
X129343140Y-74499000D01*
X129656860Y-74499000D01*
X129670295Y-74500323D01*
X129677310Y-74502451D01*
X129683776Y-74505908D01*
X129689442Y-74510558D01*
X129694092Y-74516224D01*
X129697549Y-74522690D01*
X129699677Y-74529705D01*
X129701000Y-74543140D01*
X129701000Y-76106860D01*
X129699677Y-76120295D01*
X129697549Y-76127310D01*
X129694092Y-76133776D01*
X129689442Y-76139442D01*
X129683776Y-76144092D01*
X129677310Y-76147549D01*
X129670295Y-76149677D01*
X129656860Y-76151000D01*
X129343140Y-76151000D01*
X129329705Y-76149677D01*
X129322691Y-76147549D01*
X129308923Y-76140190D01*
X129286284Y-76130813D01*
X129262251Y-76126033D01*
X129237747Y-76126033D01*
X129213714Y-76130814D01*
X129191077Y-76140190D01*
X129177309Y-76147549D01*
X129170295Y-76149677D01*
X129156860Y-76151000D01*
X128843140Y-76151000D01*
X128829705Y-76149677D01*
X128822691Y-76147549D01*
X128808923Y-76140190D01*
X128786284Y-76130813D01*
X128762251Y-76126033D01*
X128737747Y-76126033D01*
X128713714Y-76130814D01*
X128691077Y-76140190D01*
X128677309Y-76147549D01*
X128670295Y-76149677D01*
X128656860Y-76151000D01*
X128343140Y-76151000D01*
X128329705Y-76149677D01*
X128322691Y-76147549D01*
X128308923Y-76140190D01*
X128286284Y-76130813D01*
X128262251Y-76126033D01*
X128237747Y-76126033D01*
X128213714Y-76130814D01*
X128191077Y-76140190D01*
X128177309Y-76147549D01*
X128170295Y-76149677D01*
X128156860Y-76151000D01*
X127843140Y-76151000D01*
X127829705Y-76149677D01*
X127822691Y-76147549D01*
X127808923Y-76140190D01*
X127786284Y-76130813D01*
X127762251Y-76126033D01*
X127737747Y-76126033D01*
X127713714Y-76130814D01*
X127691077Y-76140190D01*
X127677309Y-76147549D01*
X127670295Y-76149677D01*
X127656860Y-76151000D01*
X127343140Y-76151000D01*
X127329705Y-76149677D01*
X127322691Y-76147549D01*
X127308923Y-76140190D01*
X127286284Y-76130813D01*
X127262251Y-76126033D01*
X127237747Y-76126033D01*
X127213714Y-76130814D01*
X127191077Y-76140190D01*
X127177309Y-76147549D01*
X127170295Y-76149677D01*
X127156860Y-76151000D01*
X126843140Y-76151000D01*
X126829705Y-76149677D01*
X126822691Y-76147549D01*
X126808923Y-76140190D01*
X126786284Y-76130813D01*
X126762251Y-76126033D01*
X126737747Y-76126033D01*
X126713714Y-76130814D01*
X126691077Y-76140190D01*
X126677309Y-76147549D01*
X126670295Y-76149677D01*
X126656860Y-76151000D01*
X126343140Y-76151000D01*
X126329705Y-76149677D01*
X126322691Y-76147549D01*
X126308923Y-76140190D01*
X126286284Y-76130813D01*
X126262251Y-76126033D01*
X126237747Y-76126033D01*
X126213714Y-76130814D01*
X126191077Y-76140190D01*
X126177309Y-76147549D01*
X126170295Y-76149677D01*
X126156860Y-76151000D01*
X125843140Y-76151000D01*
X125829705Y-76149677D01*
X125822691Y-76147549D01*
X125808923Y-76140190D01*
X125786284Y-76130813D01*
X125762251Y-76126033D01*
X125737747Y-76126033D01*
X125713714Y-76130814D01*
X125691077Y-76140190D01*
X125677309Y-76147549D01*
X125670295Y-76149677D01*
X125656860Y-76151000D01*
X125343140Y-76151000D01*
X125329705Y-76149677D01*
X125322691Y-76147549D01*
X125308923Y-76140190D01*
X125286284Y-76130813D01*
X125262251Y-76126033D01*
X125237747Y-76126033D01*
X125213714Y-76130814D01*
X125191077Y-76140190D01*
X125177309Y-76147549D01*
X125170295Y-76149677D01*
X125156860Y-76151000D01*
X124843140Y-76151000D01*
X124829705Y-76149677D01*
X124822691Y-76147549D01*
X124808923Y-76140190D01*
X124786284Y-76130813D01*
X124762251Y-76126033D01*
X124737747Y-76126033D01*
X124713714Y-76130814D01*
X124691077Y-76140190D01*
X124677309Y-76147549D01*
X124670295Y-76149677D01*
X124656860Y-76151000D01*
X124343140Y-76151000D01*
X124329705Y-76149677D01*
X124322691Y-76147549D01*
X124308923Y-76140190D01*
X124286284Y-76130813D01*
X124262251Y-76126033D01*
X124237747Y-76126033D01*
X124213714Y-76130814D01*
X124191077Y-76140190D01*
X124177309Y-76147549D01*
X124170295Y-76149677D01*
X124156860Y-76151000D01*
X123843140Y-76151000D01*
X123829705Y-76149677D01*
X123822691Y-76147549D01*
X123808923Y-76140190D01*
X123786284Y-76130813D01*
X123762251Y-76126033D01*
X123737747Y-76126033D01*
X123713714Y-76130814D01*
X123691077Y-76140190D01*
X123677309Y-76147549D01*
X123670295Y-76149677D01*
X123656860Y-76151000D01*
X123343140Y-76151000D01*
X123329705Y-76149677D01*
X123322691Y-76147549D01*
X123308923Y-76140190D01*
X123286284Y-76130813D01*
X123262251Y-76126033D01*
X123237747Y-76126033D01*
X123213714Y-76130814D01*
X123191077Y-76140190D01*
X123177309Y-76147549D01*
X123170295Y-76149677D01*
X123156860Y-76151000D01*
X122843140Y-76151000D01*
X122829705Y-76149677D01*
X122822691Y-76147549D01*
X122808923Y-76140190D01*
X122786284Y-76130813D01*
X122762251Y-76126033D01*
X122737747Y-76126033D01*
X122713714Y-76130814D01*
X122691077Y-76140190D01*
X122677309Y-76147549D01*
X122670295Y-76149677D01*
X122656860Y-76151000D01*
X122343140Y-76151000D01*
X122329705Y-76149677D01*
X122322691Y-76147549D01*
X122308923Y-76140190D01*
X122286284Y-76130813D01*
X122262251Y-76126033D01*
X122237747Y-76126033D01*
X122213714Y-76130814D01*
X122191077Y-76140190D01*
X122177309Y-76147549D01*
X122170295Y-76149677D01*
X122156860Y-76151000D01*
X121843140Y-76151000D01*
X121829705Y-76149677D01*
X121822690Y-76147549D01*
X121816224Y-76144092D01*
X121810558Y-76139442D01*
X121805908Y-76133776D01*
X121802451Y-76127310D01*
X121800323Y-76120295D01*
X121799000Y-76106860D01*
X121799000Y-74543140D01*
X121800323Y-74529705D01*
X121802451Y-74522690D01*
X121805908Y-74516224D01*
X121810558Y-74510558D01*
X121816224Y-74505908D01*
X121822690Y-74502451D01*
X121829705Y-74500323D01*
X121843140Y-74499000D01*
X122156860Y-74499000D01*
X122170295Y-74500323D01*
G37*
G36*
X132031938Y-75391716D02*
G01*
X132052557Y-75397971D01*
X132071553Y-75408124D01*
X132088208Y-75421792D01*
X132101876Y-75438447D01*
X132112029Y-75457443D01*
X132118284Y-75478062D01*
X132121000Y-75505640D01*
X132121000Y-75964360D01*
X132118284Y-75991938D01*
X132112029Y-76012557D01*
X132101876Y-76031553D01*
X132088208Y-76048208D01*
X132071553Y-76061876D01*
X132052557Y-76072029D01*
X132031938Y-76078284D01*
X132004360Y-76081000D01*
X131495640Y-76081000D01*
X131468062Y-76078284D01*
X131447443Y-76072029D01*
X131428447Y-76061876D01*
X131411792Y-76048208D01*
X131398124Y-76031553D01*
X131387971Y-76012557D01*
X131381716Y-75991938D01*
X131379000Y-75964360D01*
X131379000Y-75505640D01*
X131381716Y-75478062D01*
X131387971Y-75457443D01*
X131398124Y-75438447D01*
X131411792Y-75421792D01*
X131428447Y-75408124D01*
X131447443Y-75397971D01*
X131468062Y-75391716D01*
X131495640Y-75389000D01*
X132004360Y-75389000D01*
X132031938Y-75391716D01*
G37*
G36*
X132031938Y-74421716D02*
G01*
X132052557Y-74427971D01*
X132071553Y-74438124D01*
X132088208Y-74451792D01*
X132101876Y-74468447D01*
X132112029Y-74487443D01*
X132118284Y-74508062D01*
X132121000Y-74535640D01*
X132121000Y-74994360D01*
X132118284Y-75021938D01*
X132112029Y-75042557D01*
X132101876Y-75061553D01*
X132088208Y-75078208D01*
X132071553Y-75091876D01*
X132052557Y-75102029D01*
X132031938Y-75108284D01*
X132004360Y-75111000D01*
X131495640Y-75111000D01*
X131468062Y-75108284D01*
X131447443Y-75102029D01*
X131428447Y-75091876D01*
X131411792Y-75078208D01*
X131398124Y-75061553D01*
X131387971Y-75042557D01*
X131381716Y-75021938D01*
X131379000Y-74994360D01*
X131379000Y-74535640D01*
X131381716Y-74508062D01*
X131387971Y-74487443D01*
X131398124Y-74468447D01*
X131411792Y-74451792D01*
X131428447Y-74438124D01*
X131447443Y-74427971D01*
X131468062Y-74421716D01*
X131495640Y-74419000D01*
X132004360Y-74419000D01*
X132031938Y-74421716D01*
G37*
G36*
X159237916Y-73607334D02*
G01*
X159346492Y-73640271D01*
X159346495Y-73640272D01*
X159382601Y-73659571D01*
X159446557Y-73693756D01*
X159534264Y-73765736D01*
X159606244Y-73853443D01*
X159640429Y-73917399D01*
X159659728Y-73953505D01*
X159659729Y-73953508D01*
X159692666Y-74062084D01*
X159703787Y-74175000D01*
X159692666Y-74287916D01*
X159659729Y-74396492D01*
X159659728Y-74396495D01*
X159646247Y-74421716D01*
X159606244Y-74496557D01*
X159534264Y-74584264D01*
X159446557Y-74656244D01*
X159382601Y-74690429D01*
X159346495Y-74709728D01*
X159346492Y-74709729D01*
X159237916Y-74742666D01*
X159153298Y-74751000D01*
X158246702Y-74751000D01*
X158162084Y-74742666D01*
X158053508Y-74709729D01*
X158053505Y-74709728D01*
X158017399Y-74690429D01*
X157953443Y-74656244D01*
X157865736Y-74584264D01*
X157793756Y-74496557D01*
X157753753Y-74421716D01*
X157740272Y-74396495D01*
X157740271Y-74396492D01*
X157707334Y-74287916D01*
X157696213Y-74175000D01*
X157707334Y-74062084D01*
X157740271Y-73953508D01*
X157740272Y-73953505D01*
X157759571Y-73917399D01*
X157793756Y-73853443D01*
X157865736Y-73765736D01*
X157953443Y-73693756D01*
X158017399Y-73659571D01*
X158053505Y-73640272D01*
X158053508Y-73640271D01*
X158162084Y-73607334D01*
X158246702Y-73599000D01*
X159153298Y-73599000D01*
X159237916Y-73607334D01*
G37*
G36*
X107771000Y-74451000D02*
G01*
X106869000Y-74451000D01*
X106869000Y-73349000D01*
X107771000Y-73349000D01*
X107771000Y-74451000D01*
G37*
G36*
X109981000Y-74451000D02*
G01*
X109079000Y-74451000D01*
X109079000Y-73349000D01*
X109981000Y-73349000D01*
X109981000Y-74451000D01*
G37*
G36*
X120354591Y-72728085D02*
G01*
X120388569Y-72738393D01*
X120419890Y-72755134D01*
X120447339Y-72777661D01*
X120469866Y-72805110D01*
X120486607Y-72836431D01*
X120496915Y-72870409D01*
X120501000Y-72911890D01*
X120501000Y-73588110D01*
X120496915Y-73629591D01*
X120486607Y-73663569D01*
X120469866Y-73694890D01*
X120447339Y-73722339D01*
X120419890Y-73744866D01*
X120388569Y-73761607D01*
X120354591Y-73771915D01*
X120313110Y-73776000D01*
X119711890Y-73776000D01*
X119670409Y-73771915D01*
X119636431Y-73761607D01*
X119605110Y-73744866D01*
X119577661Y-73722339D01*
X119555134Y-73694890D01*
X119538393Y-73663569D01*
X119528085Y-73629591D01*
X119524000Y-73588110D01*
X119524000Y-72911890D01*
X119528085Y-72870409D01*
X119538393Y-72836431D01*
X119555134Y-72805110D01*
X119577661Y-72777661D01*
X119605110Y-72755134D01*
X119636431Y-72738393D01*
X119670409Y-72728085D01*
X119711890Y-72724000D01*
X120313110Y-72724000D01*
X120354591Y-72728085D01*
G37*
G36*
X118779591Y-72728085D02*
G01*
X118813569Y-72738393D01*
X118844890Y-72755134D01*
X118872339Y-72777661D01*
X118894866Y-72805110D01*
X118911607Y-72836431D01*
X118921915Y-72870409D01*
X118926000Y-72911890D01*
X118926000Y-73588110D01*
X118921915Y-73629591D01*
X118911607Y-73663569D01*
X118894866Y-73694890D01*
X118872339Y-73722339D01*
X118844890Y-73744866D01*
X118813569Y-73761607D01*
X118779591Y-73771915D01*
X118738110Y-73776000D01*
X118136890Y-73776000D01*
X118095409Y-73771915D01*
X118061431Y-73761607D01*
X118030110Y-73744866D01*
X118002661Y-73722339D01*
X117980134Y-73694890D01*
X117963393Y-73663569D01*
X117953085Y-73629591D01*
X117949000Y-73588110D01*
X117949000Y-72911890D01*
X117953085Y-72870409D01*
X117963393Y-72836431D01*
X117980134Y-72805110D01*
X118002661Y-72777661D01*
X118030110Y-72755134D01*
X118061431Y-72738393D01*
X118095409Y-72728085D01*
X118136890Y-72724000D01*
X118738110Y-72724000D01*
X118779591Y-72728085D01*
G37*
G36*
X122261938Y-72881716D02*
G01*
X122282557Y-72887971D01*
X122301553Y-72898124D01*
X122318208Y-72911792D01*
X122331876Y-72928447D01*
X122342029Y-72947443D01*
X122348284Y-72968062D01*
X122351000Y-72995640D01*
X122351000Y-73504360D01*
X122348284Y-73531938D01*
X122342029Y-73552557D01*
X122331876Y-73571553D01*
X122318208Y-73588208D01*
X122301553Y-73601876D01*
X122282557Y-73612029D01*
X122261938Y-73618284D01*
X122234360Y-73621000D01*
X121775640Y-73621000D01*
X121748062Y-73618284D01*
X121727443Y-73612029D01*
X121708447Y-73601876D01*
X121691792Y-73588208D01*
X121678124Y-73571553D01*
X121667971Y-73552557D01*
X121661716Y-73531938D01*
X121659000Y-73504360D01*
X121659000Y-72995640D01*
X121661716Y-72968062D01*
X121667971Y-72947443D01*
X121678124Y-72928447D01*
X121691792Y-72911792D01*
X121708447Y-72898124D01*
X121727443Y-72887971D01*
X121748062Y-72881716D01*
X121775640Y-72879000D01*
X122234360Y-72879000D01*
X122261938Y-72881716D01*
G37*
G36*
X123231938Y-72881716D02*
G01*
X123252557Y-72887971D01*
X123271553Y-72898124D01*
X123288208Y-72911792D01*
X123301876Y-72928447D01*
X123312029Y-72947443D01*
X123318284Y-72968062D01*
X123321000Y-72995640D01*
X123321000Y-73504360D01*
X123318284Y-73531938D01*
X123312029Y-73552557D01*
X123301876Y-73571553D01*
X123288208Y-73588208D01*
X123271553Y-73601876D01*
X123252557Y-73612029D01*
X123231938Y-73618284D01*
X123204360Y-73621000D01*
X122745640Y-73621000D01*
X122718062Y-73618284D01*
X122697443Y-73612029D01*
X122678447Y-73601876D01*
X122661792Y-73588208D01*
X122648124Y-73571553D01*
X122637971Y-73552557D01*
X122631716Y-73531938D01*
X122629000Y-73504360D01*
X122629000Y-72995640D01*
X122631716Y-72968062D01*
X122637971Y-72947443D01*
X122648124Y-72928447D01*
X122661792Y-72911792D01*
X122678447Y-72898124D01*
X122697443Y-72887971D01*
X122718062Y-72881716D01*
X122745640Y-72879000D01*
X123204360Y-72879000D01*
X123231938Y-72881716D01*
G37*
G36*
X157246000Y-68906000D02*
G01*
X156925999Y-68906000D01*
X156901613Y-68908402D01*
X156878164Y-68915515D01*
X156856553Y-68927066D01*
X156837611Y-68942611D01*
X156822066Y-68961553D01*
X156810515Y-68983164D01*
X156803402Y-69006613D01*
X156801000Y-69030999D01*
X156801000Y-72169001D01*
X156803402Y-72193387D01*
X156810515Y-72216836D01*
X156822066Y-72238447D01*
X156837611Y-72257389D01*
X156856553Y-72272934D01*
X156878164Y-72284485D01*
X156901613Y-72291598D01*
X156925999Y-72294000D01*
X157246000Y-72294000D01*
X157246000Y-73546000D01*
X155694000Y-73546000D01*
X155694000Y-72275999D01*
X155691598Y-72251613D01*
X155684485Y-72228164D01*
X155672934Y-72206553D01*
X155657389Y-72187611D01*
X155638447Y-72172066D01*
X155616836Y-72160515D01*
X155593387Y-72153402D01*
X155569001Y-72151000D01*
X155299000Y-72151000D01*
X155299000Y-69049000D01*
X155569001Y-69049000D01*
X155593387Y-69046598D01*
X155616836Y-69039485D01*
X155638447Y-69027934D01*
X155657389Y-69012389D01*
X155672934Y-68993447D01*
X155684485Y-68971836D01*
X155691598Y-68948387D01*
X155694000Y-68924001D01*
X155694000Y-67654000D01*
X157246000Y-67654000D01*
X157246000Y-68906000D01*
G37*
G36*
X110981000Y-72901000D02*
G01*
X109379000Y-72901000D01*
X109379000Y-72099000D01*
X110981000Y-72099000D01*
X110981000Y-72901000D01*
G37*
G36*
X159701000Y-72651000D02*
G01*
X157699000Y-72651000D01*
X157699000Y-70799000D01*
X159701000Y-70799000D01*
X159701000Y-72651000D01*
G37*
G36*
X151281000Y-72426000D02*
G01*
X150119000Y-72426000D01*
X150119000Y-69774000D01*
X151281000Y-69774000D01*
X151281000Y-72426000D01*
G37*
G36*
X149081000Y-72426000D02*
G01*
X147919000Y-72426000D01*
X147919000Y-69774000D01*
X149081000Y-69774000D01*
X149081000Y-72426000D01*
G37*
G36*
X108496291Y-71254360D02*
G01*
X108566136Y-71268253D01*
X108599174Y-71281938D01*
X108657311Y-71306019D01*
X108657312Y-71306020D01*
X108739369Y-71360848D01*
X108809152Y-71430631D01*
X108809153Y-71430633D01*
X108863981Y-71512689D01*
X108886104Y-71566098D01*
X108901747Y-71603864D01*
X108910725Y-71649000D01*
X108921000Y-71700655D01*
X108921000Y-71799345D01*
X108901747Y-71896135D01*
X108863981Y-71987311D01*
X108863980Y-71987312D01*
X108809152Y-72069369D01*
X108739369Y-72139152D01*
X108698062Y-72166752D01*
X108657311Y-72193981D01*
X108626959Y-72206553D01*
X108566136Y-72231747D01*
X108517740Y-72241374D01*
X108469345Y-72251000D01*
X108370655Y-72251000D01*
X108322260Y-72241374D01*
X108273864Y-72231747D01*
X108213041Y-72206553D01*
X108182689Y-72193981D01*
X108141938Y-72166752D01*
X108100631Y-72139152D01*
X108030848Y-72069369D01*
X107976020Y-71987312D01*
X107976019Y-71987311D01*
X107938253Y-71896135D01*
X107919000Y-71799345D01*
X107919000Y-71700655D01*
X107929275Y-71649000D01*
X107938253Y-71603864D01*
X107953896Y-71566098D01*
X107976019Y-71512689D01*
X108030847Y-71430633D01*
X108030848Y-71430631D01*
X108100631Y-71360848D01*
X108182688Y-71306020D01*
X108182689Y-71306019D01*
X108240826Y-71281938D01*
X108273864Y-71268253D01*
X108343709Y-71254360D01*
X108370655Y-71249000D01*
X108469345Y-71249000D01*
X108496291Y-71254360D01*
G37*
G36*
X123796938Y-71006716D02*
G01*
X123817557Y-71012971D01*
X123836553Y-71023124D01*
X123853208Y-71036792D01*
X123866876Y-71053447D01*
X123877029Y-71072443D01*
X123883284Y-71093062D01*
X123886000Y-71120640D01*
X123886000Y-71629360D01*
X123883284Y-71656938D01*
X123877029Y-71677557D01*
X123866876Y-71696553D01*
X123853208Y-71713208D01*
X123836553Y-71726876D01*
X123817557Y-71737029D01*
X123796938Y-71743284D01*
X123769360Y-71746000D01*
X123310640Y-71746000D01*
X123283062Y-71743284D01*
X123262443Y-71737029D01*
X123243447Y-71726876D01*
X123226792Y-71713208D01*
X123213124Y-71696553D01*
X123202971Y-71677557D01*
X123196716Y-71656938D01*
X123194000Y-71629360D01*
X123194000Y-71120640D01*
X123196716Y-71093062D01*
X123202971Y-71072443D01*
X123213124Y-71053447D01*
X123226792Y-71036792D01*
X123243447Y-71023124D01*
X123262443Y-71012971D01*
X123283062Y-71006716D01*
X123310640Y-71004000D01*
X123769360Y-71004000D01*
X123796938Y-71006716D01*
G37*
G36*
X124766938Y-71006716D02*
G01*
X124787557Y-71012971D01*
X124806553Y-71023124D01*
X124823208Y-71036792D01*
X124836876Y-71053447D01*
X124847029Y-71072443D01*
X124853284Y-71093062D01*
X124856000Y-71120640D01*
X124856000Y-71629360D01*
X124853284Y-71656938D01*
X124847029Y-71677557D01*
X124836876Y-71696553D01*
X124823208Y-71713208D01*
X124806553Y-71726876D01*
X124787557Y-71737029D01*
X124766938Y-71743284D01*
X124739360Y-71746000D01*
X124280640Y-71746000D01*
X124253062Y-71743284D01*
X124232443Y-71737029D01*
X124213447Y-71726876D01*
X124196792Y-71713208D01*
X124183124Y-71696553D01*
X124172971Y-71677557D01*
X124166716Y-71656938D01*
X124164000Y-71629360D01*
X124164000Y-71120640D01*
X124166716Y-71093062D01*
X124172971Y-71072443D01*
X124183124Y-71053447D01*
X124196792Y-71036792D01*
X124213447Y-71023124D01*
X124232443Y-71012971D01*
X124253062Y-71006716D01*
X124280640Y-71004000D01*
X124739360Y-71004000D01*
X124766938Y-71006716D01*
G37*
G36*
X126021938Y-71006716D02*
G01*
X126042557Y-71012971D01*
X126061553Y-71023124D01*
X126078208Y-71036792D01*
X126091876Y-71053447D01*
X126102029Y-71072443D01*
X126108284Y-71093062D01*
X126111000Y-71120640D01*
X126111000Y-71629360D01*
X126108284Y-71656938D01*
X126102029Y-71677557D01*
X126091876Y-71696553D01*
X126078208Y-71713208D01*
X126061553Y-71726876D01*
X126042557Y-71737029D01*
X126021938Y-71743284D01*
X125994360Y-71746000D01*
X125535640Y-71746000D01*
X125508062Y-71743284D01*
X125487443Y-71737029D01*
X125468447Y-71726876D01*
X125451792Y-71713208D01*
X125438124Y-71696553D01*
X125427971Y-71677557D01*
X125421716Y-71656938D01*
X125419000Y-71629360D01*
X125419000Y-71120640D01*
X125421716Y-71093062D01*
X125427971Y-71072443D01*
X125438124Y-71053447D01*
X125451792Y-71036792D01*
X125468447Y-71023124D01*
X125487443Y-71012971D01*
X125508062Y-71006716D01*
X125535640Y-71004000D01*
X125994360Y-71004000D01*
X126021938Y-71006716D01*
G37*
G36*
X126991938Y-71006716D02*
G01*
X127012557Y-71012971D01*
X127031553Y-71023124D01*
X127048208Y-71036792D01*
X127061876Y-71053447D01*
X127072029Y-71072443D01*
X127078284Y-71093062D01*
X127081000Y-71120640D01*
X127081000Y-71629360D01*
X127078284Y-71656938D01*
X127072029Y-71677557D01*
X127061876Y-71696553D01*
X127048208Y-71713208D01*
X127031553Y-71726876D01*
X127012557Y-71737029D01*
X126991938Y-71743284D01*
X126964360Y-71746000D01*
X126505640Y-71746000D01*
X126478062Y-71743284D01*
X126457443Y-71737029D01*
X126438447Y-71726876D01*
X126421792Y-71713208D01*
X126408124Y-71696553D01*
X126397971Y-71677557D01*
X126391716Y-71656938D01*
X126389000Y-71629360D01*
X126389000Y-71120640D01*
X126391716Y-71093062D01*
X126397971Y-71072443D01*
X126408124Y-71053447D01*
X126421792Y-71036792D01*
X126438447Y-71023124D01*
X126457443Y-71012971D01*
X126478062Y-71006716D01*
X126505640Y-71004000D01*
X126964360Y-71004000D01*
X126991938Y-71006716D01*
G37*
G36*
X110981000Y-71401000D02*
G01*
X109379000Y-71401000D01*
X109379000Y-70599000D01*
X110981000Y-70599000D01*
X110981000Y-71401000D01*
G37*
G36*
X114226938Y-70631716D02*
G01*
X114247557Y-70637971D01*
X114266553Y-70648124D01*
X114283208Y-70661792D01*
X114296876Y-70678447D01*
X114307029Y-70697443D01*
X114313284Y-70718062D01*
X114316000Y-70745640D01*
X114316000Y-71254360D01*
X114313284Y-71281938D01*
X114307029Y-71302557D01*
X114296876Y-71321553D01*
X114283208Y-71338208D01*
X114266553Y-71351876D01*
X114247557Y-71362029D01*
X114226938Y-71368284D01*
X114199360Y-71371000D01*
X113740640Y-71371000D01*
X113713062Y-71368284D01*
X113692443Y-71362029D01*
X113673447Y-71351876D01*
X113656792Y-71338208D01*
X113643124Y-71321553D01*
X113632971Y-71302557D01*
X113626716Y-71281938D01*
X113624000Y-71254360D01*
X113624000Y-70745640D01*
X113626716Y-70718062D01*
X113632971Y-70697443D01*
X113643124Y-70678447D01*
X113656792Y-70661792D01*
X113673447Y-70648124D01*
X113692443Y-70637971D01*
X113713062Y-70631716D01*
X113740640Y-70629000D01*
X114199360Y-70629000D01*
X114226938Y-70631716D01*
G37*
G36*
X113256938Y-70631716D02*
G01*
X113277557Y-70637971D01*
X113296553Y-70648124D01*
X113313208Y-70661792D01*
X113326876Y-70678447D01*
X113337029Y-70697443D01*
X113343284Y-70718062D01*
X113346000Y-70745640D01*
X113346000Y-71254360D01*
X113343284Y-71281938D01*
X113337029Y-71302557D01*
X113326876Y-71321553D01*
X113313208Y-71338208D01*
X113296553Y-71351876D01*
X113277557Y-71362029D01*
X113256938Y-71368284D01*
X113229360Y-71371000D01*
X112770640Y-71371000D01*
X112743062Y-71368284D01*
X112722443Y-71362029D01*
X112703447Y-71351876D01*
X112686792Y-71338208D01*
X112673124Y-71321553D01*
X112662971Y-71302557D01*
X112656716Y-71281938D01*
X112654000Y-71254360D01*
X112654000Y-70745640D01*
X112656716Y-70718062D01*
X112662971Y-70697443D01*
X112673124Y-70678447D01*
X112686792Y-70661792D01*
X112703447Y-70648124D01*
X112722443Y-70637971D01*
X112743062Y-70631716D01*
X112770640Y-70629000D01*
X113229360Y-70629000D01*
X113256938Y-70631716D01*
G37*
G36*
X159701000Y-70401000D02*
G01*
X157699000Y-70401000D01*
X157699000Y-68549000D01*
X159701000Y-68549000D01*
X159701000Y-70401000D01*
G37*
G36*
X108517740Y-68258626D02*
G01*
X108566136Y-68268253D01*
X108603902Y-68283896D01*
X108657311Y-68306019D01*
X108657312Y-68306020D01*
X108739369Y-68360848D01*
X108809152Y-68430631D01*
X108809153Y-68430633D01*
X108863981Y-68512689D01*
X108901747Y-68603865D01*
X108921000Y-68700655D01*
X108921000Y-68799345D01*
X108901747Y-68896135D01*
X108863981Y-68987311D01*
X108863980Y-68987312D01*
X108809152Y-69069369D01*
X108739369Y-69139152D01*
X108698062Y-69166752D01*
X108657311Y-69193981D01*
X108603902Y-69216104D01*
X108566136Y-69231747D01*
X108517740Y-69241373D01*
X108469345Y-69251000D01*
X108370655Y-69251000D01*
X108322260Y-69241373D01*
X108273864Y-69231747D01*
X108236098Y-69216104D01*
X108182689Y-69193981D01*
X108141938Y-69166752D01*
X108100631Y-69139152D01*
X108030848Y-69069369D01*
X107976020Y-68987312D01*
X107976019Y-68987311D01*
X107938253Y-68896135D01*
X107919000Y-68799345D01*
X107919000Y-68700655D01*
X107938253Y-68603865D01*
X107976019Y-68512689D01*
X108030847Y-68430633D01*
X108030848Y-68430631D01*
X108100631Y-68360848D01*
X108182688Y-68306020D01*
X108182689Y-68306019D01*
X108236098Y-68283896D01*
X108273864Y-68268253D01*
X108322260Y-68258626D01*
X108370655Y-68249000D01*
X108469345Y-68249000D01*
X108517740Y-68258626D01*
G37*
G36*
X110981000Y-68401000D02*
G01*
X109379000Y-68401000D01*
X109379000Y-67599000D01*
X110981000Y-67599000D01*
X110981000Y-68401000D01*
G37*
G36*
X159237916Y-66457334D02*
G01*
X159346492Y-66490271D01*
X159346495Y-66490272D01*
X159382601Y-66509571D01*
X159446557Y-66543756D01*
X159534264Y-66615736D01*
X159606244Y-66703443D01*
X159640429Y-66767399D01*
X159659728Y-66803505D01*
X159659729Y-66803508D01*
X159692666Y-66912084D01*
X159703787Y-67025000D01*
X159692666Y-67137916D01*
X159659729Y-67246492D01*
X159659728Y-67246495D01*
X159640429Y-67282601D01*
X159606244Y-67346557D01*
X159534264Y-67434264D01*
X159446557Y-67506244D01*
X159382601Y-67540429D01*
X159346495Y-67559728D01*
X159346492Y-67559729D01*
X159237916Y-67592666D01*
X159153298Y-67601000D01*
X158246702Y-67601000D01*
X158162084Y-67592666D01*
X158053508Y-67559729D01*
X158053505Y-67559728D01*
X158017399Y-67540429D01*
X157953443Y-67506244D01*
X157865736Y-67434264D01*
X157793756Y-67346557D01*
X157759571Y-67282601D01*
X157740272Y-67246495D01*
X157740271Y-67246492D01*
X157707334Y-67137916D01*
X157696213Y-67025000D01*
X157707334Y-66912084D01*
X157740271Y-66803508D01*
X157740272Y-66803505D01*
X157759571Y-66767399D01*
X157793756Y-66703443D01*
X157865736Y-66615736D01*
X157953443Y-66543756D01*
X158017399Y-66509571D01*
X158053505Y-66490272D01*
X158053508Y-66490271D01*
X158162084Y-66457334D01*
X158246702Y-66449000D01*
X159153298Y-66449000D01*
X159237916Y-66457334D01*
G37*
G36*
X109981000Y-67151000D02*
G01*
X109079000Y-67151000D01*
X109079000Y-66049000D01*
X109981000Y-66049000D01*
X109981000Y-67151000D01*
G37*
G36*
X107771000Y-67151000D02*
G01*
X106869000Y-67151000D01*
X106869000Y-66049000D01*
X107771000Y-66049000D01*
X107771000Y-67151000D01*
G37*
G36*
X158048156Y-54672794D02*
G01*
X158769140Y-54816206D01*
X159560972Y-55144193D01*
X160273601Y-55620357D01*
X160879643Y-56226399D01*
X161355807Y-56939028D01*
X161683794Y-57730860D01*
X161851000Y-58571464D01*
X161851000Y-59428536D01*
X161683794Y-60269140D01*
X161355807Y-61060972D01*
X160879643Y-61773601D01*
X160273601Y-62379643D01*
X159560972Y-62855807D01*
X158769140Y-63183794D01*
X158048156Y-63327206D01*
X157928537Y-63351000D01*
X157071463Y-63351000D01*
X156951844Y-63327206D01*
X156230860Y-63183794D01*
X155439028Y-62855807D01*
X154726399Y-62379643D01*
X154120357Y-61773601D01*
X153644193Y-61060972D01*
X153316206Y-60269140D01*
X153149000Y-59428536D01*
X153149000Y-58571464D01*
X153316206Y-57730860D01*
X153644193Y-56939028D01*
X154120357Y-56226399D01*
X154726399Y-55620357D01*
X155439028Y-55144193D01*
X156230860Y-54816206D01*
X156951844Y-54672794D01*
X157071463Y-54649000D01*
X157928537Y-54649000D01*
X158048156Y-54672794D01*
G37*
G36*
X111798156Y-54422794D02*
G01*
X112519140Y-54566206D01*
X113310972Y-54894193D01*
X114023601Y-55370357D01*
X114629643Y-55976399D01*
X115105807Y-56689028D01*
X115433794Y-57480860D01*
X115601000Y-58321464D01*
X115601000Y-59178536D01*
X115433794Y-60019140D01*
X115105807Y-60810972D01*
X114629643Y-61523601D01*
X114023601Y-62129643D01*
X113310972Y-62605807D01*
X112519140Y-62933794D01*
X111798156Y-63077206D01*
X111678537Y-63101000D01*
X110821463Y-63101000D01*
X110701844Y-63077206D01*
X109980860Y-62933794D01*
X109189028Y-62605807D01*
X108476399Y-62129643D01*
X107870357Y-61523601D01*
X107394193Y-60810972D01*
X107066206Y-60019140D01*
X106899000Y-59178536D01*
X106899000Y-58321464D01*
X107066206Y-57480860D01*
X107394193Y-56689028D01*
X107870357Y-55976399D01*
X108476399Y-55370357D01*
X109189028Y-54894193D01*
X109980860Y-54566206D01*
X110701844Y-54422794D01*
X110821463Y-54399000D01*
X111678537Y-54399000D01*
X111798156Y-54422794D01*
G37*
G36*
X140386000Y-62476000D02*
G01*
X139544000Y-62476000D01*
X139544000Y-59974000D01*
X140386000Y-59974000D01*
X140386000Y-62476000D01*
G37*
G36*
X135306000Y-62476000D02*
G01*
X134464000Y-62476000D01*
X134464000Y-59974000D01*
X135306000Y-59974000D01*
X135306000Y-62476000D01*
G37*
G36*
X136576000Y-62476000D02*
G01*
X135734000Y-62476000D01*
X135734000Y-59974000D01*
X136576000Y-59974000D01*
X136576000Y-62476000D01*
G37*
G36*
X137846000Y-62476000D02*
G01*
X137004000Y-62476000D01*
X137004000Y-59974000D01*
X137846000Y-59974000D01*
X137846000Y-62476000D01*
G37*
G36*
X139116000Y-62476000D02*
G01*
X138274000Y-62476000D01*
X138274000Y-59974000D01*
X139116000Y-59974000D01*
X139116000Y-62476000D01*
G37*
G36*
X125838410Y-59305525D02*
G01*
X125923426Y-59331314D01*
X126001775Y-59373193D01*
X126070449Y-59429551D01*
X126126807Y-59498225D01*
X126168686Y-59576574D01*
X126194475Y-59661590D01*
X126201000Y-59727842D01*
X126201000Y-60272158D01*
X126194475Y-60338410D01*
X126168686Y-60423426D01*
X126126807Y-60501775D01*
X126070449Y-60570448D01*
X126001774Y-60626807D01*
X125923425Y-60668686D01*
X125838409Y-60694475D01*
X125750000Y-60703182D01*
X125661590Y-60694475D01*
X125576574Y-60668686D01*
X125498225Y-60626807D01*
X125429552Y-60570449D01*
X125373193Y-60501774D01*
X125331314Y-60423425D01*
X125305525Y-60338409D01*
X125299000Y-60272157D01*
X125299000Y-59727842D01*
X125305525Y-59661590D01*
X125331313Y-59576577D01*
X125373195Y-59498224D01*
X125429552Y-59429551D01*
X125498226Y-59373193D01*
X125576575Y-59331314D01*
X125661591Y-59305525D01*
X125750000Y-59296818D01*
X125838410Y-59305525D01*
G37*
G36*
X124588410Y-59305525D02*
G01*
X124673426Y-59331314D01*
X124751775Y-59373193D01*
X124820449Y-59429551D01*
X124876807Y-59498225D01*
X124918686Y-59576574D01*
X124944475Y-59661590D01*
X124951000Y-59727842D01*
X124951000Y-60272158D01*
X124944475Y-60338410D01*
X124918686Y-60423426D01*
X124876807Y-60501775D01*
X124820449Y-60570448D01*
X124751774Y-60626807D01*
X124673425Y-60668686D01*
X124588409Y-60694475D01*
X124500000Y-60703182D01*
X124411590Y-60694475D01*
X124326574Y-60668686D01*
X124248225Y-60626807D01*
X124179552Y-60570449D01*
X124123193Y-60501774D01*
X124081314Y-60423425D01*
X124055525Y-60338409D01*
X124049000Y-60272157D01*
X124049000Y-59727842D01*
X124055525Y-59661590D01*
X124081313Y-59576577D01*
X124123195Y-59498224D01*
X124179552Y-59429551D01*
X124248226Y-59373193D01*
X124326575Y-59331314D01*
X124411591Y-59305525D01*
X124500000Y-59296818D01*
X124588410Y-59305525D01*
G37*
G36*
X123338410Y-59305525D02*
G01*
X123423426Y-59331314D01*
X123501775Y-59373193D01*
X123570449Y-59429551D01*
X123626807Y-59498225D01*
X123668686Y-59576574D01*
X123694475Y-59661590D01*
X123701000Y-59727842D01*
X123701000Y-60272158D01*
X123694475Y-60338410D01*
X123668686Y-60423426D01*
X123626807Y-60501775D01*
X123570449Y-60570448D01*
X123501774Y-60626807D01*
X123423425Y-60668686D01*
X123338409Y-60694475D01*
X123250000Y-60703182D01*
X123161590Y-60694475D01*
X123076574Y-60668686D01*
X122998225Y-60626807D01*
X122929552Y-60570449D01*
X122873193Y-60501774D01*
X122831314Y-60423425D01*
X122805525Y-60338409D01*
X122799000Y-60272157D01*
X122799000Y-59727842D01*
X122805525Y-59661590D01*
X122831313Y-59576577D01*
X122873195Y-59498224D01*
X122929552Y-59429551D01*
X122998226Y-59373193D01*
X123076575Y-59331314D01*
X123161591Y-59305525D01*
X123250000Y-59296818D01*
X123338410Y-59305525D01*
G37*
G36*
X127319683Y-59302725D02*
G01*
X127350143Y-59311966D01*
X127378223Y-59326974D01*
X127402831Y-59347169D01*
X127423026Y-59371777D01*
X127438034Y-59399857D01*
X127447275Y-59430317D01*
X127451000Y-59468140D01*
X127451000Y-60531860D01*
X127447275Y-60569683D01*
X127438034Y-60600143D01*
X127423026Y-60628223D01*
X127402831Y-60652831D01*
X127378223Y-60673026D01*
X127350143Y-60688034D01*
X127319683Y-60697275D01*
X127281860Y-60701000D01*
X126718140Y-60701000D01*
X126680317Y-60697275D01*
X126649857Y-60688034D01*
X126621777Y-60673026D01*
X126597169Y-60652831D01*
X126576974Y-60628223D01*
X126561966Y-60600143D01*
X126552725Y-60569683D01*
X126549000Y-60531860D01*
X126549000Y-59468140D01*
X126552725Y-59430317D01*
X126561966Y-59399857D01*
X126576974Y-59371777D01*
X126597169Y-59347169D01*
X126621777Y-59326974D01*
X126649857Y-59311966D01*
X126680317Y-59302725D01*
X126718140Y-59299000D01*
X127281860Y-59299000D01*
X127319683Y-59302725D01*
G37*
G36*
X147129591Y-58728085D02*
G01*
X147163569Y-58738393D01*
X147194890Y-58755134D01*
X147222339Y-58777661D01*
X147244866Y-58805110D01*
X147261607Y-58836431D01*
X147271915Y-58870409D01*
X147276000Y-58911890D01*
X147276000Y-59588110D01*
X147271915Y-59629591D01*
X147261607Y-59663569D01*
X147244866Y-59694890D01*
X147222339Y-59722339D01*
X147194890Y-59744866D01*
X147163569Y-59761607D01*
X147129591Y-59771915D01*
X147088110Y-59776000D01*
X146486890Y-59776000D01*
X146445409Y-59771915D01*
X146411431Y-59761607D01*
X146380110Y-59744866D01*
X146352661Y-59722339D01*
X146330134Y-59694890D01*
X146313393Y-59663569D01*
X146303085Y-59629591D01*
X146299000Y-59588110D01*
X146299000Y-58911890D01*
X146303085Y-58870409D01*
X146313393Y-58836431D01*
X146330134Y-58805110D01*
X146352661Y-58777661D01*
X146380110Y-58755134D01*
X146411431Y-58738393D01*
X146445409Y-58728085D01*
X146486890Y-58724000D01*
X147088110Y-58724000D01*
X147129591Y-58728085D01*
G37*
G36*
X145554591Y-58728085D02*
G01*
X145588569Y-58738393D01*
X145619890Y-58755134D01*
X145647339Y-58777661D01*
X145669866Y-58805110D01*
X145686607Y-58836431D01*
X145696915Y-58870409D01*
X145701000Y-58911890D01*
X145701000Y-59588110D01*
X145696915Y-59629591D01*
X145686607Y-59663569D01*
X145669866Y-59694890D01*
X145647339Y-59722339D01*
X145619890Y-59744866D01*
X145588569Y-59761607D01*
X145554591Y-59771915D01*
X145513110Y-59776000D01*
X144911890Y-59776000D01*
X144870409Y-59771915D01*
X144836431Y-59761607D01*
X144805110Y-59744866D01*
X144777661Y-59722339D01*
X144755134Y-59694890D01*
X144738393Y-59663569D01*
X144728085Y-59629591D01*
X144724000Y-59588110D01*
X144724000Y-58911890D01*
X144728085Y-58870409D01*
X144738393Y-58836431D01*
X144755134Y-58805110D01*
X144777661Y-58777661D01*
X144805110Y-58755134D01*
X144836431Y-58738393D01*
X144870409Y-58728085D01*
X144911890Y-58724000D01*
X145513110Y-58724000D01*
X145554591Y-58728085D01*
G37*
G36*
X139116000Y-58576000D02*
G01*
X138274000Y-58576000D01*
X138274000Y-56074000D01*
X139116000Y-56074000D01*
X139116000Y-58576000D01*
G37*
G36*
X140386000Y-58576000D02*
G01*
X139544000Y-58576000D01*
X139544000Y-56074000D01*
X140386000Y-56074000D01*
X140386000Y-58576000D01*
G37*
G36*
X137846000Y-58576000D02*
G01*
X137004000Y-58576000D01*
X137004000Y-56074000D01*
X137846000Y-56074000D01*
X137846000Y-58576000D01*
G37*
G36*
X136576000Y-58576000D02*
G01*
X135734000Y-58576000D01*
X135734000Y-56074000D01*
X136576000Y-56074000D01*
X136576000Y-58576000D01*
G37*
G36*
X135306000Y-58576000D02*
G01*
X134464000Y-58576000D01*
X134464000Y-56074000D01*
X135306000Y-56074000D01*
X135306000Y-58576000D01*
G37*
G36*
X145554591Y-56728085D02*
G01*
X145588569Y-56738393D01*
X145619890Y-56755134D01*
X145647339Y-56777661D01*
X145669866Y-56805110D01*
X145686607Y-56836431D01*
X145696915Y-56870409D01*
X145701000Y-56911890D01*
X145701000Y-57588110D01*
X145696915Y-57629591D01*
X145686607Y-57663569D01*
X145669866Y-57694890D01*
X145647339Y-57722339D01*
X145619890Y-57744866D01*
X145588569Y-57761607D01*
X145554591Y-57771915D01*
X145513110Y-57776000D01*
X144911890Y-57776000D01*
X144870409Y-57771915D01*
X144836431Y-57761607D01*
X144805110Y-57744866D01*
X144777661Y-57722339D01*
X144755134Y-57694890D01*
X144738393Y-57663569D01*
X144728085Y-57629591D01*
X144724000Y-57588110D01*
X144724000Y-56911890D01*
X144728085Y-56870409D01*
X144738393Y-56836431D01*
X144755134Y-56805110D01*
X144777661Y-56777661D01*
X144805110Y-56755134D01*
X144836431Y-56738393D01*
X144870409Y-56728085D01*
X144911890Y-56724000D01*
X145513110Y-56724000D01*
X145554591Y-56728085D01*
G37*
G36*
X147129591Y-56728085D02*
G01*
X147163569Y-56738393D01*
X147194890Y-56755134D01*
X147222339Y-56777661D01*
X147244866Y-56805110D01*
X147261607Y-56836431D01*
X147271915Y-56870409D01*
X147276000Y-56911890D01*
X147276000Y-57588110D01*
X147271915Y-57629591D01*
X147261607Y-57663569D01*
X147244866Y-57694890D01*
X147222339Y-57722339D01*
X147194890Y-57744866D01*
X147163569Y-57761607D01*
X147129591Y-57771915D01*
X147088110Y-57776000D01*
X146486890Y-57776000D01*
X146445409Y-57771915D01*
X146411431Y-57761607D01*
X146380110Y-57744866D01*
X146352661Y-57722339D01*
X146330134Y-57694890D01*
X146313393Y-57663569D01*
X146303085Y-57629591D01*
X146299000Y-57588110D01*
X146299000Y-56911890D01*
X146303085Y-56870409D01*
X146313393Y-56836431D01*
X146330134Y-56805110D01*
X146352661Y-56777661D01*
X146380110Y-56755134D01*
X146411431Y-56738393D01*
X146445409Y-56728085D01*
X146486890Y-56724000D01*
X147088110Y-56724000D01*
X147129591Y-56728085D01*
G37*
M02*
