M48
; DRILL file {KiCad (5.1.6)-1} date 08/05/23 22:02:31
; FORMAT={-:-/ absolute / inch / decimal}
; #@! TF.CreationDate,2023-08-05T22:02:31+03:00
; #@! TF.GenerationSoftware,Kicad,Pcbnew,(5.1.6)-1
; #@! TF.FileFunction,Plated,1,4,PTH
FMAT,2
INCH
T1C0.0157
T2C0.0177
T3C0.0197
T4C0.0236
T5C0.0512
T6C0.1693
%
G90
G05
T1
X4.3848Y-2.8563
X4.3858Y-2.6772
X4.4006Y-3.1663
X4.4656Y-3.2579
X4.5177Y-3.3691
X4.5187Y-3.3041
X4.5335Y-3.0079
X4.5709Y-3.0787
X4.5955Y-3.2205
X4.623Y-3.002
X4.625Y-3.378
X4.627Y-2.8848
X4.6457Y-3.2205
X4.6565Y-3.0719
X4.7244Y-2.8465
X4.7854Y-3.4951
X4.8022Y-2.8524
X4.8307Y-2.811
X4.8701Y-2.8848
X4.8858Y-3.4961
X5.0197Y-2.811
X5.0837Y-2.747
X5.0846Y-3.1604
X5.122Y-3.4606
X5.1594Y-3.5423
X5.187Y-2.9134
X5.2175Y-3.436
X5.2205Y-2.9833
X5.2756Y-2.9528
X5.311Y-2.19
X5.3445Y-3.6063
X5.3445Y-3.6526
X5.3642Y-3.7411
X5.3652Y-3.8583
X5.4104Y-2.1909
X5.4518Y-3.7421
X5.4518Y-3.8602
X5.4616Y-2.1909
X5.4813Y-3.6526
X5.4823Y-3.6093
X5.5098Y-2.1909
X5.56Y-3.7077
X5.56Y-3.8789
X5.561Y-3.7618
X5.561Y-3.8307
X5.5846Y-3.3346
X5.5856Y-3.3937
X5.6811Y-2.2559
X5.6811Y-2.3317
X5.6988Y-3.5787
X5.6988Y-3.6545
X5.6988Y-3.69
X5.7677Y-3.435
X5.7785Y-3.7037
X5.8179Y-3.7382
X5.8533Y-3.4341
X5.8652Y-3.2224
X5.8652Y-3.2923
X5.8868Y-3.4774
X5.8888Y-2.7057
X5.9232Y-3.5128
X5.9557Y-3.6033
X5.9921Y-3.6407
X6.0423Y-2.6732
X6.0423Y-2.7283
X6.0955Y-2.6732
X6.0955Y-2.7283
T3
X4.8898Y-3.8671
X4.939Y-3.8671
X4.9882Y-3.8671
X5.0374Y-3.8671
X4.8524Y-2.3622
X4.9016Y-2.3622
X4.9508Y-2.3622
X5.0Y-2.3622
T4
X4.253Y-2.313
X4.2901Y-2.2232
X4.2901Y-2.4028
X4.3799Y-2.186
X4.3799Y-2.44
X4.4697Y-2.2232
X4.4697Y-2.4028
X4.5069Y-2.313
X6.0738Y-3.9075
X6.111Y-3.8177
X6.111Y-3.9973
X6.2008Y-3.7805
X6.2008Y-4.0344
X6.2906Y-3.8177
X6.2906Y-3.9973
X6.3278Y-3.9075
X4.253Y-3.9075
X4.2901Y-3.8177
X4.2901Y-3.9973
X4.3799Y-3.7805
X4.3799Y-4.0344
X4.4697Y-3.8177
X4.4697Y-3.9973
X4.5069Y-3.9075
X6.0738Y-2.3228
X6.111Y-2.2331
X6.111Y-2.4126
X6.2008Y-2.1959
X6.2008Y-2.4498
X6.2906Y-2.2331
X6.2906Y-2.4126
X6.3278Y-2.3228
T5
X6.1614Y-3.3563
X6.1614Y-3.5531
T6
X4.3799Y-2.313
X6.2008Y-3.9075
X4.3799Y-3.9075
X6.2008Y-2.3228
T2
G00X6.2323Y-2.6388
M15
G01X6.2638Y-2.6388
M16
G05
G00X6.2638Y-2.9203
M15
G01X6.2323Y-2.9203
M16
G05
T0
M30
